<svg width="369" height="356" viewBox="0 0 369 356" fill="none" xmlns="http://www.w3.org/2000/svg">
<path d="M176.736 228.688L183.834 306.777H153.547L160.646 228.688H176.736Z" fill="url(#paint0_linear_6241_5051)"/>
<path d="M222.393 159.832L217.349 161.786L234.932 203.326L239.976 201.373L222.393 159.832Z" fill="#42E8E0"/>
<path d="M125.627 156.711C135.036 156.711 142.663 149.415 142.663 140.414C142.663 131.414 135.036 124.117 125.627 124.117C116.217 124.117 108.59 131.414 108.59 140.414C108.59 149.415 116.217 156.711 125.627 156.711Z" fill="url(#paint1_linear_6241_5051)"/>
<path d="M213.649 164.632C213.649 196.32 194.009 222.123 169.637 222.123C145.265 222.123 125.626 196.32 125.626 164.632C125.626 132.944 145.265 123.438 169.637 123.438C194.009 123.438 213.649 132.944 213.649 164.632Z" fill="url(#paint2_linear_6241_5051)"/>
<path d="M190.933 152.184C179.102 158.748 160.173 158.748 148.342 152.184C136.51 145.62 136.51 135.208 148.342 128.644C160.173 122.08 179.102 122.08 190.933 128.644C202.765 135.208 202.765 145.846 190.933 152.184Z" fill="url(#paint3_linear_6241_5051)"/>
<path d="M148.341 133.171C160.172 126.607 179.102 126.607 190.933 133.171C195.902 135.887 198.742 139.282 199.452 142.677C200.635 137.698 197.795 132.492 190.933 128.644C179.102 122.08 160.172 122.08 148.341 128.644C141.479 132.492 138.64 137.698 139.823 142.677C140.769 139.282 143.609 135.887 148.341 133.171Z" fill="#1E6672"/>
<path d="M219.801 177.08C229.211 177.08 236.838 169.784 236.838 160.783C236.838 151.783 229.211 144.486 219.801 144.486C210.392 144.486 202.765 151.783 202.765 160.783C202.765 169.784 210.392 177.08 219.801 177.08Z" fill="url(#paint4_linear_6241_5051)"/>
<path d="M220.275 177.307C229.684 177.307 237.312 170.01 237.312 161.01C237.312 152.009 229.684 144.713 220.275 144.713C210.866 144.713 203.239 152.009 203.239 161.01C203.239 170.01 210.866 177.307 220.275 177.307Z" fill="url(#paint5_linear_6241_5051)"/>
<path d="M247.013 214.88C246.067 222.576 238.968 237.289 232.343 236.609C225.954 235.93 222.641 219.86 223.588 212.164C224.534 204.468 230.686 198.81 237.075 199.489C243.464 200.168 247.96 207.185 247.013 214.88Z" fill="url(#paint6_radial_6241_5051)"/>
<path d="M247.013 214.88C246.067 222.576 238.968 237.289 232.343 236.609C225.954 235.93 222.641 219.86 223.588 212.164C224.534 204.468 230.686 198.81 237.075 199.489C243.464 200.168 247.96 207.185 247.013 214.88Z" fill="url(#paint7_linear_6241_5051)"/>
<path d="M182.416 228.689H155.678L157.808 220.088H180.05L182.416 228.689Z" fill="#23ABD8"/>
<path opacity="0.47" d="M180.049 220.088H173.424L174.607 228.689H182.415L180.049 220.088Z" fill="#96CCCA"/>
<path opacity="0.47" d="M157.808 220.088H164.433L163.486 228.689H155.678L157.808 220.088Z" fill="#96CCCA"/>
<path d="M101.964 175.723C100.544 176.402 99.125 175.723 98.415 174.591C97.941 173.685 98.178 172.78 98.651 172.101L121.604 143.355C122.55 142.223 124.206 141.997 125.153 142.902C126.336 143.808 126.573 145.392 125.626 146.298L102.674 174.817C102.674 175.27 102.201 175.496 101.964 175.723Z" fill="#42E8E0"/>
<path d="M106.46 183.871C101.964 189.756 88.713 198.81 83.744 195.188C78.7749 191.567 83.744 177.081 88.476 171.196C92.972 165.311 100.781 163.274 105.75 166.669C110.719 170.29 111.192 177.986 106.46 183.871Z" fill="url(#paint8_radial_6241_5051)"/>
<path d="M106.46 183.871C101.964 189.756 88.713 198.81 83.744 195.188C78.7749 191.567 83.744 177.081 88.476 171.196C92.972 165.311 100.781 163.274 105.75 166.669C110.719 170.29 111.192 177.986 106.46 183.871Z" fill="url(#paint9_linear_6241_5051)"/>
<path d="M149.998 127.058C161.119 120.947 179.102 120.947 190.224 127.058C194.72 129.548 197.559 132.717 198.269 136.112C199.452 131.359 196.612 126.379 190.224 122.984C179.102 116.873 161.119 116.873 149.998 122.984C143.373 126.605 140.77 131.585 141.953 136.112C142.663 132.717 145.266 129.548 149.998 127.058Z" fill="#1E6672"/>
<path d="M157.57 75.9033C157.57 83.1464 152.128 92.2002 145.503 95.8217C138.877 99.443 133.435 96.501 133.435 89.2577C133.435 82.0146 138.877 72.9608 145.503 69.3393C152.128 65.4914 157.57 68.4339 157.57 75.9033Z" fill="#BCBEFF"/>
<path d="M164.669 85.8633C164.196 88.3531 164.669 91.9746 170.111 94.4644C180.759 99.67 189.278 91.7483 194.72 95.3698C198.742 98.086 196.849 106.461 186.911 109.63C176.5 113.025 163.486 110.761 162.539 100.802C162.539 96.954 162.776 93.1063 163.486 89.4848C163.722 88.3531 164.196 86.995 164.669 85.8633Z" fill="#19212C"/>
<path d="M169.401 55.0801C150.471 55.0801 133.908 66.85 128.465 84.0523C130.122 84.505 130.595 85.8631 130.595 87.4475C130.122 91.069 129.175 94.4642 129.175 98.086C129.175 99.444 128.229 100.576 127.046 100.802C129.885 123.21 151.181 139.054 174.607 136.338C198.032 133.622 214.596 113.251 211.756 90.8427C209.153 70.4716 190.933 55.0801 169.401 55.0801Z" fill="url(#paint10_linear_6241_5051)"/>
<path d="M169.401 56.2109C150.708 56.2109 134.381 67.7546 128.702 84.9568C130.122 85.1831 131.068 86.7676 130.832 88.1256C130.832 88.1256 130.832 88.1256 130.832 88.352C129.885 92.1999 128.465 96.727 129.648 100.801C130.122 102.612 128.939 103.97 127.282 104.196C131.305 126.378 153.311 141.317 176.5 137.469C199.688 133.621 215.305 112.571 211.283 90.3891C207.97 70.4707 190.224 56.2109 169.401 56.2109Z" fill="url(#paint11_linear_6241_5051)"/>
<path d="M181.705 100.349C181.705 100.123 181.705 99.8964 181.705 99.6704L181.469 98.9914C181.469 98.5384 181.232 98.0864 180.995 97.8594C180.522 101.481 178.392 105.329 174.606 108.498C164.668 116.646 147.395 118.457 136.037 112.798C131.778 110.761 128.939 107.819 127.519 104.65C127.755 106.008 127.992 107.366 128.465 108.724C128.939 110.082 129.648 111.44 130.358 112.572C130.595 112.798 130.832 113.251 131.068 113.477C132.724 115.062 134.617 116.42 136.747 117.325C148.341 122.984 165.615 120.947 175.316 113.025C179.812 108.95 181.942 104.423 181.705 100.349Z" fill="#1E6672"/>
<path d="M178.156 93.559C169.638 87.674 155.914 100.349 138.877 91.9746C131.542 88.3531 130.122 83.5998 130.122 79.752C129.412 81.5627 128.703 83.3735 128.229 85.1842C127.283 90.6165 126.81 96.275 126.81 101.934C127.993 117.778 149.052 121.626 165.852 116.194C181.706 111.214 184.782 98.086 178.156 93.559Z" fill="url(#paint12_linear_6241_5051)"/>
<path d="M133.434 103.291C133.671 103.291 133.907 103.065 133.907 102.839C133.907 102.386 133.671 101.707 132.961 101.48H132.724C132.488 101.48 132.251 101.707 132.251 101.933C132.251 102.386 132.488 103.065 133.197 103.291H133.434Z" fill="url(#paint13_radial_6241_5051)"/>
<path d="M135.564 106.914C134.38 107.366 132.487 106.008 131.068 103.518C129.648 101.029 129.411 98.5388 130.594 97.8598C131.778 97.4068 133.671 98.7648 135.09 101.255C136.51 103.745 136.747 106.234 135.564 106.914Z" fill="#00FF3C"/>
<path d="M133.434 103.291C133.671 103.291 133.907 103.065 133.907 102.839C133.907 102.386 133.671 101.707 132.961 101.48H132.724C132.488 101.48 132.251 101.707 132.251 101.933C132.251 102.386 132.488 103.065 133.197 103.291H133.434Z" fill="url(#paint14_radial_6241_5051)"/>
<path d="M133.434 100.576C133.671 100.576 133.907 100.35 133.907 100.124C133.907 99.6706 133.671 98.9916 132.961 98.7656H132.724C132.488 98.7656 132.251 98.9916 132.251 99.2176C132.251 99.6706 132.488 100.35 133.197 100.576C133.197 100.35 133.434 100.35 133.434 100.576Z" fill="url(#paint15_radial_6241_5051)"/>
<path d="M135.559 104.06C136.707 103.463 136.472 100.931 135.035 98.4058C133.598 95.881 131.502 94.3187 130.354 94.9165C129.207 95.5142 129.442 98.0458 130.879 100.571C132.316 103.096 134.412 104.658 135.559 104.06Z" fill="#00FF3C"/>
<path d="M133.434 100.576C133.671 100.576 133.907 100.35 133.907 100.124C133.907 99.6706 133.671 98.9916 132.961 98.7656H132.724C132.488 98.7656 132.251 98.9916 132.251 99.2176C132.251 99.6706 132.488 100.35 133.197 100.576C133.197 100.35 133.434 100.35 133.434 100.576Z" fill="url(#paint16_radial_6241_5051)"/>
<path d="M133.434 97.406C133.671 97.406 133.907 97.18 133.907 96.954C133.907 96.501 133.671 95.822 132.961 95.5957H132.724C132.488 95.5957 132.251 95.8221 132.251 96.048C132.251 96.501 132.488 97.18 133.197 97.406C133.197 97.406 133.197 97.406 133.434 97.406Z" fill="url(#paint17_radial_6241_5051)"/>
<path d="M135.564 101.029C134.38 101.481 132.487 100.123 131.068 97.634C129.648 95.1438 129.411 92.654 130.594 91.9749C131.778 91.5222 133.671 92.8803 135.09 95.3701C136.51 98.086 136.747 100.576 135.564 101.029Z" fill="#00FF3C"/>
<path d="M133.434 97.406C133.671 97.406 133.907 97.18 133.907 96.954C133.907 96.501 133.671 95.822 132.961 95.5957H132.724C132.488 95.5957 132.251 95.8221 132.251 96.048C132.251 96.501 132.488 97.18 133.197 97.406C133.197 97.406 133.197 97.406 133.434 97.406Z" fill="url(#paint18_radial_6241_5051)"/>
<path d="M135.564 106.914C134.38 107.366 132.487 106.008 131.068 103.518C129.648 101.029 129.411 98.5388 130.594 97.8598C131.778 97.4068 133.671 98.7648 135.09 101.255C136.51 103.745 136.747 106.234 135.564 106.914Z" fill="#42E8E0"/>
<path d="M135.559 104.06C136.707 103.463 136.472 100.931 135.035 98.4058C133.598 95.881 131.502 94.3187 130.354 94.9165C129.207 95.5142 129.442 98.0458 130.879 100.571C132.316 103.096 134.412 104.658 135.559 104.06Z" fill="#42E8E0"/>
<path d="M135.564 101.029C134.38 101.481 132.487 100.123 131.068 97.634C129.648 95.1438 129.411 92.654 130.594 91.9749C131.778 91.5222 133.671 92.8803 135.09 95.3701C136.51 98.086 136.747 100.576 135.564 101.029Z" fill="#42E8E0"/>
<path d="M147.868 110.082C148.105 110.082 148.341 109.856 148.341 109.63C148.341 109.177 148.105 108.498 147.395 108.271H147.158C146.922 108.271 146.685 108.498 146.685 108.724C146.685 109.177 146.922 109.856 147.632 110.082C147.632 109.856 147.868 110.082 147.868 110.082Z" fill="url(#paint19_radial_6241_5051)"/>
<path d="M150.234 113.478C149.051 113.931 147.158 112.573 145.739 110.083C144.319 107.593 144.082 105.103 145.265 104.424C146.448 103.971 148.341 105.33 149.761 107.819C151.181 110.309 151.181 113.025 150.234 113.478Z" fill="#00FF3C"/>
<path d="M147.868 110.082C148.105 110.082 148.341 109.856 148.341 109.63C148.341 109.177 148.105 108.498 147.395 108.271H147.158C146.922 108.271 146.685 108.498 146.685 108.724C146.685 109.177 146.922 109.856 147.632 110.082C147.632 109.856 147.868 110.082 147.868 110.082Z" fill="url(#paint20_radial_6241_5051)"/>
<path d="M147.868 107.139C148.105 107.139 148.341 106.913 148.341 106.686C148.341 106.234 148.105 105.554 147.395 105.328H147.158C146.922 105.328 146.685 105.554 146.685 105.781C146.685 106.234 146.922 106.913 147.632 107.139H147.868Z" fill="url(#paint21_radial_6241_5051)"/>
<path d="M150.271 110.773C151.418 110.175 151.184 107.643 149.746 105.118C148.309 102.593 146.213 101.031 145.066 101.629C143.918 102.226 144.153 104.758 145.59 107.283C147.028 109.808 149.123 111.371 150.271 110.773Z" fill="#00FF3C"/>
<path d="M147.868 107.139C148.105 107.139 148.341 106.913 148.341 106.686C148.341 106.234 148.105 105.554 147.395 105.328H147.158C146.922 105.328 146.685 105.554 146.685 105.781C146.685 106.234 146.922 106.913 147.632 107.139H147.868Z" fill="url(#paint22_radial_6241_5051)"/>
<path d="M147.868 104.197C148.105 104.197 148.341 103.971 148.341 103.745C148.341 103.292 148.105 102.613 147.395 102.387H147.158C146.922 102.387 146.685 102.613 146.685 102.839C146.685 103.292 146.922 103.971 147.632 104.197H147.868Z" fill="url(#paint23_radial_6241_5051)"/>
<path d="M150.234 107.819C149.051 108.272 147.158 106.914 145.739 104.424C144.319 101.934 144.082 99.4441 145.265 98.7651C146.448 98.0861 148.341 99.6711 149.761 102.16C150.944 104.65 151.181 107.14 150.234 107.819Z" fill="#00FF3C"/>
<path d="M147.868 104.197C148.105 104.197 148.341 103.971 148.341 103.745C148.341 103.292 148.105 102.613 147.395 102.387H147.158C146.922 102.387 146.685 102.613 146.685 102.839C146.685 103.292 146.922 103.971 147.632 104.197H147.868Z" fill="url(#paint24_radial_6241_5051)"/>
<path d="M150.234 113.478C149.051 113.931 147.158 112.573 145.739 110.083C144.319 107.593 144.082 105.103 145.265 104.424C146.448 103.971 148.341 105.33 149.761 107.819C151.181 110.309 151.181 113.025 150.234 113.478Z" fill="#42E8E0"/>
<path d="M150.271 110.773C151.418 110.175 151.184 107.643 149.746 105.118C148.309 102.593 146.213 101.031 145.066 101.629C143.918 102.226 144.153 104.758 145.59 107.283C147.028 109.808 149.123 111.371 150.271 110.773Z" fill="#42E8E0"/>
<path d="M150.234 107.819C149.051 108.272 147.158 106.914 145.739 104.424C144.319 101.934 144.082 99.4441 145.265 98.7651C146.448 98.0861 148.341 99.6711 149.761 102.16C150.944 104.65 151.181 107.14 150.234 107.819Z" fill="#42E8E0"/>
<defs>
<linearGradient id="paint0_linear_6241_5051" x1="168.669" y1="228.719" x2="168.669" y2="306.737" gradientUnits="userSpaceOnUse">
<stop stop-color="white"/>
<stop offset="1" stop-color="#C9C9C9" stop-opacity="0"/>
</linearGradient>
<linearGradient id="paint1_linear_6241_5051" x1="108.743" y1="137.317" x2="142.132" y2="144.227" gradientUnits="userSpaceOnUse">
<stop stop-color="#F7F7F7"/>
<stop offset="0.55" stop-color="#F2F2F9"/>
<stop offset="1" stop-color="#E9E9FD"/>
</linearGradient>
<linearGradient id="paint2_linear_6241_5051" x1="125.556" y1="172.746" x2="213.739" y2="172.746" gradientUnits="userSpaceOnUse">
<stop stop-color="#F7F7F7"/>
<stop offset="0.55" stop-color="#F2F2F9"/>
<stop offset="1" stop-color="#E9E9FD"/>
</linearGradient>
<linearGradient id="paint3_linear_6241_5051" x1="139.577" y1="140.491" x2="199.751" y2="140.491" gradientUnits="userSpaceOnUse">
<stop stop-color="#42E8E0"/>
<stop offset="0.18" stop-color="#41E3DD"/>
<stop offset="0.38" stop-color="#3CD5D3"/>
<stop offset="0.61" stop-color="#35BDC3"/>
<stop offset="0.84" stop-color="#2C9CAD"/>
<stop offset="1" stop-color="#24819B"/>
</linearGradient>
<linearGradient id="paint4_linear_6241_5051" x1="203.01" y1="157.679" x2="236.4" y2="164.588" gradientUnits="userSpaceOnUse">
<stop stop-color="#F7F7F7"/>
<stop offset="0.55" stop-color="#F2F2F9"/>
<stop offset="1" stop-color="#E9E9FD"/>
</linearGradient>
<linearGradient id="paint5_linear_6241_5051" x1="206.47" y1="170.553" x2="233.244" y2="150.217" gradientUnits="userSpaceOnUse">
<stop stop-color="#F7F7F7"/>
<stop offset="0.55" stop-color="#F2F2F9"/>
<stop offset="1" stop-color="#E9E9FD"/>
</linearGradient>
<radialGradient id="paint6_radial_6241_5051" cx="0" cy="0" r="1" gradientUnits="userSpaceOnUse" gradientTransform="translate(235.404 219.188) rotate(6.59578) scale(11.8243 18.665)">
<stop stop-color="#2BB675"/>
<stop offset="1" stop-color="#14444F"/>
</radialGradient>
<linearGradient id="paint7_linear_6241_5051" x1="221.697" y1="216.614" x2="245.118" y2="219.621" gradientUnits="userSpaceOnUse">
<stop stop-color="#F7F7F7"/>
<stop offset="0.55" stop-color="#F2F2F9"/>
<stop offset="1" stop-color="#E9E9FD"/>
</linearGradient>
<radialGradient id="paint8_radial_6241_5051" cx="0" cy="0" r="1" gradientUnits="userSpaceOnUse" gradientTransform="translate(117.108 147.466) rotate(35.4115) scale(28.4036 46.0681)">
<stop stop-color="#2BB675"/>
<stop offset="1" stop-color="#23ABD8"/>
</radialGradient>
<linearGradient id="paint9_linear_6241_5051" x1="106.402" y1="175.355" x2="81.366" y2="180.23" gradientUnits="userSpaceOnUse">
<stop stop-color="#F7F7F7"/>
<stop offset="0.55" stop-color="#F2F2F9"/>
<stop offset="1" stop-color="#E9E9FD"/>
</linearGradient>
<linearGradient id="paint10_linear_6241_5051" x1="126.768" y1="95.8592" x2="212.004" y2="95.8592" gradientUnits="userSpaceOnUse">
<stop stop-color="#F7F7F7"/>
<stop offset="0.55" stop-color="#F2F2F9"/>
<stop offset="1" stop-color="#E9E9FD"/>
</linearGradient>
<linearGradient id="paint11_linear_6241_5051" x1="163.877" y1="137.317" x2="174.752" y2="56.4349" gradientUnits="userSpaceOnUse">
<stop stop-color="#F7F7F7"/>
<stop offset="0.55" stop-color="#F2F2F9"/>
<stop offset="1" stop-color="#E9E9FD"/>
</linearGradient>
<linearGradient id="paint12_linear_6241_5051" x1="126.892" y1="99.208" x2="181.426" y2="99.208" gradientUnits="userSpaceOnUse">
<stop stop-color="#00ACBF"/>
<stop offset="0.29" stop-color="#04A7BB"/>
<stop offset="0.63" stop-color="#1099AF"/>
<stop offset="1" stop-color="#24819B"/>
</linearGradient>
<radialGradient id="paint13_radial_6241_5051" cx="0" cy="0" r="1" gradientUnits="userSpaceOnUse" gradientTransform="translate(133.051 102.333) rotate(180) scale(0.924014 0.883876)">
<stop stop-color="white"/>
<stop offset="1" stop-color="#95FDA8"/>
</radialGradient>
<radialGradient id="paint14_radial_6241_5051" cx="0" cy="0" r="1" gradientUnits="userSpaceOnUse" gradientTransform="translate(133.051 102.333) rotate(180) scale(0.924014 0.883876)">
<stop stop-color="white"/>
<stop offset="1" stop-color="#95FDA8"/>
</radialGradient>
<radialGradient id="paint15_radial_6241_5051" cx="0" cy="0" r="1" gradientUnits="userSpaceOnUse" gradientTransform="translate(133.047 99.4656) scale(0.923304 0.883201)">
<stop stop-color="white"/>
<stop offset="1" stop-color="#95FDA8"/>
</radialGradient>
<radialGradient id="paint16_radial_6241_5051" cx="0" cy="0" r="1" gradientUnits="userSpaceOnUse" gradientTransform="translate(133.047 99.4656) scale(0.923304 0.883201)">
<stop stop-color="white"/>
<stop offset="1" stop-color="#95FDA8"/>
</radialGradient>
<radialGradient id="paint17_radial_6241_5051" cx="0" cy="0" r="1" gradientUnits="userSpaceOnUse" gradientTransform="translate(133.036 96.516) scale(0.924961 0.884785)">
<stop stop-color="white"/>
<stop offset="1" stop-color="#95FDA8"/>
</radialGradient>
<radialGradient id="paint18_radial_6241_5051" cx="0" cy="0" r="1" gradientUnits="userSpaceOnUse" gradientTransform="translate(133.036 96.516) scale(0.924961 0.884785)">
<stop stop-color="white"/>
<stop offset="1" stop-color="#95FDA8"/>
</radialGradient>
<radialGradient id="paint19_radial_6241_5051" cx="0" cy="0" r="1" gradientUnits="userSpaceOnUse" gradientTransform="translate(147.576 109.002) scale(0.92496 0.884785)">
<stop stop-color="white"/>
<stop offset="1" stop-color="#95FDA8"/>
</radialGradient>
<radialGradient id="paint20_radial_6241_5051" cx="0" cy="0" r="1" gradientUnits="userSpaceOnUse" gradientTransform="translate(147.576 109.002) scale(0.92496 0.884785)">
<stop stop-color="white"/>
<stop offset="1" stop-color="#95FDA8"/>
</radialGradient>
<radialGradient id="paint21_radial_6241_5051" cx="0" cy="0" r="1" gradientUnits="userSpaceOnUse" gradientTransform="translate(147.576 106.135) scale(0.923312 0.883209)">
<stop stop-color="white"/>
<stop offset="1" stop-color="#95FDA8"/>
</radialGradient>
<radialGradient id="paint22_radial_6241_5051" cx="0" cy="0" r="1" gradientUnits="userSpaceOnUse" gradientTransform="translate(147.576 106.135) scale(0.923312 0.883209)">
<stop stop-color="white"/>
<stop offset="1" stop-color="#95FDA8"/>
</radialGradient>
<radialGradient id="paint23_radial_6241_5051" cx="0" cy="0" r="1" gradientUnits="userSpaceOnUse" gradientTransform="translate(147.564 103.187) scale(0.92496 0.884778)">
<stop stop-color="white"/>
<stop offset="1" stop-color="#95FDA8"/>
</radialGradient>
<radialGradient id="paint24_radial_6241_5051" cx="0" cy="0" r="1" gradientUnits="userSpaceOnUse" gradientTransform="translate(147.564 103.187) scale(0.92496 0.884778)">
<stop stop-color="white"/>
<stop offset="1" stop-color="#95FDA8"/>
</radialGradient>
</defs>
</svg>
