<svg width="57" height="57" viewBox="0 0 57 57" fill="none" xmlns="http://www.w3.org/2000/svg">
  <rect width="57" height="57" rx="28.5" fill="black" />
  <path
    d="M37.04 14.6006L30.7802 24.3085C30.3474 24.9696 31.1798 25.7699 31.7791 25.2132L37.939 19.6111C38.1054 19.4719 38.3385 19.5763 38.3385 19.8199V37.3219C38.3385 37.5655 38.0388 37.6699 37.9057 37.4959L19.2597 14.183C18.6604 13.4175 17.7947 13 16.8291 13H16.1632C14.4317 13 13 14.4962 13 16.3404V40.9754C13 42.8196 14.4317 44.3158 16.1964 44.3158C17.2952 44.3158 18.3274 43.7243 18.9267 42.7152L25.1865 33.0073C25.6193 32.3462 24.7869 31.5459 24.1876 32.1026L18.0277 37.6699C17.8613 37.8091 17.6282 37.7047 17.6282 37.4611V19.9939C17.6282 19.7503 17.9279 19.6459 18.061 19.8199L36.707 43.1327C37.3063 43.8982 38.2053 44.3158 39.1376 44.3158H39.8036C41.5683 44.3158 43 42.8196 43 40.9754V16.3404C43 14.4962 41.5683 13 39.8036 13C38.6715 13 37.6393 13.5915 37.04 14.6006Z"
    fill="white" />
</svg>