<svg width="26" height="26" viewBox="0 0 26 26" fill="none" xmlns="http://www.w3.org/2000/svg">
<g clip-path="url(#clip0)">
<path d="M24.6402 17.9996L23.0702 23.1043L19.988 22.2937L24.6402 17.9996Z" fill="#E4761B" stroke="#E4761B" stroke-width="0.0604062"/>
<path d="M19.988 22.2937L22.9608 18.377L24.6402 17.9996L19.988 22.2937Z" fill="#E4761B" stroke="#E4761B" stroke-width="0.0604062"/>
<path d="M22.3301 14.1509L24.6402 17.9995L22.9607 18.377L22.3301 14.1509ZM22.3301 14.1509L23.8165 13.1609L24.6402 17.9995L22.3301 14.1509Z" fill="#F6851B" stroke="#F6851B" stroke-width="0.0604062"/>
<path d="M20.4385 11.2427L24.7111 9.55969L24.4987 10.4816L20.4385 11.2427ZM24.3636 11.5892L20.4385 11.2427L24.4987 10.4816L24.3636 11.5892Z" fill="#763D16" stroke="#763D16" stroke-width="0.0604062"/>
<path d="M24.3636 11.5892L23.8167 13.1608L20.4385 11.2427L24.3636 11.5892ZM25.2194 9.94951L24.4987 10.4816L24.7111 9.55969L25.2194 9.94951ZM24.3636 11.5892L24.4987 10.4816L25.0714 10.9395L24.3636 11.5892Z" fill="#763D16" stroke="#763D16" stroke-width="0.0604062"/>
<path d="M16.6742 21.0499L17.7423 21.3779L19.988 22.2936L16.6742 21.0499Z" fill="#E2761B" stroke="#E2761B" stroke-width="0.0604062"/>
<path d="M23.8166 13.1609L24.3636 11.5892L24.8333 11.9357L23.8166 13.1609ZM23.8166 13.1609L19.3832 11.7563L20.4385 11.2427L23.8166 13.1609Z" fill="#763D16" stroke="#763D16" stroke-width="0.0604062"/>
<path d="M21.4937 6.42267L20.4385 11.2428L19.3832 11.7563L21.4937 6.42267Z" fill="#763D16" stroke="#763D16" stroke-width="0.0604062"/>
<path d="M24.7111 9.55975L20.4385 11.2428L21.4938 6.42267L24.7111 9.55975Z" fill="#763D16" stroke="#763D16" stroke-width="0.0604062"/>
<path d="M21.4937 6.42261L25.9528 5.92761L24.711 9.55969L21.4937 6.42261Z" fill="#763D16" stroke="#763D16" stroke-width="0.0604062"/>
<path d="M23.8166 13.1609L22.3302 14.1509L19.3832 11.7563L23.8166 13.1609Z" fill="#F6851B" stroke="#F6851B" stroke-width="0.0604062"/>
<path d="M25.7598 2.45642L25.9528 5.92763L21.4937 6.42263L25.7598 2.45642Z" fill="#763D16" stroke="#763D16" stroke-width="0.0604062"/>
<path d="M25.7598 2.45642L16.8479 8.68726L16.7321 4.46118L25.7598 2.45642Z" fill="#E2761B" stroke="#E2761B" stroke-width="0.0604062"/>
<path d="M10.1045 3.95386L16.7321 4.46123L16.848 8.68732L10.1045 3.95386Z" fill="#F6851B" stroke="#F6851B" stroke-width="0.0604062"/>
<path d="M19.3831 11.7563L16.8478 8.6873L21.4936 6.42267L19.3831 11.7563Z" fill="#763D16" stroke="#763D16" stroke-width="0.0604062"/>
<path d="M19.3831 11.7563L22.3302 14.1509L18.1927 14.5902L19.3831 11.7563Z" fill="#E4761B" stroke="#E4761B" stroke-width="0.0604062"/>
<path d="M18.1927 14.5902L16.8478 8.68732L19.3831 11.7563L18.1927 14.5902Z" fill="#E4761B" stroke="#E4761B" stroke-width="0.0604062"/>
<path d="M21.4936 6.42263L16.8478 8.68726L25.7598 2.45642L21.4936 6.42263Z" fill="#763D16" stroke="#763D16" stroke-width="0.0604062"/>
<path d="M10.1624 22.1946L12.2665 24.3046L9.40308 21.7986L10.1624 22.1946Z" fill="#C0AD9E" stroke="#C0AD9E" stroke-width="0.0604062"/>
<path d="M19.988 22.2937L20.9853 18.6493L22.9608 18.377L19.988 22.2937Z" fill="#CD6116" stroke="#CD6116" stroke-width="0.0604062"/>
<path d="M1.63007 12.0409L5.27206 8.35931L2.09979 11.6016L1.63007 12.0409Z" fill="#E2761B" stroke="#E2761B" stroke-width="0.0604062"/>
<path d="M22.9609 18.377L20.9854 18.6492L22.3303 14.1509L22.9609 18.377ZM16.848 8.68732L13.3025 8.57594L10.1045 3.95386L16.848 8.68732Z" fill="#F6851B" stroke="#F6851B" stroke-width="0.0604062"/>
<path d="M22.3301 14.1509L20.9852 18.6492L20.8759 16.4526L22.3301 14.1509Z" fill="#E4751F" stroke="#E4751F" stroke-width="0.0604062"/>
<path d="M18.1927 14.5902L22.3302 14.1509L20.8759 16.4526L18.1927 14.5902Z" fill="#CD6116" stroke="#CD6116" stroke-width="0.0604062"/>
<path d="M13.3025 8.57593L16.848 8.6873L18.1928 14.5902L13.3025 8.57593Z" fill="#F6851B" stroke="#F6851B" stroke-width="0.0604062"/>
<path d="M13.3025 8.57691L3.73421 0.0628662L10.1045 3.95482L13.3025 8.57691ZM10.0981 23.4889L1.78452 25.9639L0.12439 19.8692L10.0981 23.4889Z" fill="#E4761B" stroke="#E4761B" stroke-width="0.0604062"/>
<path d="M2.86548 13.5631L6.00557 11.1932L8.63733 11.7811L2.86548 13.5631Z" fill="#763D16" stroke="#763D16" stroke-width="0.0604062"/>
<path d="M8.63731 11.7811L6.00555 11.1933L7.41474 5.59973L8.63731 11.7811Z" fill="#763D16" stroke="#763D16" stroke-width="0.0604062"/>
<path d="M2.09973 11.6016L6.00555 11.1932L2.86545 13.5631L2.09973 11.6016Z" fill="#763D16" stroke="#763D16" stroke-width="0.0604062"/>
<path d="M20.8759 16.4527L19.2544 15.6668L18.1927 14.5902L20.8759 16.4527Z" fill="#CD6116" stroke="#CD6116" stroke-width="0.0604062"/>
<path d="M2.09975 11.6016L1.82306 10.197L6.00556 11.1932L2.09975 11.6016Z" fill="#763D16" stroke="#763D16" stroke-width="0.0604062"/>
<path d="M18.9199 17.4365L19.2545 15.6669L20.876 16.4527L18.9199 17.4365Z" fill="#233447" stroke="#233447" stroke-width="0.0604062"/>
<path d="M20.9854 18.6491L18.9199 17.4364L20.876 16.4526L20.9854 18.6491Z" fill="#F6851B" stroke="#F6851B" stroke-width="0.0604062"/>
<path d="M6.00547 11.1933L1.82297 10.1971L1.48193 9.01525L6.00547 11.1933ZM7.41465 5.59973L6.00547 11.1933L1.48193 9.01525L7.41465 5.59973ZM7.41465 5.59973L13.3023 8.57593L8.63723 11.7811L7.41465 5.59973Z" fill="#763D16" stroke="#763D16" stroke-width="0.0604062"/>
<path d="M8.63733 11.7811L13.3024 8.57593L15.3808 14.683L8.63733 11.7811ZM15.3808 14.683L8.93332 14.5531L8.63733 11.7811L15.3808 14.683Z" fill="#E4761B" stroke="#E4761B" stroke-width="0.0604062"/>
<path d="M2.86548 13.5631L8.63733 11.7811L8.93332 14.5531L2.86548 13.5631ZM18.1927 14.5902L15.3808 14.683L13.3024 8.57593L18.1927 14.5902Z" fill="#F6851B" stroke="#F6851B" stroke-width="0.0604062"/>
<path d="M19.2544 15.6668L18.9198 17.4365L18.1927 14.5902L19.2544 15.6668Z" fill="#CD6116" stroke="#CD6116" stroke-width="0.0604062"/>
<path d="M3.73413 0.0628662L13.3024 8.57691L7.41473 5.60071L3.73413 0.0628662Z" fill="#763D16" stroke="#763D16" stroke-width="0.0604062"/>
<path d="M0.12439 19.8682L8.1934 19.5464L10.0981 23.4879L0.12439 19.8682Z" fill="#E4761B" stroke="#E4761B" stroke-width="0.0604062"/>
<path d="M10.0981 23.4879L8.19342 19.5464L12.1571 19.3608L10.0981 23.4879Z" fill="#CD6116" stroke="#CD6116" stroke-width="0.0604062"/>
<path d="M18.9199 17.4364L20.9854 18.6491L22.1243 21.2293L18.9199 17.4364ZM8.93338 14.553L0.12439 19.8681L2.86554 13.563L8.93338 14.553ZM8.1934 19.5463L0.12439 19.8681L8.93338 14.553L8.1934 19.5463ZM18.1928 14.5901L18.7204 16.434L16.1723 16.5763L18.1928 14.5901ZM16.1723 16.5763L15.3809 14.6829L18.1928 14.5901L16.1723 16.5763Z" fill="#F6851B" stroke="#F6851B" stroke-width="0.0604062"/>
<path d="M12.2664 24.3047L10.098 23.4879L17.6393 24.7069L12.2664 24.3047Z" fill="#C0AD9E" stroke="#C0AD9E" stroke-width="0.0604062"/>
<path d="M2.86551 13.5631L1.63007 12.0409L2.09979 11.6016L2.86551 13.5631Z" fill="#763D16" stroke="#763D16" stroke-width="0.0604062"/>
<path d="M18.4951 23.8035L17.6393 24.7069L10.098 23.4879L18.4951 23.8035Z" fill="#D7C1B3" stroke="#D7C1B3" stroke-width="0.0604062"/>
<path d="M18.9005 21.5883L10.098 23.4879L12.157 19.3608L18.9005 21.5883Z" fill="#E4761B" stroke="#E4761B" stroke-width="0.0604062"/>
<path d="M10.098 23.4879L18.9005 21.5883L18.4951 23.8035L10.098 23.4879Z" fill="#D7C1B3" stroke="#D7C1B3" stroke-width="0.0604062"/>
<path d="M1.48206 9.01523L1.1925 4.25702L7.41478 5.59971L1.48206 9.01523ZM2.09979 11.6016L1.24398 10.7663L1.8231 10.197L2.09979 11.6016Z" fill="#763D16" stroke="#763D16" stroke-width="0.0604062"/>
<path d="M13.9394 15.9081L15.3807 14.683L15.1748 17.6777L13.9394 15.9081Z" fill="#CD6116" stroke="#CD6116" stroke-width="0.0604062"/>
<path d="M15.3807 14.683L13.9394 15.9081L11.8417 16.9538L15.3807 14.683Z" fill="#CD6116" stroke="#CD6116" stroke-width="0.0604062"/>
<path d="M22.1244 21.2294L21.7319 20.951L18.9199 17.4365L22.1244 21.2294Z" fill="#F6851B" stroke="#F6851B" stroke-width="0.0604062"/>
<path d="M11.8418 16.9539L8.93335 14.5531L15.3808 14.683L11.8418 16.9539Z" fill="#CD6116" stroke="#CD6116" stroke-width="0.0604062"/>
<path d="M15.1749 17.6777L15.3808 14.683L16.1723 16.5764L15.1749 17.6777Z" fill="#E4751F" stroke="#E4751F" stroke-width="0.0604062"/>
<path d="M0.960815 9.48545L1.48202 9.0152L1.82305 10.197L0.960815 9.48545Z" fill="#763D16" stroke="#763D16" stroke-width="0.0604062"/>
<path d="M15.1748 17.6777L11.8417 16.9538L13.9394 15.9081L15.1748 17.6777Z" fill="#233447" stroke="#233447" stroke-width="0.0604062"/>
<path d="M7.41478 5.6007L1.1925 4.25801L3.73418 0.0628662L7.41478 5.6007Z" fill="#763D16" stroke="#763D16" stroke-width="0.0604062"/>
<path d="M17.6393 24.7068L17.9932 25.6349L12.2664 24.3046L17.6393 24.7068Z" fill="#C0AD9E" stroke="#C0AD9E" stroke-width="0.0604062"/>
<path d="M12.157 19.3608L11.8417 16.9539L15.1748 17.6778L12.157 19.3608Z" fill="#F6851B" stroke="#F6851B" stroke-width="0.0604062"/>
<path d="M8.93335 14.5531L11.8418 16.9539L12.1571 19.3608L8.93335 14.5531Z" fill="#E4751F" stroke="#E4751F" stroke-width="0.0604062"/>
<path d="M16.1723 16.5764L18.7205 16.4341L21.7319 20.951L16.1723 16.5764ZM8.9334 14.5531L12.1571 19.3608L8.19342 19.5464L8.9334 14.5531Z" fill="#F6851B" stroke="#F6851B" stroke-width="0.0604062"/>
<path d="M16.1723 16.5764L19.3381 21.2109L15.1749 17.6778L16.1723 16.5764Z" fill="#E4751F" stroke="#E4751F" stroke-width="0.0604062"/>
<path d="M15.1749 17.6778L19.3381 21.2109L18.9006 21.5883L15.1749 17.6778Z" fill="#F6851B" stroke="#F6851B" stroke-width="0.0604062"/>
<path d="M18.9005 21.5883L12.157 19.3608L15.1749 17.6778L18.9005 21.5883ZM21.7318 20.951L19.3381 21.2109L16.1722 16.5764L21.7318 20.951Z" fill="#F6851B" stroke="#F6851B" stroke-width="0.0604062"/>
<path d="M22.3623 23.129L21.3328 25.1152L17.9932 25.6349L22.3623 23.129ZM17.9932 25.6349L17.6393 24.7068L18.4951 23.8034L17.9932 25.6349Z" fill="#C0AD9E" stroke="#C0AD9E" stroke-width="0.0604062"/>
<path d="M18.4952 23.8034L19.1258 23.5621L17.9933 25.6349L18.4952 23.8034ZM17.9933 25.6349L19.1258 23.5621L22.3625 23.129L17.9933 25.6349Z" fill="#C0AD9E" stroke="#C0AD9E" stroke-width="0.0604062"/>
<path d="M21.7318 20.951L22.5233 21.4151L20.1168 21.6935L21.7318 20.951Z" fill="#161616" stroke="#161616" stroke-width="0.0604062"/>
<path d="M20.1167 21.6935L19.3381 21.2109L21.7318 20.951L20.1167 21.6935ZM19.84 22.0586L22.7678 21.7182L22.3624 23.129L19.84 22.0586Z" fill="#161616" stroke="#161616" stroke-width="0.0604062"/>
<path d="M22.3623 23.1289L19.1256 23.5621L19.8399 22.0585L22.3623 23.1289ZM19.1256 23.5621L18.4951 23.8034L18.9004 21.5883L19.1256 23.5621ZM18.9004 21.5883L19.338 21.2108L20.1166 21.6934L18.9004 21.5883ZM22.5231 21.415L22.7676 21.7182L19.8399 22.0585L22.5231 21.415Z" fill="#161616" stroke="#161616" stroke-width="0.0604062"/>
<path d="M19.84 22.0585L20.1167 21.6935L22.5233 21.415L19.84 22.0585ZM18.9006 21.5883L19.84 22.0585L19.1258 23.5621L18.9006 21.5883Z" fill="#161616" stroke="#161616" stroke-width="0.0604062"/>
<path d="M20.1167 21.6935L19.84 22.0586L18.9006 21.5883L20.1167 21.6935Z" fill="#161616" stroke="#161616" stroke-width="0.0604062"/>
</g>
<defs>
<clipPath id="clip0">
<rect width="26" height="26" fill="white"/>
</clipPath>
</defs>
</svg>
