<svg width="117" height="146" viewBox="0 0 117 146" fill="none" xmlns="http://www.w3.org/2000/svg">
<path d="M75.6382 100.703L79.8088 146H62.0142L66.1848 100.703H75.6382Z" fill="url(#paint0_linear_5668_3976)"/>
<path d="M102.462 60.7612L99.4985 61.8944L109.829 85.9899L112.792 84.8567L102.462 60.7612Z" fill="#42E8E0"/>
<path d="M45.6096 58.9527C51.1377 58.9527 55.6191 54.7203 55.6191 49.4995C55.6191 44.2786 51.1377 40.0463 45.6096 40.0463C40.0815 40.0463 35.6001 44.2786 35.6001 49.4995C35.6001 54.7203 40.0815 58.9527 45.6096 58.9527Z" fill="url(#paint1_linear_5668_3976)"/>
<path d="M97.3242 63.5466C97.3242 81.9279 85.7855 96.8955 71.4663 96.8955C57.1471 96.8955 45.6084 81.9279 45.6084 63.5466C45.6084 45.1654 57.1471 39.651 71.4663 39.651C85.7855 39.651 97.3242 45.1654 97.3242 63.5466Z" fill="url(#paint2_linear_5668_3976)"/>
<path d="M83.98 56.3262C77.0289 60.1338 65.9073 60.1338 58.9562 56.3262C52.0052 52.5187 52.0052 46.4791 58.9562 42.6716C65.9073 38.864 77.0289 38.864 83.98 42.6716C90.931 46.4791 90.931 52.65 83.98 56.3262Z" fill="url(#paint3_linear_5668_3976)"/>
<path d="M58.9559 45.2975C65.907 41.4899 77.0287 41.4899 83.9797 45.2975C86.8991 46.873 88.5674 48.8424 88.9845 50.8118C89.6796 47.9234 88.0113 44.9036 83.9797 42.6716C77.0287 38.864 65.907 38.864 58.9559 42.6716C54.9243 44.9036 53.2561 47.9234 53.9512 50.8118C54.5073 48.8424 56.1755 46.873 58.9559 45.2975Z" fill="#1E6672"/>
<path d="M100.94 70.7679C106.469 70.7679 110.95 66.5355 110.95 61.3147C110.95 56.0938 106.469 51.8615 100.94 51.8615C95.4123 51.8615 90.9309 56.0938 90.9309 61.3147C90.9309 66.5355 95.4123 70.7679 100.94 70.7679Z" fill="url(#paint4_linear_5668_3976)"/>
<path d="M101.218 70.8995C106.746 70.8995 111.228 66.6671 111.228 61.4463C111.228 56.2254 106.746 51.993 101.218 51.993C95.6901 51.993 91.2087 56.2254 91.2087 61.4463C91.2087 66.6671 95.6901 70.8995 101.218 70.8995Z" fill="url(#paint5_linear_5668_3976)"/>
<path d="M116.926 92.6946C116.37 97.1586 112.2 105.693 108.308 105.299C104.555 104.905 102.609 95.5831 103.165 91.1191C103.721 86.655 107.335 83.3727 111.088 83.7665C114.841 84.1604 117.482 88.2306 116.926 92.6946Z" fill="url(#paint6_radial_5668_3976)"/>
<path d="M116.926 92.6946C116.37 97.1586 112.2 105.693 108.308 105.299C104.555 104.905 102.609 95.5831 103.165 91.1191C103.721 86.655 107.335 83.3727 111.088 83.7665C114.841 84.1604 117.482 88.2306 116.926 92.6946Z" fill="url(#paint7_linear_5668_3976)"/>
<path d="M78.9738 100.704H63.2644L64.5156 95.7146H77.5836L78.9738 100.704Z" fill="#23ABD8"/>
<path opacity="0.47" d="M77.5851 95.7146H73.6931L74.3881 100.704H78.975L77.5851 95.7146Z" fill="#96CCCA"/>
<path opacity="0.47" d="M64.5154 95.7146H68.4073L67.8513 100.704H63.2644L64.5154 95.7146Z" fill="#96CCCA"/>
<path d="M20.4762 67.0368C19.5547 67.1722 18.8871 66.5572 18.7014 65.812C18.6058 65.2318 18.9075 64.7715 19.2993 64.4762L37.5186 52.4696C38.2598 52.0041 39.2291 52.1588 39.5896 52.8189C40.0824 53.519 39.9186 54.4344 39.2197 54.7748L21.0427 66.6564C20.9581 66.9065 20.6509 66.9517 20.4762 67.0368Z" fill="#74FEF7"/>
<path d="M21.4676 72.2992C17.8515 74.7915 8.74348 77.5558 6.63956 74.7154C4.53565 71.8749 10.0243 64.71 13.7728 62.2577C17.3889 59.7654 22.1396 59.9588 24.2858 62.6742C26.3898 65.5146 25.2161 69.8468 21.4676 72.2992Z" fill="url(#paint8_radial_5668_3976)"/>
<g filter="url(#filter0_d_5668_3976)">
<path d="M21.4676 72.2992C17.8515 74.7915 8.74348 77.5558 6.63956 74.7154C4.53565 71.8749 10.0243 64.71 13.7728 62.2577C17.3889 59.7654 22.1396 59.9588 24.2858 62.6742C26.3898 65.5146 25.2161 69.8468 21.4676 72.2992Z" fill="url(#paint9_linear_5668_3976)"/>
</g>
<path d="M64.3775 12.0791C64.3775 16.2806 61.1806 21.5323 57.2886 23.6331C53.3967 25.7338 50.1997 24.0269 50.1997 19.8255C50.1997 15.6241 53.3967 10.3723 57.2886 8.27158C61.1806 6.03957 64.3775 7.7464 64.3775 12.0791Z" fill="#BCBEFF"/>
<path d="M68.5488 17.8564C68.2708 19.3007 68.5488 21.4014 71.7463 22.8456C78.0022 25.8654 83.007 21.2701 86.2045 23.3708C88.5678 24.9464 87.4556 29.8043 81.6168 31.6424C75.4998 33.6118 67.8537 32.2989 67.2976 26.5219C67.2976 24.2899 67.4366 22.0579 67.8537 19.9572C67.9927 19.3007 68.2708 18.5129 68.5488 17.8564Z" fill="#19212C"/>
<path d="M71.3303 0C60.2086 0 50.4772 6.82733 47.2797 16.8057C48.2528 17.0683 48.5309 17.8561 48.5309 18.7751C48.2528 20.8759 47.6967 22.8453 47.6967 24.946C47.6967 25.7338 47.1407 26.3902 46.4456 26.5215C48.1138 39.5197 60.6257 48.7103 74.3888 47.1348C88.1518 45.5593 97.8833 33.7427 96.2151 20.7446C94.6858 8.92804 83.9812 0 71.3303 0Z" fill="url(#paint10_linear_5668_3976)"/>
<path d="M71.3297 0.657715C60.3471 0.657715 50.7546 7.35374 47.4181 17.3321C48.2522 17.4634 48.8083 18.3825 48.6693 19.1703C48.6693 19.1703 48.6693 19.1703 48.6693 19.3016C48.1132 21.5336 47.2791 24.1595 47.9742 26.5228C48.2522 27.5731 47.5571 28.3609 46.584 28.4922C48.9473 41.3591 61.8763 50.0245 75.5003 47.7925C89.1244 45.5605 98.2998 33.3501 95.9364 20.4832C93.9901 8.92928 83.5636 0.657715 71.3297 0.657715Z" fill="url(#paint11_linear_5668_3976)"/>
<path d="M78.558 26.2591C78.558 26.1278 78.558 25.9965 78.558 25.8652L78.4189 25.4713C78.4189 25.2087 78.2799 24.9461 78.1409 24.8148C77.8629 26.9155 76.6117 29.1475 74.3873 30.9857C68.5485 35.7123 58.3999 36.7626 51.7269 33.4803C49.2245 32.2986 47.5563 30.5918 46.7222 28.7537C46.8612 29.5414 47.0002 30.3292 47.2783 31.117C47.5563 31.9047 47.9734 32.6925 48.3904 33.349C48.5294 33.4803 48.6685 33.7429 48.8075 33.8742C49.7806 34.7932 50.8928 35.581 52.144 36.1062C58.956 39.3885 69.1045 38.2069 74.8044 33.6116C77.4458 31.2483 78.697 28.6224 78.558 26.2591Z" fill="#1E6672"/>
<path d="M76.4737 22.3204C71.4689 18.9067 63.4057 26.2592 53.3962 21.4013C49.0866 19.3006 48.2524 16.5434 48.2524 14.3114C47.8354 15.3618 47.4183 16.4121 47.1403 17.4625C46.5842 20.6135 46.3062 23.8959 46.3062 27.1783C47.0013 36.3689 59.3741 38.6009 69.2446 35.4498C78.559 32.5614 80.3663 24.9463 76.4737 22.3204Z" fill="url(#paint12_linear_5668_3976)"/>
<path d="M50.1991 27.967C50.3381 27.967 50.4771 27.8355 50.4771 27.704C50.4771 27.441 50.3381 27.0465 49.9211 26.915H49.7821C49.6431 26.915 49.5042 27.0465 49.5042 27.178C49.5042 27.441 49.6432 27.8355 50.0601 27.967H50.1991Z" fill="url(#paint13_radial_5668_3976)"/>
<path d="M51.4506 30.0662C50.7556 30.3288 49.6436 29.541 48.8097 28.0968C47.9757 26.6526 47.8367 25.2083 48.5317 24.8144C49.2266 24.5518 50.3386 25.3396 51.1726 26.7839C52.0066 28.2281 52.1456 29.6723 51.4506 30.0662Z" fill="#00FF3C"/>
<path d="M50.1991 27.967C50.3381 27.967 50.4771 27.8355 50.4771 27.704C50.4771 27.441 50.3381 27.0465 49.9211 26.915H49.7821C49.6431 26.915 49.5042 27.0465 49.5042 27.178C49.5042 27.441 49.6432 27.8355 50.0601 27.967H50.1991Z" fill="url(#paint14_radial_5668_3976)"/>
<path d="M50.1991 26.3918C50.3381 26.3918 50.4771 26.2603 50.4771 26.1288C50.4771 25.8658 50.3381 25.4713 49.9211 25.3398H49.7821C49.6431 25.3398 49.5042 25.4713 49.5042 25.6028C49.5042 25.8658 49.6432 26.2603 50.0601 26.3918C50.0601 26.2603 50.1991 26.2603 50.1991 26.3918Z" fill="url(#paint15_radial_5668_3976)"/>
<path d="M51.442 28.4153C52.1159 28.0682 51.9786 26.599 51.1353 25.1339C50.2919 23.6687 49.0619 22.7624 48.388 23.1096C47.7141 23.4567 47.8514 24.9259 48.6947 26.391C49.5381 27.8562 50.7681 28.7625 51.442 28.4153Z" fill="#00FF3C"/>
<path d="M50.1991 26.3918C50.3381 26.3918 50.4771 26.2603 50.4771 26.1288C50.4771 25.8658 50.3381 25.4713 49.9211 25.3398H49.7821C49.6431 25.3398 49.5042 25.4713 49.5042 25.6028C49.5042 25.8658 49.6432 26.2603 50.0601 26.3918C50.0601 26.2603 50.1991 26.2603 50.1991 26.3918Z" fill="url(#paint16_radial_5668_3976)"/>
<path d="M50.1991 24.5534C50.3381 24.5534 50.4771 24.4219 50.4771 24.2904C50.4771 24.0274 50.3381 23.633 49.9211 23.5015H49.7821C49.6431 23.5015 49.5042 23.633 49.5042 23.7645C49.5042 24.0274 49.6432 24.4219 50.0601 24.5534C50.0601 24.5534 50.0601 24.5534 50.1991 24.5534Z" fill="url(#paint17_radial_5668_3976)"/>
<path d="M51.4506 26.6529C50.7556 26.9155 49.6436 26.1277 48.8097 24.6835C47.9757 23.2392 47.8367 21.795 48.5317 21.4011C49.2266 21.1385 50.3386 21.9263 51.1726 23.3705C52.0066 24.9461 52.1456 26.3903 51.4506 26.6529Z" fill="#00FF3C"/>
<path d="M50.1991 24.5534C50.3381 24.5534 50.4771 24.4219 50.4771 24.2904C50.4771 24.0274 50.3381 23.633 49.9211 23.5015H49.7821C49.6431 23.5015 49.5042 23.633 49.5042 23.7645C49.5042 24.0274 49.6432 24.4219 50.0601 24.5534C50.0601 24.5534 50.0601 24.5534 50.1991 24.5534Z" fill="url(#paint18_radial_5668_3976)"/>
<path d="M51.4506 30.0662C50.7556 30.3288 49.6436 29.541 48.8097 28.0968C47.9757 26.6526 47.8367 25.2083 48.5317 24.8144C49.2266 24.5518 50.3386 25.3396 51.1726 26.7839C52.0066 28.2281 52.1456 29.6723 51.4506 30.0662Z" fill="#42E8E0"/>
<path d="M51.442 28.4153C52.1159 28.0682 51.9786 26.599 51.1353 25.1339C50.2919 23.6687 49.0619 22.7624 48.388 23.1096C47.7141 23.4567 47.8514 24.9259 48.6947 26.391C49.5381 27.8562 50.7681 28.7625 51.442 28.4153Z" fill="#42E8E0"/>
<path d="M51.4506 26.6529C50.7556 26.9155 49.6436 26.1277 48.8097 24.6835C47.9757 23.2392 47.8367 21.795 48.5317 21.4011C49.2266 21.1385 50.3386 21.9263 51.1726 23.3705C52.0066 24.9461 52.1456 26.3903 51.4506 26.6529Z" fill="#42E8E0"/>
<path d="M58.6801 31.9062C58.8191 31.9062 58.9581 31.7747 58.9581 31.6432C58.9581 31.3802 58.8191 30.9857 58.4021 30.8542H58.2631C58.1241 30.8542 57.9851 30.9857 57.9851 31.1172C57.9851 31.3802 58.1241 31.7747 58.5411 31.9062C58.5411 31.7747 58.6801 31.9062 58.6801 31.9062Z" fill="url(#paint19_radial_5668_3976)"/>
<path d="M60.069 33.8745C59.374 34.137 58.2621 33.3493 57.4281 31.905C56.5941 30.4608 56.4551 29.0165 57.1501 28.6227C57.8451 28.3601 58.957 29.1478 59.791 30.5921C60.625 32.0363 60.625 33.6119 60.069 33.8745Z" fill="#00FF3C"/>
<path d="M58.6801 31.9062C58.8191 31.9062 58.9581 31.7747 58.9581 31.6432C58.9581 31.3802 58.8191 30.9857 58.4021 30.8542H58.2631C58.1241 30.8542 57.9851 30.9857 57.9851 31.1172C57.9851 31.3802 58.1241 31.7747 58.5411 31.9062C58.5411 31.7747 58.6801 31.9062 58.6801 31.9062Z" fill="url(#paint20_radial_5668_3976)"/>
<path d="M58.6801 30.1994C58.8191 30.1994 58.9581 30.0679 58.9581 29.9364C58.9581 29.6734 58.8191 29.279 58.4021 29.1475H58.2631C58.1241 29.1475 57.9851 29.279 57.9851 29.4104C57.9851 29.6734 58.1241 30.0679 58.5411 30.1994H58.6801Z" fill="url(#paint21_radial_5668_3976)"/>
<path d="M60.0848 32.3062C60.7588 31.9591 60.6214 30.4899 59.7781 29.0247C58.9347 27.5596 57.7047 26.6533 57.0308 27.0004C56.3569 27.3476 56.4942 28.8168 57.3376 30.2819C58.1809 31.7471 59.4109 32.6534 60.0848 32.3062Z" fill="#00FF3C"/>
<path d="M58.6801 30.1994C58.8191 30.1994 58.9581 30.0679 58.9581 29.9364C58.9581 29.6734 58.8191 29.279 58.4021 29.1475H58.2631C58.1241 29.1475 57.9851 29.279 57.9851 29.4104C57.9851 29.6734 58.1241 30.0679 58.5411 30.1994H58.6801Z" fill="url(#paint22_radial_5668_3976)"/>
<path d="M58.6801 28.4926C58.8191 28.4926 58.9581 28.3611 58.9581 28.2296C58.9581 27.9666 58.8191 27.5722 58.4021 27.4407H58.2631C58.1241 27.4407 57.9851 27.5722 57.9851 27.7037C57.9851 27.9666 58.1241 28.3611 58.5411 28.4926H58.6801Z" fill="url(#paint23_radial_5668_3976)"/>
<path d="M60.069 30.5916C59.374 30.8541 58.2621 30.0664 57.4281 28.6221C56.5941 27.1779 56.4551 25.7337 57.1501 25.3398C57.8451 24.9459 58.957 25.8649 59.791 27.3092C60.486 28.7534 60.625 30.1977 60.069 30.5916Z" fill="#00FF3C"/>
<path d="M58.6801 28.4926C58.8191 28.4926 58.9581 28.3611 58.9581 28.2296C58.9581 27.9666 58.8191 27.5722 58.4021 27.4407H58.2631C58.1241 27.4407 57.9851 27.5722 57.9851 27.7037C57.9851 27.9666 58.1241 28.3611 58.5411 28.4926H58.6801Z" fill="url(#paint24_radial_5668_3976)"/>
<path d="M60.069 33.8745C59.374 34.137 58.2621 33.3493 57.4281 31.905C56.5941 30.4608 56.4551 29.0165 57.1501 28.6227C57.8451 28.3601 58.957 29.1478 59.791 30.5921C60.625 32.0363 60.625 33.6119 60.069 33.8745Z" fill="#42E8E0"/>
<path d="M60.0848 32.3062C60.7588 31.9591 60.6214 30.4899 59.7781 29.0247C58.9347 27.5596 57.7047 26.6533 57.0308 27.0004C56.3569 27.3476 56.4942 28.8168 57.3376 30.2819C58.1809 31.7471 59.4109 32.6534 60.0848 32.3062Z" fill="#42E8E0"/>
<path d="M60.069 30.5916C59.374 30.8541 58.2621 30.0664 57.4281 28.6221C56.5941 27.1779 56.4551 25.7337 57.1501 25.3398C57.8451 24.9459 58.957 25.8649 59.791 27.3092C60.486 28.7534 60.625 30.1977 60.069 30.5916Z" fill="#42E8E0"/>
<defs>
<filter id="filter0_d_5668_3976" x="2.99251" y="57.3253" width="25.5118" height="21.7729" filterUnits="userSpaceOnUse" color-interpolation-filters="sRGB">
<feFlood flood-opacity="0" result="BackgroundImageFix"/>
<feColorMatrix in="SourceAlpha" type="matrix" values="0 0 0 0 0 0 0 0 0 0 0 0 0 0 0 0 0 0 127 0" result="hardAlpha"/>
<feOffset/>
<feGaussianBlur stdDeviation="1.59054"/>
<feColorMatrix type="matrix" values="0 0 0 0 0 0 0 0 0 0 0 0 0 0 0 0 0 0 0.1 0"/>
<feBlend mode="normal" in2="BackgroundImageFix" result="effect1_dropShadow_5668_3976"/>
<feBlend mode="normal" in="SourceGraphic" in2="effect1_dropShadow_5668_3976" result="shape"/>
</filter>
<linearGradient id="paint0_linear_5668_3976" x1="70.8987" y1="100.721" x2="70.8987" y2="145.977" gradientUnits="userSpaceOnUse">
<stop stop-color="white"/>
<stop offset="1" stop-color="#5A93AE"/>
</linearGradient>
<linearGradient id="paint1_linear_5668_3976" x1="35.69" y1="47.7032" x2="55.2859" y2="51.8107" gradientUnits="userSpaceOnUse">
<stop stop-color="#F7F7F7"/>
<stop offset="0.55" stop-color="#F2F2F9"/>
<stop offset="1" stop-color="#E9E9FD"/>
</linearGradient>
<linearGradient id="paint2_linear_5668_3976" x1="45.5672" y1="68.2534" x2="97.3769" y2="68.2534" gradientUnits="userSpaceOnUse">
<stop stop-color="#F7F7F7"/>
<stop offset="0.55" stop-color="#F2F2F9"/>
<stop offset="1" stop-color="#E9E9FD"/>
</linearGradient>
<linearGradient id="paint3_linear_5668_3976" x1="53.8069" y1="49.5435" x2="89.1606" y2="49.5435" gradientUnits="userSpaceOnUse">
<stop stop-color="#42E8E0"/>
<stop offset="0.18" stop-color="#41E3DD"/>
<stop offset="0.38" stop-color="#3CD5D3"/>
<stop offset="0.61" stop-color="#35BDC3"/>
<stop offset="0.84" stop-color="#2C9CAD"/>
<stop offset="1" stop-color="#24819B"/>
</linearGradient>
<linearGradient id="paint4_linear_5668_3976" x1="91.0753" y1="59.5138" x2="110.671" y2="63.6213" gradientUnits="userSpaceOnUse">
<stop stop-color="#F7F7F7"/>
<stop offset="0.55" stop-color="#F2F2F9"/>
<stop offset="1" stop-color="#E9E9FD"/>
</linearGradient>
<linearGradient id="paint5_linear_5668_3976" x1="93.1073" y1="66.9819" x2="108.69" y2="54.9942" gradientUnits="userSpaceOnUse">
<stop stop-color="#F7F7F7"/>
<stop offset="0.55" stop-color="#F2F2F9"/>
<stop offset="1" stop-color="#E9E9FD"/>
</linearGradient>
<radialGradient id="paint6_radial_5668_3976" cx="0" cy="0" r="1" gradientUnits="userSpaceOnUse" gradientTransform="translate(110.106 95.1933) rotate(6.51381) scale(6.94477 10.8287)">
<stop stop-color="#2BB675"/>
<stop offset="1" stop-color="#14444F"/>
</radialGradient>
<linearGradient id="paint7_linear_5668_3976" x1="102.055" y1="93.7002" x2="115.807" y2="95.4882" gradientUnits="userSpaceOnUse">
<stop stop-color="#F7F7F7"/>
<stop offset="0.55" stop-color="#F2F2F9"/>
<stop offset="1" stop-color="#E9E9FD"/>
</linearGradient>
<radialGradient id="paint8_radial_5668_3976" cx="0" cy="0" r="1" gradientUnits="userSpaceOnUse" gradientTransform="translate(34.2321 53.9822) rotate(52.778) scale(16.331 27.3062)">
<stop stop-color="#2BB675"/>
<stop offset="1" stop-color="#23ABD8"/>
</radialGradient>
<linearGradient id="paint9_linear_5668_3976" x1="23.0271" y1="67.5841" x2="8.16378" y2="65.6049" gradientUnits="userSpaceOnUse">
<stop stop-color="white"/>
<stop offset="0.55" stop-color="#F2F2F9"/>
<stop offset="1" stop-color="#E9E9FD"/>
</linearGradient>
<linearGradient id="paint10_linear_5668_3976" x1="46.2826" y1="23.6544" x2="96.3608" y2="23.6544" gradientUnits="userSpaceOnUse">
<stop stop-color="#F7F7F7"/>
<stop offset="0.55" stop-color="#F2F2F9"/>
<stop offset="1" stop-color="#E9E9FD"/>
</linearGradient>
<linearGradient id="paint11_linear_5668_3976" x1="68.0841" y1="47.7043" x2="74.3153" y2="0.766617" gradientUnits="userSpaceOnUse">
<stop stop-color="#F7F7F7"/>
<stop offset="0.55" stop-color="#F2F2F9"/>
<stop offset="1" stop-color="#E9E9FD"/>
</linearGradient>
<linearGradient id="paint12_linear_5668_3976" x1="46.3548" y1="25.5972" x2="78.3947" y2="25.5972" gradientUnits="userSpaceOnUse">
<stop stop-color="#00ACBF"/>
<stop offset="0.29" stop-color="#04A7BB"/>
<stop offset="0.63" stop-color="#1099AF"/>
<stop offset="1" stop-color="#24819B"/>
</linearGradient>
<radialGradient id="paint13_radial_5668_3976" cx="0" cy="0" r="1" gradientUnits="userSpaceOnUse" gradientTransform="translate(49.9738 27.4104) rotate(180) scale(0.542788 0.513481)">
<stop stop-color="white"/>
<stop offset="1" stop-color="#95FDA8"/>
</radialGradient>
<radialGradient id="paint14_radial_5668_3976" cx="0" cy="0" r="1" gradientUnits="userSpaceOnUse" gradientTransform="translate(49.9738 27.4104) rotate(180) scale(0.542788 0.513481)">
<stop stop-color="white"/>
<stop offset="1" stop-color="#95FDA8"/>
</radialGradient>
<radialGradient id="paint15_radial_5668_3976" cx="0" cy="0" r="1" gradientUnits="userSpaceOnUse" gradientTransform="translate(49.9719 25.7467) scale(0.542371 0.513085)">
<stop stop-color="white"/>
<stop offset="1" stop-color="#95FDA8"/>
</radialGradient>
<radialGradient id="paint16_radial_5668_3976" cx="0" cy="0" r="1" gradientUnits="userSpaceOnUse" gradientTransform="translate(49.9719 25.7467) scale(0.542371 0.513085)">
<stop stop-color="white"/>
<stop offset="1" stop-color="#95FDA8"/>
</radialGradient>
<radialGradient id="paint17_radial_5668_3976" cx="0" cy="0" r="1" gradientUnits="userSpaceOnUse" gradientTransform="translate(49.9651 24.036) scale(0.543344 0.514007)">
<stop stop-color="white"/>
<stop offset="1" stop-color="#95FDA8"/>
</radialGradient>
<radialGradient id="paint18_radial_5668_3976" cx="0" cy="0" r="1" gradientUnits="userSpaceOnUse" gradientTransform="translate(49.9651 24.036) scale(0.543344 0.514007)">
<stop stop-color="white"/>
<stop offset="1" stop-color="#95FDA8"/>
</radialGradient>
<radialGradient id="paint19_radial_5668_3976" cx="0" cy="0" r="1" gradientUnits="userSpaceOnUse" gradientTransform="translate(58.5084 31.2784) scale(0.543344 0.514006)">
<stop stop-color="white"/>
<stop offset="1" stop-color="#95FDA8"/>
</radialGradient>
<radialGradient id="paint20_radial_5668_3976" cx="0" cy="0" r="1" gradientUnits="userSpaceOnUse" gradientTransform="translate(58.5084 31.2784) scale(0.543344 0.514006)">
<stop stop-color="white"/>
<stop offset="1" stop-color="#95FDA8"/>
</radialGradient>
<radialGradient id="paint21_radial_5668_3976" cx="0" cy="0" r="1" gradientUnits="userSpaceOnUse" gradientTransform="translate(58.5084 29.6162) scale(0.542371 0.513088)">
<stop stop-color="white"/>
<stop offset="1" stop-color="#95FDA8"/>
</radialGradient>
<radialGradient id="paint22_radial_5668_3976" cx="0" cy="0" r="1" gradientUnits="userSpaceOnUse" gradientTransform="translate(58.5084 29.6162) scale(0.542371 0.513088)">
<stop stop-color="white"/>
<stop offset="1" stop-color="#95FDA8"/>
</radialGradient>
<radialGradient id="paint23_radial_5668_3976" cx="0" cy="0" r="1" gradientUnits="userSpaceOnUse" gradientTransform="translate(58.5016 27.9056) scale(0.543344 0.514006)">
<stop stop-color="white"/>
<stop offset="1" stop-color="#95FDA8"/>
</radialGradient>
<radialGradient id="paint24_radial_5668_3976" cx="0" cy="0" r="1" gradientUnits="userSpaceOnUse" gradientTransform="translate(58.5016 27.9056) scale(0.543344 0.514006)">
<stop stop-color="white"/>
<stop offset="1" stop-color="#95FDA8"/>
</radialGradient>
</defs>
</svg>
