<svg width="58" height="91" viewBox="0 0 58 91" fill="none" xmlns="http://www.w3.org/2000/svg">
<path d="M53.5484 45.4999C52.2694 43.776 50.7723 42.2537 49.0868 40.9633C47.8971 40.056 46.6082 39.2596 45.24 38.6043C45.7754 37.9188 46.2612 37.1828 46.6875 36.4267C48.2144 33.7551 49.0769 30.6602 49.0769 27.3535C49.0769 24.0468 48.2044 20.9518 46.6875 18.2802C45.121 15.528 42.8605 13.2295 40.1538 11.6366C38.7658 10.82 37.2687 10.195 35.6923 9.77158V0.133789H26.7692V9.20702H22.3077V0.133789H13.3846V9.20702H0V18.2802H4.46154V72.7196H0V81.7929H13.3846V90.8661H22.3077V81.7929H26.7692V90.8661H35.6923V81.7929C37.2191 81.7929 38.7162 81.6416 40.1538 81.3392C43.4455 80.6637 46.4793 79.2423 49.0769 77.2663C50.7624 75.9759 52.2694 74.4435 53.5385 72.7297C56.3344 68.9391 58 64.221 58 59.1199C58 54.0187 56.3443 49.2905 53.5484 45.4999ZM13.3945 18.2802H31.2407C32.8667 18.2802 34.3935 18.7238 35.7022 19.5001C38.3692 21.0627 40.1638 23.9964 40.1638 27.3535C40.1638 30.7106 38.3692 33.6442 35.7022 35.2069C34.3935 35.9831 32.8667 36.4267 31.2407 36.4267H13.3945V18.2802ZM40.1638 71.9434C38.7658 72.4474 37.2687 72.7196 35.7022 72.7196H13.3945V45.4999H35.7022C37.2687 45.4999 38.7658 45.7721 40.1638 46.2762C45.3689 48.1513 49.0868 53.192 49.0868 59.1098C49.0868 65.0275 45.3689 70.0783 40.1638 71.9434Z" fill="#27ADC5"/>
</svg>
