<svg width="100" height="76" viewBox="0 0 100 76" fill="none" xmlns="http://www.w3.org/2000/svg">
<path d="M78.5715 10.3185C78.5704 4.71096 74.0235 0.165867 68.4157 0.167206C65.7242 0.167876 63.1429 1.23707 61.2393 3.13997L48.2144 16.165L35.1894 3.13997C31.2235 -0.824534 24.7947 -0.823642 20.83 3.14221C18.9262 5.04667 17.8568 7.62926 17.8572 10.3221C17.8565 12.7368 18.7206 15.0717 20.2929 16.9043H10.7144V41.9043H16.0715V75.8328H80.3572V41.9043H85.7143V16.9043H76.134C77.7074 15.0708 78.5722 12.7346 78.5715 10.3185ZM63.7644 5.66497C66.3353 3.09488 70.5027 3.09555 73.0728 5.66631C74.3074 6.90113 75.0005 8.57591 75.0001 10.3221C74.9972 13.956 72.0518 16.9014 68.4179 16.9043H52.5251L63.7644 5.66497ZM25.4911 4.23819C26.3106 3.9018 27.1876 3.72837 28.0733 3.72747C29.8032 3.7239 31.4601 4.42323 32.6644 5.66497L43.9036 16.9043H28.0108C24.3762 16.8993 21.4315 13.9531 21.4286 10.3185C21.4043 7.64935 23.0159 5.2373 25.4911 4.23819ZM14.2858 38.3328V20.4757H39.2858V38.3328H14.2858ZM41.0715 72.2614H19.6429V41.9043H41.0715V72.2614ZM51.7858 72.2614H44.6429V41.9043H51.7858V72.2614ZM53.5715 38.3328H42.8572V20.4757H53.5715V38.3328ZM76.7858 72.2614H55.3572V41.9043H76.7858V72.2614ZM82.1429 20.4757V38.3328H57.1429V20.4757H82.1429Z" fill="#27ADC5"/>
<path d="M94.643 2.61856H91.0715V6.18999H94.643V2.61856Z" fill="#27ADC5"/>
<path d="M94.643 13.3329H91.0715V16.9043H94.643V13.3329Z" fill="#27ADC5"/>
<path d="M99.9999 7.97568H96.4285V11.5471H99.9999V7.97568Z" fill="#27ADC5"/>
<path d="M89.2858 7.97568H85.7144V11.5471H89.2858V7.97568Z" fill="#27ADC5"/>
<path d="M7.14296 4.40427H3.57153V7.97569H7.14296V4.40427Z" fill="#27ADC5"/>
<path d="M7.14296 11.5471H3.57153V15.1185H7.14296V11.5471Z" fill="#27ADC5"/>
<path d="M10.7143 7.97568H7.14282V11.5471H10.7143V7.97568Z" fill="#27ADC5"/>
<path d="M3.57143 7.97568H0V11.5471H3.57143V7.97568Z" fill="#27ADC5"/>
</svg>
