<svg width="68" height="90" viewBox="0 0 68 90" fill="none" xmlns="http://www.w3.org/2000/svg">
<path d="M59.3125 90H8.6875C4.0375 90 0.25 86.2163 0.25 81.5625V42.1875C0.25 37.5337 4.0375 33.75 8.6875 33.75H59.3125C63.9625 33.75 67.75 37.5337 67.75 42.1875V81.5625C67.75 86.2163 63.9625 90 59.3125 90ZM8.6875 39.375C7.13875 39.375 5.875 40.635 5.875 42.1875V81.5625C5.875 83.115 7.13875 84.375 8.6875 84.375H59.3125C60.8613 84.375 62.125 83.115 62.125 81.5625V42.1875C62.125 40.635 60.8613 39.375 59.3125 39.375H8.6875Z" fill="#27ADC5"/>
<path d="M53.6875 39.375C52.135 39.375 50.875 38.115 50.875 36.5625V22.5C50.875 13.1962 43.3037 5.625 34 5.625C24.6962 5.625 17.125 13.1962 17.125 22.5V36.5625C17.125 38.115 15.865 39.375 14.3125 39.375C12.76 39.375 11.5 38.115 11.5 36.5625V22.5C11.5 10.0912 21.5912 0 34 0C46.4087 0 56.5 10.0912 56.5 22.5V36.5625C56.5 38.115 55.24 39.375 53.6875 39.375Z" fill="#27ADC5"/>
<path d="M33.9999 63.7499C29.8636 63.7499 26.4999 60.3861 26.4999 56.2499C26.4999 52.1137 29.8636 48.7499 33.9999 48.7499C38.1361 48.7499 41.4999 52.1137 41.4999 56.2499C41.4999 60.3861 38.1361 63.7499 33.9999 63.7499ZM33.9999 54.3749C32.9686 54.3749 32.1249 55.2149 32.1249 56.2499C32.1249 57.2849 32.9686 58.1249 33.9999 58.1249C35.0311 58.1249 35.8749 57.2849 35.8749 56.2499C35.8749 55.2149 35.0311 54.3749 33.9999 54.3749Z" fill="#27ADC5"/>
<path d="M34 74.9999C32.4475 74.9999 31.1875 73.74 31.1875 72.1875V61.875C31.1875 60.3225 32.4475 59.0625 34 59.0625C35.5525 59.0625 36.8125 60.3225 36.8125 61.875V72.1875C36.8125 73.74 35.5525 74.9999 34 74.9999Z" fill="#27ADC5"/>
</svg>
