<svg width="236" height="204" viewBox="0 0 236 204" fill="none" xmlns="http://www.w3.org/2000/svg">
<path d="M35.2518 74.0196C30.0169 73.6589 25.6827 78.3182 26.0183 83.9457C26.2946 88.597 29.7899 92.3544 34.1167 92.6515C39.3516 93.0109 43.6846 88.353 43.3503 82.7255C43.0739 78.0741 39.5786 74.3167 35.2518 74.0196ZM38.6163 87.967C38.958 86.7057 39.1616 85.2547 39.1887 83.6937H42.6914C42.6149 85.6951 41.9006 87.5214 40.7606 88.9458C40.2387 88.5519 39.5083 88.219 38.6163 87.967ZM28.6067 88.9458C27.4679 87.5214 26.7524 85.6951 26.6759 83.6937H30.1798C30.2069 85.2547 30.4105 86.7057 30.7522 87.967C29.8602 88.219 29.1298 88.5519 28.6067 88.9458ZM30.7498 78.7094C30.4092 79.9694 30.2057 81.4177 30.1785 82.9761H26.6759C26.7524 80.984 27.4605 79.1657 28.5907 77.7452C29.1224 78.1325 29.8578 78.4601 30.7498 78.7094ZM34.3499 82.9761H30.8472C30.8756 81.4907 31.0817 80.0875 31.4172 78.8739C32.3204 79.0702 33.3209 79.1816 34.3499 79.2015V82.9761ZM34.3499 83.6937V87.4696C33.3185 87.4895 32.3179 87.6023 31.4185 87.7999C31.0817 86.5863 30.8756 85.1818 30.8472 83.6937H34.3499ZM35.0174 83.6937H38.5213C38.4917 85.1818 38.2856 86.5863 37.95 87.7999C37.0494 87.6023 36.0488 87.4895 35.0174 87.4696V83.6937ZM35.0174 82.9761V79.2015C36.0463 79.1816 37.0482 79.0702 37.9513 78.8739C38.2869 80.0875 38.4917 81.4907 38.5213 82.9761H35.0174ZM35.0174 78.484V74.7544C36.1154 74.9772 37.0963 76.2876 37.7403 78.1882C36.9013 78.3646 35.9723 78.4641 35.0174 78.484ZM34.3499 74.7544V78.484C33.395 78.4641 32.4672 78.3646 31.6282 78.1882C32.271 76.2876 33.2531 74.9772 34.3499 74.7544ZM34.3499 88.1872V91.9167C33.2531 91.6926 32.2722 90.3848 31.6294 88.4869C32.4659 88.3079 33.3937 88.2071 34.3499 88.1872ZM35.0174 91.9167V88.1872C35.9735 88.2071 36.9026 88.3079 37.7391 88.4869C37.095 90.3848 36.1142 91.6926 35.0174 91.9167ZM39.1887 82.9761C39.1616 81.4177 38.958 79.9694 38.6175 78.7094C39.5095 78.4601 40.2461 78.1325 40.7778 77.7452C41.9067 79.1657 42.6149 80.984 42.6914 82.9761H39.1887ZM40.3152 77.2094C39.8476 77.5277 39.1937 77.8089 38.4139 78.0237C37.9945 76.7505 37.4257 75.7133 36.7558 75.0104C38.1191 75.403 39.3393 76.1722 40.3152 77.2094ZM30.9546 78.0237C30.1748 77.8089 29.5197 77.5277 29.0521 77.2094C30.028 76.1722 31.2494 75.403 32.6128 75.0117C31.9428 75.7133 31.3728 76.7505 30.9546 78.0237ZM29.0694 89.479C29.5271 89.1554 30.1761 88.8702 30.9558 88.6527C31.3753 89.9233 31.9428 90.9578 32.6128 91.6594C31.2568 91.2695 30.0428 90.5055 29.0694 89.479ZM38.4115 88.6527C39.1912 88.8702 39.8414 89.1554 40.2979 89.479C39.3257 90.5055 38.1104 91.2695 36.7558 91.6594C37.4245 90.9578 37.9932 89.9233 38.4115 88.6527Z" fill="white"/>
<path d="M65.2317 76.8484L63.1245 89.8885L58.0068 90.0052L56.9063 83.4374L55.8057 89.5012L50.6881 89.6975L48.561 77.2356L53.0322 76.8112L53.9304 84.4666L55.1395 77.3948H58.6533L60.0598 84.5621L60.7803 76.424L65.2317 76.8484Z" fill="white"/>
<path d="M82.0191 76.8484L79.9118 89.8885L74.7941 90.0052L73.6936 83.4374L72.5931 89.5012L67.4754 89.6975L65.3484 77.2356L69.8196 76.8112L70.7178 84.4666L71.9269 77.3948H75.4406L76.8471 84.5621L77.5677 76.424L82.0191 76.8484Z" fill="white"/>
<path d="M98.8067 76.8484L96.6994 89.8885L91.5817 90.0052L90.4812 83.4374L89.3807 89.5012L84.263 89.6975L82.136 77.2356L86.6072 76.8112L87.5054 84.4666L88.7144 77.3948H92.2282L93.6347 84.5621L94.3552 76.424L98.8067 76.8484Z" fill="white"/>
<path d="M102.807 88.3022C102.807 88.5861 102.755 88.8513 102.654 89.098C102.552 89.342 102.415 89.5569 102.244 89.7399C102.073 89.9243 101.872 90.0689 101.642 90.175C101.415 90.2811 101.171 90.3341 100.912 90.3341C100.648 90.3341 100.401 90.2811 100.172 90.175C99.9446 90.0689 99.7447 89.9243 99.5745 89.7399C99.403 89.5569 99.2685 89.342 99.1698 89.098C99.0711 88.8513 99.0217 88.5861 99.0217 88.3022C99.0217 88.0237 99.0711 87.7584 99.1698 87.5064C99.2685 87.2558 99.403 87.0383 99.5745 86.8539C99.7447 86.6709 99.9446 86.5237 100.172 86.4136C100.401 86.3048 100.648 86.2491 100.912 86.2491C101.171 86.2491 101.415 86.3048 101.642 86.4136C101.872 86.5237 102.073 86.6709 102.244 86.8539C102.415 87.0383 102.552 87.2558 102.654 87.5064C102.755 87.7584 102.807 88.0237 102.807 88.3022Z" fill="white"/>
<path d="M114.152 76.6573C113.882 78.9319 113.65 81.1933 113.457 83.4427C113.265 85.6921 113.083 87.9574 112.909 90.2386L109.212 90.5304L109.375 89.0396C109.257 89.1882 109.116 89.3182 108.956 89.4269C108.798 89.537 108.628 89.6259 108.447 89.6922C108.266 89.7598 108.079 89.8076 107.885 89.8354C107.694 89.8646 107.511 89.8765 107.337 89.8726C106.929 89.8659 106.544 89.781 106.182 89.6179C105.823 89.4521 105.493 89.2306 105.19 88.9548C104.89 88.6789 104.62 88.3593 104.381 87.9945C104.14 87.6311 103.938 87.2465 103.774 86.8433C103.609 86.4401 103.483 86.029 103.394 85.6072C103.308 85.1868 103.266 84.7796 103.266 84.387C103.266 83.8074 103.275 83.2066 103.295 82.5832C103.317 81.9572 103.356 81.3312 103.409 80.7052C103.464 80.0792 103.535 79.4611 103.621 78.8484C103.71 78.233 103.82 77.6441 103.952 77.0818C104.682 77.1216 105.417 77.156 106.158 77.1879C106.898 77.2197 107.634 77.2303 108.368 77.2197C108.23 77.782 108.092 78.3471 107.954 78.9121C107.818 79.4744 107.697 80.0421 107.589 80.615C107.483 81.1853 107.396 81.7583 107.327 82.3339C107.261 82.9069 107.228 83.4891 107.228 84.0793C107.228 84.2146 107.235 84.4069 107.248 84.6576C107.261 84.9096 107.293 85.1589 107.342 85.4056C107.394 85.6496 107.473 85.8645 107.579 86.0475C107.684 86.2319 107.832 86.3234 108.023 86.3234C108.253 86.3234 108.457 86.2199 108.635 86.0104C108.815 85.8022 108.976 85.521 109.114 85.1669C109.252 84.8101 109.37 84.4003 109.469 83.9361C109.568 83.4692 109.652 82.9838 109.721 82.4771C109.79 81.9678 109.845 81.4559 109.888 80.9386C109.93 80.4227 109.963 79.936 109.982 79.4797C110.004 79.0235 110.019 78.615 110.027 78.2542C110.037 77.8935 110.041 77.6123 110.041 77.4107C110.041 77.2834 110.038 77.1587 110.032 77.034C110.028 76.9107 110.019 76.7847 110.007 76.6573C110.398 76.668 110.784 76.6772 111.167 76.6839C111.552 76.6918 111.939 76.6945 112.331 76.6945C112.63 76.6945 112.931 76.6932 113.234 76.6892C113.54 76.6865 113.846 76.6759 114.152 76.6573Z" fill="white"/>
<path d="M125.192 81.3631C125.192 81.9891 125.105 82.5448 124.931 83.0289C124.756 83.5143 124.516 83.9401 124.21 84.3074C123.907 84.6722 123.551 84.9786 123.144 85.2252C122.736 85.4733 122.298 85.6762 121.832 85.8353C121.368 85.9945 120.885 86.1112 120.386 86.1855C119.888 86.2598 119.4 86.3009 118.92 86.3075V90.4349H114.72C114.72 89.6962 114.72 88.9787 114.72 88.281C114.723 87.5847 114.726 86.8937 114.73 86.2067C114.733 85.517 114.736 84.8247 114.74 84.1271C114.742 83.4308 114.747 82.7093 114.755 81.9626C114.767 81.1774 114.771 80.3909 114.765 79.6017C114.757 78.8139 114.772 78.0195 114.809 77.2197C115.579 76.973 116.346 76.7887 117.114 76.668C117.884 76.5446 118.676 76.4823 119.492 76.4823C119.956 76.4823 120.418 76.5234 120.879 76.6043C121.343 76.6865 121.787 76.8139 122.212 76.9863C122.636 77.16 123.028 77.3776 123.391 77.6388C123.756 77.9014 124.07 78.2144 124.334 78.5778C124.596 78.9386 124.805 79.3524 124.96 79.8193C125.115 80.2835 125.192 80.7981 125.192 81.3631ZM121.19 81.692C121.19 81.2755 121.072 80.9479 120.835 80.7105C120.598 80.4745 120.288 80.3551 119.907 80.3551C119.781 80.3551 119.652 80.3683 119.517 80.3922C119.381 80.4134 119.253 80.44 119.132 80.4718L119.029 83.3048C119.11 83.3154 119.191 83.3207 119.27 83.3207C119.349 83.3207 119.429 83.3207 119.512 83.3207C119.729 83.3207 119.938 83.2822 120.139 83.204C120.339 83.127 120.516 83.0156 120.672 82.8697C120.83 82.7252 120.954 82.5554 121.047 82.3604C121.142 82.1628 121.19 81.94 121.19 81.692Z" fill="white"/>
<path d="M136.194 86.8486C136.194 87.3831 136.102 87.8447 135.918 88.2333C135.733 88.6232 135.488 88.9535 135.183 89.2253C134.877 89.4946 134.522 89.7161 134.121 89.8885C133.723 90.0583 133.307 90.1935 132.873 90.2917C132.441 90.3872 132.007 90.4508 131.57 90.4827C131.136 90.5145 130.729 90.5304 130.351 90.5304C129.978 90.5304 129.592 90.5145 129.191 90.4827C128.793 90.4535 128.394 90.4044 127.997 90.3341C127.602 90.2638 127.212 90.1697 126.827 90.053C126.445 89.9336 126.082 89.7824 125.737 89.602L125.722 77.1189C126.058 76.9704 126.414 76.8377 126.793 76.721C127.17 76.6017 127.555 76.5009 127.948 76.4186C128.342 76.3377 128.735 76.2754 129.127 76.2329C129.518 76.1905 129.897 76.1693 130.262 76.1693C130.689 76.1693 131.121 76.1998 131.555 76.2595C131.992 76.3165 132.411 76.4133 132.814 76.5513C133.215 76.6865 133.59 76.8616 133.939 77.0765C134.287 77.2927 134.592 77.5592 134.852 77.8776C135.115 78.1932 135.321 78.5606 135.469 78.981C135.617 79.4028 135.691 79.8869 135.691 80.4346C135.691 80.7954 135.641 81.1349 135.543 81.4532C135.447 81.7689 135.308 82.0527 135.128 82.3074C134.951 82.5594 134.731 82.7729 134.472 82.9493C134.212 83.127 133.92 83.257 133.598 83.3419C133.989 83.452 134.345 83.6125 134.664 83.8247C134.986 84.0369 135.259 84.2955 135.484 84.5992C135.711 84.9043 135.885 85.2465 136.007 85.6284C136.131 86.0104 136.194 86.4176 136.194 86.8486ZM131.614 81.3259C131.614 81.1389 131.577 80.9798 131.506 80.8485C131.433 80.7145 131.344 80.6071 131.239 80.5248C131.133 80.44 131.019 80.3789 130.894 80.3392C130.772 80.3007 130.663 80.2808 130.568 80.2808C130.45 80.2808 130.333 80.3007 130.218 80.3392C130.102 80.3789 129.991 80.4227 129.882 80.4718L129.833 82.6257C129.971 82.6257 130.141 82.6138 130.346 82.5886C130.55 82.5607 130.746 82.5037 130.933 82.4188C131.123 82.3313 131.285 82.2013 131.417 82.0315C131.548 81.8591 131.614 81.623 131.614 81.3259ZM130.336 84.4825C130.161 84.4825 129.993 84.5024 129.833 84.5409L129.793 86.7531C129.885 86.7717 129.974 86.7889 130.06 86.8062C130.149 86.8208 130.234 86.8274 130.317 86.8274C130.441 86.8274 130.579 86.8141 130.731 86.785C130.882 86.7571 131.023 86.6987 131.155 86.6099C131.286 86.5224 131.395 86.403 131.481 86.2544C131.57 86.1059 131.614 85.9096 131.614 85.6656C131.614 85.4215 131.57 85.2226 131.481 85.0661C131.395 84.9109 131.289 84.7902 131.16 84.7053C131.035 84.6178 130.896 84.5594 130.746 84.5303C130.598 84.4984 130.461 84.4825 130.336 84.4825Z" fill="white"/>
<path d="M147.807 82.8751C147.807 83.4626 147.744 84.0303 147.619 84.578C147.493 85.1231 147.311 85.6338 147.071 86.1112C146.835 86.5887 146.546 87.0277 146.208 87.4269C145.869 87.8235 145.487 88.1643 145.063 88.4508C144.638 88.7346 144.176 88.9548 143.676 89.114C143.179 89.2705 142.651 89.3474 142.092 89.3474C141.552 89.3474 141.037 89.2731 140.547 89.1246C140.056 88.976 139.597 88.7678 139.17 88.4986C138.746 88.2307 138.361 87.9084 138.016 87.533C137.67 87.155 137.375 86.7359 137.132 86.2757C136.888 85.8128 136.699 85.3155 136.565 84.7849C136.429 84.2544 136.362 83.7027 136.362 83.1297C136.362 82.5674 136.424 82.0183 136.55 81.4798C136.678 80.9387 136.861 80.4294 137.098 79.9519C137.335 79.4744 137.621 79.0368 137.956 78.6362C138.294 78.233 138.672 77.8869 139.086 77.5964C139.503 77.3073 139.956 77.0805 140.444 76.9173C140.93 76.7555 141.445 76.6733 141.988 76.6733C142.857 76.6733 143.649 76.8205 144.367 77.1136C145.088 77.4041 145.701 77.8192 146.208 78.3604C146.714 78.8988 147.107 79.5514 147.387 80.318C147.666 81.0819 147.807 81.9347 147.807 82.8751ZM143.804 83.1297C143.804 82.8512 143.766 82.5806 143.691 82.318C143.618 82.0567 143.51 81.8246 143.365 81.623C143.22 81.4188 143.041 81.2543 142.827 81.1297C142.613 81.0023 142.368 80.9387 142.092 80.9387C141.812 80.9387 141.56 80.9944 141.337 81.1031C141.116 81.2132 140.925 81.3631 140.764 81.5541C140.606 81.7451 140.484 81.9679 140.399 82.2225C140.317 82.4772 140.276 82.7464 140.276 83.0289C140.276 83.3021 140.31 83.574 140.379 83.8459C140.451 84.1152 140.56 84.3605 140.705 84.5833C140.85 84.8035 141.028 84.9799 141.243 85.1139C141.457 85.2491 141.705 85.3155 141.988 85.3155C142.267 85.3155 142.519 85.2571 142.743 85.1404C142.97 85.021 143.16 84.8592 143.316 84.6576C143.474 84.4534 143.593 84.2173 143.676 83.952C143.761 83.6868 143.804 83.4135 143.804 83.1297Z" fill="white"/>
<path d="M157.981 76.6361L157.892 80.7424L155.208 80.8591L154.882 89.8514L151.077 90.0636L150.736 81.0713L148.052 81.2304L148.16 76.6574L157.981 76.6361Z" fill="white"/>
<path d="M167.731 85.3367C167.731 86.2213 167.588 86.9852 167.302 87.6285C167.016 88.2731 166.623 88.8036 166.127 89.2201C165.634 89.6339 165.054 89.9402 164.39 90.1379C163.729 90.3355 163.016 90.4349 162.253 90.4349C161.957 90.4349 161.633 90.3925 161.281 90.3076C160.932 90.2227 160.577 90.1193 160.215 89.9946C159.853 89.8673 159.506 89.732 159.174 89.5861C158.841 89.4415 158.545 89.3036 158.286 89.1723L158.68 85.3738C159.194 85.7027 159.761 85.9547 160.383 86.1271C161.005 86.2969 161.614 86.3818 162.214 86.3818C162.329 86.3818 162.467 86.3791 162.629 86.3712C162.793 86.3606 162.947 86.3314 163.092 86.281C163.24 86.2319 163.365 86.159 163.467 86.0635C163.569 85.968 163.62 85.8287 163.62 85.6444C163.62 85.525 163.583 85.4202 163.512 85.3314C163.439 85.2438 163.345 85.1722 163.231 85.1192C163.118 85.0634 162.99 85.021 162.846 84.9918C162.7 84.964 162.559 84.9441 162.421 84.9335C162.283 84.9202 162.152 84.9122 162.031 84.9122C161.913 84.9122 161.817 84.9122 161.745 84.9122C161.228 84.9122 160.758 84.826 160.334 84.6523C159.912 84.4759 159.549 84.2279 159.243 83.9096C158.94 83.5886 158.705 83.2013 158.537 82.7477C158.37 82.2915 158.286 81.7862 158.286 81.2305C158.286 80.4665 158.429 79.7848 158.715 79.1826C159.001 78.5779 159.382 78.0633 159.86 77.6388C160.336 77.2144 160.884 76.8908 161.503 76.668C162.121 76.4425 162.762 76.3285 163.423 76.3285C163.719 76.3285 164.021 76.3391 164.331 76.3603C164.643 76.3815 164.954 76.4226 165.264 76.4823C165.576 76.5393 165.878 76.6136 166.172 76.7051C166.468 76.794 166.747 76.9067 167.011 77.0447L166.665 80.9758C166.257 80.8273 165.829 80.7039 165.382 80.6044C164.934 80.5063 164.499 80.4559 164.074 80.4559C163.996 80.4559 163.893 80.4585 163.769 80.4612C163.646 80.4612 163.518 80.4705 163.384 80.4877C163.248 80.5063 163.112 80.5302 162.974 80.562C162.836 80.5938 162.712 80.6389 162.604 80.6946C162.495 80.7477 162.408 80.8206 162.342 80.9121C162.276 81.001 162.246 81.1071 162.253 81.2305C162.256 81.3724 162.304 81.4824 162.397 81.5594C162.492 81.6376 162.614 81.6947 162.762 81.7291C162.91 81.7649 163.07 81.7822 163.245 81.7822C163.423 81.7822 163.598 81.7769 163.773 81.7663C163.947 81.7557 164.11 81.7477 164.262 81.7397C164.413 81.7291 164.536 81.7278 164.632 81.7344C165.112 81.7663 165.545 81.8764 165.93 82.0634C166.315 82.2517 166.641 82.501 166.907 82.8114C167.174 83.1191 167.377 83.4891 167.519 83.9202C167.66 84.3486 167.731 84.8207 167.731 85.3367Z" fill="white"/>
<path d="M171.795 88.3022C171.795 88.5861 171.743 88.8513 171.642 89.098C171.54 89.342 171.403 89.5569 171.232 89.7399C171.061 89.9243 170.86 90.0689 170.63 90.175C170.403 90.2811 170.159 90.3341 169.9 90.3341C169.636 90.3341 169.389 90.2811 169.16 90.175C168.933 90.0689 168.733 89.9243 168.562 89.7399C168.391 89.5569 168.257 89.342 168.158 89.098C168.059 88.8513 168.01 88.5861 168.01 88.3022C168.01 88.0237 168.059 87.7584 168.158 87.5064C168.257 87.2558 168.391 87.0383 168.562 86.8539C168.733 86.6709 168.933 86.5237 169.16 86.4136C169.389 86.3048 169.636 86.2491 169.9 86.2491C170.159 86.2491 170.403 86.3048 170.63 86.4136C170.86 86.5237 171.061 86.6709 171.232 86.8539C171.403 87.0383 171.54 87.2558 171.642 87.5064C171.743 87.7584 171.795 88.0237 171.795 88.3022Z" fill="white"/>
<path d="M180.994 77.0605L180.673 81.1508C180.498 81.0978 180.325 81.0633 180.155 81.0447C179.987 81.0275 179.816 81.0182 179.642 81.0182C179.217 81.0182 178.81 81.0766 178.423 81.1933C178.034 81.3073 177.69 81.4837 177.391 81.7238C177.095 81.9612 176.858 82.2636 176.681 82.631C176.505 82.9957 176.419 83.4254 176.419 83.9201C176.419 84.2849 176.468 84.6019 176.567 84.8698C176.666 85.135 176.805 85.3578 176.987 85.5382C177.17 85.7159 177.393 85.8499 177.653 85.9414C177.916 86.0303 178.207 86.074 178.526 86.074C178.75 86.074 178.978 86.0502 179.212 85.9998C179.446 85.9507 179.679 85.8857 179.913 85.8035C180.146 85.7186 180.372 85.6218 180.589 85.5117C180.806 85.4029 181.006 85.2862 181.191 85.1616L181.048 89.7134C180.814 89.8447 180.562 89.9614 180.293 90.0635C180.023 90.163 179.745 90.2492 179.459 90.3235C179.173 90.3978 178.887 90.4522 178.6 90.488C178.317 90.5264 178.045 90.5463 177.786 90.5463C176.934 90.5463 176.158 90.3766 175.457 90.037C174.756 89.6948 174.154 89.228 173.651 88.6365C173.15 88.0463 172.762 87.3606 172.486 86.578C172.209 85.7969 172.071 84.9639 172.071 84.0793C172.071 83.0183 172.211 82.0302 172.491 81.1137C172.77 80.1946 173.182 79.3988 173.725 78.7264C174.27 78.0513 174.944 77.5208 175.743 77.1348C176.545 76.7502 177.467 76.5565 178.507 76.5565C178.921 76.5565 179.342 76.5937 179.77 76.668C180.197 76.7396 180.605 76.8696 180.994 77.0605Z" fill="white"/>
<path d="M192.997 82.8751C192.997 83.4626 192.934 84.0303 192.809 84.578C192.684 85.1231 192.501 85.6338 192.262 86.1112C192.025 86.5887 191.736 87.0277 191.398 87.4269C191.059 87.8235 190.677 88.1643 190.253 88.4508C189.829 88.7346 189.366 88.9548 188.866 89.114C188.369 89.2705 187.841 89.3474 187.282 89.3474C186.742 89.3474 186.227 89.2731 185.737 89.1246C185.246 88.976 184.787 88.7678 184.361 88.4986C183.936 88.2307 183.551 87.9084 183.206 87.533C182.86 87.155 182.565 86.7359 182.322 86.2757C182.078 85.8128 181.889 85.3155 181.755 84.7849C181.619 84.2544 181.552 83.7027 181.552 83.1297C181.552 82.5674 181.614 82.0183 181.74 81.4798C181.868 80.9387 182.051 80.4294 182.288 79.9519C182.525 79.4744 182.811 79.0368 183.147 78.6362C183.485 78.233 183.862 77.8869 184.277 77.5964C184.694 77.3073 185.146 77.0805 185.634 76.9173C186.12 76.7555 186.636 76.6733 187.178 76.6733C188.047 76.6733 188.839 76.8205 189.557 77.1136C190.278 77.4041 190.891 77.8192 191.398 78.3604C191.904 78.8988 192.297 79.5514 192.577 80.318C192.856 81.0819 192.997 81.9347 192.997 82.8751ZM188.995 83.1297C188.995 82.8512 188.956 82.5806 188.881 82.318C188.808 82.0567 188.7 81.8246 188.555 81.623C188.41 81.4188 188.231 81.2543 188.017 81.1297C187.803 81.0023 187.558 80.9387 187.282 80.9387C187.002 80.9387 186.75 80.9944 186.527 81.1031C186.306 81.2132 186.115 81.3631 185.955 81.5541C185.797 81.7451 185.675 81.9679 185.589 82.2225C185.507 82.4772 185.466 82.7464 185.466 83.0289C185.466 83.3021 185.501 83.574 185.57 83.8459C185.641 84.1152 185.75 84.3605 185.895 84.5833C186.04 84.8035 186.219 84.9799 186.433 85.1139C186.647 85.2491 186.895 85.3155 187.178 85.3155C187.457 85.3155 187.709 85.2571 187.934 85.1404C188.161 85.021 188.351 84.8592 188.506 84.6576C188.664 84.4534 188.784 84.2173 188.866 83.952C188.951 83.6868 188.995 83.4135 188.995 83.1297Z" fill="white"/>
<path d="M209.379 83.7292C209.379 84.6523 209.351 85.574 209.295 86.4932C209.242 87.4096 209.179 88.3288 209.108 89.2519L204.479 89.4853C204.617 88.3606 204.74 87.2359 204.849 86.1112C204.96 84.9838 205.017 83.8538 205.017 82.7212C205.017 82.6509 205.013 82.5276 205.007 82.3498C205.003 82.1695 204.993 81.9679 204.977 81.745C204.964 81.5196 204.943 81.2861 204.913 81.0448C204.886 80.8007 204.85 80.5779 204.804 80.3763C204.761 80.1721 204.707 80.0049 204.642 79.8776C204.575 79.7476 204.496 79.6813 204.405 79.6813C204.194 79.6813 204.027 79.7662 203.906 79.936C203.788 80.1057 203.7 80.3113 203.645 80.5514C203.588 80.7888 203.553 81.0328 203.541 81.2835C203.528 81.5315 203.521 81.7331 203.521 81.8883C203.521 82.1615 203.528 82.4334 203.541 82.7053C203.553 82.9745 203.561 83.2504 203.561 83.5329C203.561 84.5342 203.537 85.5329 203.492 86.5303C203.445 87.525 203.389 88.5224 203.324 89.5224L199.05 89.6975C199.188 88.5728 199.309 87.4508 199.415 86.3287C199.52 85.208 199.573 84.0833 199.573 82.9546C199.573 82.8843 199.57 82.7557 199.563 82.5673C199.56 82.3803 199.55 82.1695 199.534 81.936C199.52 81.7026 199.497 81.4612 199.465 81.2092C199.435 80.9585 199.397 80.7291 199.351 80.5195C199.308 80.3073 199.254 80.1349 199.188 79.9996C199.122 79.8617 199.042 79.7927 198.947 79.7927C198.795 79.7927 198.668 79.8564 198.567 79.9837C198.464 80.111 198.38 80.2755 198.315 80.4771C198.252 80.676 198.204 80.8962 198.172 81.1402C198.138 81.3816 198.114 81.6177 198.098 81.8511C198.084 82.0819 198.076 82.2954 198.073 82.4931C198.069 82.692 198.066 82.8379 198.063 82.9334L197.861 90.0052H193.321C193.416 88.9163 193.513 87.8234 193.612 86.7266C193.713 85.6271 193.8 84.5303 193.873 83.4374C193.949 82.3419 194.009 81.245 194.056 80.1482C194.105 79.0487 194.13 77.9492 194.13 76.8484L198.423 76.6574L198.404 77.7821C198.534 77.599 198.685 77.4147 198.853 77.2303C199.021 77.0473 199.198 76.8828 199.386 76.7369C199.576 76.5924 199.778 76.4757 199.993 76.3868C200.206 76.2953 200.428 76.2489 200.659 76.2489C200.951 76.2489 201.214 76.2741 201.449 76.3231C201.682 76.3696 201.894 76.4505 202.085 76.5672C202.275 76.6839 202.442 76.8457 202.584 77.05C202.728 77.2515 202.855 77.5089 202.964 77.8192C203.154 77.5937 203.346 77.3829 203.541 77.1879C203.739 76.9942 203.946 76.8271 204.163 76.6892C204.38 76.5513 204.613 76.4438 204.864 76.3656C205.117 76.2887 205.397 76.2489 205.703 76.2489C206.285 76.2489 206.78 76.3709 207.188 76.6149C207.599 76.8563 207.941 77.176 208.215 77.5752C208.487 77.9757 208.699 78.4346 208.851 78.9545C209.005 79.4718 209.123 80.0076 209.202 80.562C209.281 81.1177 209.33 81.6694 209.35 82.2172C209.369 82.7663 209.379 83.2703 209.379 83.7292Z" fill="white"/>
<path d="M8.60061 0C3.83456 0 0 4.12345 0 9.24428V159.616C0 164.737 3.83456 168.859 8.60061 168.859H91.1756V197.251H81.8075C80.0753 197.251 78.6799 198.751 78.6799 200.612C78.6799 202.474 80.0753 203.974 81.8075 203.974H153.874C155.607 203.974 157.002 202.474 157.002 200.612C157.002 198.751 155.607 197.251 153.874 197.251H144.506V168.859H227.081C231.847 168.859 235.682 164.737 235.682 159.616V9.24428C235.682 4.12345 231.847 0 227.081 0H8.60061ZM10.9522 11.4446H224.731V156.451H10.9522V11.4446Z" fill="white"/>
</svg>
