<svg width="241" height="247" viewBox="0 0 241 247" fill="none" xmlns="http://www.w3.org/2000/svg">
<g clip-path="url(#clip0_5903_3235)">
<path d="M212.249 65.0953C213.203 65.0953 213.987 65.8826 213.987 66.8418V76.1786C213.987 77.1367 213.203 77.9239 212.249 77.9239H28.3419C27.3867 77.9239 26.602 77.1367 26.602 76.1786V66.8418C26.602 65.8826 27.3867 65.0953 28.3419 65.0953H212.249ZM212.249 63.4869H28.3419C26.5005 63.4869 25 64.9936 25 66.8418V76.1786C25 78.0269 26.5005 79.5324 28.3419 79.5324H212.249C214.089 79.5324 215.589 78.0269 215.589 76.1786V66.8418C215.589 64.9936 214.089 63.4869 212.249 63.4869Z" fill="white"/>
<path d="M25.0051 50.2319H40.3169V48.5266H25.0051V50.2319ZM25.0051 45.9686H40.3169V44.2633H25.0051V45.9686ZM25.0051 40V41.7053H40.3169V40H25.0051Z" fill="white"/>
<path d="M34.1519 66.6443C32.2343 66.6443 30.6733 68.2189 30.6733 70.1543C30.6733 72.0897 32.2343 73.6642 34.1519 73.6642C36.0695 73.6642 37.6304 72.0897 37.6304 70.1543C37.6304 68.2189 36.0695 66.6443 34.1519 66.6443ZM34.1519 73.1132C32.5353 73.1132 31.2198 71.7857 31.2198 70.1543C31.2198 68.5229 32.5353 67.1954 34.1519 67.1954C35.7684 67.1954 37.0827 68.5229 37.0827 70.1543C37.0827 71.7857 35.7684 73.1132 34.1519 73.1132Z" fill="white"/>
<path d="M37.6362 73.1798L37.022 72.5597C36.8696 72.745 36.7004 72.9146 36.5154 73.0672L37.1393 73.697C37.178 73.5819 37.2432 73.4753 37.3339 73.3833L37.3509 73.3663C37.4331 73.2828 37.5298 73.2198 37.6362 73.1798Z" fill="white"/>
<path d="M38.3362 73.548C38.2286 73.4402 38.0859 73.3809 37.9336 73.3809C37.7812 73.3809 37.6386 73.4402 37.531 73.548L37.514 73.565C37.4064 73.674 37.3484 73.8181 37.3484 73.9719C37.3484 74.1257 37.4064 74.2699 37.514 74.3776L39.3639 76.2453C39.4703 76.3531 39.6142 76.4124 39.7665 76.4124C39.9189 76.4124 40.0616 76.3531 40.1692 76.2453L40.1861 76.2271C40.4074 76.003 40.4074 75.6385 40.1861 75.4144L38.3362 73.548Z" fill="white"/>
<path d="M212.243 89.975C213.198 89.975 213.981 90.7598 213.981 91.7166V118.744C213.981 119.699 213.198 120.484 212.243 120.484H28.3468C27.3916 120.484 26.6081 119.699 26.6081 118.744V91.7166C26.6081 90.7598 27.3916 89.975 28.3468 89.975H212.243ZM212.243 88.3702H28.3468C26.5054 88.3702 25.0061 89.8732 25.0061 91.7166V118.744C25.0061 120.587 26.5054 122.089 28.3468 122.089H212.243C214.084 122.089 215.583 120.587 215.583 118.744V91.7166C215.583 89.8732 214.084 88.3702 212.243 88.3702Z" fill="white"/>
<path d="M50.5779 46.9094H46.6411L45.7948 48.7988H45.0161L48.2468 41.7256H48.9819L52.2077 48.7988H51.4242L50.5779 46.9094ZM50.3022 46.3038L48.6095 42.5008L46.9119 46.3038H50.3022Z" fill="white"/>
<path d="M53.2305 41.2993H53.9462V48.7989H53.2305V41.2993Z" fill="white"/>
<path d="M60.8529 43.4843V48.1497C60.8529 49.0532 60.6316 49.7217 60.1903 50.1553C59.7514 50.5914 59.0889 50.8094 58.2026 50.8094C57.7093 50.8094 57.2414 50.7367 56.8001 50.5914C56.3612 50.446 56.0045 50.245 55.7313 49.9906L56.094 49.448C56.3479 49.6733 56.6574 49.8513 57.0226 49.9809C57.3901 50.1093 57.777 50.1747 58.1833 50.1747C58.8531 50.1747 59.3464 50.0173 59.6632 49.7048C59.9787 49.3911 60.1371 48.903 60.1371 48.2417V47.5683C59.9147 47.905 59.6221 48.1594 59.2618 48.3338C58.9039 48.5082 58.5073 48.5954 58.072 48.5954C57.5715 48.5954 57.1193 48.4876 56.713 48.2708C56.3068 48.0516 55.9876 47.7451 55.7554 47.3503C55.5233 46.9567 55.4072 46.5098 55.4072 46.0083C55.4072 45.5118 55.5233 45.0673 55.7554 44.6761C55.9876 44.2861 56.3044 43.9821 56.7082 43.7653C57.1108 43.5497 57.5654 43.4407 58.072 43.4407C58.5194 43.4407 58.9256 43.5327 59.2908 43.7168C59.6547 43.8985 59.9485 44.1601 60.171 44.5016V43.4843H60.8529ZM58.1397 47.9607C58.523 47.9607 58.87 47.8784 59.1795 47.7136C59.4891 47.5489 59.7285 47.3188 59.9002 47.0209C60.0706 46.7241 60.1565 46.3862 60.1565 46.0083C60.1565 45.6305 60.0706 45.2962 59.9002 45.0055C59.7285 44.7124 59.4903 44.4823 59.1844 44.3176C58.8773 44.1528 58.5291 44.0705 58.1397 44.0705C57.7553 44.0705 57.4107 44.1516 57.1048 44.3127C56.8013 44.475 56.5631 44.7039 56.389 45.0006C56.2173 45.295 56.1327 45.6305 56.1327 46.0083C56.1327 46.3862 56.2173 46.7241 56.389 47.0209C56.5631 47.3188 56.8013 47.5489 57.1048 47.7136C57.4107 47.8784 57.7553 47.9607 58.1397 47.9607Z" fill="white"/>
<path d="M65.0307 48.8473C64.518 48.8473 64.0561 48.731 63.6475 48.4985C63.2376 48.2659 62.9148 47.945 62.6802 47.5344C62.4444 47.125 62.3271 46.6599 62.3271 46.1391C62.3271 45.6232 62.4444 45.1593 62.6802 44.7487C62.9148 44.3357 63.2376 44.0148 63.6475 43.7846C64.0561 43.5557 64.518 43.4407 65.0307 43.4407C65.5433 43.4407 66.004 43.5557 66.4138 43.7846C66.8225 44.0148 67.1441 44.3357 67.3763 44.7487C67.6084 45.1593 67.7245 45.6232 67.7245 46.1391C67.7245 46.6599 67.6084 47.125 67.3763 47.5344C67.1441 47.945 66.8225 48.2659 66.4138 48.4985C66.004 48.731 65.5433 48.8473 65.0307 48.8473ZM65.0307 48.2126C65.4079 48.2126 65.744 48.1279 66.0414 47.9559C66.3413 47.7851 66.5746 47.5417 66.7427 47.2243C66.9132 46.9082 66.999 46.5461 66.999 46.1391C66.999 45.7358 66.9132 45.3761 66.7427 45.0588C66.5746 44.7427 66.3413 44.4992 66.0414 44.3272C65.744 44.1565 65.4079 44.0705 65.0307 44.0705C64.6534 44.0705 64.3149 44.1565 64.015 44.3272C63.7176 44.4992 63.483 44.7427 63.3089 45.0588C63.1372 45.3761 63.0526 45.7358 63.0526 46.1391C63.0526 46.5461 63.1372 46.9082 63.3089 47.2243C63.483 47.5417 63.7176 47.7851 64.015 47.9559C64.3149 48.1279 64.6534 48.2126 65.0307 48.2126Z" fill="white"/>
<path d="M76.4308 45.1508C76.8951 45.2513 77.253 45.4512 77.5045 45.7516C77.756 46.0519 77.8817 46.4383 77.8817 46.9094C77.8817 47.5174 77.6568 47.9837 77.2095 48.3095C76.7646 48.6365 76.1032 48.7988 75.2266 48.7988H71.9814V41.7256H75.0283C75.8142 41.7256 76.4236 41.8843 76.8564 42.2004C77.2917 42.5177 77.5093 42.9647 77.5093 43.5424C77.5093 43.9336 77.4126 44.2667 77.2192 44.5404C77.0281 44.8117 76.7658 45.0152 76.4308 45.1508ZM72.7262 42.3409V44.9086H74.9751C75.5482 44.9086 75.9907 44.7996 76.3003 44.5791C76.6098 44.3599 76.7646 44.0414 76.7646 43.6248C76.7646 43.2081 76.6098 42.8908 76.3003 42.6704C75.9907 42.4511 75.5482 42.3409 74.9751 42.3409H72.7262ZM75.2169 48.1836C75.8481 48.1836 76.3257 48.0758 76.6485 47.859C76.9737 47.6434 77.1369 47.3055 77.1369 46.8464C77.1369 45.9647 76.4961 45.5239 75.2169 45.5239H72.7262V48.1836H75.2169Z" fill="white"/>
<path d="M81.6039 48.8473C81.0912 48.8473 80.6294 48.731 80.2207 48.4985C79.8108 48.2659 79.488 47.945 79.2534 47.5344C79.0177 47.125 78.9004 46.6599 78.9004 46.1391C78.9004 45.6232 79.0177 45.1593 79.2534 44.7487C79.488 44.3357 79.8108 44.0148 80.2207 43.7846C80.6294 43.5557 81.0912 43.4407 81.6039 43.4407C82.1165 43.4407 82.5772 43.5557 82.9871 43.7846C83.3957 44.0148 83.7173 44.3357 83.9495 44.7487C84.1816 45.1593 84.2977 45.6232 84.2977 46.1391C84.2977 46.6599 84.1816 47.125 83.9495 47.5344C83.7173 47.945 83.3957 48.2659 82.9871 48.4985C82.5772 48.731 82.1165 48.8473 81.6039 48.8473ZM81.6039 48.2126C81.9811 48.2126 82.3172 48.1279 82.6147 47.9559C82.9145 47.7851 83.1479 47.5417 83.3159 47.2243C83.4864 46.9082 83.5722 46.5461 83.5722 46.1391C83.5722 45.7358 83.4864 45.3761 83.3159 45.0588C83.1479 44.7427 82.9145 44.4992 82.6147 44.3272C82.3172 44.1565 81.9811 44.0705 81.6039 44.0705C81.2266 44.0705 80.8881 44.1565 80.5883 44.3272C80.2908 44.4992 80.0563 44.7427 79.8822 45.0588C79.7105 45.3761 79.6258 45.7358 79.6258 46.1391C79.6258 46.5461 79.7105 46.9082 79.8822 47.2243C80.0563 47.5417 80.2908 47.7851 80.5883 47.9559C80.8881 48.1279 81.2266 48.2126 81.6039 48.2126Z" fill="white"/>
<path d="M88.5521 48.4743C88.4191 48.5978 88.2534 48.6911 88.0539 48.7552C87.8569 48.8158 87.6501 48.8473 87.4349 48.8473C86.9343 48.8473 86.5511 48.7141 86.2839 48.4452C86.0154 48.1775 85.8824 47.796 85.8824 47.3019V44.0899H84.9297V43.4843H85.8824V42.3216H86.5982V43.4843H88.2087V44.0899H86.5982V47.2631C86.5982 47.5804 86.6768 47.8202 86.8352 47.9849C86.9924 48.1497 87.2185 48.232 87.5123 48.232C87.6598 48.232 87.8037 48.2102 87.9427 48.1642C88.0805 48.1157 88.2002 48.0479 88.3006 47.9607L88.5521 48.4743Z" fill="white"/>
<path d="M91.279 48.8473C90.8462 48.8473 90.4339 48.7867 90.0409 48.6632C89.6468 48.5372 89.3397 48.381 89.1172 48.1933L89.4412 47.6264C89.6637 47.8008 89.9418 47.945 90.2779 48.0576C90.6128 48.1678 90.9622 48.2223 91.3274 48.2223C91.811 48.2223 92.1689 48.1472 92.401 47.9946C92.6332 47.8432 92.7493 47.6301 92.7493 47.3551C92.7493 47.1589 92.684 47.0051 92.5558 46.8949C92.4301 46.7823 92.268 46.6987 92.0722 46.643C91.8787 46.5848 91.62 46.5291 91.2984 46.4734C90.8655 46.3935 90.5197 46.3111 90.2586 46.2263C89.9974 46.1428 89.7725 46.0011 89.5863 45.8C89.4025 45.5965 89.3106 45.3155 89.3106 44.957C89.3106 44.515 89.4944 44.1516 89.862 43.867C90.232 43.5836 90.7482 43.4407 91.4096 43.4407C91.7506 43.4407 92.0927 43.4879 92.4349 43.5812C92.7795 43.672 93.0636 43.7919 93.2861 43.9397L92.9717 44.5162C92.5328 44.2134 92.0117 44.0608 91.4096 44.0608C90.9514 44.0608 90.6068 44.1419 90.3746 44.303C90.1425 44.4653 90.0264 44.6761 90.0264 44.9377C90.0264 45.1411 90.0905 45.3046 90.2199 45.427C90.3517 45.5469 90.5149 45.6353 90.7083 45.6934C90.9042 45.7491 91.175 45.8073 91.5208 45.8678C91.9428 45.949 92.2813 46.0301 92.5365 46.1101C92.794 46.1912 93.0128 46.3305 93.1942 46.5267C93.3743 46.7205 93.465 46.9906 93.465 47.3358C93.465 47.7984 93.2716 48.1666 92.8847 48.4403C92.4978 48.7116 91.9621 48.8473 91.279 48.8473Z" fill="white"/>
<path d="M48.237 101.82L45.8575 108.893H45.0692L43.0041 102.862L40.9245 108.893H40.1458L37.7664 101.82H38.5353L40.5714 107.905L42.68 101.82H43.3765L45.4561 107.934L47.5212 101.82H48.237Z" fill="white"/>
<path d="M51.4542 103.535C52.147 103.535 52.679 103.71 53.0502 104.058C53.4202 104.405 53.6064 104.918 53.6064 105.599V108.893H52.9196V108.065C52.7576 108.34 52.5206 108.554 52.2087 108.709C51.8955 108.864 51.5231 108.942 51.0915 108.942C50.5015 108.942 50.0299 108.801 49.6793 108.52C49.3311 108.237 49.157 107.861 49.157 107.396C49.157 106.948 49.319 106.585 49.6454 106.306C49.9707 106.029 50.4894 105.89 51.2027 105.89H52.8906V105.57C52.8906 105.112 52.7612 104.763 52.5037 104.523C52.2486 104.285 51.8762 104.165 51.3865 104.165C51.048 104.165 50.7239 104.222 50.4144 104.334C50.1073 104.445 49.8437 104.596 49.6213 104.79L49.2972 104.257C49.5644 104.028 49.8873 103.85 50.2645 103.724C50.6417 103.598 51.0383 103.535 51.4542 103.535ZM51.2027 108.38C51.6054 108.38 51.9524 108.288 52.2425 108.104C52.5327 107.917 52.7479 107.647 52.8906 107.295V106.427H51.2221C50.3153 106.427 49.8631 106.745 49.8631 107.377C49.8631 107.687 49.9804 107.933 50.2161 108.113C50.4507 108.291 50.7796 108.38 51.2027 108.38Z" fill="white"/>
<path d="M60.012 103.579L57.6471 108.893H56.912L54.5615 103.579H55.3063L57.294 108.104L59.3059 103.579H60.012Z" fill="white"/>
<path d="M65.6389 106.456H61.1992C61.2403 107.009 61.4519 107.457 61.8327 107.798C62.216 108.138 62.7008 108.307 63.2885 108.307C63.6173 108.307 63.9184 108.249 64.1928 108.133C64.4697 108.014 64.7103 107.84 64.9135 107.609L65.3149 108.075C65.0791 108.359 64.7841 108.576 64.4298 108.724C64.078 108.869 63.6911 108.942 63.2691 108.942C62.7238 108.942 62.2402 108.825 61.8182 108.593C61.3987 108.36 61.071 108.039 60.8364 107.629C60.6007 107.219 60.4834 106.754 60.4834 106.234C60.4834 105.718 60.5958 105.254 60.8219 104.843C61.0468 104.43 61.3564 104.109 61.7505 103.879C62.1435 103.65 62.5848 103.535 63.0757 103.535C63.5653 103.535 64.0054 103.65 64.396 103.879C64.7853 104.109 65.0924 104.429 65.3149 104.838C65.5373 105.245 65.6486 105.71 65.6486 106.234L65.6389 106.456ZM63.0757 104.155C62.5654 104.155 62.1374 104.319 61.7892 104.645C61.4434 104.972 61.2475 105.398 61.1992 105.924H64.9618C64.9159 105.398 64.72 104.972 64.3718 104.645C64.026 104.319 63.5944 104.155 63.0757 104.155Z" fill="white"/>
<path d="M68.6324 102.464H66.1514V101.82H71.863V102.464H69.382V108.893H68.6324V102.464Z" fill="white"/>
<path d="M73.5852 104.62C73.7557 104.262 74.0072 103.993 74.3397 103.811C74.671 103.627 75.0821 103.535 75.573 103.535V104.233L75.4037 104.223C74.8451 104.223 74.4086 104.396 74.0931 104.741C73.7763 105.084 73.6191 105.565 73.6191 106.185V108.893H72.9033V103.579H73.5852V104.62Z" fill="white"/>
<path d="M81.5666 106.456H77.1269C77.168 107.009 77.3796 107.457 77.7605 107.798C78.1437 108.138 78.6286 108.307 79.2162 108.307C79.5451 108.307 79.8461 108.249 80.1206 108.133C80.3975 108.014 80.6381 107.84 80.8412 107.609L81.2426 108.075C81.0068 108.359 80.7118 108.576 80.3576 108.724C80.0057 108.869 79.6188 108.942 79.1968 108.942C78.6516 108.942 78.1679 108.825 77.746 108.593C77.3264 108.36 76.9987 108.039 76.7642 107.629C76.5284 107.219 76.4111 106.754 76.4111 106.234C76.4111 105.718 76.5236 105.254 76.7497 104.843C76.9746 104.43 77.2841 104.109 77.6782 103.879C78.0712 103.65 78.5125 103.535 79.0034 103.535C79.4931 103.535 79.9332 103.65 80.3237 103.879C80.713 104.109 81.0201 104.429 81.2426 104.838C81.4651 105.245 81.5763 105.71 81.5763 106.234L81.5666 106.456ZM79.0034 104.155C78.4932 104.155 78.0651 104.319 77.7169 104.645C77.3711 104.972 77.1753 105.398 77.1269 105.924H80.8896C80.8436 105.398 80.6477 104.972 80.2995 104.645C79.9537 104.319 79.5221 104.155 79.0034 104.155Z" fill="white"/>
<path d="M84.893 103.535C85.5858 103.535 86.1177 103.71 86.4889 104.058C86.8589 104.405 87.0451 104.918 87.0451 105.599V108.893H86.3584V108.065C86.1963 108.34 85.9594 108.554 85.6474 108.709C85.3343 108.864 84.9619 108.942 84.5302 108.942C83.9402 108.942 83.4687 108.801 83.118 108.52C82.7698 108.237 82.5957 107.861 82.5957 107.396C82.5957 106.948 82.7577 106.585 83.0842 106.306C83.4094 106.029 83.9281 105.89 84.6415 105.89H86.3293V105.57C86.3293 105.112 86.2 104.763 85.9424 104.523C85.6873 104.285 85.3149 104.165 84.8252 104.165C84.4867 104.165 84.1627 104.222 83.8531 104.334C83.546 104.445 83.2825 104.596 83.06 104.79L82.736 104.257C83.0032 104.028 83.326 103.85 83.7032 103.724C84.0805 103.598 84.477 103.535 84.893 103.535ZM84.6415 108.38C85.0441 108.38 85.3911 108.288 85.6813 108.104C85.9715 107.917 86.1867 107.647 86.3293 107.295V106.427H84.6608C83.754 106.427 83.3018 106.745 83.3018 107.377C83.3018 107.687 83.4191 107.933 83.6549 108.113C83.8894 108.291 84.2183 108.38 84.6415 108.38Z" fill="white"/>
<path d="M93.834 101.394V108.893H93.1473V107.842C92.9309 108.2 92.6455 108.474 92.2913 108.661C91.9394 108.848 91.5416 108.942 91.0967 108.942C90.5998 108.942 90.15 108.829 89.7474 108.603C89.3435 108.374 89.0279 108.054 88.7994 107.643C88.5697 107.23 88.4561 106.76 88.4561 106.234C88.4561 105.71 88.5697 105.244 88.7994 104.833C89.0279 104.42 89.3435 104.101 89.7474 103.874C90.15 103.649 90.5998 103.535 91.0967 103.535C91.5283 103.535 91.9164 103.626 92.2622 103.806C92.6104 103.984 92.8958 104.245 93.1183 104.586V101.394H93.834ZM91.1596 108.307C91.5295 108.307 91.8632 108.222 92.1607 108.05C92.4605 107.879 92.6951 107.636 92.8668 107.319C93.0409 107.003 93.1279 106.64 93.1279 106.234C93.1279 105.83 93.0409 105.47 92.8668 105.153C92.6951 104.837 92.4605 104.594 92.1607 104.422C91.8632 104.251 91.5295 104.165 91.1596 104.165C90.7823 104.165 90.4438 104.251 90.1439 104.422C89.8465 104.594 89.6119 104.837 89.4378 105.153C89.2661 105.47 89.1815 105.83 89.1815 106.234C89.1815 106.64 89.2661 107.003 89.4378 107.319C89.6119 107.636 89.8465 107.879 90.1439 108.05C90.4438 108.222 90.7823 108.307 91.1596 108.307Z" fill="white"/>
<path d="M100.45 106.456H96.0107C96.0518 107.009 96.2634 107.457 96.6443 107.798C97.0275 108.138 97.5124 108.307 98.1 108.307C98.4289 108.307 98.7299 108.249 99.0044 108.133C99.2813 108.014 99.5219 107.84 99.725 107.609L100.126 108.075C99.8906 108.359 99.5956 108.576 99.2414 108.724C98.8895 108.869 98.5026 108.942 98.0806 108.942C97.5353 108.942 97.0517 108.825 96.6297 108.593C96.2102 108.36 95.8825 108.039 95.648 107.629C95.4122 107.219 95.2949 106.754 95.2949 106.234C95.2949 105.718 95.4074 105.254 95.6335 104.843C95.8584 104.43 96.1679 104.109 96.562 103.879C96.955 103.65 97.3963 103.535 97.8872 103.535C98.3769 103.535 98.817 103.65 99.2075 103.879C99.5968 104.109 99.9039 104.429 100.126 104.838C100.349 105.245 100.46 105.71 100.46 106.234L100.45 106.456ZM97.8872 104.155C97.377 104.155 96.9489 104.319 96.6007 104.645C96.2549 104.972 96.0591 105.398 96.0107 105.924H99.7733C99.7274 105.398 99.5315 104.972 99.1833 104.645C98.8375 104.319 98.4059 104.155 97.8872 104.155Z" fill="white"/>
<path d="M102.607 104.62C102.777 104.262 103.029 103.993 103.361 103.811C103.692 103.627 104.104 103.535 104.594 103.535V104.233L104.425 104.223C103.867 104.223 103.43 104.396 103.115 104.741C102.798 105.084 102.641 105.565 102.641 106.185V108.893H101.925V103.579H102.607V104.62Z" fill="white"/>
<path d="M113.212 105.245C113.676 105.346 114.034 105.546 114.286 105.846C114.537 106.146 114.663 106.533 114.663 107.004C114.663 107.612 114.438 108.078 113.991 108.404C113.546 108.731 112.884 108.893 112.008 108.893H108.763V101.82H111.81C112.595 101.82 113.205 101.979 113.638 102.295C114.073 102.612 114.291 103.059 114.291 103.637C114.291 104.028 114.194 104.361 114 104.635C113.809 104.906 113.547 105.11 113.212 105.245ZM109.507 102.435V105.003H111.756C112.329 105.003 112.772 104.894 113.082 104.674C113.391 104.454 113.546 104.136 113.546 103.719C113.546 103.303 113.391 102.985 113.082 102.765C112.772 102.546 112.329 102.435 111.756 102.435H109.507ZM111.998 108.278C112.629 108.278 113.107 108.17 113.43 107.953C113.755 107.738 113.918 107.4 113.918 106.941C113.918 106.059 113.277 105.618 111.998 105.618H109.507V108.278H111.998Z" fill="white"/>
<path d="M117.737 102.464H115.256V101.82H120.968V102.464H118.487V108.893H117.737V102.464Z" fill="white"/>
<path d="M125.224 108.956C124.524 108.956 123.894 108.801 123.333 108.491C122.772 108.181 122.33 107.752 122.008 107.202C121.689 106.654 121.529 106.039 121.529 105.357C121.529 104.676 121.689 104.061 122.008 103.511C122.33 102.962 122.773 102.532 123.338 102.222C123.901 101.912 124.534 101.757 125.234 101.757C125.759 101.757 126.242 101.847 126.685 102.024C127.13 102.198 127.507 102.454 127.816 102.789L127.343 103.264C126.791 102.705 126.095 102.426 125.253 102.426C124.695 102.426 124.187 102.554 123.73 102.808C123.272 103.064 122.914 103.414 122.656 103.86C122.397 104.305 122.269 104.804 122.269 105.357C122.269 105.909 122.397 106.408 122.656 106.854C122.914 107.297 123.272 107.647 123.73 107.905C124.187 108.16 124.695 108.288 125.253 108.288C126.101 108.288 126.797 108.005 127.343 107.44L127.816 107.915C127.507 108.251 127.127 108.509 126.68 108.69C126.235 108.868 125.749 108.956 125.224 108.956Z" fill="white"/>
<path d="M175.259 105.657H173.382V107.498H172.749V105.657H170.872V105.061H172.749V103.215H173.382V105.061H175.259V105.657Z" fill="white"/>
<path d="M178.346 104.717C179.368 104.717 180.113 104.901 180.581 105.269C181.048 105.638 181.282 106.151 181.282 106.81C181.282 107.224 181.185 107.592 180.992 107.915C180.801 108.238 180.514 108.494 180.131 108.68C179.75 108.864 179.28 108.956 178.719 108.956C178.216 108.956 177.737 108.874 177.282 108.709C176.828 108.542 176.463 108.32 176.189 108.045L176.543 107.469C176.777 107.711 177.087 107.909 177.471 108.06C177.854 108.213 178.267 108.288 178.709 108.288C179.296 108.288 179.749 108.157 180.068 107.895C180.387 107.631 180.547 107.28 180.547 106.844C180.547 106.357 180.366 105.989 180.005 105.739C179.647 105.491 179.04 105.366 178.187 105.366H176.683L177.045 101.82H180.91V102.464H177.684L177.442 104.717H178.346Z" fill="white"/>
<path d="M188.205 107.033H186.793V108.893H186.062V107.033H182.077V106.51L185.82 101.82H186.628L183.015 106.389H186.086V104.751H186.793V106.389H188.205V107.033Z" fill="white"/>
<path d="M192.914 105.182C193.359 105.331 193.7 105.554 193.939 105.851C194.177 106.149 194.297 106.505 194.297 106.921C194.297 107.332 194.186 107.691 193.963 107.997C193.741 108.305 193.422 108.542 193.006 108.709C192.592 108.874 192.107 108.956 191.55 108.956C190.705 108.956 190.039 108.775 189.553 108.409C189.069 108.044 188.827 107.549 188.827 106.921C188.827 106.499 188.943 106.14 189.175 105.846C189.408 105.553 189.746 105.331 190.191 105.182C189.826 105.044 189.549 104.842 189.359 104.577C189.172 104.309 189.079 103.993 189.079 103.627C189.079 103.055 189.302 102.602 189.751 102.266C190.198 101.927 190.798 101.757 191.55 101.757C192.049 101.757 192.485 101.833 192.856 101.985C193.229 102.137 193.521 102.355 193.731 102.639C193.94 102.92 194.046 103.249 194.046 103.627C194.046 103.993 193.946 104.309 193.751 104.577C193.557 104.842 193.278 105.044 192.914 105.182ZM189.804 103.647C189.804 104.038 189.959 104.348 190.268 104.577C190.578 104.807 191.005 104.921 191.55 104.921C192.094 104.921 192.523 104.807 192.836 104.577C193.148 104.348 193.306 104.041 193.306 103.656C193.306 103.259 193.146 102.948 192.827 102.721C192.508 102.492 192.082 102.377 191.55 102.377C191.011 102.377 190.585 102.492 190.273 102.721C189.96 102.948 189.804 103.257 189.804 103.647ZM191.55 108.336C192.175 108.336 192.664 108.209 193.015 107.953C193.37 107.699 193.547 107.351 193.547 106.912C193.547 106.476 193.37 106.132 193.015 105.88C192.664 105.626 192.175 105.497 191.55 105.497C190.931 105.497 190.444 105.626 190.089 105.88C189.738 106.132 189.562 106.476 189.562 106.912C189.562 107.357 189.736 107.706 190.085 107.958C190.435 108.21 190.924 108.336 191.55 108.336Z" fill="white"/>
<path d="M196.796 105.609C196.319 105.609 195.933 105.433 195.64 105.081C195.35 104.726 195.205 104.262 195.205 103.69C195.205 103.116 195.35 102.652 195.64 102.3C195.933 101.945 196.319 101.767 196.796 101.767C197.267 101.767 197.65 101.944 197.947 102.295C198.243 102.644 198.392 103.109 198.392 103.69C198.392 104.269 198.243 104.734 197.947 105.085C197.65 105.434 197.267 105.609 196.796 105.609ZM201.076 101.82H201.671L196.849 108.893H196.255L201.076 101.82ZM196.796 105.153C197.125 105.153 197.387 105.025 197.585 104.766C197.784 104.508 197.884 104.149 197.884 103.69C197.884 103.232 197.784 102.874 197.585 102.615C197.387 102.353 197.125 102.222 196.796 102.222C196.46 102.222 196.194 102.355 195.998 102.619C195.805 102.881 195.708 103.238 195.708 103.69C195.708 104.139 195.805 104.497 195.998 104.761C196.194 105.022 196.46 105.153 196.796 105.153ZM201.125 108.942C200.653 108.942 200.27 108.766 199.974 108.414C199.68 108.059 199.534 107.595 199.534 107.023C199.534 106.452 199.68 105.99 199.974 105.638C200.27 105.283 200.653 105.105 201.125 105.105C201.601 105.105 201.987 105.283 202.281 105.638C202.573 105.99 202.721 106.452 202.721 107.023C202.721 107.595 202.573 108.059 202.281 108.414C201.987 108.766 201.601 108.942 201.125 108.942ZM201.125 108.491C201.46 108.491 201.724 108.36 201.918 108.099C202.114 107.835 202.213 107.476 202.213 107.023C202.213 106.571 202.114 106.214 201.918 105.953C201.724 105.691 201.46 105.56 201.125 105.56C200.796 105.56 200.531 105.69 200.332 105.948C200.134 106.207 200.037 106.565 200.037 107.023C200.037 107.482 200.134 107.842 200.332 108.104C200.531 108.363 200.796 108.491 201.125 108.491Z" fill="white"/>
<path d="M212.243 131.099C213.198 131.099 213.981 131.884 213.981 132.839V159.867C213.981 160.823 213.198 161.608 212.243 161.608H28.3468C27.3916 161.608 26.6081 160.823 26.6081 159.867V132.839C26.6081 131.884 27.3916 131.099 28.3468 131.099H212.243ZM212.243 129.494H28.3468C26.5054 129.494 25.0061 130.996 25.0061 132.839V159.867C25.0061 161.711 26.5054 163.213 28.3468 163.213H212.243C214.084 163.213 215.583 161.711 215.583 159.867V132.839C215.583 130.996 214.084 129.494 212.243 129.494Z" fill="white"/>
<path d="M175.778 146.78H173.902V148.621H173.268V146.78H171.392V146.184H173.268V144.339H173.902V146.184H175.778V146.78Z" fill="white"/>
<path d="M179.411 145.976C180.149 146.015 180.712 146.216 181.099 146.577C181.486 146.935 181.679 147.405 181.679 147.987C181.679 148.391 181.58 148.75 181.384 149.062C181.191 149.376 180.902 149.624 180.519 149.808C180.134 149.99 179.668 150.079 179.116 150.079C178.606 150.079 178.125 149.997 177.67 149.832C177.216 149.665 176.85 149.444 176.577 149.169L176.93 148.592C177.165 148.834 177.478 149.032 177.868 149.183C178.258 149.336 178.674 149.411 179.116 149.411C179.697 149.411 180.144 149.285 180.461 149.033C180.776 148.779 180.935 148.43 180.935 147.987C180.935 147.548 180.776 147.204 180.461 146.955C180.144 146.706 179.668 146.582 179.029 146.582H178.521V146.044L180.48 143.588H176.867V142.943H181.409V143.457L179.411 145.976Z" fill="white"/>
<path d="M187.684 142.943V143.457L184.729 150.016H183.94L186.847 143.588H183.215V144.915H182.499V142.943H187.684Z" fill="white"/>
<path d="M190.839 142.88C191.774 142.88 192.49 143.189 192.986 143.806C193.486 144.423 193.736 145.293 193.736 146.417C193.736 147.205 193.601 147.873 193.33 148.418C193.061 148.964 192.687 149.377 192.203 149.658C191.719 149.939 191.154 150.079 190.505 150.079C189.805 150.079 189.248 149.951 188.832 149.692L189.127 149.106C189.462 149.329 189.918 149.44 190.496 149.44C191.276 149.44 191.889 149.193 192.334 148.699C192.779 148.202 193.001 147.482 193.001 146.538C193.001 146.364 192.989 146.173 192.967 145.966C192.793 146.348 192.514 146.645 192.13 146.858C191.746 147.071 191.306 147.178 190.81 147.178C190.346 147.178 189.932 147.09 189.572 146.916C189.214 146.739 188.934 146.49 188.731 146.17C188.53 145.85 188.431 145.479 188.431 145.056C188.431 144.623 188.533 144.242 188.74 143.912C188.949 143.583 189.236 143.33 189.601 143.152C189.969 142.971 190.381 142.88 190.839 142.88ZM190.921 146.562C191.276 146.562 191.589 146.494 191.86 146.359C192.133 146.223 192.348 146.038 192.503 145.802C192.658 145.567 192.735 145.303 192.735 145.012C192.735 144.744 192.662 144.496 192.517 144.266C192.375 144.037 192.162 143.853 191.879 143.714C191.595 143.572 191.257 143.5 190.868 143.5C190.358 143.5 189.944 143.641 189.625 143.922C189.306 144.201 189.146 144.571 189.146 145.036C189.146 145.501 189.306 145.873 189.625 146.15C189.944 146.425 190.376 146.562 190.921 146.562Z" fill="white"/>
<path d="M196.276 146.732C195.798 146.732 195.412 146.556 195.12 146.204C194.83 145.849 194.685 145.385 194.685 144.813C194.685 144.239 194.83 143.775 195.12 143.423C195.412 143.068 195.798 142.89 196.276 142.89C196.746 142.89 197.129 143.067 197.427 143.418C197.723 143.767 197.872 144.232 197.872 144.813C197.872 145.392 197.723 145.857 197.427 146.209C197.129 146.557 196.746 146.732 196.276 146.732ZM200.556 142.943H201.151L196.329 150.016H195.734L200.556 142.943ZM196.276 146.276C196.605 146.276 196.867 146.148 197.064 145.889C197.264 145.631 197.364 145.272 197.364 144.813C197.364 144.356 197.264 143.997 197.064 143.738C196.867 143.476 196.605 143.345 196.276 143.345C195.94 143.345 195.674 143.479 195.478 143.743C195.284 144.004 195.188 144.362 195.188 144.813C195.188 145.263 195.284 145.62 195.478 145.884C195.674 146.146 195.94 146.276 196.276 146.276ZM200.604 150.065C200.133 150.065 199.749 149.889 199.453 149.537C199.159 149.182 199.013 148.718 199.013 148.146C199.013 147.575 199.159 147.113 199.453 146.761C199.749 146.406 200.133 146.228 200.604 146.228C201.081 146.228 201.466 146.406 201.76 146.761C202.053 147.113 202.2 147.575 202.2 148.146C202.2 148.718 202.053 149.182 201.76 149.537C201.466 149.889 201.081 150.065 200.604 150.065ZM200.604 149.614C200.939 149.614 201.204 149.484 201.397 149.222C201.593 148.958 201.692 148.599 201.692 148.146C201.692 147.695 201.593 147.337 201.397 147.076C201.204 146.814 200.939 146.683 200.604 146.683C200.275 146.683 200.011 146.813 199.811 147.071C199.614 147.33 199.516 147.689 199.516 148.146C199.516 148.605 199.614 148.965 199.811 149.227C200.011 149.486 200.275 149.614 200.604 149.614Z" fill="white"/>
<path d="M48.0885 142.807L45.7091 149.881H44.9207L42.8556 143.849L40.776 149.881H39.9974L37.6179 142.807H38.3869L40.423 148.892L42.5316 142.807H43.228L45.3076 148.921L47.3728 142.807H48.0885Z" fill="white"/>
<path d="M52.6862 149.944C51.9862 149.944 51.3526 149.787 50.7855 149.474C50.2173 149.161 49.7723 148.731 49.4507 148.185C49.1315 147.64 48.9719 147.026 48.9719 146.344C48.9719 145.663 49.1315 145.049 49.4507 144.503C49.7723 143.958 50.2173 143.528 50.7855 143.214C51.3526 142.902 51.9862 142.745 52.6862 142.745C53.3851 142.745 54.0162 142.9 54.5772 143.21C55.1382 143.52 55.5795 143.95 55.9024 144.498C56.2276 145.048 56.3908 145.663 56.3908 146.344C56.3908 147.026 56.2276 147.641 55.9024 148.19C55.5795 148.74 55.1382 149.169 54.5772 149.479C54.0162 149.789 53.3851 149.944 52.6862 149.944ZM52.6862 149.275C53.2436 149.275 53.7478 149.149 54.2 148.897C54.651 148.643 55.004 148.292 55.2591 147.846C55.513 147.398 55.6412 146.896 55.6412 146.344C55.6412 145.792 55.513 145.292 55.2591 144.842C55.004 144.394 54.651 144.043 54.2 143.791C53.7478 143.539 53.2436 143.413 52.6862 143.413C52.1276 143.413 51.6222 143.539 51.1676 143.791C50.713 144.043 50.3563 144.394 50.0988 144.842C49.84 145.292 49.7119 145.792 49.7119 146.344C49.7119 146.896 49.84 147.398 50.0988 147.846C50.3563 148.292 50.713 148.643 51.1676 148.897C51.6222 149.149 52.1276 149.275 52.6862 149.275Z" fill="white"/>
<path d="M67.7538 142.807L65.3743 149.881H64.586L62.5209 143.849L60.4413 149.881H59.6627L57.2832 142.807H58.0522L60.0883 148.892L62.1969 142.807H62.8933L64.9729 148.921L67.038 142.807H67.7538Z" fill="white"/>
<path d="M71.9082 142.807H74.781C75.5282 142.807 76.1883 142.958 76.759 143.258C77.3297 143.556 77.7722 143.973 78.089 144.508C78.4082 145.045 78.5678 145.656 78.5678 146.344C78.5678 147.032 78.4082 147.645 78.089 148.18C77.7722 148.713 77.3297 149.13 76.759 149.43C76.1883 149.73 75.5282 149.881 74.781 149.881H71.9082V142.807ZM74.7423 149.231C75.3613 149.231 75.903 149.109 76.3673 148.863C76.8316 148.619 77.1907 148.28 77.4458 147.846C77.6997 147.41 77.8278 146.91 77.8278 146.344C77.8278 145.78 77.6997 145.281 77.4458 144.847C77.1907 144.411 76.8316 144.071 76.3673 143.825C75.903 143.577 75.3613 143.452 74.7423 143.452H72.653V149.231H74.7423Z" fill="white"/>
<path d="M82.2553 149.929C81.7426 149.929 81.2807 149.813 80.8721 149.58C80.4622 149.348 80.1394 149.027 79.9048 148.616C79.669 148.207 79.5518 147.742 79.5518 147.221C79.5518 146.705 79.669 146.241 79.9048 145.831C80.1394 145.418 80.4622 145.097 80.8721 144.866C81.2807 144.638 81.7426 144.523 82.2553 144.523C82.7679 144.523 83.2286 144.638 83.6384 144.866C84.0471 145.097 84.3687 145.418 84.6009 145.831C84.833 146.241 84.9491 146.705 84.9491 147.221C84.9491 147.742 84.833 148.207 84.6009 148.616C84.3687 149.027 84.0471 149.348 83.6384 149.58C83.2286 149.813 82.7679 149.929 82.2553 149.929ZM82.2553 149.294C82.6325 149.294 82.9686 149.21 83.266 149.038C83.5659 148.867 83.7992 148.624 83.9673 148.306C84.1378 147.99 84.2236 147.628 84.2236 147.221C84.2236 146.818 84.1378 146.458 83.9673 146.141C83.7992 145.825 83.5659 145.581 83.266 145.409C82.9686 145.238 82.6325 145.152 82.2553 145.152C81.878 145.152 81.5395 145.238 81.2396 145.409C80.9422 145.581 80.7076 145.825 80.5335 146.141C80.3618 146.458 80.2772 146.818 80.2772 147.221C80.2772 147.628 80.3618 147.99 80.5335 148.306C80.7076 148.624 80.9422 148.867 81.2396 149.038C81.5395 149.21 81.878 149.294 82.2553 149.294Z" fill="white"/>
<path d="M91.3197 144.566V149.232C91.3197 150.135 91.0984 150.804 90.6571 151.237C90.2182 151.673 89.5557 151.891 88.6694 151.891C88.1761 151.891 87.7082 151.819 87.2669 151.673C86.828 151.528 86.4713 151.327 86.1981 151.072L86.5608 150.53C86.8147 150.755 87.1242 150.933 87.4894 151.063C87.8569 151.191 88.2438 151.257 88.6501 151.257C89.3199 151.257 89.8132 151.099 90.13 150.787C90.4455 150.473 90.6039 149.985 90.6039 149.324V148.65C90.3815 148.987 90.0889 149.241 89.7286 149.416C89.3707 149.59 88.9741 149.677 88.5388 149.677C88.0383 149.677 87.5861 149.569 87.1798 149.353C86.7736 149.133 86.4544 148.827 86.2222 148.432C85.9901 148.039 85.874 147.592 85.874 147.09C85.874 146.594 85.9901 146.149 86.2222 145.758C86.4544 145.368 86.7712 145.064 87.175 144.847C87.5776 144.632 88.0322 144.523 88.5388 144.523C88.9862 144.523 89.3924 144.615 89.7576 144.799C90.1215 144.98 90.4153 145.242 90.6378 145.583V144.566H91.3197ZM88.6065 149.043C88.9898 149.043 89.3368 148.96 89.6463 148.795C89.9559 148.631 90.1953 148.401 90.367 148.103C90.5374 147.806 90.6233 147.468 90.6233 147.09C90.6233 146.712 90.5374 146.378 90.367 146.087C90.1953 145.794 89.9571 145.564 89.6512 145.399C89.3441 145.235 88.9959 145.152 88.6065 145.152C88.2221 145.152 87.8775 145.233 87.5716 145.395C87.2681 145.557 87.0299 145.786 86.8558 146.082C86.6841 146.377 86.5995 146.712 86.5995 147.09C86.5995 147.468 86.6841 147.806 86.8558 148.103C87.0299 148.401 87.2681 148.631 87.5716 148.795C87.8775 148.96 88.2221 149.043 88.6065 149.043Z" fill="white"/>
<path d="M97.9485 147.444H93.5087C93.5499 147.996 93.7614 148.444 94.1423 148.786C94.5256 149.125 95.0104 149.294 95.598 149.294C95.9269 149.294 96.228 149.236 96.5024 149.12C96.7793 149.001 97.0199 148.827 97.223 148.597L97.6244 149.062C97.3887 149.347 97.0937 149.563 96.7394 149.711C96.3876 149.856 96.0006 149.929 95.5787 149.929C95.0334 149.929 94.5498 149.813 94.1278 149.58C93.7082 149.348 93.3806 149.027 93.146 148.616C92.9102 148.207 92.793 147.742 92.793 147.221C92.793 146.705 92.9054 146.241 93.1315 145.831C93.3564 145.418 93.6659 145.097 94.0601 144.866C94.453 144.638 94.8943 144.523 95.3852 144.523C95.8749 144.523 96.315 144.638 96.7055 144.866C97.0949 145.097 97.402 145.416 97.6244 145.826C97.8469 146.233 97.9581 146.698 97.9581 147.221L97.9485 147.444ZM95.3852 145.143C94.875 145.143 94.447 145.306 94.0988 145.632C93.753 145.959 93.5571 146.385 93.5087 146.911H97.2714C97.2254 146.385 97.0296 145.959 96.6814 145.632C96.3356 145.306 95.9039 145.143 95.3852 145.143Z" fill="white"/>
<path d="M212.243 172.223C213.198 172.223 213.981 173.007 213.981 173.963V200.99C213.981 201.947 213.198 202.732 212.243 202.732H28.3468C27.3916 202.732 26.6081 201.947 26.6081 200.99V173.963C26.6081 173.007 27.3916 172.223 28.3468 172.223H212.243ZM212.243 170.618H28.3468C26.5054 170.618 25.0061 172.12 25.0061 173.963V200.99C25.0061 202.833 26.5054 204.337 28.3468 204.337H212.243C214.084 204.337 215.583 202.833 215.583 200.99V173.963C215.583 172.12 214.084 170.618 212.243 170.618Z" fill="white"/>
<path d="M43.3878 190.482V191.131H38.3967V184.058H43.2379V184.703H39.1415V187.222H42.7929V187.856H39.1415V190.482H43.3878Z" fill="white"/>
<path d="M46.5118 184.703H44.0308V184.058H49.7424V184.703H47.2614V191.131H46.5118V184.703Z" fill="white"/>
<path d="M56.8324 184.058V191.131H56.0973V187.866H51.6769V191.131H50.9321V184.058H51.6769V187.212H56.0973V184.058H56.8324Z" fill="white"/>
<path d="M61.7725 184.058H62.5172V191.131H61.7725V184.058Z" fill="white"/>
<path d="M67.3724 185.773C68.0362 185.773 68.5646 185.967 68.9587 186.355C69.3517 186.742 69.5488 187.308 69.5488 188.05V191.131H68.833V188.118C68.833 187.566 68.6939 187.147 68.4171 186.858C68.1426 186.568 67.7497 186.422 67.237 186.422C66.6663 186.422 66.2141 186.594 65.8829 186.936C65.5504 187.275 65.3847 187.744 65.3847 188.341V191.131H64.6689V185.817H65.3509V186.795C65.5467 186.473 65.8176 186.223 66.1634 186.044C66.5116 185.864 66.9142 185.773 67.3724 185.773Z" fill="white"/>
<path d="M73.2467 184.189C72.9395 184.189 72.7062 184.274 72.5454 184.441C72.387 184.609 72.3084 184.858 72.3084 185.187V185.817H73.9431V186.422H72.3326V191.131H71.6168V186.422H70.6641V185.817H71.6168V185.158C71.6168 184.673 71.7547 184.291 72.0327 184.01C72.3132 183.726 72.7074 183.583 73.2176 183.583C73.4208 183.583 73.6154 183.612 73.8028 183.671C73.9927 183.726 74.151 183.809 74.2768 183.918L74.035 184.451C73.8282 184.276 73.5658 184.189 73.2467 184.189Z" fill="white"/>
<path d="M74.9144 185.817H75.6302V191.131H74.9144V185.817ZM75.2723 184.654C75.1236 184.654 74.9991 184.604 74.8999 184.504C74.7996 184.401 74.75 184.279 74.75 184.136C74.75 184.004 74.7996 183.887 74.8999 183.787C74.9991 183.684 75.1236 183.632 75.2723 183.632C75.4198 183.632 75.5444 183.683 75.6447 183.782C75.7475 183.879 75.7995 183.994 75.7995 184.126C75.7995 184.275 75.7475 184.401 75.6447 184.504C75.5444 184.604 75.4198 184.654 75.2723 184.654Z" fill="white"/>
<path d="M80.3305 185.773C80.9942 185.773 81.5226 185.967 81.9168 186.355C82.3097 186.742 82.5068 187.308 82.5068 188.05V191.131H81.791V188.118C81.791 187.566 81.652 187.147 81.3751 186.858C81.1006 186.568 80.7077 186.422 80.195 186.422C79.6244 186.422 79.1722 186.594 78.8409 186.936C78.5084 187.275 78.3427 187.744 78.3427 188.341V191.131H77.627V185.817H78.3089V186.795C78.5047 186.473 78.7756 186.223 79.1214 186.044C79.4696 185.864 79.8722 185.773 80.3305 185.773Z" fill="white"/>
<path d="M84.4545 185.817H85.1702V191.131H84.4545V185.817ZM84.8124 184.654C84.6636 184.654 84.5391 184.604 84.44 184.504C84.3396 184.401 84.29 184.279 84.29 184.136C84.29 184.004 84.3396 183.887 84.44 183.787C84.5391 183.684 84.6636 183.632 84.8124 183.632C84.9599 183.632 85.0844 183.683 85.1847 183.782C85.2875 183.879 85.3395 183.994 85.3395 184.126C85.3395 184.275 85.2875 184.401 85.1847 184.504C85.0844 184.604 84.9599 184.654 84.8124 184.654Z" fill="white"/>
<path d="M89.9583 190.807C89.8253 190.93 89.6597 191.024 89.4602 191.088C89.2631 191.148 89.0564 191.18 88.8411 191.18C88.3406 191.18 87.9573 191.047 87.6901 190.778C87.4217 190.51 87.2887 190.128 87.2887 189.634V186.422H86.3359V185.817H87.2887V184.654H88.0045V185.817H89.615V186.422H88.0045V189.596C88.0045 189.913 88.0831 190.153 88.2414 190.317C88.3986 190.482 88.6247 190.565 88.9185 190.565C89.066 190.565 89.2099 190.543 89.349 190.497C89.4868 190.448 89.6065 190.38 89.7068 190.293L89.9583 190.807Z" fill="white"/>
<path d="M95.7215 185.817L93.0663 191.766C92.8499 192.266 92.5996 192.62 92.3167 192.827C92.0362 193.036 91.6976 193.142 91.3011 193.142C91.0459 193.142 90.8078 193.101 90.5853 193.021C90.3628 192.94 90.1718 192.818 90.0098 192.657L90.3435 192.12C90.6107 192.391 90.9335 192.527 91.3107 192.527C91.5525 192.527 91.7581 192.459 91.9298 192.323C92.1003 192.187 92.2599 191.957 92.4086 191.635L92.6407 191.122L90.2709 185.817H91.0157L93.0131 190.332L95.0153 185.817H95.7215Z" fill="white"/>
<path d="M180.341 188.031H178.464V189.872H177.831V188.031H175.954V187.435H177.831V185.589H178.464V187.435H180.341V188.031Z" fill="white"/>
<path d="M186.557 184.194V184.708L183.602 191.267H182.813L185.72 184.838H182.088V186.166H181.372V184.194H186.557Z" fill="white"/>
<path d="M189.47 184.194V191.267H188.745V184.838H187.081V184.194H189.47Z" fill="white"/>
<path d="M197.16 189.407H195.748V191.267H195.017V189.407H191.032V188.884L194.776 184.194H195.583L191.97 188.762H195.042V187.125H195.748V188.762H197.16V189.407Z" fill="white"/>
<path d="M199.315 187.982C198.837 187.982 198.451 187.807 198.159 187.454C197.869 187.1 197.724 186.636 197.724 186.064C197.724 185.49 197.869 185.026 198.159 184.674C198.451 184.319 198.837 184.141 199.315 184.141C199.785 184.141 200.168 184.318 200.466 184.669C200.762 185.018 200.911 185.483 200.911 186.064C200.911 186.643 200.762 187.108 200.466 187.459C200.168 187.808 199.785 187.982 199.315 187.982ZM203.595 184.194H204.19L199.368 191.267H198.773L203.595 184.194ZM199.315 187.527C199.644 187.527 199.906 187.399 200.103 187.14C200.303 186.882 200.403 186.523 200.403 186.064C200.403 185.606 200.303 185.248 200.103 184.988C199.906 184.727 199.644 184.596 199.315 184.596C198.979 184.596 198.713 184.729 198.517 184.993C198.323 185.255 198.227 185.612 198.227 186.064C198.227 186.513 198.323 186.871 198.517 187.135C198.713 187.396 198.979 187.527 199.315 187.527ZM203.643 191.316C203.172 191.316 202.788 191.14 202.492 190.788C202.198 190.433 202.052 189.969 202.052 189.397C202.052 188.825 202.198 188.364 202.492 188.012C202.788 187.657 203.172 187.479 203.643 187.479C204.12 187.479 204.505 187.657 204.799 188.012C205.092 188.364 205.239 188.825 205.239 189.397C205.239 189.969 205.092 190.433 204.799 190.788C204.505 191.14 204.12 191.316 203.643 191.316ZM203.643 190.865C203.978 190.865 204.243 190.734 204.436 190.473C204.632 190.209 204.731 189.85 204.731 189.397C204.731 188.945 204.632 188.588 204.436 188.326C204.243 188.065 203.978 187.934 203.643 187.934C203.314 187.934 203.05 188.064 202.85 188.322C202.653 188.581 202.555 188.939 202.555 189.397C202.555 189.856 202.653 190.216 202.85 190.477C203.05 190.737 203.314 190.865 203.643 190.865Z" fill="white"/>
<path d="M212.853 214.631C213.807 214.631 214.592 215.417 214.592 216.373V243.4C214.592 244.356 213.807 245.142 212.853 245.142H28.9574C28.0022 245.142 27.2187 244.356 27.2187 243.4V216.373C27.2187 215.417 28.0022 214.631 28.9574 214.631H212.853ZM212.853 213.027H28.9574C27.1159 213.027 25.6155 214.53 25.6155 216.373V243.4C25.6155 245.244 27.1159 246.745 28.9574 246.745H212.853C214.693 246.745 216.194 245.244 216.194 243.4V216.373C216.194 214.53 214.693 213.027 212.853 213.027Z" fill="white"/>
<path d="M39.5505 233.604C39.0282 233.604 38.5252 233.52 38.0416 233.352C37.5603 233.181 37.1904 232.959 36.9292 232.684L37.2242 232.107C37.4781 232.363 37.8167 232.57 38.2398 232.727C38.6654 232.886 39.1019 232.965 39.5505 232.965C40.1816 232.965 40.6556 232.848 40.9724 232.616C41.2916 232.383 41.4511 232.082 41.4511 231.71C41.4511 231.429 41.3641 231.205 41.19 231.036C41.0183 230.869 40.8091 230.74 40.5613 230.649C40.3122 230.556 39.9664 230.455 39.5215 230.348C38.9895 230.213 38.5651 230.084 38.2495 229.961C37.9327 229.835 37.6619 229.645 37.437 229.389C37.2145 229.131 37.1033 228.784 37.1033 228.348C37.1033 227.989 37.1964 227.664 37.3838 227.374C37.57 227.081 37.859 226.846 38.2495 226.671C38.6388 226.494 39.1249 226.405 39.7052 226.405C40.1079 226.405 40.5032 226.462 40.8901 226.574C41.277 226.685 41.6107 226.838 41.8913 227.035L41.6398 227.631C41.3423 227.434 41.0268 227.287 40.6918 227.19C40.3557 227.093 40.0269 227.044 39.7052 227.044C39.0862 227.044 38.6195 227.164 38.3075 227.403C37.9944 227.643 37.8384 227.95 37.8384 228.328C37.8384 228.609 37.9231 228.837 38.0947 229.011C38.2652 229.183 38.4792 229.314 38.738 229.404C38.9991 229.495 39.3474 229.593 39.7826 229.699C40.3013 229.829 40.7209 229.956 41.0401 230.082C41.3593 230.206 41.6301 230.394 41.8526 230.649C42.075 230.901 42.1863 231.242 42.1863 231.671C42.1863 232.03 42.0895 232.357 41.8961 232.65C41.7051 232.94 41.4125 233.173 41.0159 233.347C40.6193 233.519 40.1308 233.604 39.5505 233.604Z" fill="white"/>
<path d="M46.391 228.183C46.8867 228.183 47.3365 228.297 47.7403 228.522C48.1465 228.748 48.4621 229.068 48.6882 229.481C48.9167 229.892 49.0316 230.358 49.0316 230.881C49.0316 231.414 48.9167 231.888 48.6882 232.301C48.4621 232.711 48.1478 233.03 47.7451 233.255C47.3449 233.478 46.8939 233.589 46.391 233.589C45.9581 233.589 45.5688 233.501 45.2206 233.323C44.8748 233.146 44.5931 232.885 44.3742 232.538V235.503H43.6584V228.226H44.3404V229.278C44.5556 228.926 44.8397 228.656 45.1916 228.469C45.5458 228.278 45.946 228.183 46.391 228.183ZM46.3378 232.955C46.7077 232.955 47.0451 232.87 47.3486 232.698C47.6508 232.527 47.8878 232.284 48.0595 231.966C48.23 231.65 48.3158 231.288 48.3158 230.881C48.3158 230.478 48.23 230.119 48.0595 229.806C47.8878 229.493 47.6508 229.249 47.3486 229.074C47.0451 228.9 46.7077 228.813 46.3378 228.813C45.9629 228.813 45.6268 228.9 45.327 229.074C45.0271 229.249 44.7914 229.493 44.6209 229.806C44.4492 230.119 44.3645 230.478 44.3645 230.881C44.3645 231.288 44.4492 231.65 44.6209 231.966C44.7914 232.284 45.0271 232.527 45.327 232.698C45.6268 232.87 45.9629 232.955 46.3378 232.955Z" fill="white"/>
<path d="M52.6627 233.589C52.1501 233.589 51.6882 233.473 51.2795 233.241C50.8697 233.008 50.5468 232.687 50.3123 232.277C50.0765 231.867 49.9592 231.402 49.9592 230.881C49.9592 230.365 50.0765 229.901 50.3123 229.491C50.5468 229.078 50.8697 228.757 51.2795 228.527C51.6882 228.298 52.1501 228.183 52.6627 228.183C53.1754 228.183 53.636 228.298 54.0459 228.527C54.4546 228.757 54.7762 229.078 55.0083 229.491C55.2405 229.901 55.3565 230.365 55.3565 230.881C55.3565 231.402 55.2405 231.867 55.0083 232.277C54.7762 232.687 54.4546 233.008 54.0459 233.241C53.636 233.473 53.1754 233.589 52.6627 233.589ZM52.6627 232.955C53.04 232.955 53.3761 232.87 53.6735 232.698C53.9734 232.527 54.2067 232.284 54.3748 231.966C54.5453 231.65 54.6311 231.288 54.6311 230.881C54.6311 230.478 54.5453 230.118 54.3748 229.801C54.2067 229.485 53.9734 229.241 53.6735 229.069C53.3761 228.899 53.04 228.813 52.6627 228.813C52.2855 228.813 51.947 228.899 51.6471 229.069C51.3497 229.241 51.1151 229.485 50.941 229.801C50.7693 230.118 50.6847 230.478 50.6847 230.881C50.6847 231.288 50.7693 231.65 50.941 231.966C51.1151 232.284 51.3497 232.527 51.6471 232.698C51.947 232.87 52.2855 232.955 52.6627 232.955Z" fill="white"/>
<path d="M58.9857 233.589C58.4731 233.589 58.0112 233.473 57.6025 233.241C57.1927 233.008 56.8698 232.687 56.6353 232.277C56.3995 231.867 56.2822 231.402 56.2822 230.881C56.2822 230.365 56.3995 229.901 56.6353 229.491C56.8698 229.078 57.1927 228.757 57.6025 228.527C58.0112 228.298 58.4731 228.183 58.9857 228.183C59.4984 228.183 59.959 228.298 60.3689 228.527C60.7776 228.757 61.0992 229.078 61.3313 229.491C61.5635 229.901 61.6796 230.365 61.6796 230.881C61.6796 231.402 61.5635 231.867 61.3313 232.277C61.0992 232.687 60.7776 233.008 60.3689 233.241C59.959 233.473 59.4984 233.589 58.9857 233.589ZM58.9857 232.955C59.363 232.955 59.6991 232.87 59.9965 232.698C60.2964 232.527 60.5297 232.284 60.6978 231.966C60.8683 231.65 60.9541 231.288 60.9541 230.881C60.9541 230.478 60.8683 230.118 60.6978 229.801C60.5297 229.485 60.2964 229.241 59.9965 229.069C59.6991 228.899 59.363 228.813 58.9857 228.813C58.6085 228.813 58.27 228.899 57.9701 229.069C57.6727 229.241 57.4381 229.485 57.264 229.801C57.0923 230.118 57.0077 230.478 57.0077 230.881C57.0077 231.288 57.0923 231.65 57.264 231.966C57.4381 232.284 57.6727 232.527 57.9701 232.698C58.27 232.87 58.6085 232.955 58.9857 232.955Z" fill="white"/>
<path d="M65.8451 228.183C66.5089 228.183 67.0373 228.377 67.4314 228.764C67.8244 229.152 68.0214 229.717 68.0214 230.46V233.541H67.3057V230.528C67.3057 229.975 67.1666 229.556 66.8897 229.268C66.6153 228.977 66.2223 228.832 65.7097 228.832C65.139 228.832 64.6868 229.004 64.3555 229.346C64.023 229.685 63.8574 230.153 63.8574 230.75V233.541H63.1416V228.226H63.8235V229.205C64.0194 228.883 64.2902 228.632 64.636 228.454C64.9842 228.274 65.3869 228.183 65.8451 228.183Z" fill="white"/>
<path d="M74.5881 231.104H70.1484C70.1895 231.656 70.4011 232.105 70.782 232.446C71.1652 232.785 71.6501 232.955 72.2377 232.955C72.5666 232.955 72.8676 232.897 73.1421 232.78C73.419 232.662 73.6596 232.487 73.8627 232.257L74.2641 232.722C74.0283 233.007 73.7333 233.224 73.3791 233.371C73.0272 233.517 72.6403 233.589 72.2183 233.589C71.673 233.589 71.1894 233.473 70.7674 233.241C70.3479 233.008 70.0202 232.687 69.7857 232.277C69.5499 231.867 69.4326 231.402 69.4326 230.881C69.4326 230.365 69.5451 229.901 69.7712 229.491C69.996 229.078 70.3056 228.757 70.6997 228.527C71.0927 228.298 71.534 228.183 72.0249 228.183C72.5146 228.183 72.9547 228.298 73.3452 228.527C73.7345 228.757 74.0416 229.077 74.2641 229.486C74.4866 229.893 74.5978 230.358 74.5978 230.881L74.5881 231.104ZM72.0249 228.803C71.5147 228.803 71.0866 228.966 70.7384 229.292C70.3926 229.619 70.1968 230.046 70.1484 230.571H73.9111C73.8651 230.046 73.6692 229.619 73.321 229.292C72.9752 228.966 72.5436 228.803 72.0249 228.803Z" fill="white"/>
<path d="M76.7425 229.268C76.9129 228.909 77.1644 228.641 77.4969 228.459C77.8282 228.275 78.2393 228.183 78.7302 228.183V228.88L78.5609 228.871C78.0023 228.871 77.5658 229.044 77.2503 229.389C76.9335 229.732 76.7763 230.213 76.7763 230.833V233.541H76.0605V228.226H76.7425V229.268Z" fill="white"/>
<path d="M87.8885 232.892V233.541H82.8975V226.468H87.7386V227.112H83.6423V229.631H87.2937V230.266H83.6423V232.892H87.8885Z" fill="white"/>
<path d="M91.0123 227.112H88.5312V226.468H94.2429V227.112H91.7619V233.541H91.0123V227.112Z" fill="white"/>
<path d="M101.332 226.468V233.541H100.597V230.276H96.1764V233.541H95.4316V226.468H96.1764V229.622H100.597V226.468H101.332Z" fill="white"/>
<path d="M181.752 230.441H179.875V232.282H179.242V230.441H177.365V229.845H179.242V227.999H179.875V229.845H181.752V230.441Z" fill="white"/>
<path d="M185.907 229.443C186.372 229.443 186.784 229.53 187.145 229.704C187.506 229.879 187.786 230.128 187.987 230.45C188.19 230.77 188.292 231.142 188.292 231.564C188.292 231.998 188.187 232.378 187.977 232.708C187.767 233.037 187.479 233.293 187.112 233.473C186.747 233.651 186.335 233.74 185.878 233.74C184.943 233.74 184.226 233.432 183.726 232.814C183.229 232.198 182.981 231.326 182.981 230.198C182.981 229.411 183.114 228.744 183.383 228.197C183.654 227.652 184.031 227.241 184.515 226.962C185.001 226.681 185.566 226.541 186.212 226.541C186.911 226.541 187.47 226.67 187.885 226.928L187.595 227.514C187.257 227.292 186.798 227.18 186.222 227.18C185.441 227.18 184.829 227.427 184.384 227.921C183.941 228.415 183.721 229.135 183.721 230.077C183.721 230.249 183.731 230.441 183.75 230.654C183.925 230.27 184.203 229.973 184.587 229.762C184.97 229.549 185.41 229.443 185.907 229.443ZM185.849 233.12C186.358 233.12 186.773 232.982 187.092 232.703C187.414 232.422 187.576 232.049 187.576 231.584C187.576 231.119 187.414 230.749 187.092 230.474C186.773 230.197 186.34 230.058 185.796 230.058C185.441 230.058 185.126 230.126 184.853 230.261C184.582 230.397 184.369 230.583 184.215 230.818C184.06 231.055 183.983 231.316 183.983 231.603C183.983 231.875 184.055 232.125 184.2 232.354C184.345 232.584 184.558 232.77 184.839 232.911C185.122 233.051 185.459 233.12 185.849 233.12Z" fill="white"/>
<path d="M191.083 226.604V233.677H190.358V227.248H188.694V226.604H191.083Z" fill="white"/>
<path d="M194.726 226.604V233.677H194.001V227.248H192.337V226.604H194.726Z" fill="white"/>
<path d="M197.903 230.392C197.425 230.392 197.039 230.216 196.747 229.864C196.457 229.509 196.312 229.045 196.312 228.474C196.312 227.899 196.457 227.436 196.747 227.083C197.039 226.728 197.425 226.55 197.903 226.55C198.373 226.55 198.756 226.727 199.054 227.078C199.35 227.427 199.499 227.892 199.499 228.474C199.499 229.053 199.35 229.518 199.054 229.869C198.756 230.218 198.373 230.392 197.903 230.392ZM202.183 226.604H202.778L197.956 233.677H197.361L202.183 226.604ZM197.903 229.937C198.232 229.937 198.494 229.808 198.691 229.549C198.89 229.291 198.991 228.933 198.991 228.474C198.991 228.016 198.89 227.657 198.691 227.398C198.494 227.136 198.232 227.006 197.903 227.006C197.567 227.006 197.301 227.139 197.105 227.403C196.911 227.665 196.815 228.022 196.815 228.474C196.815 228.923 196.911 229.28 197.105 229.544C197.301 229.806 197.567 229.937 197.903 229.937ZM202.231 233.725C201.76 233.725 201.376 233.55 201.08 233.197C200.786 232.842 200.64 232.378 200.64 231.807C200.64 231.235 200.786 230.774 201.08 230.421C201.376 230.066 201.76 229.888 202.231 229.888C202.708 229.888 203.093 230.066 203.387 230.421C203.68 230.774 203.827 231.235 203.827 231.807C203.827 232.378 203.68 232.842 203.387 233.197C203.093 233.55 202.708 233.725 202.231 233.725ZM202.231 233.275C202.566 233.275 202.831 233.144 203.024 232.882C203.22 232.618 203.319 232.26 203.319 231.807C203.319 231.355 203.22 230.998 203.024 230.736C202.831 230.474 202.566 230.344 202.231 230.344C201.902 230.344 201.638 230.473 201.438 230.731C201.241 230.99 201.143 231.349 201.143 231.807C201.143 232.266 201.241 232.625 201.438 232.887C201.638 233.146 201.902 233.275 202.231 233.275Z" fill="white"/>
<path fill-rule="evenodd" clip-rule="evenodd" d="M220.739 0.165342C221.207 0.16776 221.674 0.184685 222.141 0.218533C223.017 0.282603 223.888 0.40349 224.747 0.582403C225.851 0.812088 226.934 1.13607 227.982 1.55071C229.107 1.99436 230.19 2.54198 231.216 3.18268C232.265 3.8391 233.253 4.59223 234.163 5.43118C235.19 6.37652 236.116 7.42945 236.924 8.567C237.68 9.63201 238.332 10.7708 238.865 11.9627C239.401 13.1571 239.816 14.4034 240.107 15.6788C240.311 16.5758 240.452 17.4873 240.53 18.4036C240.575 18.9331 240.599 19.4638 240.603 19.9957C241.228 155.109 241.228 290.229 240.603 425.347C240.599 425.878 240.575 426.41 240.53 426.939C240.452 427.855 240.311 428.767 240.107 429.663C239.844 430.821 239.477 431.954 239.011 433.045C238.499 434.248 237.868 435.4 237.13 436.48C236.388 437.566 235.537 438.579 234.596 439.499C233.655 440.42 232.623 441.247 231.519 441.965C230.558 442.592 229.542 443.133 228.489 443.584C227.399 444.049 226.267 444.417 225.111 444.681C224.216 444.884 223.306 445.026 222.392 445.104C221.863 445.15 221.332 445.173 220.801 445.177C153.974 445.487 87.1448 445.487 20.3172 445.177C19.7863 445.173 19.2554 445.15 18.7269 445.104C17.8122 445.026 16.9024 444.884 16.007 444.681C14.851 444.417 13.7204 444.049 12.6296 443.584C11.3553 443.039 10.1378 442.361 9.00354 441.563C7.9272 440.806 6.92566 439.943 6.01825 438.989C5.13859 438.064 4.34581 437.055 3.65801 435.979C3.01606 434.978 2.46462 433.919 2.01212 432.82C1.57651 431.759 1.23261 430.661 0.985243 429.542C0.782523 428.623 0.644963 427.689 0.57377 426.751C0.538776 426.284 0.51947 425.816 0.51585 425.348C-0.17195 290.233 -0.17195 155.115 0.51585 19.9969C0.51947 19.529 0.538776 19.0612 0.57377 18.5946C0.644963 17.6565 0.782523 16.7232 0.985243 15.8033C1.24588 14.6246 1.61392 13.469 2.08331 12.3568C2.5696 11.2072 3.16328 10.1035 3.8547 9.06384C4.56301 8.00124 5.37148 7.00755 6.26803 6.09848C7.16458 5.18941 8.14802 4.36738 9.20023 3.64568C10.2452 2.93003 11.3577 2.31471 12.5186 1.80941C13.6806 1.30531 14.8909 0.912425 16.1277 0.638011C17.0255 0.439756 17.9353 0.303154 18.8511 0.230621C19.3386 0.191937 19.8273 0.172596 20.316 0.168969C87.1231 -0.150173 153.931 0.0613794 220.739 0.16776V0.165342ZM126.765 406.726H114.308C109.413 406.726 105.439 410.706 105.439 415.608V428.084C105.439 432.986 109.413 436.967 114.308 436.967H126.765C131.66 436.967 135.635 432.986 135.635 428.084V415.608C135.635 410.706 131.66 406.726 126.765 406.726ZM124.431 412.39C127.492 412.392 129.978 414.881 129.978 417.945V425.746C129.978 428.812 127.492 431.301 124.431 431.301H116.642C113.58 431.301 111.096 428.812 111.096 425.746V417.945C111.096 414.881 113.58 412.392 116.642 412.39H124.431ZM233.592 31.0544H7.57123C7.38661 153.745 6.97755 276.427 7.46866 399.123H233.61C233.848 276.433 234.129 153.751 233.609 31.0544H233.592ZM160.085 12.0558H80.9884C80.0533 12.0558 79.2955 12.8162 79.2955 13.7518V17.1451C79.2955 18.0808 80.0545 18.8412 80.9884 18.8412H160.085C161.021 18.8412 161.78 18.0808 161.78 17.1451V13.7518C161.78 12.8162 161.021 12.0558 160.085 12.0558Z" fill="white"/>
</g>
<defs>
<clipPath id="clip0_5903_3235">
<rect width="241" height="247" fill="white"/>
</clipPath>
</defs>
</svg>
