<svg width="85" height="100" viewBox="0 0 85 100" fill="none" xmlns="http://www.w3.org/2000/svg">
<g clip-path="url(#clip0_5883_2790)">
<path d="M31.754 41.2324C35.2337 40.3795 37.3705 36.8366 36.5268 33.3191C35.683 29.8016 32.1782 27.6415 28.6985 28.4944C25.2188 29.3474 23.0819 32.8903 23.9257 36.4078C24.7695 39.9253 28.2743 42.0854 31.754 41.2324Z" fill="url(#paint0_linear_5883_2790)"/>
<path d="M18.75 51.0819C18.5381 51.182 18.2991 51.2072 18.0713 51.1534C17.8435 51.0996 17.6403 50.97 17.4942 50.7854C17.348 50.6008 17.2676 50.3718 17.2657 50.1354C17.2638 49.899 17.3405 49.6688 17.4836 49.4818L26.6787 37.3747C26.7622 37.2649 26.8662 37.1727 26.9849 37.1035C27.1036 37.0343 27.2346 36.9894 27.3705 36.9713C27.5063 36.9533 27.6444 36.9625 27.7767 36.9984C27.9091 37.0343 28.0331 37.0962 28.1418 37.1806C28.2505 37.2649 28.3417 37.3701 28.4101 37.4901C28.4786 37.6101 28.523 37.7425 28.5408 37.8799C28.5587 38.0172 28.5496 38.1567 28.5141 38.2905C28.4785 38.4243 28.4173 38.5497 28.3338 38.6595L19.1271 50.7689C19.0278 50.9021 18.8985 51.0094 18.75 51.0819Z" fill="#42E8E0"/>
<path d="M20.596 54.5505C18.7524 57.0731 13.503 60.8405 11.5173 59.351C9.53167 57.8614 11.5383 51.682 13.3796 49.1571C15.221 46.6321 18.3333 45.7967 20.3283 47.2745C22.3233 48.7523 22.4397 52.0279 20.596 54.5505Z" fill="url(#paint1_radial_5883_2790)"/>
<path style="mix-blend-mode:lighten" d="M20.596 54.5505C18.7524 57.0731 13.503 60.8405 11.5173 59.351C9.53167 57.8614 11.5383 51.682 13.3796 49.1571C15.221 46.6321 18.3333 45.7967 20.3283 47.2745C22.3233 48.7523 22.4397 52.0279 20.596 54.5505Z" fill="url(#paint2_linear_5883_2790)"/>
<path d="M48.7866 68.8154L51.4403 100.115H39.9407L42.6596 68.8154H48.7866Z" fill="white"/>
<path d="M62.8003 43.1094C62.8003 55.8306 55.3069 66.1445 46.0606 66.1445C36.8143 66.1445 29.3232 55.8353 29.3232 43.1094C29.3232 30.3835 36.8167 26.576 46.0629 26.576C55.3092 26.576 62.8003 30.4023 62.8003 43.1094Z" fill="url(#paint3_linear_5883_2790)"/>
<path d="M54.1477 38.1348C49.6875 40.7374 42.4525 40.7374 37.9923 38.1348C33.5321 35.5322 33.5297 31.3106 37.9923 28.7057C42.4548 26.1007 49.6875 26.1031 54.1477 28.7057C58.6079 31.3083 58.6009 35.5298 54.1477 38.1348Z" fill="url(#paint4_linear_5883_2790)"/>
<path d="M37.9828 30.4823C42.443 27.8797 49.678 27.8797 54.1382 30.4823C55.9818 31.5577 57.0597 32.9084 57.3809 34.3086C57.8465 32.3201 56.757 30.2352 54.1382 28.7057C49.6756 26.1007 42.443 26.1007 37.9828 28.7057C35.3639 30.2329 34.2838 32.3201 34.74 34.3086C35.059 32.9084 36.1414 31.5577 37.9828 30.4823Z" fill="#1E6672"/>
<path d="M41.079 8.78609C41.079 11.8923 38.9211 15.6691 36.2603 17.2222C33.5996 18.7753 31.4417 17.5163 31.4417 14.4102C31.4417 11.304 33.5996 7.52714 36.2603 5.97405C38.9211 4.42096 41.079 5.67991 41.079 8.78609Z" fill="#BCBEFF"/>
<path d="M50.8699 68.8154H40.76L41.598 65.3468H50.0319L50.8699 68.8154Z" fill="#23ABD8"/>
<g style="mix-blend-mode:multiply" opacity="0.47">
<path d="M50.0435 65.3468H47.5107L47.9298 68.8154H50.8815L50.0435 65.3468Z" fill="#96CCCA"/>
</g>
<g style="mix-blend-mode:multiply" opacity="0.47">
<path d="M41.5863 65.3468H44.119L43.7 68.8154H40.7483L41.5863 65.3468Z" fill="#96CCCA"/>
</g>
<path opacity="0.67" d="M93.9751 125.43L93.7795 125.6C92.9648 126.289 91.7822 125.433 92.2967 124.442C92.9741 123.138 93.9262 122.089 94.8573 120.983C95.8863 119.757 96.864 118.486 97.9045 117.269C99.9833 114.836 102.146 112.478 104.308 110.123C106.825 107.384 109.4 104.678 112.072 102.077C109.879 98.7403 106.578 96.306 102.765 95.2142C98.9515 94.1223 94.8778 94.445 91.2794 96.1239C90.2596 93.1568 88.6527 90.4308 86.5566 88.112C84.4605 85.7933 81.9191 83.9304 79.0875 82.6371C76.2558 81.3437 73.1932 80.6469 70.0865 80.5892C66.9797 80.5315 63.8939 81.114 61.0171 82.3014C58.8732 78.1975 55.5574 74.8407 51.5009 72.6673C47.4444 70.4938 42.8349 69.6044 38.2717 70.1145C33.7085 70.6247 29.4026 72.5109 25.914 75.5279C22.4254 78.5448 19.9154 82.553 18.7104 87.0312C16.003 85.3399 12.8634 84.4905 9.68218 84.5888C6.50096 84.6872 3.41856 85.7288 0.81842 87.5842C-1.10114 85.1624 -3.66047 83.3403 -6.56281 82.329C-9.46516 81.3178 -12.5916 81.1588 -15.5797 81.8707C-18.5677 82.5825 -21.295 84.136 -23.4452 86.3509C-25.5954 88.5658 -27.0805 91.3515 -27.7282 94.3849C-29.7241 93.5345 -31.8685 93.0976 -34.0344 93.1C-36.7866 93.0968 -39.4941 93.8039 -41.9003 95.1544C-43.8883 90.3983 -47.219 86.34 -51.4761 83.4869C-55.7331 80.6338 -60.7277 79.1123 -65.8355 79.1128C-69.2465 79.1128 -72.6241 79.792 -75.7754 81.1115C-78.9268 82.431 -81.7902 84.3651 -84.2021 86.8032C-89.0732 91.7273 -91.8098 98.4058 -91.8098 105.369C-91.8101 108.818 -91.1385 112.232 -89.8333 115.418C-88.5281 118.604 -86.6149 121.499 -84.2029 123.937C-81.7909 126.376 -78.9275 128.31 -75.7759 129.63C-72.6244 130.949 -69.2467 131.628 -65.8355 131.628C-61.8569 131.632 -57.931 130.709 -54.3617 128.932C-50.7924 127.156 -47.6756 124.573 -45.2524 121.383C-42.2362 124.31 -38.2159 125.944 -34.0344 125.941C-30.3238 125.941 -26.725 124.657 -23.8366 122.302C-20.9482 119.948 -18.9443 116.664 -18.1584 112.998C-15.6156 114.079 -12.8426 114.487 -10.1005 114.185C-7.35839 113.883 -4.73754 112.88 -2.48483 111.271C-0.8284 113.363 1.30952 115.013 3.74217 116.077C6.17483 117.141 8.82822 117.587 11.4706 117.375C14.1129 117.164 16.6639 116.302 18.9006 114.864C21.1373 113.426 22.9918 111.457 24.302 109.127C27.4748 112.471 31.568 114.773 36.0509 115.736C40.5338 116.699 45.1995 116.278 49.4429 114.528C51.0544 117.615 53.3365 120.293 56.1179 122.361C58.8993 124.429 62.1079 125.834 65.5029 126.47C68.898 127.105 72.3914 126.956 75.7211 126.032C79.0508 125.108 82.1304 123.434 84.7288 121.136C86.7796 124.026 89.6832 126.185 93.023 127.303C93.3334 126.687 93.6507 126.062 93.9751 125.43Z" fill="white"/>
<path d="M58.5565 102.8C63.5037 102.8 67.5142 98.7458 67.5142 93.7449C67.5142 88.7439 63.5037 84.6899 58.5565 84.6899C53.6094 84.6899 49.5989 88.7439 49.5989 93.7449C49.5989 98.7458 53.6094 102.8 58.5565 102.8Z" fill="white"/>
<path d="M34.5796 106.024C40.5977 106.024 45.4764 101.092 45.4764 95.0085C45.4764 88.925 40.5977 83.9933 34.5796 83.9933C28.5615 83.9933 23.6829 88.925 23.6829 95.0085C23.6829 101.092 28.5615 106.024 34.5796 106.024Z" fill="white"/>
<path style="mix-blend-mode:multiply" opacity="0.26" d="M62.8113 105.547C66.7913 101.524 66.5319 94.7384 62.2319 90.3917C57.9319 86.045 51.2196 85.7827 47.2396 89.806C43.2596 93.8292 43.519 100.614 47.819 104.961C52.119 109.308 58.8313 109.57 62.8113 105.547Z" fill="url(#paint5_radial_5883_2790)"/>
<path d="M49.2101 113.001C55.0855 113.001 59.8485 108.186 59.8485 102.247C59.8485 96.3076 55.0855 91.4929 49.2101 91.4929C43.3347 91.4929 38.5718 96.3076 38.5718 102.247C38.5718 108.186 43.3347 113.001 49.2101 113.001Z" fill="white"/>
<path d="M43.9212 13.0618C43.7722 14.149 43.9677 15.6503 46.0628 16.7257C50.3461 18.9424 53.7448 15.5844 55.8957 17.1257C57.5462 18.3023 56.7547 21.7873 52.8089 23.131C48.6071 24.5617 43.3904 23.5663 43.0668 19.3659C43.0501 17.755 43.1841 16.1461 43.4672 14.5608C43.5654 14.0462 43.7176 13.5437 43.9212 13.0618Z" fill="#19212C"/>
<path d="M45.7953 0.0134889C42.1252 0.0140487 38.5529 1.20981 35.6078 3.42357C32.6626 5.63734 30.5014 8.75132 29.4443 12.3041C30.1054 12.497 30.3429 13.1159 30.2567 13.7513C30.0519 15.255 29.7213 16.7327 29.7283 18.2576C29.7397 18.5178 29.6572 18.7734 29.4962 18.9768C29.3352 19.1802 29.1067 19.3177 28.853 19.3636C29.2521 22.6626 30.5851 25.775 32.6919 28.3265C34.7988 30.8781 37.5897 32.7604 40.7293 33.7471C43.869 34.7338 47.2237 34.7829 50.3903 33.8886C53.5569 32.9943 56.4006 31.1946 58.5797 28.7059C60.7588 26.2171 62.1805 23.1451 62.674 19.8591C63.1675 16.5732 62.7117 13.2131 61.3614 10.1827C60.0112 7.15231 57.8239 4.58058 55.0625 2.77659C52.3011 0.972605 49.0831 0.0131307 45.7953 0.0134889Z" fill="url(#paint6_linear_5883_2790)"/>
<g style="mix-blend-mode:lighten">
<path style="mix-blend-mode:lighten" d="M45.8441 0.455872C42.2039 0.458238 38.6598 1.63619 35.7285 3.81792C32.7972 5.99965 30.6321 9.07103 29.549 12.5841C29.698 12.6172 29.8388 12.6806 29.9628 12.7705C30.0867 12.8605 30.1912 12.975 30.2698 13.1072C30.3485 13.2393 30.3997 13.3863 30.4202 13.5391C30.4408 13.692 30.4303 13.8474 30.3894 13.996C29.968 15.6432 29.4582 17.5399 29.9401 19.22C30.1589 19.9919 29.6351 20.5284 29.0322 20.6484C29.5857 23.8877 31.043 26.8999 33.2326 29.3303C35.4222 31.7608 38.253 33.5084 41.392 34.3676C44.5309 35.2268 47.8473 35.1617 50.9509 34.1801C54.0544 33.1985 56.8161 31.3411 58.9108 28.8266C61.0054 26.3121 62.346 23.2451 62.7747 19.9865C63.2034 16.7278 62.7024 13.4133 61.3307 10.4327C59.9589 7.45221 57.7735 4.92979 55.0316 3.16232C52.2897 1.39484 49.1054 0.455862 45.8534 0.455872H45.8441Z" fill="url(#paint7_linear_5883_2790)"/>
</g>
<path d="M50.7397 19.1259C50.728 19.02 50.7164 18.9118 50.7048 18.8059C50.7048 18.8059 50.6512 18.5235 50.6419 18.4882C50.5953 18.3046 50.5348 18.1376 50.4906 17.9658C50.33 19.5212 49.478 21.1026 47.8973 22.4721C43.9632 25.8842 37.0355 26.7078 32.424 24.317C30.7014 23.4228 29.5514 22.1991 28.9834 20.8531C29.1091 21.4344 29.1976 22.0297 29.3745 22.5992C29.5627 23.1657 29.8092 23.7108 30.1101 24.2252C30.1985 24.357 30.301 24.4935 30.4127 24.637C31.0628 25.313 31.8206 25.8738 32.6545 26.296C37.266 28.6892 44.1937 27.8656 48.1278 24.4511C49.9878 22.8392 50.8421 20.9378 50.7397 19.1259Z" fill="#1E6672"/>
<path d="M49.3173 16.2833C45.8744 13.8148 40.4295 19.1942 33.5717 15.6432C30.6618 14.1372 30.0403 12.1441 30.0799 10.5039C29.7679 11.2403 29.5111 11.9994 29.3117 12.7747C28.9324 15.1151 28.7525 17.484 28.7739 19.8554C29.2907 26.5855 37.6431 28.1786 44.3706 25.8889C50.6931 23.7381 51.9618 18.1658 49.3173 16.2833Z" fill="url(#paint8_linear_5883_2790)"/>
<path d="M31.3974 20.4343C31.4951 20.4343 31.551 20.3543 31.551 20.2178C31.5452 20.1002 31.5121 19.9856 31.4542 19.8834C31.3964 19.7811 31.3155 19.6942 31.2181 19.6295C31.177 19.6027 31.1296 19.5873 31.0808 19.5848C30.983 19.5848 30.9248 19.6648 30.9248 19.8013C30.9312 19.919 30.9649 20.0336 31.0231 20.1358C31.0813 20.2379 31.1625 20.3249 31.26 20.3896C31.3013 20.4161 31.3486 20.4315 31.3974 20.4343Z" fill="url(#paint9_radial_5883_2790)"/>
<g style="mix-blend-mode:screen">
<path d="M32.2657 21.9309C31.8187 22.1662 30.9947 21.5167 30.4243 20.4555C29.854 19.3942 29.7516 18.3376 30.1916 18.1023C30.6315 17.867 31.4626 18.5164 32.0329 19.5754C32.6032 20.6343 32.7173 21.6956 32.2657 21.9309Z" fill="#00FF3C"/>
</g>
<path d="M31.3974 20.4343C31.4951 20.4343 31.551 20.3543 31.551 20.2178C31.5452 20.1002 31.5121 19.9856 31.4542 19.8834C31.3964 19.7811 31.3155 19.6942 31.2181 19.6295C31.177 19.6027 31.1296 19.5873 31.0808 19.5848C30.983 19.5848 30.9248 19.6648 30.9248 19.8013C30.9312 19.919 30.9649 20.0336 31.0231 20.1358C31.0813 20.2379 31.1625 20.3249 31.26 20.3896C31.3013 20.4161 31.3486 20.4315 31.3974 20.4343Z" fill="url(#paint10_radial_5883_2790)"/>
<path d="M31.3974 19.22C31.4951 19.22 31.551 19.14 31.551 19.0059C31.5452 18.8883 31.5121 18.7737 31.4542 18.6715C31.3964 18.5692 31.3155 18.4823 31.2181 18.4176C31.177 18.3909 31.1296 18.3755 31.0808 18.3729C30.983 18.3729 30.9248 18.4529 30.9248 18.5894C30.9312 18.7071 30.9649 18.8217 31.0231 18.9239C31.0813 19.0261 31.1625 19.113 31.26 19.1777C31.3015 19.2035 31.3487 19.218 31.3974 19.22Z" fill="url(#paint11_radial_5883_2790)"/>
<g style="mix-blend-mode:screen">
<path d="M32.273 20.7147C32.7189 20.4692 32.6175 19.4106 32.0463 18.3502C31.4751 17.2899 30.6505 16.6293 30.2045 16.8748C29.7585 17.1203 29.86 18.1789 30.4312 19.2393C31.0024 20.2996 31.827 20.9602 32.273 20.7147Z" fill="#00FF3C"/>
</g>
<path d="M31.3974 19.22C31.4951 19.22 31.551 19.14 31.551 19.0059C31.5452 18.8883 31.5121 18.7737 31.4542 18.6715C31.3964 18.5692 31.3155 18.4823 31.2181 18.4176C31.177 18.3909 31.1296 18.3755 31.0808 18.3729C30.983 18.3729 30.9248 18.4529 30.9248 18.5894C30.9312 18.7071 30.9649 18.8217 31.0231 18.9239C31.0813 19.0261 31.1625 19.113 31.26 19.1777C31.3015 19.2035 31.3487 19.218 31.3974 19.22Z" fill="url(#paint12_radial_5883_2790)"/>
<path d="M31.3927 17.9728C31.4905 17.9728 31.5464 17.8905 31.5464 17.7564C31.5404 17.6388 31.5072 17.5243 31.4493 17.4221C31.3915 17.3199 31.3107 17.2329 31.2135 17.1681C31.1723 17.1414 31.125 17.1259 31.0761 17.1234C30.9784 17.1234 30.9202 17.2034 30.9202 17.3398C30.9264 17.4576 30.96 17.5723 31.0182 17.6745C31.0765 17.7767 31.1577 17.8636 31.2554 17.9281C31.2966 17.9547 31.3439 17.9701 31.3927 17.9728Z" fill="url(#paint13_radial_5883_2790)"/>
<g style="mix-blend-mode:screen">
<path d="M32.2657 19.4671C31.8187 19.7024 30.9947 19.0529 30.4243 17.9917C29.854 16.9304 29.7516 15.8738 30.1916 15.6385C30.6315 15.4032 31.4626 16.0527 32.0329 17.1116C32.6032 18.1705 32.7126 19.2224 32.2657 19.4671Z" fill="#00FF3C"/>
</g>
<path d="M31.3927 17.9728C31.4905 17.9728 31.5464 17.8905 31.5464 17.7564C31.5404 17.6388 31.5072 17.5243 31.4493 17.4221C31.3915 17.3199 31.3107 17.2329 31.2135 17.1681C31.1723 17.1414 31.125 17.1259 31.0761 17.1234C30.9784 17.1234 30.9202 17.2034 30.9202 17.3398C30.9264 17.4576 30.96 17.5723 31.0182 17.6745C31.0765 17.7767 31.1577 17.8636 31.2554 17.9281C31.2966 17.9547 31.3439 17.9701 31.3927 17.9728Z" fill="url(#paint14_radial_5883_2790)"/>
<g style="mix-blend-mode:screen">
<path d="M32.2657 21.9309C31.8187 22.1662 30.9947 21.5167 30.4243 20.4555C29.854 19.3942 29.7516 18.3376 30.1916 18.1023C30.6315 17.867 31.4626 18.5164 32.0329 19.5754C32.6032 20.6343 32.7173 21.6956 32.2657 21.9309Z" fill="#42E8E0"/>
</g>
<g style="mix-blend-mode:screen">
<path d="M32.273 20.7147C32.7189 20.4692 32.6175 19.4106 32.0463 18.3502C31.4751 17.2899 30.6505 16.6293 30.2045 16.8748C29.7585 17.1203 29.86 18.1789 30.4312 19.2393C31.0024 20.2996 31.827 20.9602 32.273 20.7147Z" fill="#42E8E0"/>
</g>
<g style="mix-blend-mode:screen">
<path d="M32.2657 19.4671C31.8187 19.7024 30.9947 19.0529 30.4243 17.9917C29.854 16.9304 29.7516 15.8738 30.1916 15.6385C30.6315 15.4032 31.4626 16.0527 32.0329 17.1116C32.6032 18.1705 32.7126 19.2224 32.2657 19.4671Z" fill="#42E8E0"/>
</g>
<path d="M37.2169 23.2581C37.3147 23.2581 37.3706 23.1781 37.3706 23.0416C37.3648 22.924 37.3316 22.8094 37.2738 22.7071C37.216 22.6049 37.1351 22.5179 37.0377 22.4533C36.9966 22.4265 36.9492 22.4111 36.9004 22.4086C36.8026 22.4086 36.7444 22.4886 36.7444 22.6251C36.7508 22.7428 36.7845 22.8574 36.8427 22.9596C36.9009 23.0617 36.9821 23.1487 37.0796 23.2134C37.1209 23.2399 37.1681 23.2553 37.2169 23.2581Z" fill="url(#paint15_radial_5883_2790)"/>
<g style="mix-blend-mode:screen">
<path d="M38.0853 24.7547C37.6383 24.99 36.8143 24.3405 36.2439 23.2792C35.6736 22.218 35.5712 21.1614 36.0111 20.9261C36.4511 20.6908 37.2822 21.3402 37.8525 22.3992C38.4228 23.4581 38.5369 24.5194 38.0853 24.7547Z" fill="#00FF3C"/>
</g>
<path d="M37.2169 23.2581C37.3147 23.2581 37.3706 23.1781 37.3706 23.0416C37.3648 22.924 37.3316 22.8094 37.2738 22.7071C37.216 22.6049 37.1351 22.5179 37.0377 22.4533C36.9966 22.4265 36.9492 22.4111 36.9004 22.4086C36.8026 22.4086 36.7444 22.4886 36.7444 22.6251C36.7508 22.7428 36.7845 22.8574 36.8427 22.9596C36.9009 23.0617 36.9821 23.1487 37.0796 23.2134C37.1209 23.2399 37.1681 23.2553 37.2169 23.2581Z" fill="url(#paint16_radial_5883_2790)"/>
<path d="M37.2169 22.0438C37.3147 22.0438 37.3706 21.9638 37.3706 21.8297C37.3648 21.7121 37.3316 21.5975 37.2738 21.4953C37.216 21.393 37.1351 21.3061 37.0377 21.2414C36.9965 21.2147 36.9492 21.1993 36.9004 21.1967C36.8026 21.1967 36.7444 21.2767 36.7444 21.4132C36.7508 21.5309 36.7845 21.6455 36.8427 21.7477C36.9009 21.8499 36.9821 21.9368 37.0796 22.0015C37.121 22.0273 37.1683 22.0418 37.2169 22.0438Z" fill="url(#paint17_radial_5883_2790)"/>
<g style="mix-blend-mode:screen">
<path d="M38.0913 23.5391C38.5373 23.2936 38.4358 22.235 37.8646 21.1747C37.2935 20.1144 36.4689 19.4538 36.0229 19.6993C35.5769 19.9448 35.6784 21.0034 36.2496 22.0638C36.8207 23.1241 37.6453 23.7846 38.0913 23.5391Z" fill="#00FF3C"/>
</g>
<path d="M37.2169 22.0438C37.3147 22.0438 37.3706 21.9638 37.3706 21.8297C37.3648 21.7121 37.3316 21.5975 37.2738 21.4953C37.216 21.393 37.1351 21.3061 37.0377 21.2414C36.9965 21.2147 36.9492 21.1993 36.9004 21.1967C36.8026 21.1967 36.7444 21.2767 36.7444 21.4132C36.7508 21.5309 36.7845 21.6455 36.8427 21.7477C36.9009 21.8499 36.9821 21.9368 37.0796 22.0015C37.121 22.0273 37.1683 22.0418 37.2169 22.0438Z" fill="url(#paint18_radial_5883_2790)"/>
<path d="M37.2123 20.7967C37.3101 20.7967 37.3659 20.7143 37.3659 20.5802C37.36 20.4626 37.3267 20.3481 37.2689 20.2459C37.2111 20.1437 37.1303 20.0567 37.0331 19.9919C36.9919 19.9652 36.9446 19.9498 36.8957 19.9472C36.7979 19.9472 36.7397 20.0272 36.7397 20.1637C36.746 20.2814 36.7796 20.3961 36.8378 20.4983C36.896 20.6005 36.9773 20.6874 37.075 20.752C37.1162 20.7786 37.1635 20.794 37.2123 20.7967Z" fill="url(#paint19_radial_5883_2790)"/>
<g style="mix-blend-mode:screen">
<path d="M38.0853 22.2909C37.6383 22.5262 36.8143 21.8767 36.2439 20.8155C35.6736 19.7542 35.5712 18.6976 36.0111 18.4623C36.4511 18.227 37.2822 18.8765 37.8525 19.9354C38.4228 20.9943 38.5322 22.0462 38.0853 22.2909Z" fill="#00FF3C"/>
</g>
<path d="M37.2123 20.7967C37.3101 20.7967 37.3659 20.7143 37.3659 20.5802C37.36 20.4626 37.3267 20.3481 37.2689 20.2459C37.2111 20.1437 37.1303 20.0567 37.0331 19.9919C36.9919 19.9652 36.9446 19.9498 36.8957 19.9472C36.7979 19.9472 36.7397 20.0272 36.7397 20.1637C36.746 20.2814 36.7796 20.3961 36.8378 20.4983C36.896 20.6005 36.9773 20.6874 37.075 20.752C37.1162 20.7786 37.1635 20.794 37.2123 20.7967Z" fill="url(#paint20_radial_5883_2790)"/>
<g style="mix-blend-mode:screen">
<path d="M38.0853 24.7547C37.6383 24.99 36.8143 24.3405 36.2439 23.2792C35.6736 22.218 35.5712 21.1614 36.0111 20.9261C36.4511 20.6908 37.2822 21.3402 37.8525 22.3992C38.4228 23.4581 38.5369 24.5194 38.0853 24.7547Z" fill="#42E8E0"/>
</g>
<g style="mix-blend-mode:screen">
<path d="M38.0913 23.5391C38.5373 23.2936 38.4358 22.235 37.8646 21.1747C37.2935 20.1144 36.4689 19.4538 36.0229 19.6993C35.5769 19.9448 35.6784 21.0034 36.2496 22.0638C36.8207 23.1241 37.6453 23.7846 38.0913 23.5391Z" fill="#42E8E0"/>
</g>
<g style="mix-blend-mode:screen">
<path d="M38.0853 22.2909C37.6383 22.5262 36.8143 21.8767 36.2439 20.8155C35.6736 19.7542 35.5712 18.6976 36.0111 18.4623C36.4511 18.227 37.2822 18.8765 37.8525 19.9354C38.4228 20.9943 38.5322 22.0462 38.0853 22.2909Z" fill="#42E8E0"/>
</g>
<path d="M64.6785 39.3037L62.7451 40.0949L69.4286 56.7833L71.3619 55.9921L64.6785 39.3037Z" fill="#42E8E0"/>
<path d="M70.0706 40.9822C70.7661 37.4317 68.4825 33.9836 64.9702 33.2806C61.4578 32.5775 58.0467 34.8859 57.3513 38.4364C56.6558 41.9869 58.9394 45.435 62.4517 46.138C65.964 46.8411 69.3751 44.5327 70.0706 40.9822Z" fill="url(#paint21_linear_5883_2790)"/>
<g style="mix-blend-mode:lighten">
<path style="mix-blend-mode:lighten" d="M70.2691 41.022C70.9645 37.4715 68.681 34.0234 65.1687 33.3203C61.6563 32.6173 58.2452 34.9257 57.5498 38.4762C56.8543 42.0267 59.1378 45.4748 62.6502 46.1778C66.1625 46.8809 69.5736 44.5725 70.2691 41.022Z" fill="url(#paint22_linear_5883_2790)"/>
</g>
<path d="M74.0509 61.4217C73.6831 64.535 70.9618 70.4344 68.4989 70.1285C66.036 69.8225 64.7743 63.4525 65.1328 60.3369C65.4913 57.2213 67.7936 54.9388 70.2541 55.2353C72.7147 55.5318 74.4187 58.3085 74.0509 61.4217Z" fill="url(#paint23_radial_5883_2790)"/>
<path style="mix-blend-mode:lighten" d="M74.0509 61.4217C73.6831 64.535 70.9618 70.4344 68.4989 70.1285C66.036 69.8225 64.7743 63.4525 65.1328 60.3369C65.4913 57.2213 67.7936 54.9388 70.2541 55.2353C72.7147 55.5318 74.4187 58.3085 74.0509 61.4217Z" fill="url(#paint24_linear_5883_2790)"/>
<path opacity="0.67" d="M243.192 138.373L242.996 138.542C242.181 139.232 240.999 138.375 241.513 137.384C242.191 136.081 243.143 135.031 244.074 133.925C245.103 132.699 246.08 131.429 247.121 130.212C249.2 127.779 251.362 125.421 253.525 123.065C256.041 120.326 258.616 117.62 261.288 115.02C259.095 111.683 255.794 109.248 251.981 108.157C248.168 107.065 244.094 107.387 240.496 109.066C239.476 106.099 237.869 103.373 235.773 101.055C233.677 98.7358 231.136 96.8729 228.304 95.5795C225.472 94.2862 222.41 93.5894 219.303 93.5317C216.196 93.4739 213.11 94.0565 210.234 95.2438C208.09 91.14 204.774 87.7831 200.717 85.6097C196.661 83.4363 192.051 82.5468 187.488 83.057C182.925 83.5672 178.619 85.4533 175.13 88.4703C171.642 91.4873 169.132 95.4955 167.927 99.9737C165.219 98.2823 162.08 97.433 158.899 97.5313C155.717 97.6296 152.635 98.6713 150.035 100.527C148.115 98.1049 145.556 96.2827 142.654 95.2715C139.751 94.2602 136.625 94.1013 133.637 94.8132C130.649 95.525 127.921 97.0784 125.771 99.2934C123.621 101.508 122.136 104.294 121.488 107.327C119.222 106.365 116.769 105.934 114.315 106.067C111.86 106.2 109.467 106.894 107.316 108.097C105.097 102.776 101.205 98.3424 96.2433 95.4818C91.2812 92.6213 85.525 91.493 79.8648 92.2716C74.2046 93.0502 68.9559 95.6923 64.9304 99.7892C60.9049 103.886 58.3268 109.21 57.5949 114.936C56.8629 120.663 58.018 126.474 60.8813 131.471C63.7446 136.467 68.1568 140.371 73.4353 142.578C78.7139 144.786 84.5648 145.173 90.0832 143.681C95.6016 142.19 100.48 138.901 103.964 134.325C106.05 136.343 108.631 137.762 111.441 138.436C114.25 139.11 117.187 139.014 119.948 138.159C122.708 137.303 125.193 135.719 127.147 133.569C129.1 131.42 130.451 128.782 131.06 125.929C133.603 127.01 136.376 127.418 139.118 127.116C141.86 126.814 144.481 125.811 146.734 124.202C148.39 126.294 150.528 127.944 152.961 129.008C155.394 130.072 158.047 130.518 160.689 130.306C163.332 130.095 165.883 129.232 168.119 127.795C170.356 126.357 172.211 124.387 173.521 122.058C176.694 125.401 180.787 127.704 185.27 128.667C189.753 129.63 194.418 129.209 198.662 127.459C200.273 130.546 202.555 133.224 205.337 135.292C208.118 137.36 211.327 138.765 214.722 139.4C218.117 140.036 221.61 139.887 224.94 138.963C228.27 138.039 231.349 136.365 233.948 134.066C235.996 136.96 238.899 139.124 242.239 140.246C242.55 139.629 242.867 139.005 243.192 138.373Z" fill="white"/>
</g>
<defs>
<linearGradient id="paint0_linear_5883_2790" x1="121.403" y1="-4692.18" x2="823.991" y2="-4860.71" gradientUnits="userSpaceOnUse">
<stop stop-color="#F7F7F7"/>
<stop offset="0.55" stop-color="#F2F2F9"/>
<stop offset="1" stop-color="#E9E9FD"/>
</linearGradient>
<radialGradient id="paint1_radial_5883_2790" cx="0" cy="0" r="1" gradientUnits="userSpaceOnUse" gradientTransform="translate(24.6626 39.7097) rotate(36.9183) scale(11.5985 19.1296)">
<stop stop-color="#2BB675"/>
<stop offset="1" stop-color="#23ABD8"/>
</radialGradient>
<linearGradient id="paint2_linear_5883_2790" x1="-21439.9" y1="-21889.1" x2="-21967.5" y2="-21831.4" gradientUnits="userSpaceOnUse">
<stop stop-color="#F7F7F7"/>
<stop offset="0.55" stop-color="#F2F2F9"/>
<stop offset="1" stop-color="#E9E9FD"/>
</linearGradient>
<linearGradient id="paint3_linear_5883_2790" x1="7841.54" y1="10030.7" x2="12655.9" y2="10030.7" gradientUnits="userSpaceOnUse">
<stop stop-color="#F7F7F7"/>
<stop offset="0.55" stop-color="#F2F2F9"/>
<stop offset="1" stop-color="#E9E9FD"/>
</linearGradient>
<linearGradient id="paint4_linear_5883_2790" x1="34.6378" y1="33.4191" x2="57.4858" y2="33.4191" gradientUnits="userSpaceOnUse">
<stop stop-color="#42E8E0"/>
<stop offset="0.18" stop-color="#41E3DD"/>
<stop offset="0.38" stop-color="#3CD5D3"/>
<stop offset="0.61" stop-color="#35BDC3"/>
<stop offset="0.84" stop-color="#2C9CAD"/>
<stop offset="1" stop-color="#24819B"/>
</linearGradient>
<radialGradient id="paint5_radial_5883_2790" cx="0" cy="0" r="1" gradientUnits="userSpaceOnUse" gradientTransform="translate(54.7318 96.574) rotate(45.3097) scale(10.8407 8.45015)">
<stop/>
<stop offset="1" stop-color="white" stop-opacity="0"/>
</radialGradient>
<linearGradient id="paint6_linear_5883_2790" x1="7878.68" y1="4458.91" x2="12867.6" y2="4458.91" gradientUnits="userSpaceOnUse">
<stop stop-color="#F7F7F7"/>
<stop offset="0.55" stop-color="#F2F2F9"/>
<stop offset="1" stop-color="#E9E9FD"/>
</linearGradient>
<linearGradient id="paint7_linear_5883_2790" x1="10013.1" y1="7033.22" x2="10730.2" y2="2023.31" gradientUnits="userSpaceOnUse">
<stop stop-color="#F7F7F7"/>
<stop offset="0.55" stop-color="#F2F2F9"/>
<stop offset="1" stop-color="#E9E9FD"/>
</linearGradient>
<linearGradient id="paint8_linear_5883_2790" x1="28.7739" y1="18.6835" x2="50.6163" y2="18.6835" gradientUnits="userSpaceOnUse">
<stop stop-color="#00ACBF"/>
<stop offset="0.29" stop-color="#04A7BB"/>
<stop offset="0.63" stop-color="#1099AF"/>
<stop offset="1" stop-color="#24819B"/>
</linearGradient>
<radialGradient id="paint9_radial_5883_2790" cx="0" cy="0" r="1" gradientUnits="userSpaceOnUse" gradientTransform="translate(31.2391 20.0107) rotate(180) scale(0.37013 0.374153)">
<stop stop-color="white"/>
<stop offset="1" stop-color="#95FDA8"/>
</radialGradient>
<radialGradient id="paint10_radial_5883_2790" cx="0" cy="0" r="1" gradientUnits="userSpaceOnUse" gradientTransform="translate(31.2391 20.0107) rotate(180) scale(0.37013 0.374153)">
<stop stop-color="white"/>
<stop offset="1" stop-color="#95FDA8"/>
</radialGradient>
<radialGradient id="paint11_radial_5883_2790" cx="0" cy="0" r="1" gradientUnits="userSpaceOnUse" gradientTransform="translate(378.607 133.313) scale(0.995648 1.34695)">
<stop stop-color="white"/>
<stop offset="1" stop-color="#95FDA8"/>
</radialGradient>
<radialGradient id="paint12_radial_5883_2790" cx="0" cy="0" r="1" gradientUnits="userSpaceOnUse" gradientTransform="translate(378.607 133.313) scale(0.995648 1.34695)">
<stop stop-color="white"/>
<stop offset="1" stop-color="#95FDA8"/>
</radialGradient>
<radialGradient id="paint13_radial_5883_2790" cx="0" cy="0" r="1" gradientUnits="userSpaceOnUse" gradientTransform="translate(378.614 127.88) scale(0.995648 1.35069)">
<stop stop-color="white"/>
<stop offset="1" stop-color="#95FDA8"/>
</radialGradient>
<radialGradient id="paint14_radial_5883_2790" cx="0" cy="0" r="1" gradientUnits="userSpaceOnUse" gradientTransform="translate(378.614 127.88) scale(0.995648 1.35069)">
<stop stop-color="white"/>
<stop offset="1" stop-color="#95FDA8"/>
</radialGradient>
<radialGradient id="paint15_radial_5883_2790" cx="0" cy="0" r="1" gradientUnits="userSpaceOnUse" gradientTransform="translate(368.771 152.246) scale(0.995648 1.3507)">
<stop stop-color="white"/>
<stop offset="1" stop-color="#95FDA8"/>
</radialGradient>
<radialGradient id="paint16_radial_5883_2790" cx="0" cy="0" r="1" gradientUnits="userSpaceOnUse" gradientTransform="translate(368.771 152.246) scale(0.995648 1.3507)">
<stop stop-color="white"/>
<stop offset="1" stop-color="#95FDA8"/>
</radialGradient>
<radialGradient id="paint17_radial_5883_2790" cx="0" cy="0" r="1" gradientUnits="userSpaceOnUse" gradientTransform="translate(368.771 146.303) scale(0.995648 1.34696)">
<stop stop-color="white"/>
<stop offset="1" stop-color="#95FDA8"/>
</radialGradient>
<radialGradient id="paint18_radial_5883_2790" cx="0" cy="0" r="1" gradientUnits="userSpaceOnUse" gradientTransform="translate(368.771 146.303) scale(0.995648 1.34696)">
<stop stop-color="white"/>
<stop offset="1" stop-color="#95FDA8"/>
</radialGradient>
<radialGradient id="paint19_radial_5883_2790" cx="0" cy="0" r="1" gradientUnits="userSpaceOnUse" gradientTransform="translate(368.781 140.897) scale(0.995655 1.35068)">
<stop stop-color="white"/>
<stop offset="1" stop-color="#95FDA8"/>
</radialGradient>
<radialGradient id="paint20_radial_5883_2790" cx="0" cy="0" r="1" gradientUnits="userSpaceOnUse" gradientTransform="translate(368.781 140.897) scale(0.995655 1.35068)">
<stop stop-color="white"/>
<stop offset="1" stop-color="#95FDA8"/>
</radialGradient>
<linearGradient id="paint21_linear_5883_2790" x1="-1165.75" y1="-1667.79" x2="-456.845" y2="-1528.94" gradientUnits="userSpaceOnUse">
<stop stop-color="#F7F7F7"/>
<stop offset="0.55" stop-color="#F2F2F9"/>
<stop offset="1" stop-color="#E9E9FD"/>
</linearGradient>
<linearGradient id="paint22_linear_5883_2790" x1="-1092.52" y1="-1379.99" x2="-503.819" y2="-1803.06" gradientUnits="userSpaceOnUse">
<stop stop-color="#F7F7F7"/>
<stop offset="0.55" stop-color="#F2F2F9"/>
<stop offset="1" stop-color="#E9E9FD"/>
</linearGradient>
<radialGradient id="paint23_radial_5883_2790" cx="0" cy="0" r="1" gradientUnits="userSpaceOnUse" gradientTransform="translate(69.6277 63.1354) rotate(6.96658) scale(4.49233 7.48225)">
<stop stop-color="#2BB675"/>
<stop offset="1" stop-color="#14444F"/>
</radialGradient>
<linearGradient id="paint24_linear_5883_2790" x1="988.667" y1="7494.89" x2="1334.08" y2="7536.85" gradientUnits="userSpaceOnUse">
<stop stop-color="#F7F7F7"/>
<stop offset="0.55" stop-color="#F2F2F9"/>
<stop offset="1" stop-color="#E9E9FD"/>
</linearGradient>
<clipPath id="clip0_5883_2790">
<path d="M0 0H85V57.5C85 80.9721 65.9721 100 42.5 100C19.0279 100 0 80.9721 0 57.5V0Z" fill="white"/>
</clipPath>
</defs>
</svg>
