<svg width="173" height="273" viewBox="0 0 173 273" fill="none" xmlns="http://www.w3.org/2000/svg">
<g clip-path="url(#clip0_413_61)">
<g filter="url(#filter0_d_413_61)">
<path d="M64.5627 194.162L58.0527 268.902H85.829L79.319 194.162H64.5627Z" fill="url(#paint0_linear_413_61)"/>
<path d="M22.6932 128.257L27.3187 130.127L11.1939 169.885L6.56836 168.015L22.6932 128.257Z" fill="#42E8E0"/>
<path d="M111.435 125.273C102.806 125.273 95.811 118.289 95.811 109.675C95.811 101.061 102.806 94.0771 111.435 94.0771C120.064 94.0771 127.059 101.061 127.059 109.675C127.059 118.289 120.064 125.273 111.435 125.273Z" fill="url(#paint1_linear_413_61)"/>
<path d="M30.7119 132.853C30.7119 163.182 48.723 187.879 71.0741 187.879C93.4248 187.879 111.437 163.182 111.437 132.853C111.437 102.524 93.4248 93.4248 71.0741 93.4248C48.723 93.4248 30.7119 102.524 30.7119 132.853Z" fill="url(#paint2_linear_413_61)"/>
<path d="M51.5419 120.939C62.3919 127.222 79.7519 127.222 90.6019 120.939C101.452 114.657 101.452 104.692 90.6019 98.4091C79.7519 92.1266 62.3919 92.1266 51.5419 98.4091C40.6918 104.692 40.6918 114.873 51.5419 120.939Z" fill="url(#paint3_linear_413_61)"/>
<path d="M90.6028 102.742C79.7528 96.4594 62.3927 96.4594 51.5426 102.742C46.9856 105.342 44.3815 108.591 43.7305 111.84C42.6455 107.075 45.2496 102.092 51.5426 98.4091C62.3927 92.1266 79.7528 92.1266 90.6028 98.4091C96.8958 102.092 99.4999 107.075 98.4149 111.84C97.5469 108.591 94.9428 105.342 90.6028 102.742Z" fill="#1E6672"/>
<path d="M25.0675 144.768C16.4386 144.768 9.44336 137.785 9.44336 129.17C9.44336 120.556 16.4386 113.572 25.0675 113.572C33.6965 113.572 40.6916 120.556 40.6916 129.17C40.6916 137.785 33.6965 144.768 25.0675 144.768Z" fill="url(#paint4_linear_413_61)"/>
<path d="M24.6344 144.985C16.0054 144.985 9.01025 138.002 9.01025 129.387C9.01025 120.773 16.0054 113.789 24.6344 113.789C33.2633 113.789 40.2584 120.773 40.2584 129.387C40.2584 138.002 33.2633 144.985 24.6344 144.985Z" fill="url(#paint5_linear_413_61)"/>
<path d="M0.115446 180.947C0.983246 188.313 7.49225 202.395 13.5672 201.745C19.4253 201.095 22.4628 185.713 21.5949 178.348C20.7271 170.982 15.086 165.566 9.22795 166.216C3.36985 166.866 -0.752454 173.582 0.115446 180.947Z" fill="url(#paint6_radial_413_61)"/>
<path d="M0.115446 180.947C0.983246 188.313 7.49225 202.395 13.5672 201.745C19.4253 201.095 22.4628 185.713 21.5949 178.348C20.7271 170.982 15.086 165.566 9.22795 166.216C3.36985 166.866 -0.752454 173.582 0.115446 180.947Z" fill="url(#paint7_linear_413_61)"/>
<path d="M59.3555 194.163H83.8769L81.9239 185.931H61.5255L59.3555 194.163Z" fill="#23ABD8"/>
<path opacity="0.47" d="M61.5242 185.931H67.5992L66.5143 194.163H59.3545L61.5242 185.931Z" fill="#96CCCA"/>
<path opacity="0.47" d="M81.9236 185.931H75.8486L76.7164 194.163H83.8766L81.9236 185.931Z" fill="#96CCCA"/>
<path d="M150.669 138.612C152.107 138.835 153.149 137.821 153.439 136.591C153.589 135.634 153.118 134.874 152.506 134.387L124.067 114.576C122.91 113.808 121.397 114.063 120.834 115.152C120.065 116.307 120.321 117.818 121.412 118.379L149.785 137.984C149.917 138.397 150.396 138.471 150.669 138.612Z" fill="#74FEF7"/>
<path d="M149.12 147.295C154.764 151.407 168.981 155.968 172.265 151.281C175.549 146.595 166.982 134.773 161.131 130.726C155.487 126.614 148.071 126.933 144.721 131.413C141.437 136.1 143.269 143.248 149.12 147.295Z" fill="url(#paint8_radial_413_61)"/>
<g filter="url(#filter1_d_413_61)">
<path d="M149.12 147.295C154.764 151.407 168.981 155.968 172.265 151.281C175.549 146.595 166.982 134.773 161.131 130.726C155.487 126.614 148.071 126.933 144.721 131.413C141.437 136.1 143.269 143.248 149.12 147.295Z" fill="url(#paint9_linear_413_61)"/>
</g>
<path d="M82.1416 47.9312C82.1416 54.8636 87.1316 63.5291 93.2066 66.9953C99.2816 70.4615 104.272 67.6453 104.272 60.7128C104.272 53.7804 99.2816 45.1149 93.2066 41.6487C87.1316 37.9658 82.1416 40.7821 82.1416 47.9312Z" fill="#BCBEFF"/>
<path d="M75.6299 57.4629C76.0639 59.846 75.6299 63.3122 70.6389 65.6952C60.8738 70.6779 53.0618 63.0955 48.0707 66.5618C44.3817 69.1614 46.1177 77.177 55.2318 80.21C64.7798 83.4595 76.7149 81.2932 77.5829 71.7611C77.5829 68.0782 77.3659 64.3954 76.7149 60.9292C76.4979 59.846 76.0639 58.5461 75.6299 57.4629Z" fill="#19212C"/>
<path d="M71.2885 28C88.6489 28 103.839 39.2652 108.83 55.7297C107.311 56.163 106.877 57.4628 106.877 58.9793C107.311 62.4455 108.179 65.6951 108.179 69.1613C108.179 70.4611 109.047 71.5443 110.132 71.7609C107.528 93.2081 87.9979 108.373 66.5145 105.773C45.0314 103.174 29.8413 83.676 32.4453 62.2289C34.8323 42.7314 51.5414 28 71.2885 28Z" fill="url(#paint10_linear_413_61)"/>
<path d="M71.2897 29.085C88.4331 29.085 103.406 40.1336 108.614 56.5981C107.312 56.8147 106.444 58.3312 106.661 59.631C106.661 59.631 106.661 59.631 106.661 59.8477C107.529 63.5305 108.831 67.8633 107.746 71.7628C107.312 73.4959 108.397 74.7957 109.916 75.0123C106.227 96.2429 86.0461 110.541 64.7796 106.858C43.5135 103.175 29.1914 83.0279 32.8805 61.7974C35.9185 42.7332 52.1936 29.085 71.2897 29.085Z" fill="url(#paint11_linear_413_61)"/>
<path d="M60.0065 71.3273C60.0065 71.1107 60.0065 70.8941 60.0065 70.6774L60.2235 70.0275C60.2235 69.5942 60.4405 69.161 60.6575 68.9443C61.0915 72.4105 63.0445 76.0934 66.5165 79.1263C75.6306 86.9253 91.4718 88.6584 101.888 83.2425C105.794 81.2927 108.398 78.4764 109.7 75.4435C109.483 76.7433 109.266 78.0431 108.832 79.343C108.398 80.6428 107.747 81.9426 107.096 83.0258C106.879 83.2424 106.662 83.6757 106.445 83.8924C104.926 85.4088 103.19 86.7087 101.237 87.5752C90.6038 92.9912 74.7626 91.0414 65.8655 83.4591C61.7425 79.5596 59.7895 75.2268 60.0065 71.3273Z" fill="#1E6672"/>
<path d="M63.26 64.8292C71.072 59.1966 83.6576 71.3284 99.2826 63.3128C106.01 59.8466 107.312 55.2972 107.312 51.6143C107.963 53.3474 108.614 55.0805 109.048 56.8136C109.916 62.0129 110.35 67.4289 110.35 72.8449C109.265 88.0095 89.9506 91.6924 74.544 86.4931C60.0049 81.727 57.1839 69.162 63.26 64.8292Z" fill="url(#paint12_linear_413_61)"/>
<path d="M104.272 74.1459C104.055 74.1459 103.838 73.929 103.838 73.712C103.838 73.2781 104.055 72.6272 104.706 72.4102H104.923C105.14 72.4102 105.357 72.6272 105.357 72.8441C105.357 73.2781 105.14 73.929 104.489 74.1459H104.272Z" fill="url(#paint13_radial_413_61)"/>
<path d="M102.32 77.6104C103.405 78.0436 105.141 76.7438 106.443 74.3608C107.745 71.9778 107.962 69.5947 106.877 68.9448C105.792 68.5116 104.056 69.8114 102.754 72.1944C101.453 74.5774 101.236 76.9604 102.32 77.6104Z" fill="#00FF3C"/>
<path d="M104.272 74.1459C104.055 74.1459 103.838 73.929 103.838 73.712C103.838 73.2781 104.055 72.6272 104.706 72.4102H104.923C105.14 72.4102 105.357 72.6272 105.357 72.8441C105.357 73.2781 105.14 73.929 104.489 74.1459H104.272Z" fill="url(#paint14_radial_413_61)"/>
<path d="M104.272 71.5472C104.055 71.5472 103.838 71.3302 103.838 71.1133C103.838 70.6793 104.055 70.0285 104.706 69.8115H104.923C105.14 69.8115 105.357 70.0285 105.357 70.2454C105.357 70.6793 105.14 71.3302 104.489 71.5472C104.489 71.3302 104.272 71.3302 104.272 71.5472Z" fill="url(#paint15_radial_413_61)"/>
<path d="M102.332 74.8856C101.28 74.3128 101.495 71.8886 102.811 69.4711C104.128 67.0536 106.047 65.5582 107.099 66.131C108.151 66.7038 107.937 69.1279 106.621 71.5455C105.304 73.963 103.384 75.4584 102.332 74.8856Z" fill="#00FF3C"/>
<path d="M104.272 71.5472C104.055 71.5472 103.838 71.3302 103.838 71.1133C103.838 70.6793 104.055 70.0285 104.706 69.8115H104.923C105.14 69.8115 105.357 70.0285 105.357 70.2454C105.357 70.6793 105.14 71.3302 104.489 71.5472C104.489 71.3302 104.272 71.3302 104.272 71.5472Z" fill="url(#paint16_radial_413_61)"/>
<path d="M104.272 68.5141C104.055 68.5141 103.838 68.2971 103.838 68.0801C103.838 67.6462 104.055 66.9953 104.706 66.7783H104.923C105.14 66.7783 105.357 66.9953 105.357 67.2123C105.357 67.6462 105.14 68.2971 104.489 68.5141C104.489 68.5141 104.489 68.5141 104.272 68.5141Z" fill="url(#paint17_radial_413_61)"/>
<path d="M102.32 71.9776C103.405 72.4109 105.141 71.111 106.443 68.728C107.745 66.345 107.962 63.962 106.877 63.3121C105.792 62.8788 104.056 64.1786 102.754 66.5616C101.453 69.1613 101.236 71.5443 102.32 71.9776Z" fill="#00FF3C"/>
<path d="M104.272 68.5141C104.055 68.5141 103.838 68.2971 103.838 68.0801C103.838 67.6462 104.055 66.9953 104.706 66.7783H104.923C105.14 66.7783 105.357 66.9953 105.357 67.2123C105.357 67.6462 105.14 68.2971 104.489 68.5141C104.489 68.5141 104.489 68.5141 104.272 68.5141Z" fill="url(#paint18_radial_413_61)"/>
<path d="M102.32 77.6104C103.405 78.0436 105.141 76.7438 106.443 74.3608C107.745 71.9778 107.962 69.5947 106.877 68.9448C105.792 68.5116 104.056 69.8114 102.754 72.1944C101.453 74.5774 101.236 76.9604 102.32 77.6104Z" fill="#42E8E0"/>
<path d="M102.332 74.8856C101.28 74.3128 101.495 71.8886 102.811 69.4711C104.128 67.0536 106.047 65.5582 107.099 66.131C108.151 66.7038 107.937 69.1279 106.621 71.5455C105.304 73.963 103.384 75.4584 102.332 74.8856Z" fill="#42E8E0"/>
<path d="M102.32 71.9776C103.405 72.4109 105.141 71.111 106.443 68.728C107.745 66.345 107.962 63.962 106.877 63.3121C105.792 62.8788 104.056 64.1786 102.754 66.5616C101.453 69.1613 101.236 71.5443 102.32 71.9776Z" fill="#42E8E0"/>
<path d="M91.0346 80.6459C90.8176 80.6459 90.6006 80.429 90.6006 80.212C90.6006 79.7781 90.8176 79.1272 91.4686 78.9102H91.6856C91.9026 78.9102 92.1196 79.1272 92.1196 79.3441C92.1196 79.7781 91.9026 80.429 91.2516 80.6459C91.2516 80.429 91.0346 80.6459 91.0346 80.6459Z" fill="url(#paint19_radial_413_61)"/>
<path d="M88.8667 83.8936C89.9517 84.3269 91.6877 83.027 92.9887 80.644C94.2907 78.261 94.5077 75.878 93.4227 75.228C92.3387 74.7948 90.6027 76.0946 89.3007 78.4776C87.9987 80.8606 87.9987 83.4603 88.8667 83.8936Z" fill="#00FF3C"/>
<path d="M91.0346 80.6459C90.8176 80.6459 90.6006 80.429 90.6006 80.212C90.6006 79.7781 90.8176 79.1272 91.4686 78.9102H91.6856C91.9026 78.9102 92.1196 79.1272 92.1196 79.3441C92.1196 79.7781 91.9026 80.429 91.2516 80.6459C91.2516 80.429 91.0346 80.6459 91.0346 80.6459Z" fill="url(#paint20_radial_413_61)"/>
<path d="M91.0346 77.8295C90.8176 77.8295 90.6006 77.6126 90.6006 77.3956C90.6006 76.9617 90.8176 76.3107 91.4686 76.0938H91.6856C91.9026 76.0938 92.1196 76.3108 92.1196 76.5277C92.1196 76.9617 91.9026 77.6126 91.2516 77.8295H91.0346Z" fill="url(#paint21_radial_413_61)"/>
<path d="M88.8408 81.3055C87.7888 80.7327 88.0038 78.3086 89.3198 75.891C90.6368 73.4735 92.5558 71.9781 93.6078 72.5509C94.6598 73.1237 94.4458 75.5479 93.1298 77.9654C91.8128 80.3829 89.8928 81.8783 88.8408 81.3055Z" fill="#00FF3C"/>
<path d="M91.0346 77.8295C90.8176 77.8295 90.6006 77.6126 90.6006 77.3956C90.6006 76.9617 90.8176 76.3107 91.4686 76.0938H91.6856C91.9026 76.0938 92.1196 76.3108 92.1196 76.5277C92.1196 76.9617 91.9026 77.6126 91.2516 77.8295H91.0346Z" fill="url(#paint22_radial_413_61)"/>
<path d="M91.0346 75.0131C90.8176 75.0131 90.6006 74.7961 90.6006 74.5791C90.6006 74.1452 90.8176 73.4943 91.4686 73.2773H91.6856C91.9026 73.2773 92.1196 73.4943 92.1196 73.7113C92.1196 74.1452 91.9026 74.7961 91.2516 75.0131H91.0346Z" fill="url(#paint23_radial_413_61)"/>
<path d="M88.8671 78.4766C89.9521 78.9099 91.6881 77.61 92.9891 75.227C94.2911 72.844 94.5081 70.461 93.4231 69.8111C92.3391 69.1611 90.6031 70.6776 89.3011 73.0606C88.2161 75.4437 87.9991 77.8267 88.8671 78.4766Z" fill="#00FF3C"/>
<path d="M91.0346 75.0131C90.8176 75.0131 90.6006 74.7961 90.6006 74.5791C90.6006 74.1452 90.8176 73.4943 91.4686 73.2773H91.6856C91.9026 73.2773 92.1196 73.4943 92.1196 73.7113C92.1196 74.1452 91.9026 74.7961 91.2516 75.0131H91.0346Z" fill="url(#paint24_radial_413_61)"/>
<path d="M88.8667 83.8936C89.9517 84.3269 91.6877 83.027 92.9887 80.644C94.2907 78.261 94.5077 75.878 93.4227 75.228C92.3387 74.7948 90.6027 76.0946 89.3007 78.4776C87.9987 80.8606 87.9987 83.4603 88.8667 83.8936Z" fill="#42E8E0"/>
<path d="M88.8408 81.3055C87.7888 80.7327 88.0038 78.3086 89.3198 75.891C90.6368 73.4735 92.5558 71.9781 93.6078 72.5509C94.6598 73.1237 94.4458 75.5479 93.1298 77.9654C91.8128 80.3829 89.8928 81.8783 88.8408 81.3055Z" fill="#42E8E0"/>
<path d="M88.8671 78.4766C89.9521 78.9099 91.6881 77.61 92.9891 75.227C94.2911 72.844 94.5081 70.461 93.4231 69.8111C92.3391 69.1611 90.6031 70.6776 89.3011 73.0606C88.2161 75.4437 87.9991 77.8267 88.8671 78.4766Z" fill="#42E8E0"/>
</g>
<g clip-path="url(#clip1_413_61)">
<path d="M15.5665 73.7317C16.3303 73.8615 17.0924 74.1724 17.5077 74.7601C18.0852 74.3592 18.6609 74.1396 19.2743 73.9898C20.0415 73.7574 20.8445 73.7759 21.5315 73.947C20.7125 71.5037 21.1252 68.2174 22.2542 66.0779C20.2461 64.004 19.4731 60.7248 21.7912 58.2158C21.8304 58.1045 21.9842 58.0218 22.0987 58.0503C21.9174 56.9763 22.0419 55.918 22.6636 54.8624C21.1218 51.9969 19.773 48.9374 18.8087 45.6711L18.6941 45.6425C15.8421 43.8425 13.7262 41.0156 11.7999 38.3569C11.4599 37.909 12.3841 37.2315 12.7242 37.6794C14.3872 39.8488 16.2841 41.5318 18.2562 43.3547C17.4833 40.0755 17.0946 36.5896 17.2784 33.2462C17.2834 32.7027 18.2027 32.5687 18.2746 33.0707C19.0877 40.2938 20.6337 46.8521 23.7106 53.3077C24.4452 52.4619 25.5231 51.7017 26.5585 51.4149C24.6766 48.1015 27.7309 44.5656 31.3819 42.6912C32.9194 41.8639 34.5306 41.3576 35.9077 41.3376C36.3757 40.3648 37.1102 39.519 38.1866 38.9399C38.9553 38.5262 40.1837 38.0455 41.0996 38.2737C40.9216 36.8374 42.1584 35.451 43.3901 34.608C45.4299 33.2401 47.9569 32.9618 50.1697 33.5737C50.9209 30.9165 54.3972 27.2435 56.87 28.7069C57.449 28.125 58.4092 27.6985 59.2891 27.6756C59.0736 26.1695 61.4259 24.0926 62.5038 23.3323C64.3899 22.0472 67.5303 21.6193 68.7746 23.5633C69.4665 23.191 70.3857 23.057 71.1888 23.0755C71.6242 21.4894 73.3188 20.2171 74.8155 19.6822C76.7718 19.0802 78.9486 19.441 80.3517 20.7589C80.3517 20.7589 80.391 20.6478 80.4679 20.6064C80.8147 20.3296 81.2383 20.0115 81.5851 19.7349C75.2074 14.5145 69.7932 8.50535 62.0232 4.93535C54.1764 1.40667 44.8096 0.948938 36.103 3.5607C27.3195 6.21384 19.6541 12.0505 14.7279 19.4777C9.76428 26.8349 8.04035 35.4229 8.4232 43.6886C8.8252 54.0168 12.2172 63.6375 15.5339 73.1184C15.5306 73.4807 15.5289 73.6618 15.5665 73.7317Z" fill="#D63232"/>
<path d="M26.1373 72.1898C26.8552 73.1554 27.8822 73.7745 29.0647 74.1296C28.9895 73.9898 28.7998 73.8215 28.7245 73.6817C28.5365 73.3322 29.037 72.9729 29.3789 73.2395C29.9103 73.6745 30.4794 74.1795 31.127 74.4618C31.8123 74.8142 32.5009 74.8042 33.3022 75.0039C33.7226 75.0481 33.6782 75.7028 33.2187 75.7698C32.7591 75.8369 32.2618 75.8341 31.8415 75.7898C32.4089 76.4759 33.0156 77.0507 34.0853 77.1962C35.6129 77.4558 37.2273 76.5871 38.1942 75.436C38.1583 75.1849 38.3137 74.9211 38.5443 74.797C39.4292 74.2307 40.615 74.2236 41.6537 73.5746C42.6924 72.9255 43.5807 71.997 44.1648 70.8716C44.2417 70.8302 44.2417 70.8302 44.2041 70.7604C44.2041 70.7604 44.2041 70.7604 44.2811 70.719C44.3579 70.6776 44.3203 70.6077 44.3972 70.5663C45.3589 69.9587 46.3943 69.672 47.281 68.9245C47.8976 68.4125 48.2854 67.8433 48.75 67.2329C48.9823 66.9276 49.1378 66.6637 49.37 66.3586C49.4863 66.2059 49.7168 66.0818 49.8313 66.1104C51.0597 65.6296 52.1687 65.6639 53.2091 64.8337C53.2859 64.7924 53.3628 64.751 53.4021 64.6397C53.479 64.5983 53.4789 64.5984 53.5182 64.4871C54.328 63.781 54.8335 62.8782 55.0725 61.8483C54.302 62.4432 53.4939 62.968 52.5372 63.0322C51.8862 63.1121 51.5871 62.3719 52.2021 62.041C53.0101 61.516 53.931 61.2008 54.7783 60.5646C55.5488 59.9699 56.1296 59.2068 56.6728 58.3738C56.9444 57.9572 57.6689 58.1982 57.4349 58.6847C57.2009 59.171 56.9669 59.6574 56.5792 60.2266C60.0973 60.3164 62.6034 58.1568 64.3524 55.1429C64.5078 54.8791 64.8906 54.8533 65.1571 54.9803L65.2716 55.0088C67.1802 55.4238 68.6802 54.5266 69.688 53.0832C69.6504 53.0132 69.5359 52.9848 69.4983 52.9149C68.7379 52.4227 69.4758 51.2147 70.3131 51.6654C73.893 53.3441 77.6225 51.2473 78.1531 47.6272C77.9241 47.5702 77.8096 47.5417 77.6576 47.4432C77.3157 47.1766 77.3977 46.5917 77.8197 46.4549C78.0111 46.4419 78.0879 46.4006 78.2793 46.3877C78.4723 46.1937 78.8551 46.1681 79.0448 46.3364C79.5044 46.2694 80.0015 46.2722 80.5004 46.0939C81.0762 45.8742 81.6143 45.5847 82.0773 45.1554C82.1542 45.114 82.1934 45.0027 82.2704 44.9613C82.5402 44.7261 82.6956 44.4621 82.928 44.1569C83.1604 43.8517 83.7328 43.9943 83.5756 44.4393C83.4971 44.6618 83.3809 44.8144 83.3024 45.037C84.601 45.2394 86.1745 44.6632 86.8355 43.4964C86.9909 43.2325 87.4898 43.0543 87.7564 43.1812C91.8369 44.5005 95.7728 40.7605 94.6613 36.8524C94.5126 36.3917 95.3189 36.0479 95.4677 36.5086C95.5789 36.8995 95.7276 37.3602 95.8388 37.751C96.3017 37.3217 96.7647 36.8922 97.0772 36.1833C97.4307 35.182 97.017 34.4133 96.8732 33.4091C96.8357 33.3393 96.8749 33.228 96.8749 33.228C96.8374 33.1581 96.8374 33.1581 96.7997 33.0882C96.3209 31.0928 96.3752 29.3511 94.9755 27.671C93.9534 26.5085 92.5437 25.9151 91.2501 25.1692C91.0587 25.182 90.8298 25.125 90.7169 24.9153C89.9682 23.1552 89.6005 21.5506 87.6969 20.5921C85.6788 19.605 82.9587 20.0772 81.1478 21.5022C80.9941 21.5849 80.8404 21.6676 80.6883 21.5692C80.5688 22.0841 79.9521 22.5962 79.4582 22.2311C78.1662 21.304 76.7173 20.8218 75.0669 21.4395C73.8385 21.9202 73.1808 22.7247 72.407 23.6818C72.5182 24.0725 72.2073 24.6003 71.71 24.5975C71.0983 24.5661 70.6011 24.5633 69.9878 24.713C69.4513 24.8215 68.9131 25.1111 68.3766 25.2195C68.1085 25.2736 67.7666 25.007 67.7307 24.7559C66.5549 23.6761 65.217 23.585 63.6026 24.4536C62.2957 25.1568 60.2542 26.7058 60.89 28.2562C61.0781 28.6058 60.7297 29.0636 60.3093 29.0194C60.2324 29.0608 60.1556 29.1021 60.0018 29.1849C59.4653 29.2932 59.0074 29.1791 58.4316 29.3988C57.9327 29.5772 57.5467 29.9651 57.0854 30.2133C56.9316 30.296 56.8172 30.2674 56.7027 30.239C56.7027 30.239 56.7027 30.239 56.6258 30.2804C53.3776 29.9552 52.1668 32.6794 50.6534 35.0259C50.5748 35.2484 50.1921 35.2741 50.04 35.1756C49.9631 35.217 49.7718 35.2299 49.6197 35.1314C46.8721 34.4468 42.1582 35.4511 42.0495 38.9342C42.0086 39.2266 41.778 39.3507 41.5098 39.4049C41.4328 39.4463 41.3936 39.5575 41.3167 39.5989C40.5855 40.0825 39.4783 39.8671 38.6326 40.3221C37.71 40.8185 36.9379 41.5945 36.3948 42.4274C36.2393 42.6913 35.9711 42.7455 35.7044 42.6186C34.8981 42.9623 34.054 43.2362 33.2101 43.5101C31.9817 43.9908 30.7532 44.4714 29.6736 45.4129C27.7073 47.1017 27.2294 49.1614 27.3615 51.4335C27.8243 51.0042 28.3625 50.7146 29.0152 50.4536C29.7054 50.2624 30.0405 51.2538 29.3879 51.5148C27.7358 52.3135 26.6152 53.5474 26.1782 55.3146C26.021 55.7597 25.3718 55.6584 25.4144 55.1848C25.4587 54.5302 25.6174 53.904 25.8906 53.3063C25.8906 53.3063 25.8138 53.3477 25.7369 53.389C24.9681 53.8027 24.3121 54.426 23.8083 55.1478C22.9934 56.3973 22.7871 58.0404 23.1189 59.3941C23.23 59.7849 22.5005 60.0873 22.3894 59.6964C20.6044 62.4593 22.9935 64.6886 24.8119 66.5942C25.1571 66.4987 25.6527 66.6826 25.4955 67.1277C25.4788 68.9392 25.0434 70.5252 26.1373 72.1898Z" fill="white"/>
<path d="M9.26804 88.9256C9.22374 89.5803 9.41013 90.1108 9.59647 90.6415C9.71096 90.6699 9.7862 90.8098 9.74686 90.921C10.0853 91.55 10.6544 92.0549 11.1466 92.6013C11.5636 93.0077 10.9845 93.5897 10.4889 93.4057C10.2224 93.2787 9.95574 93.1518 9.80373 93.0534C9.87726 93.3744 10.0653 93.7238 10.3302 94.0319C10.9745 94.6766 11.8528 94.8349 12.7703 94.882C13.001 94.7579 13.2692 94.7036 13.5357 94.8306C14.0296 95.1957 14.5628 95.4496 15.2513 95.4396C15.7486 95.4424 16.2851 95.3341 16.8591 95.2956L16.936 95.2542C18.0842 95.1771 18.8037 95.9616 20.0697 95.5508C21.3357 95.14 22.2257 94.0303 22.4663 92.8193C22.3519 92.7908 22.3142 92.7209 22.1998 92.6924C21.6583 93.3442 20.7716 94.0916 19.8917 94.1145C19.5858 94.0988 19.3978 93.7493 19.5532 93.4855C20.0179 92.8749 20.8243 92.5312 21.441 92.0192C22.1739 91.3545 22.7546 90.5913 23.1457 89.6599C23.3797 89.1735 24.0666 89.3447 23.9471 89.8596C23.7884 90.4858 23.4775 91.0135 23.1666 91.5413C24.4293 91.4927 25.6168 91.3045 26.6212 90.2233C27.6633 89.212 27.9056 87.8199 27.8028 86.5233C27.8421 86.412 27.8813 86.3008 27.9582 86.2594C28.1972 85.2296 28.8548 84.4252 28.8272 83.2684C28.7244 81.9718 27.9297 81.0476 27.0189 80.276C26.8293 80.1076 26.7933 79.8566 26.9863 79.6626C26.8426 78.6584 26.9654 77.7812 26.1314 76.9682C25.6016 76.3521 24.9147 76.1809 24.1133 75.9812C23.8417 76.3977 23.2659 76.6174 22.8489 76.2109C22.167 75.4963 21.176 75.1283 20.1439 75.0527C19.3409 75.0342 18.5361 75.1968 17.7297 75.5405C17.5743 75.8044 17.0754 75.9827 16.8089 75.8558C15.9322 75.5163 15.4025 74.9002 14.2543 74.9772C13.1061 75.0543 11.9495 76.037 11.4047 77.0512C11.3654 77.1624 11.2493 77.3151 11.0956 77.3978C10.5574 77.6873 9.90644 77.7672 9.29305 77.917C8.37214 78.2322 7.60172 78.827 7.02089 79.5902C6.08997 80.9922 6.11256 82.6925 6.82703 84.0204C6.93985 84.2301 6.82202 84.5638 6.59137 84.6879C6.62236 85.4824 6.38499 86.3311 6.41598 87.1255C6.41427 87.3067 6.45189 87.3766 6.41255 87.4878C6.55469 88.6732 7.19397 89.8613 8.37646 90.2164C8.30456 89.7143 8.30956 89.1709 8.3522 88.6974C8.39311 88.405 9.27305 88.3821 9.26804 88.9256Z" fill="white"/>
<path d="M5.60037 84.3203C5.60037 84.3203 5.67728 84.279 5.60037 84.3203C4.77303 82.7827 4.67529 80.9428 5.64718 79.2482C6.54048 77.7762 8.81263 76.103 10.646 76.3783C11.1173 75.0432 12.0825 74.0733 13.5774 73.7195C7.76291 57.201 1.70848 37.6573 12.1957 20.2985C21.5951 4.78675 41.5587 -3.25101 58.5692 2.01624C67.9895 4.96867 76.4163 11.9704 82.4698 19.1677C84.1988 18.3275 86.1893 18.1578 88.057 18.8652C90.0392 19.6012 91.8559 21.6879 91.759 23.9031C95.7333 24.2881 99.2063 29.2689 97.7189 32.9531C98.5529 33.7662 98.6164 35.174 98.3005 36.2452C97.9847 37.3164 96.9376 38.8711 95.7125 38.9895C95.3733 42.5968 91.7516 45.4467 87.7053 44.5595C86.426 46.4195 84.2784 47.0343 82.3372 46.0059C81.9511 46.3939 81.5274 46.712 81.0661 46.9602C80.5279 47.2498 79.8377 47.4409 79.1868 47.5208C79.1876 51.5759 74.4913 54.8237 70.6415 53.3803C69.7807 55.4656 67.2847 56.5383 64.954 56.2603C63.7741 59.779 59.8156 61.8188 56.1079 61.5606C55.98 62.9813 55.5087 64.3164 54.3129 65.4104C53.2709 66.4217 51.5794 67.3317 50.0895 67.1421C49.2681 69.1161 46.9533 71.2629 44.7715 71.4455C44.3394 72.6693 43.5656 73.6264 42.4108 74.428C41.4866 75.1055 40.2189 75.6975 39.0724 75.5934C38.1757 77.4276 36.2145 78.573 34.0735 78.4633C32.2385 78.3691 30.1861 76.95 30.242 75.0272C26.0304 75.4908 22.132 71.0094 24.2327 67.1753C23.8141 66.9499 23.3955 66.7246 23.0536 66.4578C22.8506 67.7387 22.6476 69.0195 22.6735 70.3575C22.737 71.7653 23.2601 73.106 23.4005 74.4725C23.4381 74.5424 23.5526 74.5709 23.5903 74.6408C26.2743 73.9176 29.3045 77.1539 28.1721 79.6558C29.3512 80.3732 30.105 81.5899 30.1685 82.9977C30.273 84.1131 29.9129 85.839 28.8348 86.5992C29.6488 89.586 26.7484 93.0392 23.4608 92.8253C23.4082 94.3857 22.5542 95.7465 20.979 96.5039C19.865 97.0132 17.76 97.1543 16.8885 96.2715C15.6191 97.0446 13.8643 96.5468 12.762 95.788C10.1171 96.4 7.54163 93.64 8.36814 91.1224C5.23073 91.1884 4.08542 86.8478 5.60037 84.3203ZM26.1373 72.1889C26.8551 73.1544 27.8821 73.7735 29.0646 74.1286C28.9894 73.9889 28.7997 73.8206 28.7245 73.6808C28.5364 73.3313 29.037 72.9719 29.3788 73.2386C29.9103 73.6736 30.4794 74.1785 31.127 74.461C31.8122 74.8133 32.5008 74.8032 33.3021 75.003C33.6456 75.0885 33.6782 75.7018 33.2186 75.7689C32.759 75.8359 32.2618 75.8331 31.8415 75.7889C32.4088 76.4749 33.0156 77.0498 34.0852 77.1952C35.6128 77.4548 37.2272 76.5862 38.1941 75.435C38.1582 75.184 38.3136 74.9201 38.5443 74.796C39.506 74.1884 40.615 74.2226 41.5767 73.615C42.6155 72.9659 43.5038 72.0374 44.0879 70.912C44.0879 70.912 44.1647 70.8706 44.1272 70.8008C44.1272 70.8008 44.1272 70.8008 44.2041 70.7594C44.281 70.718 44.2809 70.7181 44.3202 70.6068C45.2821 69.9991 46.3174 69.7124 47.204 68.965C48.0906 68.2176 48.6339 67.3846 49.2163 66.4403C49.3324 66.2877 49.4862 66.2049 49.6775 66.1921C51.0204 65.74 52.1686 65.6629 53.2483 64.7215C54.1349 63.9741 54.7173 63.0299 54.9563 62C54.2234 62.6647 53.3778 63.1197 52.421 63.1839C51.77 63.2638 51.4708 62.5235 52.0858 62.1926C52.8939 61.6677 53.8148 61.3525 54.6622 60.7163C55.4326 60.1215 56.0902 59.317 56.5565 58.5254C56.8282 58.1088 57.5526 58.35 57.3186 58.8363C57.0847 59.3227 56.7739 59.8505 56.463 60.3782C59.9811 60.468 62.4872 58.3085 64.2362 55.2946C64.3916 55.0307 64.7744 55.005 65.0409 55.132C65.0409 55.132 65.1178 55.0906 65.1554 55.1604C67.0641 55.5755 68.564 54.6783 69.5718 53.2349C69.5342 53.165 69.4197 53.1364 69.3821 53.0666C68.6216 52.5745 69.3596 51.3663 70.1968 51.8171C73.7768 53.4958 77.5063 51.399 78.0369 47.7789C77.808 47.7219 77.6934 47.6934 77.5413 47.595C77.1996 47.3283 77.2815 46.7434 77.7034 46.6065C77.8948 46.5937 77.9717 46.5523 78.1631 46.5395C78.3561 46.3455 78.7388 46.3197 78.9285 46.4881C79.4258 46.4909 79.8854 46.4239 80.3842 46.2456C80.96 46.026 81.4982 45.7364 81.9611 45.307C82.0004 45.1958 82.0773 45.1544 82.1541 45.1131C82.424 44.8777 82.5795 44.6138 82.8118 44.3086C83.0441 44.0033 83.6166 44.146 83.4594 44.591C83.3809 44.8134 83.2647 44.9661 83.1861 45.1886C84.4848 45.3911 86.0583 44.8149 86.7193 43.6481C86.8748 43.3842 87.3735 43.2059 87.6026 43.263C91.6831 44.5823 95.6566 40.9122 94.5075 36.9342C94.3588 36.4735 95.1652 36.1297 95.3139 36.5904C95.4251 36.9812 95.5738 37.442 95.685 37.8328C96.1479 37.4034 96.6108 36.974 96.9234 36.2651C97.2769 35.2639 96.8632 34.495 96.7194 33.4909C96.6819 33.421 96.7211 33.3098 96.7211 33.3098C96.6835 33.2399 96.6835 33.2399 96.6459 33.17C96.1671 31.1746 96.2214 29.4329 94.8217 27.7528C93.7996 26.5902 92.3899 25.997 91.0963 25.251C90.9049 25.2638 90.676 25.2067 90.5631 24.9971C89.8144 23.237 89.4467 21.6324 87.5431 20.6738C85.525 19.6868 82.8049 20.159 80.9941 21.584C80.8403 21.6667 80.6865 21.7494 80.4576 21.6924C80.338 22.2073 79.7214 22.7194 79.2275 22.3542C77.9356 21.4271 76.4866 20.945 74.8362 21.5626C73.6078 22.0434 72.9501 22.8478 72.1763 23.8049C72.2875 24.1957 71.9766 24.7235 71.4794 24.7206C70.8677 24.6893 70.3705 24.6865 69.7571 24.8362C69.2206 24.9446 68.6824 25.2342 68.1459 25.3427C67.8777 25.3968 67.5359 25.1301 67.5 24.8791C66.3242 23.7993 64.9863 23.7081 63.3719 24.5768C62.065 25.28 60.061 26.8988 60.6595 28.3795C60.7706 28.7703 60.499 29.1868 60.0786 29.1426C60.0018 29.1839 59.9249 29.2253 59.7711 29.308C59.2345 29.4164 58.7767 29.3023 58.2009 29.522C57.7021 29.7003 57.316 30.0882 56.8547 30.3364C56.7009 30.4192 56.5865 30.3906 56.5095 30.432L56.4326 30.4734C53.1845 30.1482 51.9737 32.8725 50.5372 35.1775C50.4587 35.4001 50.0759 35.4257 49.9239 35.3273C49.77 35.4101 49.6556 35.3815 49.4266 35.3245C46.679 34.6398 41.9651 35.6441 41.8565 39.1273C41.8155 39.4197 41.5849 39.5438 41.3166 39.5979C41.2397 39.6393 41.2005 39.7506 41.1236 39.7919C40.3924 40.2755 39.3228 40.13 38.4395 40.5152C37.517 41.0116 36.7448 41.7875 36.2017 42.6204C36.0463 42.8844 35.778 42.9386 35.5114 42.8116C33.4766 43.6361 31.2538 44.1111 29.4805 45.6059C27.5142 47.2947 26.9987 49.2845 27.1683 51.6265C27.6313 51.1973 28.1695 50.9077 28.8221 50.6467C29.4747 50.3856 29.8474 51.4468 29.1948 51.7079C27.5427 52.5066 26.4221 53.7405 25.9851 55.5077C25.828 55.9527 25.2555 55.8101 25.2212 55.378C25.2655 54.7232 25.4243 54.097 25.6976 53.4994C25.6207 53.5407 25.6207 53.5407 25.5438 53.5821C24.7751 53.9958 24.1191 54.6191 23.6151 55.3408C22.8005 56.5903 22.594 58.2335 22.9258 59.5871C23.0369 59.978 22.3074 60.2803 22.1963 59.8895C20.4113 62.6524 22.7628 64.8118 24.6188 66.7873C24.964 66.6918 25.4595 66.8758 25.3024 67.3207C25.4787 68.9383 25.0434 70.5243 26.1373 72.1889ZM22.2163 66.0071C20.2082 63.9332 19.4729 60.724 21.7533 58.1451C21.8695 57.9925 21.9464 57.9511 22.0609 57.9796C21.8795 56.9056 22.0041 55.8473 22.6258 54.7918C21.084 51.9262 19.7352 48.8666 18.7708 45.6004L18.6563 45.5718C15.8042 43.7718 13.6884 40.9449 11.7622 38.2861C11.4221 37.8383 12.3462 37.1608 12.6864 37.6087C14.3493 39.7781 16.2463 41.4611 18.2184 43.284C17.4455 40.0049 17.0569 36.5188 17.2407 33.1754C17.2456 32.6321 18.1649 32.4979 18.2744 33.0699C19.0875 40.2929 20.6335 46.8512 23.7104 53.3069C24.445 52.4611 25.5229 51.7008 26.5582 51.4141C23.8867 46.6329 31.2772 41.5751 35.8306 41.3781C36.2609 40.3355 37.0331 39.5595 38.1094 38.9804C38.8782 38.5667 40.1066 38.0861 41.0225 38.3142C40.8444 36.878 42.0812 35.4915 43.3129 34.6485C45.3528 33.2805 47.8798 33.0024 50.0926 33.6143C50.8438 30.957 54.3201 27.2841 56.7928 28.7475C57.372 28.1655 58.3321 27.739 59.1352 27.7575C58.9196 26.2513 61.272 24.1746 62.3498 23.4143C64.2359 22.1291 67.3763 21.7011 68.6205 23.6453C69.3125 23.273 70.2318 23.1389 71.0348 23.1574C71.4702 21.5712 73.1648 20.299 74.6615 19.7641C76.6178 19.1621 78.7946 19.5229 80.1977 20.8409C80.2746 20.7995 80.2369 20.7296 80.3139 20.6882C80.6607 20.4116 81.0843 20.0935 81.4311 19.8167C75.0534 14.5964 69.6391 8.58733 61.8693 5.01727C54.0225 1.4886 44.6556 1.03086 35.949 3.64262C27.1655 6.29576 19.5001 12.1325 14.574 19.5596C9.6479 26.9866 7.88639 35.5049 8.26914 43.7705C8.67114 54.0987 12.14 63.6781 15.3799 73.2003C15.4552 73.3401 15.4158 73.4513 15.3766 73.5626C16.1404 73.6924 16.9025 74.0033 17.3179 74.591C18.5496 73.748 20.0052 73.5055 21.3415 73.7779C20.7122 71.5029 21.2019 68.1752 22.2163 66.0071ZM8.41239 90.4678C8.34048 89.9658 8.34559 89.4223 8.38823 88.9487C8.47005 88.3639 9.35 88.3411 9.26807 88.9259C9.22387 89.5806 9.41016 90.1112 9.5965 90.6418C9.63407 90.7117 9.78623 90.8101 9.78451 90.9913C10.123 91.6203 10.6921 92.1252 11.1843 92.6715C11.6013 93.078 11.0222 93.6599 10.5266 93.476C10.26 93.349 10.0311 93.292 9.84138 93.1237C9.91496 93.4445 10.103 93.794 10.3678 94.1022C11.0121 94.7468 11.8904 94.9051 12.8079 94.9522C13.0386 94.8281 13.3068 94.7739 13.5735 94.9008C14.0673 95.2659 14.6004 95.5198 15.2891 95.5098C15.7863 95.5127 16.3227 95.4042 16.8968 95.3657L16.9737 95.3244C18.1219 95.2473 18.8414 96.0319 20.1074 95.6211C21.3735 95.2102 22.2633 94.1005 22.504 92.8895C22.3896 92.8609 22.2751 92.8325 22.2374 92.7626C21.619 93.4558 20.8094 94.1619 19.9294 94.1846C19.6235 94.169 19.3586 93.8609 19.591 93.5557C20.0556 92.9452 20.862 92.6014 21.4786 92.0894C22.2116 91.4246 22.7923 90.6616 23.1834 89.7302C23.4173 89.2437 24.1043 89.4149 23.9848 89.9299C23.7884 90.4861 23.5151 91.0838 23.2043 91.6116C24.467 91.563 25.6544 91.3747 26.6589 90.2935C27.624 89.3236 27.9433 87.8901 27.8781 86.6634C27.9173 86.5521 27.9566 86.4409 28.0334 86.3996C28.2725 85.3697 28.9301 84.5652 28.8632 83.5197C28.7604 82.2232 27.9658 81.299 27.0549 80.5273C26.8652 80.359 26.8293 80.108 27.0223 79.9139C26.8785 78.9098 27.0013 78.0326 26.2442 77.1782C25.7145 76.5621 25.0276 76.3909 24.2262 76.1912C23.9546 76.6077 23.3789 76.8274 22.9618 76.4209C21.7501 75.0902 19.5715 74.9105 17.8426 75.7506C17.6872 76.0145 17.2652 76.1514 16.9217 76.0658C16.0452 75.7263 15.5153 75.1102 14.3671 75.1873C13.219 75.2643 12.0625 76.247 11.48 77.1913C11.4408 77.3026 11.3245 77.4552 11.1708 77.5379C10.6327 77.8274 9.98167 77.9073 9.36827 78.0571C8.44742 78.3724 7.67695 78.9672 7.09612 79.7303C6.16524 81.1324 6.18788 82.8326 6.90236 84.1604C7.05279 84.44 6.89735 84.7039 6.6667 84.828C6.77284 85.7623 6.41931 86.7636 6.52554 87.6979C6.59072 88.9245 7.22999 90.1127 8.41239 90.4678Z" fill="#1E0303"/>
<path d="M53.2111 64.6523C53.172 64.7635 53.172 64.7635 53.1328 64.8747C53.2096 64.8334 53.2863 64.7921 53.3255 64.6809C53.4023 64.6395 53.4023 64.6395 53.4414 64.5283L53.2111 64.6523Z" fill="#CADDEA"/>
<path d="M25.764 67.0733C25.479 68.939 25.0437 70.525 26.2145 72.1483C26.9323 73.1139 27.9593 73.7329 29.1417 74.088C29.0665 73.9483 28.8768 73.78 28.8016 73.6402C28.6135 73.2907 29.1142 72.9313 29.4559 73.198C29.9874 73.633 30.5565 74.138 31.2041 74.4204C31.8894 74.7727 32.5779 74.7626 33.3794 74.9623C33.7996 75.0066 33.7554 75.6612 33.2958 75.7283C32.8362 75.7954 32.339 75.7925 31.9186 75.7483C32.4861 76.4343 33.0928 77.0092 34.1624 77.1547C35.6899 77.4143 37.3044 76.5456 38.2713 75.3944C38.2353 75.1434 38.3908 74.8796 38.6214 74.7555C39.5064 74.1891 40.6922 74.182 41.7309 73.533C42.7696 72.884 43.6578 71.9554 44.242 70.83C44.3188 70.7887 44.3189 70.7886 44.2813 70.7188C44.2813 70.7188 44.2812 70.7188 44.3581 70.6774C44.435 70.6361 44.3974 70.5661 44.4742 70.5248C45.4361 69.9171 46.4715 69.6304 47.3581 68.883C47.9748 68.3709 48.3626 67.8018 48.8272 67.1913C48.1762 67.2712 47.5645 67.2398 46.9528 67.2085C44.7367 66.9589 42.259 66.0389 41.7425 63.9736C41.4466 62.8711 41.7659 61.4375 40.9319 60.6246C40.5149 60.218 39.7511 60.0882 39.1787 59.9456C35.8586 59.1184 33.319 56.6095 32.3154 53.4544C31.3493 50.3692 31.8031 46.7905 33.4752 43.818C33.5145 43.7068 33.6306 43.5541 33.6323 43.373C32.4039 43.8536 31.1756 44.3343 30.0959 45.2758C28.1295 46.9646 27.6516 49.0242 27.7837 51.2964C28.2466 50.8671 28.7848 50.5775 29.4374 50.3165C30.1276 50.1254 30.4627 51.1166 29.8102 51.3777C28.158 52.1765 27.0374 53.4103 26.6004 55.1776C26.4433 55.6225 25.794 55.5213 25.8367 55.0478C25.8809 54.393 26.0397 53.7668 26.313 53.1692C26.313 53.1692 26.2361 53.2106 26.1591 53.252C25.3904 53.6656 24.7344 54.289 24.2304 55.0107C23.4158 56.2602 23.2093 57.9033 23.5411 59.2569C23.6523 59.6478 22.9227 59.9502 22.8116 59.5594C21.0266 62.3223 23.4158 64.5516 25.2341 66.4572C25.3487 66.4857 25.8443 66.6697 25.764 67.0733Z" fill="#CADDEA"/>
<path d="M21.5314 73.9456C20.7124 71.5023 21.1252 68.216 22.2541 66.0765C20.246 64.0026 19.4731 60.7234 21.7911 58.2144C21.8303 58.1031 21.9841 58.0204 22.0987 58.0489C21.9173 56.9749 22.0418 55.9165 22.6636 54.861C21.1218 51.9955 19.773 48.936 18.8086 45.6697L18.6941 45.6412C15.842 43.8411 13.7261 41.0141 11.7999 38.3555C11.4598 37.9076 12.384 37.2301 12.7242 37.678C14.3871 39.8475 16.2841 41.5304 18.2562 43.3533C17.4832 40.0741 17.0946 36.5882 17.2784 33.2448C17.2834 32.7014 18.2027 32.5673 18.2746 33.0693C19.0876 40.2924 20.6336 46.8507 23.7106 53.3063C24.4452 52.4605 25.523 51.7002 26.5584 51.4135C24.6766 48.1001 27.7308 44.5642 31.3818 42.6898C29.8217 41.817 28.6851 40.626 27.7057 38.9899C26.3486 36.8362 25.3759 34.4757 24.1725 32.2392C23.3452 30.7015 22.1352 29.1896 20.2625 29.0256C18.8871 28.8644 17.58 29.5677 16.3124 30.1596C14.7372 30.917 13.0458 31.827 12.1526 33.2991C11.1824 34.8125 11.2032 36.6938 11.4548 38.451C11.7749 41.0726 12.3256 43.5703 12.9139 46.1376C15.0089 55.3747 17.1416 64.6816 19.3135 73.8772C20.0413 73.7559 20.8445 73.7745 21.5314 73.9456Z" fill="#AD2343"/>
<path d="M9.26807 88.9264C9.22376 89.5811 9.41015 90.1116 9.59649 90.6423C9.71098 90.6707 9.78622 90.8106 9.74688 90.9218C10.0853 91.5508 10.6544 92.0557 11.1466 92.6021C11.5636 93.0085 10.9845 93.5905 10.489 93.4065C10.2224 93.2795 9.95587 93.1526 9.80376 93.0542C9.87728 93.3752 10.0653 93.7246 10.3302 94.0327C10.9745 94.6774 11.8528 94.8357 12.7703 94.8828C13.001 94.7587 13.2692 94.7044 13.5358 94.8314C14.0297 95.1965 14.5628 95.4504 15.2513 95.4404C15.7486 95.4432 16.2852 95.3349 16.8593 95.2963L16.9361 95.255C18.0843 95.178 18.8038 95.9624 20.0697 95.5516C21.3357 95.1408 22.2257 94.0311 22.4664 92.8201C22.3519 92.7916 22.3143 92.7217 22.1999 92.6932C21.6583 93.345 20.7717 94.0924 19.8917 94.1153C19.5859 94.0997 19.3978 93.7501 19.5533 93.4863C20.0179 92.8757 20.8243 92.532 21.441 92.02C22.1739 91.3553 22.7547 90.5922 23.1458 89.6607C23.3797 89.1744 24.0667 89.3455 23.9471 89.8604C23.7884 90.4866 23.4775 91.0143 23.1666 91.5421C24.4294 91.4936 25.6168 91.3053 26.6212 90.2241C27.6633 89.2128 27.9056 87.8207 27.8028 86.5242C27.8421 86.4128 27.8813 86.3016 27.9582 86.2602C28.1972 85.2304 28.8548 84.426 28.8272 83.2692C28.7245 81.9727 27.9297 81.0484 27.0189 80.2768C26.8293 80.1084 26.7933 79.8574 26.9863 79.6634C26.8426 78.6592 26.9654 77.782 26.1314 76.969C25.6016 76.3529 24.9147 76.1817 24.1133 75.982C23.8417 76.3985 23.266 76.6182 22.849 76.2117C22.167 75.4971 21.176 75.1291 20.1439 75.0535C21.5879 76.079 22.991 77.3969 23.7808 78.8647C24.6832 80.542 24.5847 82.9383 22.9276 84.2806C22.234 84.834 21.3131 85.1493 20.8861 85.8296C20.2661 86.704 20.5995 87.8764 20.4374 88.8648C20.0772 90.5907 18.0767 91.8473 16.2433 91.5721C14.5243 91.3254 13.1999 89.785 13.0628 88.0563C10.7237 88.6839 8.31793 88.266 6.3391 87.1677C6.33738 87.3488 6.375 87.4188 6.33581 87.53C6.4778 88.7154 7.11708 89.9035 8.29957 90.2586C8.22766 89.7565 8.23268 89.2131 8.27531 88.7395C8.39313 88.4058 9.27308 88.3829 9.26807 88.9264Z" fill="#CADDEA"/>
</g>
</g>
<defs>
<filter id="filter0_d_413_61" x="-20.677" y="10.5041" width="214.346" height="282.256" filterUnits="userSpaceOnUse" color-interpolation-filters="sRGB">
<feFlood flood-opacity="0" result="BackgroundImageFix"/>
<feColorMatrix in="SourceAlpha" type="matrix" values="0 0 0 0 0 0 0 0 0 0 0 0 0 0 0 0 0 0 127 0" result="hardAlpha"/>
<feOffset dy="3.18107"/>
<feGaussianBlur stdDeviation="10.3385"/>
<feColorMatrix type="matrix" values="0 0 0 0 0.124514 0 0 0 0 0.679167 0 0 0 0 0.652436 0 0 0 0.16 0"/>
<feBlend mode="normal" in2="BackgroundImageFix" result="effect1_dropShadow_413_61"/>
<feBlend mode="normal" in="SourceGraphic" in2="effect1_dropShadow_413_61" result="shape"/>
</filter>
<filter id="filter1_d_413_61" x="139.92" y="124.656" width="36.2528" height="31.7899" filterUnits="userSpaceOnUse" color-interpolation-filters="sRGB">
<feFlood flood-opacity="0" result="BackgroundImageFix"/>
<feColorMatrix in="SourceAlpha" type="matrix" values="0 0 0 0 0 0 0 0 0 0 0 0 0 0 0 0 0 0 127 0" result="hardAlpha"/>
<feOffset/>
<feGaussianBlur stdDeviation="1.59054"/>
<feColorMatrix type="matrix" values="0 0 0 0 0 0 0 0 0 0 0 0 0 0 0 0 0 0 0.1 0"/>
<feBlend mode="normal" in2="BackgroundImageFix" result="effect1_dropShadow_413_61"/>
<feBlend mode="normal" in="SourceGraphic" in2="effect1_dropShadow_413_61" result="shape"/>
</filter>
<linearGradient id="paint0_linear_413_61" x1="71.9607" y1="194.192" x2="71.9607" y2="268.864" gradientUnits="userSpaceOnUse">
<stop stop-color="white"/>
<stop offset="1" stop-color="#C9C9C9" stop-opacity="0"/>
</linearGradient>
<linearGradient id="paint1_linear_413_61" x1="126.919" y1="106.711" x2="96.195" y2="112.803" gradientUnits="userSpaceOnUse">
<stop stop-color="#F7F7F7"/>
<stop offset="0.55" stop-color="#F2F2F9"/>
<stop offset="1" stop-color="#E9E9FD"/>
</linearGradient>
<linearGradient id="paint2_linear_413_61" x1="111.501" y1="140.619" x2="30.6296" y2="140.619" gradientUnits="userSpaceOnUse">
<stop stop-color="#F7F7F7"/>
<stop offset="0.55" stop-color="#F2F2F9"/>
<stop offset="1" stop-color="#E9E9FD"/>
</linearGradient>
<linearGradient id="paint3_linear_413_61" x1="98.6399" y1="109.748" x2="43.4553" y2="109.748" gradientUnits="userSpaceOnUse">
<stop stop-color="#42E8E0"/>
<stop offset="0.18" stop-color="#41E3DD"/>
<stop offset="0.38" stop-color="#3CD5D3"/>
<stop offset="0.61" stop-color="#35BDC3"/>
<stop offset="0.84" stop-color="#2C9CAD"/>
<stop offset="1" stop-color="#24819B"/>
</linearGradient>
<linearGradient id="paint4_linear_413_61" x1="40.4662" y1="126.199" x2="9.74236" y2="132.291" gradientUnits="userSpaceOnUse">
<stop stop-color="#F7F7F7"/>
<stop offset="0.55" stop-color="#F2F2F9"/>
<stop offset="1" stop-color="#E9E9FD"/>
</linearGradient>
<linearGradient id="paint5_linear_413_61" x1="37.2949" y1="138.521" x2="11.9826" y2="120.1" gradientUnits="userSpaceOnUse">
<stop stop-color="#F7F7F7"/>
<stop offset="0.55" stop-color="#F2F2F9"/>
<stop offset="1" stop-color="#E9E9FD"/>
</linearGradient>
<radialGradient id="paint6_radial_413_61" cx="0" cy="0" r="1" gradientUnits="userSpaceOnUse" gradientTransform="translate(10.7604 185.07) rotate(173.118) scale(10.8484 17.854)">
<stop stop-color="#2BB675"/>
<stop offset="1" stop-color="#14444F"/>
</radialGradient>
<linearGradient id="paint7_linear_413_61" x1="23.3281" y1="182.607" x2="1.82435" y2="185.252" gradientUnits="userSpaceOnUse">
<stop stop-color="#F7F7F7"/>
<stop offset="0.55" stop-color="#F2F2F9"/>
<stop offset="1" stop-color="#E9E9FD"/>
</linearGradient>
<radialGradient id="paint8_radial_413_61" cx="0" cy="0" r="1" gradientUnits="userSpaceOnUse" gradientTransform="translate(129.196 117.071) rotate(125.702) scale(26.4234 43.4666)">
<stop stop-color="#2BB675"/>
<stop offset="1" stop-color="#23ABD8"/>
</radialGradient>
<linearGradient id="paint9_linear_413_61" x1="146.686" y1="139.515" x2="169.929" y2="136.587" gradientUnits="userSpaceOnUse">
<stop stop-color="white"/>
<stop offset="0.55" stop-color="#F2F2F9"/>
<stop offset="1" stop-color="#E9E9FD"/>
</linearGradient>
<linearGradient id="paint10_linear_413_61" x1="110.386" y1="67.0302" x2="32.2179" y2="67.0302" gradientUnits="userSpaceOnUse">
<stop stop-color="#F7F7F7"/>
<stop offset="0.55" stop-color="#F2F2F9"/>
<stop offset="1" stop-color="#E9E9FD"/>
</linearGradient>
<linearGradient id="paint11_linear_413_61" x1="76.3558" y1="106.713" x2="65.5095" y2="29.4219" gradientUnits="userSpaceOnUse">
<stop stop-color="#F7F7F7"/>
<stop offset="0.55" stop-color="#F2F2F9"/>
<stop offset="1" stop-color="#E9E9FD"/>
</linearGradient>
<linearGradient id="paint12_linear_413_61" x1="110.274" y1="70.2361" x2="60.2614" y2="70.2361" gradientUnits="userSpaceOnUse">
<stop stop-color="#00ACBF"/>
<stop offset="0.29" stop-color="#04A7BB"/>
<stop offset="0.63" stop-color="#1099AF"/>
<stop offset="1" stop-color="#24819B"/>
</linearGradient>
<radialGradient id="paint13_radial_413_61" cx="0" cy="0" r="1" gradientUnits="userSpaceOnUse" gradientTransform="translate(104.624 73.2275) scale(0.847254)">
<stop stop-color="white"/>
<stop offset="1" stop-color="#95FDA8"/>
</radialGradient>
<radialGradient id="paint14_radial_413_61" cx="0" cy="0" r="1" gradientUnits="userSpaceOnUse" gradientTransform="translate(104.624 73.2275) scale(0.847254)">
<stop stop-color="white"/>
<stop offset="1" stop-color="#95FDA8"/>
</radialGradient>
<radialGradient id="paint15_radial_413_61" cx="0" cy="0" r="1" gradientUnits="userSpaceOnUse" gradientTransform="translate(104.627 70.4828) rotate(180) scale(0.846604)">
<stop stop-color="white"/>
<stop offset="1" stop-color="#95FDA8"/>
</radialGradient>
<radialGradient id="paint16_radial_413_61" cx="0" cy="0" r="1" gradientUnits="userSpaceOnUse" gradientTransform="translate(104.627 70.4828) rotate(180) scale(0.846604)">
<stop stop-color="white"/>
<stop offset="1" stop-color="#95FDA8"/>
</radialGradient>
<radialGradient id="paint17_radial_413_61" cx="0" cy="0" r="1" gradientUnits="userSpaceOnUse" gradientTransform="translate(104.638 67.6603) rotate(180) scale(0.848122)">
<stop stop-color="white"/>
<stop offset="1" stop-color="#95FDA8"/>
</radialGradient>
<radialGradient id="paint18_radial_413_61" cx="0" cy="0" r="1" gradientUnits="userSpaceOnUse" gradientTransform="translate(104.638 67.6603) rotate(180) scale(0.848122)">
<stop stop-color="white"/>
<stop offset="1" stop-color="#95FDA8"/>
</radialGradient>
<radialGradient id="paint19_radial_413_61" cx="0" cy="0" r="1" gradientUnits="userSpaceOnUse" gradientTransform="translate(91.3026 79.6101) rotate(180) scale(0.848122)">
<stop stop-color="white"/>
<stop offset="1" stop-color="#95FDA8"/>
</radialGradient>
<radialGradient id="paint20_radial_413_61" cx="0" cy="0" r="1" gradientUnits="userSpaceOnUse" gradientTransform="translate(91.3026 79.6101) rotate(180) scale(0.848122)">
<stop stop-color="white"/>
<stop offset="1" stop-color="#95FDA8"/>
</radialGradient>
<radialGradient id="paint21_radial_413_61" cx="0" cy="0" r="1" gradientUnits="userSpaceOnUse" gradientTransform="translate(91.3026 76.8673) rotate(180) scale(0.846604)">
<stop stop-color="white"/>
<stop offset="1" stop-color="#95FDA8"/>
</radialGradient>
<radialGradient id="paint22_radial_413_61" cx="0" cy="0" r="1" gradientUnits="userSpaceOnUse" gradientTransform="translate(91.3026 76.8673) rotate(180) scale(0.846604)">
<stop stop-color="white"/>
<stop offset="1" stop-color="#95FDA8"/>
</radialGradient>
<radialGradient id="paint23_radial_413_61" cx="0" cy="0" r="1" gradientUnits="userSpaceOnUse" gradientTransform="translate(91.3126 74.0445) rotate(180) scale(0.848122)">
<stop stop-color="white"/>
<stop offset="1" stop-color="#95FDA8"/>
</radialGradient>
<radialGradient id="paint24_radial_413_61" cx="0" cy="0" r="1" gradientUnits="userSpaceOnUse" gradientTransform="translate(91.3126 74.0445) rotate(180) scale(0.848122)">
<stop stop-color="white"/>
<stop offset="1" stop-color="#95FDA8"/>
</radialGradient>
<clipPath id="clip0_413_61">
<rect width="173" height="273" fill="white"/>
</clipPath>
<clipPath id="clip1_413_61">
<rect width="110" height="100" fill="white" transform="matrix(-0.880621 0.473821 0.473821 0.880621 66.6763 -28.8564)"/>
</clipPath>
</defs>
</svg>
