<svg width="97" height="20" viewBox="0 0 97 20" fill="none" xmlns="http://www.w3.org/2000/svg">
<path d="M4.40571 10L2.20191 12.2587L0 10L2.20191 7.7413L4.40571 10ZM9.74857 4.51544L13.5219 8.38804L15.7238 6.12935L9.74857 0L3.77333 6.12935L5.97524 8.38804L9.74857 4.51544ZM17.2971 7.7413L15.0952 10L17.2971 12.2587L19.4971 10L17.2971 7.7413ZM9.74857 15.4846L5.97524 11.6139L3.77333 13.8707L9.74857 20L15.7238 13.8707L13.5219 11.6139L9.74857 15.4846ZM9.74857 12.2587L11.9505 10L9.74857 7.7413L7.54667 10L9.74857 12.2587ZM32.9867 12.4756V12.4443C32.9867 10.9711 32.2248 10.2345 30.9848 9.7499C31.7467 9.31028 32.3905 8.62055 32.3905 7.38374V7.35248C32.3905 5.62915 31.0457 4.51544 28.861 4.51544H23.901V15.4846H28.9867C31.4 15.4846 32.9905 14.4822 32.9905 12.4756H32.9867ZM30.0533 7.78624C30.0533 8.60102 29.3962 8.94685 28.3581 8.94685H26.1924V6.6315H28.5143C29.5067 6.6315 30.0571 7.0379 30.0571 7.75889L30.0533 7.78624ZM30.6495 12.1747C30.6495 12.9894 30.0229 13.3646 28.9829 13.3646H26.1924V10.9555H28.9105C30.1181 10.9555 30.6533 11.4107 30.6533 12.1473L30.6495 12.1747ZM37.9295 15.4846V4.51544H35.5695V15.4846H37.9295ZM50.5752 15.4846V4.51544H48.2457V11.27L43.2362 4.51544H41.0667V15.4846H43.3886V8.51114L48.5657 15.4846H50.5752ZM63.6057 15.4846L59.0152 4.43728H56.8457L52.2648 15.4846H54.6629L55.6438 13.0246H60.1657L61.1429 15.4846H63.6057ZM59.3295 10.8929H56.48L57.901 7.33685L59.3295 10.8929ZM74.8191 15.4846V4.51544H72.4895V11.27L67.4781 4.51544H65.3105V15.4846H67.6305V8.51114L72.8095 15.4846H74.8191ZM86.9619 13.7143L85.4667 12.163C84.6267 12.9445 83.8781 13.4467 82.6552 13.4467C80.8229 13.4467 79.5543 11.8835 79.5543 10V9.96874C79.5543 8.0891 80.8533 6.55334 82.6552 6.55334C83.7238 6.55334 84.56 7.02227 85.3905 7.79015L86.8819 6.01993C85.8895 5.01759 84.6838 4.32786 82.6667 4.32786C79.3829 4.32786 77.0914 6.88159 77.0914 9.99414V10.0254C77.0914 13.1751 79.4286 15.6663 82.5752 15.6663C84.6343 15.6721 85.8552 14.9199 86.9543 13.7143H86.9619ZM97 15.4846V13.3353H91.1867V11.0277H96.2286V8.87847H91.1867V6.66276H96.9162V4.51348H88.8495V15.4826L97 15.4846Z" fill="#48A4BF"/>
</svg>
