<svg width="90" height="15" viewBox="0 0 90 15" fill="none" xmlns="http://www.w3.org/2000/svg">
<g clip-path="url(#clip0_5898_3963)">
<path d="M7.66735 0.281143H16.0934C16.0883 0.395271 16.0498 0.505186 15.9829 0.59661C15.6977 1.09756 15.4409 1.61896 15.1607 2.11991C14.7642 2.8392 14.3934 3.57164 13.9905 4.28801C13.7352 4.80356 13.4471 5.30305 13.1747 5.80984C11.5374 5.80984 9.90009 5.80984 8.26279 5.80984C8.17722 5.80984 8.09236 5.81422 8.00679 5.81934C7.93548 6.01212 7.8171 6.18081 7.72154 6.36191C7.59675 6.5693 7.49549 6.79057 7.37212 6.99796C7.24162 7.27691 7.0612 7.52665 6.92999 7.80488C6.65901 8.27589 6.40586 8.7542 6.14058 9.23032C5.86389 9.71715 5.59339 10.2108 5.32906 10.7113C5.2172 10.8886 5.11414 11.0717 5.02029 11.2597C4.4662 12.247 3.92994 13.243 3.37514 14.2296C3.32809 14.3356 3.2661 14.4341 3.19116 14.5217C2.24273 14.5151 1.29429 14.5217 0.345858 14.5217C0.229043 14.524 0.112922 14.5406 0 14.5713C0 14.3026 0.175425 14.0872 0.293801 13.8615C0.436423 13.5585 0.626823 13.2773 0.770158 12.9736C1.90685 10.8909 3.03143 8.80093 4.16456 6.71681C4.42128 6.26406 4.64163 5.80181 4.89977 5.35782C5.2221 4.77362 5.52232 4.17628 5.85819 3.59866C5.96516 3.35694 6.1092 3.13568 6.22687 2.89981C6.64475 2.13816 7.05479 1.37213 7.47124 0.610485C7.52065 0.491537 7.58671 0.380592 7.66735 0.281143Z" fill="#48A4BF"/>
<path d="M17.4311 3.34745C17.9923 2.34336 18.5343 1.32832 19.1034 0.328613H22.1469C22.1912 0.33091 22.2352 0.338008 22.2781 0.34979C22.1768 0.506794 22.092 0.67329 22.0028 0.836865C21.2688 2.18587 20.5369 3.53561 19.8072 4.88608C19.5006 5.43596 19.2153 5.99825 18.9044 6.54521L18.8737 6.55616L18.868 6.6248C17.4371 9.25369 16.0108 11.8845 14.5894 14.5173C11.7954 14.5202 9.00122 14.5202 6.20679 14.5173C6.36581 14.177 6.55407 13.8521 6.73092 13.5213C7.52675 12.0228 8.34326 10.5375 9.12768 9.039C10.8444 9.03608 12.5611 9.03608 14.2777 9.039C15.3381 7.14766 16.3757 5.24171 17.4283 3.34745H17.4311Z" fill="#48A4BF"/>
<path d="M48.8413 0.289909V14.6904H51.278V4.56404L55.7228 11.2334L60.132 4.40558V14.6904H62.64V0.289909H59.9423L55.7406 6.93735L51.4919 0.289909H48.8413Z" fill="#48A4BF"/>
<path d="M37.4438 4.00394H39.0362V14.8116H37.4438V4.00394Z" fill="#48A4BF"/>
<path d="M37.3069 0H39.1731V1.8132H37.3069V0Z" fill="#48A4BF"/>
<path d="M42.079 0.906967H43.7426V4.00394H47.0229V5.51336H43.7426V11.9337C43.7398 12.1811 43.7958 12.4255 43.9059 12.6457C44.1876 13.1934 44.9528 13.8433 47.0229 13.0838V14.483C47.0229 14.483 45.1332 15.5783 43.4217 14.5808C43.4217 14.5808 42.5717 14.2113 42.2144 12.9641C42.1216 12.63 42.076 12.284 42.079 11.9366V5.48926L40.6763 5.51336V4.00394H42.0904L42.079 0.906967Z" fill="#48A4BF"/>
<path d="M65.2073 0.289909V14.7875H75.7848V12.4507H67.7866V8.6045H74.8343V6.30422H67.7745V2.6413H75.7021V0.289909H65.2073Z" fill="#48A4BF"/>
<path d="M76.7777 0.289909H79.7905L83.2491 5.37973L86.6806 0.289909H89.6935L84.773 7.36016L90.0001 14.7751H86.8268L83.2612 9.35957L79.5231 14.7875H76.5103L81.6625 7.42442L76.7777 0.289909Z" fill="#48A4BF"/>
<path d="M32.5703 7.26596C32.5703 7.26596 34.9001 6.36556 34.7574 3.77319C34.7574 3.77319 34.7382 1.28013 31.997 0.510446C31.5412 0.385391 31.0711 0.323499 30.5993 0.326423H24.0251L24.043 14.7269H31.1206C31.1206 14.7269 35.2623 14.6356 35.554 10.8566C35.554 10.8566 35.8506 8.21528 32.5703 7.26596ZM25.7245 1.81321H29.9204C33.2121 1.80152 33.1173 4.17482 33.1173 4.17482C33.1665 6.88258 30.1458 6.82781 30.1458 6.82781H25.7245V1.81321ZM30.8589 13.2051H25.7245V8.19118H30.6335C33.9252 8.17877 33.8304 10.5521 33.8304 10.5521C33.8796 13.2598 30.8589 13.2051 30.8589 13.2051Z" fill="#48A4BF"/>
</g>
<defs>
<clipPath id="clip0_5898_3963">
<rect width="90" height="15" fill="white"/>
</clipPath>
</defs>
</svg>
