<svg width="58" height="15" viewBox="0 0 58 15" fill="none" xmlns="http://www.w3.org/2000/svg">
<path d="M9.39454 10.7228H5.51855V14.6127H9.39454V10.7228Z" fill="#48A4BF"/>
<path d="M12.0713 5.53641H5.51855V9.42629H12.0713H13.2704V5.53641H12.0713Z" fill="#48A4BF"/>
<path d="M17.1463 0.349899H5.51855V4.23971H17.1463V0.349899Z" fill="#48A4BF"/>
<path d="M4.22624 5.53647H0.350342V9.42628H4.22624V5.53647Z" fill="#48A4BF"/>
<path d="M21.021 14.6136H24.0259V8.72145H29.8068V6.23504H24.0259V2.83629H30.4313V0.349899H21.021V14.6136Z" fill="#48A4BF"/>
<path d="M31.9111 2.83629H36.2624V14.6136H39.2326V2.83629H43.5838V0.349899H31.9111V2.83629Z" fill="#48A4BF"/>
<path d="M48.324 0.349899H44.9165L49.2817 7.48175L44.8333 14.6136H48.2754L51.1901 9.74529H51.3012L54.2159 14.6136H57.6719L53.2374 7.48175L57.5747 0.349899H54.1812L51.3012 5.21128H51.1901L48.324 0.349899Z" fill="#48A4BF"/>
</svg>
