<svg width="70" height="20" viewBox="0 0 70 20" fill="none" xmlns="http://www.w3.org/2000/svg">
<g clip-path="url(#clip0_5898_3955)">
<path d="M25.9934 4.98517V10.6284H20.1047V5.71388C20.1047 5.30998 19.7606 4.98235 19.3363 4.98235H17.3428V18.4917C17.3428 18.8956 17.6869 19.2233 18.1111 19.2233H20.1047V12.9219H25.9964V18.4889C25.9904 18.8928 26.3286 19.2261 26.7528 19.2317H26.7647H28.7583V5.71388C28.7583 5.30998 28.4141 4.98235 27.9899 4.98235H25.9934V4.98517ZM37.6878 8.51574V15.286C37.6937 15.9017 37.3555 16.4751 36.7978 16.7914C35.2373 17.65 33.6205 16.5739 33.6205 15.1617V9.24728C33.6205 8.84338 33.2764 8.51574 32.8522 8.51574H30.8586V15.4046C30.8646 17.6246 32.7513 19.421 35.0831 19.4323H36.2163C38.551 19.4266 40.4437 17.6246 40.4497 15.4018V9.24728C40.4497 8.84338 40.1055 8.51574 39.6813 8.51574H37.6878Z" fill="#48A4BF"/>
<path d="M67.8492 19.2318H69.8427V9.63988C69.8427 9.23599 69.4986 8.90835 69.0744 8.90835H67.0808V18.4946C67.0779 18.8985 67.419 19.2289 67.8432 19.2318H67.8492Z" fill="#48A4BF"/>
<path d="M69.8849 6.98984C70.2103 6.24186 69.8373 5.38433 69.0516 5.0745C68.266 4.76467 67.3653 5.11986 67.0399 5.86785C66.7145 6.61583 67.0876 7.47335 67.8732 7.78318C68.6588 8.09301 69.5595 7.73782 69.8849 6.98984Z" fill="#48A4BF"/>
<path d="M47.5755 8.51009C44.683 8.51009 42.3157 10.4787 42.3157 13.2326V14.7211C42.3157 17.4749 44.683 19.4323 47.5755 19.4323C50.4679 19.4323 52.8353 17.4749 52.8353 14.7211V13.2326C52.8382 10.4787 50.4709 8.51009 47.5755 8.51009ZM50.0615 14.899C50.0615 16.2011 48.9431 17.0682 47.5725 17.0682C46.2019 17.0682 45.0865 16.2011 45.0865 14.899V13.0405C45.0865 11.7385 46.2049 10.8713 47.5725 10.8713C48.9401 10.8713 50.0615 11.7385 50.0615 13.0405V14.899Z" fill="#48A4BF"/>
<path d="M59.961 8.5101C59.0948 8.50445 58.2404 8.69087 57.4602 9.04957V5.72801C57.4602 5.32411 57.116 4.99648 56.6918 4.99648H54.6982V14.7211C54.6982 17.4749 57.0656 19.4323 59.958 19.4323C62.8505 19.4323 65.2178 17.4749 65.2178 14.7211V13.2326C65.2208 10.4788 62.8594 8.5101 59.961 8.5101ZM62.45 14.899C62.45 16.2011 61.3316 17.0682 59.961 17.0682C58.5934 17.0682 57.475 16.2011 57.475 14.899V13.0405C57.475 11.7385 58.5934 10.8714 59.961 10.8714C61.3286 10.8714 62.45 11.7385 62.45 13.0405V14.899Z" fill="#48A4BF"/>
<path d="M8.99488 6.15167C8.99488 3.28202 7.52641 0.810617 6.408 0.00847017C6.408 0.00847017 6.32197 -0.0367212 6.33087 0.0790817C6.2389 5.6235 3.2634 7.12611 1.6288 9.14842C-2.14472 13.8201 1.36181 18.9408 4.93953 19.887C6.93309 20.418 4.47674 18.9493 4.15932 15.8509C3.77069 12.1113 8.99488 9.25293 8.99488 6.15167Z" fill="#48A4BF"/>
<path d="M10.7094 8.04123C10.6857 8.02711 10.6531 8.01581 10.6323 8.05253C10.57 8.75017 9.82241 10.2415 8.87309 11.6142C5.65433 16.2632 7.48769 18.5059 8.52007 19.7119C9.11932 20.4095 8.52007 19.7119 10.0152 18.9973C11.8634 17.9297 13.0619 16.0825 13.2399 14.0319C13.5336 10.7273 11.4511 8.64567 10.7094 8.04123Z" fill="#48A4BF"/>
</g>
<defs>
<clipPath id="clip0_5898_3955">
<rect width="70" height="20" fill="white"/>
</clipPath>
</defs>
</svg>
