<svg width="87" height="20" viewBox="0 0 87 20" fill="none" xmlns="http://www.w3.org/2000/svg">
<g clip-path="url(#clip0_5898_3974)">
<path d="M68.5464 9.99081C68.5464 9.48072 68.5464 9.0009 68.5298 8.55778C68.5185 8.13975 68.4768 7.72307 68.4051 7.31099C68.3381 6.93471 68.2197 6.56927 68.0533 6.22475C67.8776 5.86955 67.6428 5.54635 67.3588 5.26879C66.956 4.85881 66.4767 4.53069 65.9477 4.30273C65.3754 4.07243 64.7624 3.95826 64.145 3.96695C63.5253 3.959 62.9101 4.07312 62.335 4.30273C61.8029 4.52757 61.3206 4.85427 60.9155 5.2642C60.6321 5.5416 60.3982 5.86486 60.2238 6.22017C60.0588 6.56475 59.9423 6.93026 59.8775 7.3064C59.8075 7.7186 59.7673 8.13527 59.7575 8.55319C59.7464 8.99631 59.7409 9.47613 59.7436 9.98622C59.7464 10.4963 59.7436 10.9725 59.7575 11.4183C59.7673 11.8363 59.8075 12.2529 59.8775 12.6651C59.9423 13.0413 60.0588 13.4068 60.2238 13.7514C60.3989 14.1063 60.6327 14.4294 60.9155 14.7073C61.3199 15.1176 61.8024 15.4438 62.335 15.667C62.9097 15.8981 63.5251 16.0128 64.145 16.0046C64.7626 16.0136 65.3758 15.8988 65.9477 15.667C66.4768 15.442 66.9563 15.116 67.3588 14.7073C67.6422 14.4292 67.8769 14.1061 68.0533 13.7514C68.2197 13.4068 68.3381 13.0414 68.4051 12.6651C68.476 12.2542 68.517 11.8388 68.5279 11.422C68.5418 10.9761 68.5482 10.4991 68.5446 9.98989L68.5464 9.99081ZM66.2192 9.99081C66.2192 10.5559 66.2109 11.0266 66.1915 11.4009C66.1806 11.7084 66.1497 12.0148 66.0991 12.3183C66.0645 12.5205 66.0024 12.7172 65.9144 12.9027C65.843 13.0523 65.7497 13.1905 65.6374 13.3128C65.464 13.51 65.249 13.6666 65.0076 13.7715C64.7359 13.887 64.4433 13.9457 64.1478 13.9441C63.8509 13.9453 63.5568 13.8866 63.2834 13.7715C63.0361 13.6686 62.8152 13.5118 62.6369 13.3128C62.524 13.1911 62.4305 13.0528 62.3599 12.9027C62.2744 12.717 62.2153 12.5203 62.1844 12.3183C62.1351 12.0146 62.1043 11.7083 62.0921 11.4009C62.0755 11.0266 62.0671 10.5566 62.0671 9.99081C62.0671 9.42567 62.0755 8.95411 62.0921 8.5798C62.1043 8.27243 62.1352 7.96606 62.1844 7.66237C62.2153 7.46042 62.2744 7.26374 62.3599 7.07796C62.4307 6.92807 62.5241 6.78978 62.6369 6.66787C62.8155 6.46916 63.0363 6.31246 63.2834 6.20916C63.5564 6.09275 63.8507 6.03402 64.1478 6.03668C64.4434 6.03363 64.7363 6.09239 65.0076 6.20916C65.2488 6.3144 65.4638 6.471 65.6374 6.66787C65.7495 6.79034 65.8428 6.92851 65.9144 7.07796C66.0024 7.26355 66.0645 7.46015 66.0991 7.66237C66.1497 7.9659 66.1805 8.27234 66.1915 8.5798C66.2118 8.95319 66.2192 9.42475 66.2192 9.99081Z" fill="#48A4BF"/>
<path d="M87.0903 4.2734C87.0893 4.16184 86.9985 4.07164 86.8862 4.07065H84.9662C84.8537 4.07115 84.7626 4.16163 84.7621 4.2734V11.3193L80.08 4.12753C80.0486 4.07891 80.0209 4.07065 79.9516 4.07065H78.1711C78.059 4.07213 77.9685 4.16204 77.967 4.2734V15.7064C77.9685 15.8176 78.0592 15.9073 78.1711 15.9083H80.0902C80.2022 15.9078 80.2928 15.8177 80.2933 15.7064V8.64221L84.9764 15.8505C85.0087 15.8991 85.0346 15.9073 85.1048 15.9073H86.8843C86.9965 15.9068 87.0874 15.8169 87.0884 15.7055L87.0903 4.2734Z" fill="#48A4BF"/>
<path d="M74.2203 4.2734C74.2198 4.16163 74.1287 4.07115 74.0162 4.07065H72.0981C71.9856 4.07115 71.8945 4.16163 71.894 4.2734V15.7055C71.8945 15.8173 71.9856 15.9078 72.0981 15.9083H74.0162C74.1287 15.9078 74.2198 15.8173 74.2203 15.7055V4.2734Z" fill="#48A4BF"/>
<path d="M51.2588 9.99083C51.2588 9.42202 51.2652 8.94862 51.2819 8.57156C51.2931 8.26412 51.324 7.9577 51.3742 7.65413C51.5515 6.63578 52.3365 6.03486 53.3385 6.03486C53.9923 6.04037 54.5852 6.28073 54.9638 6.82752C55.1353 7.0828 55.2603 7.36599 55.3332 7.66422C55.3389 7.69563 55.3677 7.71755 55.3997 7.71468H57.6577C57.69 7.71468 57.702 7.69266 57.6965 7.66147C57.4499 6.27339 56.7046 5.02661 55.3877 4.40917C54.7405 4.11148 54.0341 3.96253 53.3209 3.97339C52.0496 3.97339 50.9786 4.40581 50.1081 5.27064C49.6111 5.75186 49.2718 6.3709 49.1347 7.04679C49.0017 7.71223 48.9346 8.69327 48.9334 9.98991C48.9322 11.2865 48.9993 12.2673 49.1347 12.9321C49.2707 13.6089 49.6089 14.2292 50.1053 14.7119C50.9753 15.5761 52.0462 16.0083 53.3182 16.0083C54.0312 16.019 54.7375 15.8704 55.3849 15.5734C56.7019 14.956 57.4471 13.7092 57.6937 12.3211C57.6992 12.289 57.6872 12.2679 57.6549 12.2679H55.396C55.3639 12.2646 55.3347 12.2867 55.3295 12.3183C55.2565 12.6162 55.1314 12.8991 54.9601 13.1541C54.5815 13.7046 53.9886 13.9422 53.3348 13.9468C52.3328 13.9468 51.5478 13.3468 51.3705 12.3284C51.3203 12.0249 51.2895 11.7184 51.2782 11.411C51.2652 11.0321 51.2588 10.5578 51.2588 9.99083Z" fill="#48A4BF"/>
<path d="M27.4103 4.2734C27.4098 4.16163 27.3187 4.07115 27.2062 4.07065H25.2881C25.1756 4.07115 25.0845 4.16163 25.084 4.2734V15.7064C25.085 15.8178 25.1759 15.9078 25.2881 15.9085H27.2062C27.3183 15.9078 27.4093 15.8178 27.4103 15.7064V12.3505L28.9497 10.522L32.1118 15.8477C32.1361 15.887 32.1799 15.9101 32.2263 15.9085H34.5572C34.6643 15.9085 34.6837 15.8422 34.6302 15.7514L30.4901 8.7789L34.2885 4.2523C34.3651 4.16056 34.3328 4.0734 34.2127 4.0734H31.6648C31.6338 4.07159 31.604 4.08538 31.5854 4.1101L27.4103 9.08441V4.2734Z" fill="#48A4BF"/>
<path d="M41.3848 13.9468C40.3052 13.9468 39.3263 12.9541 39.3263 11.7688V4.2734C39.3258 4.16163 39.2347 4.07115 39.1222 4.07065H37.2041C37.0916 4.07115 37.0005 4.16163 37 4.2734V11.7395C37 14.3495 38.9652 16.0083 41.3848 16.0083C43.8043 16.0083 45.7695 14.3495 45.7695 11.7395V4.2734C45.7685 4.16184 45.6777 4.07164 45.5654 4.07065H43.6464C43.5343 4.07165 43.4437 4.16199 43.4432 4.2734V11.7688C43.4432 12.9532 42.4634 13.9468 41.3848 13.9468Z" fill="#48A4BF"/>
<path d="M5.80325 9.99083L11.758 15.9073L15.5166 12.1734C16.1887 11.5722 17.2169 11.599 17.8564 12.2343C18.4959 12.8696 18.5229 13.891 17.9177 14.5587L12.9576 19.4872C12.2913 20.1381 11.2227 20.1381 10.5565 19.4872L3.40032 12.3762V16.6028C3.40032 17.5356 2.63913 18.2917 1.70016 18.2917C0.761186 18.2917 0 17.5356 0 16.6028V3.3734C0 2.44059 0.761186 1.68441 1.70016 1.68441C2.63913 1.68441 3.40032 2.44059 3.40032 3.3734V7.6L10.5556 0.490829C11.2216 -0.160599 12.2906 -0.160599 12.9567 0.490829L17.9205 5.41835C18.5256 6.08603 18.4987 7.10751 17.8592 7.74281C17.2197 8.37812 16.1915 8.40486 15.5194 7.80367L11.7607 4.06973L5.80325 9.99083ZM11.7607 8.3C11.0723 8.29963 10.4514 8.71135 10.1876 9.34314C9.9239 9.97493 10.0693 10.7023 10.556 11.1861C11.0427 11.6699 11.7748 11.8147 12.4109 11.553C13.047 11.2914 13.4618 10.6748 13.4618 9.99083C13.4621 9.54239 13.283 9.11223 12.964 8.79497C12.6449 8.4777 12.2121 8.29933 11.7607 8.29909V8.3Z" fill="#48A4BF"/>
</g>
<defs>
<clipPath id="clip0_5898_3974">
<rect width="87" height="20" fill="white"/>
</clipPath>
</defs>
</svg>
