<svg width="58" height="20" viewBox="0 0 58 20" fill="none" xmlns="http://www.w3.org/2000/svg">
<path d="M32.6618 10.0219C32.6665 10.6635 32.5561 11.3009 32.3357 11.9055C32.1288 12.4759 31.8085 13.0009 31.3931 13.4506C30.9682 13.9014 30.4495 14.2588 29.8715 14.499C28.5446 15.0172 27.0635 15.0172 25.7365 14.499C25.1565 14.2569 24.6354 13.8985 24.2073 13.4471C23.7884 13.0001 23.4677 12.4745 23.2647 11.9025C22.8395 10.683 22.8395 9.36093 23.2647 8.14136C23.4663 7.56628 23.7871 7.03765 24.2073 6.58826C24.6359 6.13836 25.1569 5.78118 25.7365 5.53988C27.062 5.02217 28.5415 5.02217 29.8669 5.53988C30.4453 5.78095 30.9642 6.13939 31.389 6.59125C31.8073 7.0432 32.1292 7.57166 32.3357 8.14585C32.5546 8.74826 32.665 9.38296 32.6618 10.0219ZM27.8063 13.3383C28.2336 13.3493 28.6577 13.2639 29.0453 13.0887C29.391 12.9245 29.6934 12.6854 29.9295 12.3898C30.1761 12.0765 30.3566 11.7188 30.4608 11.3374C30.6931 10.4772 30.6931 9.57317 30.4608 8.71297C30.357 8.33192 30.1772 7.97449 29.9315 7.6611C29.6955 7.36548 29.393 7.12639 29.0474 6.96218C28.6568 6.79452 28.2347 6.70793 27.8079 6.70793C27.381 6.70793 26.9589 6.79452 26.5683 6.96218C26.2227 7.12639 25.9203 7.36548 25.6842 7.6611C25.4386 7.97449 25.2587 8.33192 25.155 8.71297C24.9227 9.57317 24.9227 10.4772 25.155 11.3374C25.2597 11.7159 25.4396 12.0708 25.6847 12.3818C25.9206 12.6778 26.2233 12.917 26.5694 13.0807C26.9564 13.2584 27.3805 13.3463 27.8084 13.3373L27.8063 13.3383ZM33.9373 14.7207V5.32422H35.9665V9.83923L39.3148 5.32422H41.6631L38.1117 9.96703L41.9098 14.7222H39.402L35.966 10.1083V14.7222L33.9373 14.7207ZM42.7067 5.32422H48.5074V6.89029H44.7365V9.16178H48.3315V10.7279H44.7365V13.1551H48.5489V14.7207H42.7072L42.7067 5.32422ZM55.7327 5.32422H57.9379L54.7655 9.99449L58 14.7207H55.7825L53.6983 11.5176L51.6136 14.7207H49.39L52.6208 9.99399L49.451 5.32322H51.6562L53.6998 8.4993L55.7327 5.32422Z" fill="#48A4BF"/>
<path d="M9.16679 8.92365C9.89351 9.09688 10.6524 9.09688 11.3792 8.92365C11.5821 8.11965 12.0073 7.3851 12.6087 6.79968C13.21 6.21426 13.9646 5.80032 14.7905 5.60279C14.9579 4.93636 14.9675 4.24163 14.8187 3.57106C14.6698 2.90049 14.3663 2.27162 13.9312 1.73197C13.496 1.19231 12.9406 0.755984 12.3068 0.45594C11.673 0.155896 10.9775 -1.52588e-05 10.2727 -1.52588e-05C9.56797 -1.52588e-05 8.87243 0.155896 8.23866 0.45594C7.60488 0.755984 7.04944 1.19231 6.61429 1.73197C6.17914 2.27162 5.87566 2.90049 5.72678 3.57106C5.57791 4.24163 5.58752 4.93636 5.75491 5.60279C6.58091 5.80024 7.33559 6.21414 7.93706 6.79957C8.53854 7.38499 8.96383 8.11959 9.16679 8.92365Z" fill="#48A4BF"/>
<path d="M11.3791 11.0763C10.6524 10.9031 9.89349 10.9031 9.16677 11.0763C8.96369 11.8802 8.53842 12.6147 7.93707 13.2001C7.33572 13.7855 6.58123 14.1995 5.75539 14.3972C5.58801 15.0636 5.5784 15.7583 5.72727 16.4289C5.87615 17.0995 6.17963 17.7283 6.61477 18.268C7.04992 18.8077 7.60537 19.244 8.23914 19.544C8.87292 19.8441 9.56846 20 10.2732 20C10.978 20 11.6735 19.8441 12.3073 19.544C12.941 19.244 13.4965 18.8077 13.9316 18.268C14.3668 17.7283 14.6703 17.0995 14.8191 16.4289C14.968 15.7583 14.9584 15.0636 14.791 14.3972C13.965 14.1997 13.2103 13.7858 12.6089 13.2004C12.0074 12.615 11.5821 11.8804 11.3791 11.0763Z" fill="#48A4BF"/>
<path d="M15.8963 5.4725C15.5238 5.47245 15.1525 5.51603 14.7907 5.60229C14.5878 6.40619 14.1627 7.14065 13.5614 7.72598C12.9601 8.31132 12.2056 8.72518 11.3798 8.92266C11.2018 9.63009 11.2018 10.3689 11.3798 11.0763C12.2056 11.2739 12.9601 11.6879 13.5614 12.2733C14.1626 12.8587 14.5878 13.5932 14.7907 14.3972C15.4295 14.5491 16.0941 14.5674 16.7407 14.4509C17.3873 14.3344 18.0012 14.0857 18.5418 13.7213C19.0825 13.3569 19.5376 12.885 19.8771 12.3368C20.2167 11.7886 20.4329 11.1766 20.5117 10.541C20.5904 9.90549 20.5298 9.26093 20.3338 8.64987C20.1379 8.03882 19.8111 7.47515 19.3749 6.99608C18.9388 6.51701 18.4032 6.13342 17.8036 5.87062C17.204 5.60782 16.5539 5.47179 15.8963 5.4715V5.4725Z" fill="#48A4BF"/>
<path d="M9.16688 11.0763C9.34483 10.3689 9.34483 9.6301 9.16688 8.92266C8.34104 8.72516 7.58651 8.3113 6.98514 7.72598C6.38377 7.14065 5.95851 6.4062 5.75551 5.6023C5.07092 5.43936 4.35725 5.42999 3.66841 5.57492C2.97956 5.71985 2.33355 6.01527 1.77919 6.43888C1.22483 6.86248 0.776604 7.40319 0.468382 8.02015C0.160161 8.63711 0 9.31419 0 10.0002C0 10.6863 0.160161 11.3634 0.468382 11.9803C0.776604 12.5973 1.22483 13.138 1.77919 13.5616C2.33355 13.9852 2.97956 14.2806 3.66841 14.4256C4.35725 14.5705 5.07092 14.5611 5.75551 14.3982C5.95832 13.594 6.38348 12.8593 6.98486 12.2737C7.58624 11.6881 8.34087 11.274 9.16688 11.0763Z" fill="#48A4BF"/>
<path d="M11.3792 8.92366C12.205 8.72597 12.9595 8.31199 13.5608 7.72659C14.1622 7.14119 14.5874 6.40672 14.7905 5.6028C13.9646 5.80034 13.21 6.21427 12.6087 6.79969C12.0073 7.38511 11.5821 8.11966 11.3792 8.92366Z" fill="#48A4BF"/>
<path d="M11.3792 11.0763C11.5821 11.8803 12.0073 12.6149 12.6087 13.2003C13.21 13.7857 13.9646 14.1996 14.7905 14.3972C14.5874 13.5933 14.1622 12.8588 13.5608 12.2734C12.9595 11.688 12.205 11.274 11.3792 11.0763Z" fill="#48A4BF"/>
<path d="M9.16699 8.92366C8.96391 8.11974 8.53864 7.38526 7.93729 6.79987C7.33594 6.21447 6.58145 5.80049 5.75562 5.6028C5.95869 6.40672 6.38396 7.14119 6.98531 7.72659C7.58666 8.31199 8.34115 8.72597 9.16699 8.92366Z" fill="#48A4BF"/>
<path d="M9.16699 11.0763C8.34115 11.274 7.58666 11.688 6.98531 12.2734C6.38396 12.8588 5.95869 13.5933 5.75562 14.3972C6.58145 14.1995 7.33594 13.7855 7.93729 13.2001C8.53864 12.6147 8.96391 11.8802 9.16699 11.0763Z" fill="#48A4BF"/>
<path d="M32.6618 10.0219C32.6665 10.6635 32.5561 11.3009 32.3357 11.9055C32.1288 12.4759 31.8085 13.0009 31.3931 13.4506C30.9682 13.9014 30.4495 14.2588 29.8715 14.499C28.5446 15.0172 27.0635 15.0172 25.7365 14.499C25.1565 14.2569 24.6354 13.8985 24.2073 13.4471C23.7884 13.0001 23.4677 12.4745 23.2647 11.9025C22.8395 10.683 22.8395 9.36093 23.2647 8.14136C23.4663 7.56628 23.7871 7.03765 24.2073 6.58826C24.6359 6.13836 25.1569 5.78118 25.7365 5.53988C27.062 5.02217 28.5415 5.02217 29.8669 5.53988C30.4453 5.78095 30.9642 6.13939 31.389 6.59125C31.8073 7.0432 32.1292 7.57166 32.3357 8.14585C32.5546 8.74826 32.665 9.38296 32.6618 10.0219ZM27.8063 13.3383C28.2336 13.3493 28.6577 13.2639 29.0453 13.0887C29.391 12.9245 29.6934 12.6854 29.9295 12.3898C30.1761 12.0765 30.3566 11.7188 30.4608 11.3374C30.6931 10.4772 30.6931 9.57317 30.4608 8.71297C30.357 8.33192 30.1772 7.97449 29.9315 7.6611C29.6955 7.36548 29.393 7.12639 29.0474 6.96218C28.6568 6.79452 28.2347 6.70793 27.8079 6.70793C27.381 6.70793 26.9589 6.79452 26.5683 6.96218C26.2227 7.12639 25.9203 7.36548 25.6842 7.6611C25.4386 7.97449 25.2587 8.33192 25.155 8.71297C24.9227 9.57317 24.9227 10.4772 25.155 11.3374C25.2597 11.7159 25.4396 12.0708 25.6847 12.3818C25.9206 12.6778 26.2233 12.917 26.5694 13.0807C26.9564 13.2584 27.3805 13.3463 27.8084 13.3373L27.8063 13.3383ZM33.9373 14.7207V5.32422H35.9665V9.83923L39.3148 5.32422H41.6631L38.1117 9.96703L41.9098 14.7222H39.402L35.966 10.1083V14.7222L33.9373 14.7207ZM42.7067 5.32422H48.5074V6.89029H44.7365V9.16178H48.3315V10.7279H44.7365V13.1551H48.5489V14.7207H42.7072L42.7067 5.32422ZM55.7327 5.32422H57.9379L54.7655 9.99449L58 14.7207H55.7825L53.6983 11.5176L51.6136 14.7207H49.39L52.6208 9.99399L49.451 5.32322H51.6562L53.6998 8.4993L55.7327 5.32422Z" fill="#48A4BF"/>
<path d="M9.16679 8.92365C9.89351 9.09688 10.6524 9.09688 11.3792 8.92365C11.5821 8.11965 12.0073 7.3851 12.6087 6.79968C13.21 6.21426 13.9646 5.80032 14.7905 5.60279C14.9579 4.93636 14.9675 4.24163 14.8187 3.57106C14.6698 2.90049 14.3663 2.27162 13.9312 1.73197C13.496 1.19231 12.9406 0.755984 12.3068 0.45594C11.673 0.155896 10.9775 -1.52588e-05 10.2727 -1.52588e-05C9.56797 -1.52588e-05 8.87243 0.155896 8.23866 0.45594C7.60488 0.755984 7.04944 1.19231 6.61429 1.73197C6.17914 2.27162 5.87566 2.90049 5.72678 3.57106C5.57791 4.24163 5.58752 4.93636 5.75491 5.60279C6.58091 5.80024 7.33559 6.21414 7.93706 6.79957C8.53854 7.38499 8.96383 8.11959 9.16679 8.92365Z" fill="#48A4BF"/>
<path d="M11.3791 11.0763C10.6524 10.9031 9.89349 10.9031 9.16677 11.0763C8.96369 11.8802 8.53842 12.6147 7.93707 13.2001C7.33572 13.7855 6.58123 14.1995 5.75539 14.3972C5.58801 15.0636 5.5784 15.7583 5.72727 16.4289C5.87615 17.0995 6.17963 17.7283 6.61477 18.268C7.04992 18.8077 7.60537 19.244 8.23914 19.544C8.87292 19.8441 9.56846 20 10.2732 20C10.978 20 11.6735 19.8441 12.3073 19.544C12.941 19.244 13.4965 18.8077 13.9316 18.268C14.3668 17.7283 14.6703 17.0995 14.8191 16.4289C14.968 15.7583 14.9584 15.0636 14.791 14.3972C13.965 14.1997 13.2103 13.7858 12.6089 13.2004C12.0074 12.615 11.5821 11.8804 11.3791 11.0763Z" fill="#48A4BF"/>
<path d="M15.8963 5.4725C15.5238 5.47245 15.1525 5.51603 14.7907 5.60229C14.5878 6.40619 14.1627 7.14065 13.5614 7.72598C12.9601 8.31132 12.2056 8.72518 11.3798 8.92266C11.2018 9.63009 11.2018 10.3689 11.3798 11.0763C12.2056 11.2739 12.9601 11.6879 13.5614 12.2733C14.1626 12.8587 14.5878 13.5932 14.7907 14.3972C15.4295 14.5491 16.0941 14.5674 16.7407 14.4509C17.3873 14.3344 18.0012 14.0857 18.5418 13.7213C19.0825 13.3569 19.5376 12.885 19.8771 12.3368C20.2167 11.7886 20.4329 11.1766 20.5117 10.541C20.5904 9.90549 20.5298 9.26093 20.3338 8.64987C20.1379 8.03882 19.8111 7.47515 19.3749 6.99608C18.9388 6.51701 18.4032 6.13342 17.8036 5.87062C17.204 5.60782 16.5539 5.47179 15.8963 5.4715V5.4725Z" fill="#48A4BF"/>
<path d="M9.16688 11.0763C9.34483 10.3689 9.34483 9.6301 9.16688 8.92266C8.34104 8.72516 7.58651 8.3113 6.98514 7.72598C6.38377 7.14065 5.95851 6.4062 5.75551 5.6023C5.07092 5.43936 4.35725 5.42999 3.66841 5.57492C2.97956 5.71985 2.33355 6.01527 1.77919 6.43888C1.22483 6.86248 0.776604 7.40319 0.468382 8.02015C0.160161 8.63711 0 9.31419 0 10.0002C0 10.6863 0.160161 11.3634 0.468382 11.9803C0.776604 12.5973 1.22483 13.138 1.77919 13.5616C2.33355 13.9852 2.97956 14.2806 3.66841 14.4256C4.35725 14.5705 5.07092 14.5611 5.75551 14.3982C5.95832 13.594 6.38348 12.8593 6.98486 12.2737C7.58624 11.6881 8.34087 11.274 9.16688 11.0763Z" fill="#48A4BF"/>
<path d="M11.3792 8.92366C12.205 8.72597 12.9595 8.31199 13.5608 7.72659C14.1622 7.14119 14.5874 6.40672 14.7905 5.6028C13.9646 5.80034 13.21 6.21427 12.6087 6.79969C12.0073 7.38511 11.5821 8.11966 11.3792 8.92366Z" fill="#48A4BF"/>
<path d="M11.3792 11.0763C11.5821 11.8803 12.0073 12.6149 12.6087 13.2003C13.21 13.7857 13.9646 14.1996 14.7905 14.3972C14.5874 13.5933 14.1622 12.8588 13.5608 12.2734C12.9595 11.688 12.205 11.274 11.3792 11.0763Z" fill="#48A4BF"/>
<path d="M9.16699 8.92366C8.96391 8.11974 8.53864 7.38526 7.93729 6.79987C7.33594 6.21447 6.58145 5.80049 5.75562 5.6028C5.95869 6.40672 6.38396 7.14119 6.98531 7.72659C7.58666 8.31199 8.34115 8.72597 9.16699 8.92366Z" fill="#48A4BF"/>
<path d="M9.16699 11.0763C8.34115 11.274 7.58666 11.688 6.98531 12.2734C6.38396 12.8588 5.95869 13.5933 5.75562 14.3972C6.58145 14.1995 7.33594 13.7855 7.93729 13.2001C8.53864 12.6147 8.96391 11.8802 9.16699 11.0763Z" fill="#48A4BF"/>
</svg>
