<svg width="22" height="22" viewBox="0 0 22 22" fill="none" xmlns="http://www.w3.org/2000/svg">
<path d="M1.1853 6.06285C1.33345 5.73611 1.51864 5.44568 1.70382 5.15525C3.22234 2.83182 5.29641 1.27077 7.96308 0.472086C8.70382 0.254264 9.4816 0.10905 10.2223 0.0364423C11.926 -0.108772 13.6297 0.109049 15.2223 0.726211C16.4816 1.19816 17.6297 1.92423 18.6297 2.79552C18.6668 2.83182 18.7038 2.86813 18.6297 2.90443C17.5927 3.92093 16.5557 4.93743 15.5186 5.95393C15.4816 5.99024 15.4446 5.99024 15.4075 5.95393C14.4816 5.11895 13.4075 4.5744 12.1483 4.42918C10.5927 4.21136 9.11123 4.50179 7.7779 5.33677C6.44456 6.17176 5.4816 7.33347 4.96308 8.78562C4.96308 8.82192 4.92604 8.85822 4.92604 8.89453C4.88901 8.85822 4.88901 8.85822 4.85197 8.82192C4.66678 8.67671 4.4816 8.53149 4.29641 8.38628C3.4816 7.76912 2.66678 7.15195 1.85197 6.53479C1.66678 6.42588 1.44456 6.24436 1.1853 6.06285Z" fill="#E64133"/>
<path d="M18.6297 19.3137C18.2964 19.6404 17.889 19.9309 17.4816 20.2213C16.2964 21.02 14.9631 21.5282 13.5557 21.7824C12.6668 21.9639 11.7409 22.0365 10.8149 22.0002C8.00012 21.8913 5.51864 20.8748 3.4816 18.987C2.55567 18.152 1.81493 17.1355 1.22234 16.0464C1.22234 16.0101 1.1853 15.9738 1.1853 15.9738C1.25938 15.9012 1.37049 15.8286 1.44456 15.756C2.37049 15.0662 3.25938 14.3764 4.1853 13.6866C4.44456 13.5051 4.66678 13.2873 4.92604 13.1421C5.03715 13.4688 5.1853 13.7956 5.33345 14.086C6.22234 15.7196 7.51863 16.8451 9.33345 17.3896C10.0001 17.6074 10.6668 17.68 11.3705 17.6437C12.4446 17.6074 13.4816 17.4259 14.4446 16.9177C14.6297 16.8088 14.8149 16.6998 15.0001 16.5909C15.0001 16.5909 15.0001 16.5909 15.0001 16.6272C15.6668 17.1355 16.3705 17.6437 17.0372 18.1883C17.5927 18.515 18.1112 18.9144 18.6297 19.3137Z" fill="#38A553"/>
<path d="M18.6295 19.3135C18.111 18.9142 17.5925 18.5148 17.074 18.1155C16.4073 17.6072 15.7036 17.099 15.0369 16.5544C15.0369 16.5544 15.0369 16.5544 15.0369 16.5181C15.2592 16.3366 15.4814 16.1914 15.7036 15.9736C16.5184 15.2475 16.9999 14.3399 17.2221 13.2871C17.2221 13.2145 17.2221 13.1782 17.1481 13.1782C15.2221 13.1782 13.2592 13.1782 11.3332 13.1782C11.1851 13.1782 11.2221 13.1782 11.2221 13.0693C11.2221 11.726 11.2221 10.3828 11.2221 9.03957C11.2221 8.93066 11.2221 8.93066 11.3332 8.93066C14.7777 8.93066 18.2221 8.93066 21.6666 8.93066C21.7777 8.93066 21.7777 8.93066 21.8147 9.03957C21.8888 9.54783 21.9629 10.0924 21.9999 10.6369C22.074 12.2343 21.8518 13.8317 21.2962 15.3564C20.7406 16.8086 19.9258 18.0792 18.7777 19.1683C18.7407 19.2409 18.7036 19.2772 18.6295 19.3135Z" fill="#3E82F0"/>
<path d="M4.96296 13.1056C4.7037 13.2872 4.48148 13.4687 4.22222 13.6502C3.2963 14.34 2.40741 15.0297 1.48148 15.7195C1.40741 15.7921 1.2963 15.8647 1.22222 15.9373C1 15.5017 0.814815 15.066 0.666667 14.6304C0.407407 13.9043 0.222222 13.1783 0.148148 12.4522C0 11.6898 -0.037037 10.9274 0.037037 10.1651C0.148148 8.74921 0.518519 7.40598 1.14815 6.13535C1.14815 6.09905 1.18519 6.06274 1.18519 6.06274C1.40741 6.24426 1.66667 6.42578 1.88889 6.6073C2.7037 7.22446 3.51852 7.84162 4.33333 8.45878C4.51852 8.604 4.7037 8.74921 4.88889 8.89443C4.92593 8.89443 4.92593 8.93073 4.96296 8.96704C4.85185 9.29377 4.77778 9.6205 4.7037 9.94723C4.62963 10.4918 4.59259 11.0363 4.62963 11.5809C4.66667 12.0528 4.77778 12.5611 4.96296 13.1056Z" fill="#F8BA00"/>
</svg>
