<svg width="22" height="22" viewBox="0 0 22 22" fill="none" xmlns="http://www.w3.org/2000/svg">
<g clip-path="url(#clip0)">
<path d="M20.3126 14.9998L19.0566 19.0835L16.5908 18.4351L20.3126 14.9998Z" fill="#E4761B" stroke="#E4761B" stroke-width="0.0604062"/>
<path d="M16.5908 18.4351L18.9691 15.3017L20.3126 14.9998L16.5908 18.4351Z" fill="#E4761B" stroke="#E4761B" stroke-width="0.0604062"/>
<path d="M18.4648 11.9209L20.3129 14.9998L18.9693 15.3018L18.4648 11.9209ZM18.4648 11.9209L19.654 11.1289L20.3129 14.9998L18.4648 11.9209Z" fill="#F6851B" stroke="#F6851B" stroke-width="0.0604062"/>
<path d="M16.9512 9.59421L20.3692 8.2478L20.1994 8.98536L16.9512 9.59421ZM20.0913 9.87141L16.9512 9.59421L20.1994 8.98536L20.0913 9.87141Z" fill="#763D16" stroke="#763D16" stroke-width="0.0604062"/>
<path d="M20.0913 9.87141L19.6537 11.1287L16.9512 9.59421L20.0913 9.87141ZM20.7759 8.55965L20.1994 8.98536L20.3692 8.2478L20.7759 8.55965ZM20.0913 9.87141L20.1994 8.98536L20.6575 9.35166L20.0913 9.87141Z" fill="#763D16" stroke="#763D16" stroke-width="0.0604062"/>
<path d="M13.9395 17.4399L14.794 17.7023L16.5905 18.4349L13.9395 17.4399Z" fill="#E2761B" stroke="#E2761B" stroke-width="0.0604062"/>
<path d="M19.6542 11.1287L20.0917 9.87144L20.4675 10.1486L19.6542 11.1287ZM19.6542 11.1287L16.1074 10.0051L16.9516 9.59424L19.6542 11.1287Z" fill="#763D16" stroke="#763D16" stroke-width="0.0604062"/>
<path d="M17.7959 5.73828L16.9516 9.59435L16.1074 10.0052L17.7959 5.73828Z" fill="#763D16" stroke="#763D16" stroke-width="0.0604062"/>
<path d="M20.3692 8.24794L16.9512 9.59435L17.7954 5.73828L20.3692 8.24794Z" fill="#763D16" stroke="#763D16" stroke-width="0.0604062"/>
<path d="M17.7959 5.73829L21.3633 5.34229L20.3698 8.24795L17.7959 5.73829Z" fill="#763D16" stroke="#763D16" stroke-width="0.0604062"/>
<path d="M19.6542 11.1288L18.4651 11.9208L16.1074 10.0051L19.6542 11.1288Z" fill="#F6851B" stroke="#F6851B" stroke-width="0.0604062"/>
<path d="M21.2088 2.56519L21.3633 5.34215L17.7959 5.73815L21.2088 2.56519Z" fill="#763D16" stroke="#763D16" stroke-width="0.0604062"/>
<path d="M21.2085 2.56519L14.079 7.54986L13.9863 4.16899L21.2085 2.56519Z" fill="#E2761B" stroke="#E2761B" stroke-width="0.0604062"/>
<path d="M8.68457 3.76318L13.9867 4.16909L14.0794 7.54995L8.68457 3.76318Z" fill="#F6851B" stroke="#F6851B" stroke-width="0.0604062"/>
<path d="M16.1073 10.0052L14.0791 7.54999L17.7957 5.73828L16.1073 10.0052Z" fill="#763D16" stroke="#763D16" stroke-width="0.0604062"/>
<path d="M16.1066 10.0051L18.4643 11.9208L15.1543 12.2722L16.1066 10.0051Z" fill="#E4761B" stroke="#E4761B" stroke-width="0.0604062"/>
<path d="M15.155 12.2724L14.0791 7.55005L16.1073 10.0053L15.155 12.2724Z" fill="#E4761B" stroke="#E4761B" stroke-width="0.0604062"/>
<path d="M17.7957 5.73815L14.0791 7.54986L21.2087 2.56519L17.7957 5.73815Z" fill="#763D16" stroke="#763D16" stroke-width="0.0604062"/>
<path d="M8.73047 18.3559L10.4138 20.0438L8.12305 18.0391L8.73047 18.3559Z" fill="#C0AD9E" stroke="#C0AD9E" stroke-width="0.0604062"/>
<path d="M16.5908 18.4351L17.3887 15.5196L18.9691 15.3018L16.5908 18.4351Z" fill="#CD6116" stroke="#CD6116" stroke-width="0.0604062"/>
<path d="M1.9043 10.2329L4.81789 7.2876L2.28008 9.88141L1.9043 10.2329Z" fill="#E2761B" stroke="#E2761B" stroke-width="0.0604062"/>
<path d="M18.9697 15.3017L17.3893 15.5195L18.4652 11.9208L18.9697 15.3017ZM14.0794 7.54995L11.243 7.46085L8.68457 3.76318L14.0794 7.54995Z" fill="#F6851B" stroke="#F6851B" stroke-width="0.0604062"/>
<path d="M18.4642 11.9207L17.3883 15.5193L17.3008 13.7621L18.4642 11.9207Z" fill="#E4751F" stroke="#E4751F" stroke-width="0.0604062"/>
<path d="M15.1543 12.2721L18.4643 11.9207L17.3009 13.7621L15.1543 12.2721Z" fill="#CD6116" stroke="#CD6116" stroke-width="0.0604062"/>
<path d="M11.2422 7.46094L14.0786 7.55004L15.1544 12.2724L11.2422 7.46094Z" fill="#F6851B" stroke="#F6851B" stroke-width="0.0604062"/>
<path d="M11.2427 7.46162L3.58805 0.650391L8.68427 3.76396L11.2427 7.46162ZM8.67912 19.3912L2.0283 21.3712L0.700195 16.4954L8.67912 19.3912Z" fill="#E4761B" stroke="#E4761B" stroke-width="0.0604062"/>
<path d="M2.89258 11.4505L5.40465 9.55469L7.51006 10.0249L2.89258 11.4505Z" fill="#763D16" stroke="#763D16" stroke-width="0.0604062"/>
<path d="M7.51068 10.0249L5.40527 9.55466L6.53262 5.07983L7.51068 10.0249Z" fill="#763D16" stroke="#763D16" stroke-width="0.0604062"/>
<path d="M2.28027 9.88139L5.40493 9.55469L2.89285 11.4505L2.28027 9.88139Z" fill="#763D16" stroke="#763D16" stroke-width="0.0604062"/>
<path d="M17.3009 13.7622L16.0037 13.1335L15.1543 12.2722L17.3009 13.7622Z" fill="#CD6116" stroke="#CD6116" stroke-width="0.0604062"/>
<path d="M2.27994 9.88147L2.05859 8.75781L5.4046 9.55477L2.27994 9.88147Z" fill="#763D16" stroke="#763D16" stroke-width="0.0604062"/>
<path d="M15.7363 14.5493L16.004 13.1335L17.3012 13.7622L15.7363 14.5493Z" fill="#233447" stroke="#233447" stroke-width="0.0604062"/>
<path d="M17.3887 15.5195L15.7363 14.5493L17.3012 13.7622L17.3887 15.5195Z" fill="#F6851B" stroke="#F6851B" stroke-width="0.0604062"/>
<path d="M5.40496 9.55466L2.05896 8.7577L1.78613 7.81225L5.40496 9.55466ZM6.53231 5.07983L5.40496 9.55466L1.78613 7.81225L6.53231 5.07983ZM6.53231 5.07983L11.2424 7.4608L7.51037 10.0249L6.53231 5.07983Z" fill="#763D16" stroke="#763D16" stroke-width="0.0604062"/>
<path d="M7.51074 10.025L11.2428 7.46094L12.9055 12.3466L7.51074 10.025ZM12.9055 12.3466L7.74754 12.2427L7.51074 10.025L12.9055 12.3466Z" fill="#E4761B" stroke="#E4761B" stroke-width="0.0604062"/>
<path d="M2.89258 11.4507L7.51006 10.025L7.74686 12.2427L2.89258 11.4507ZM15.1544 12.2724L12.9048 12.3466L11.2421 7.46094L15.1544 12.2724Z" fill="#F6851B" stroke="#F6851B" stroke-width="0.0604062"/>
<path d="M16.0037 13.1335L15.736 14.5492L15.1543 12.2722L16.0037 13.1335Z" fill="#CD6116" stroke="#CD6116" stroke-width="0.0604062"/>
<path d="M3.58789 0.650391L11.2425 7.46162L6.53237 5.08066L3.58789 0.650391Z" fill="#763D16" stroke="#763D16" stroke-width="0.0604062"/>
<path d="M0.700195 16.4947L7.15541 16.2373L8.67912 19.3905L0.700195 16.4947Z" fill="#E4761B" stroke="#E4761B" stroke-width="0.0604062"/>
<path d="M8.67899 19.3903L7.15527 16.2371L10.3263 16.0886L8.67899 19.3903Z" fill="#CD6116" stroke="#CD6116" stroke-width="0.0604062"/>
<path d="M15.7366 14.5492L17.389 15.5194L18.3002 17.5835L15.7366 14.5492ZM7.74739 12.2424L0.700195 16.4945L2.89311 11.4504L7.74739 12.2424ZM7.1554 16.2371L0.700195 16.4945L7.74739 12.2424L7.1554 16.2371ZM15.1549 12.2721L15.577 13.7473L13.5385 13.8611L15.1549 12.2721ZM13.5385 13.8611L12.9054 12.3464L15.1549 12.2721L13.5385 13.8611Z" fill="#F6851B" stroke="#F6851B" stroke-width="0.0604062"/>
<path d="M10.4135 20.0438L8.67871 19.3904L14.7118 20.3655L10.4135 20.0438Z" fill="#C0AD9E" stroke="#C0AD9E" stroke-width="0.0604062"/>
<path d="M2.89265 11.4505L1.9043 10.2328L2.28008 9.88135L2.89265 11.4505Z" fill="#763D16" stroke="#763D16" stroke-width="0.0604062"/>
<path d="M15.3965 19.6428L14.7118 20.3655L8.67871 19.3904L15.3965 19.6428Z" fill="#D7C1B3" stroke="#D7C1B3" stroke-width="0.0604062"/>
<path d="M15.7208 17.8706L8.67871 19.3903L10.326 16.0886L15.7208 17.8706Z" fill="#E4761B" stroke="#E4761B" stroke-width="0.0604062"/>
<path d="M8.67871 19.3905L15.7208 17.8708L15.3965 19.643L8.67871 19.3905Z" fill="#D7C1B3" stroke="#D7C1B3" stroke-width="0.0604062"/>
<path d="M1.78633 7.81218L1.55469 4.00562L6.53251 5.07977L1.78633 7.81218ZM2.28051 9.88129L1.59587 9.21304L2.05916 8.75764L2.28051 9.88129Z" fill="#763D16" stroke="#763D16" stroke-width="0.0604062"/>
<path d="M11.752 13.3265L12.905 12.3464L12.7403 14.7423L11.752 13.3265Z" fill="#CD6116" stroke="#CD6116" stroke-width="0.0604062"/>
<path d="M12.9055 12.3464L11.7524 13.3265L10.0742 14.1631L12.9055 12.3464Z" fill="#CD6116" stroke="#CD6116" stroke-width="0.0604062"/>
<path d="M18.2999 17.5837L17.9859 17.3609L15.7363 14.5493L18.2999 17.5837Z" fill="#F6851B" stroke="#F6851B" stroke-width="0.0604062"/>
<path d="M10.0738 14.163L7.74707 12.2424L12.9051 12.3464L10.0738 14.163Z" fill="#CD6116" stroke="#CD6116" stroke-width="0.0604062"/>
<path d="M12.7402 14.7423L12.905 12.3464L13.5381 13.8611L12.7402 14.7423Z" fill="#E4751F" stroke="#E4751F" stroke-width="0.0604062"/>
<path d="M1.36914 8.18846L1.7861 7.81226L2.05893 8.75771L1.36914 8.18846Z" fill="#763D16" stroke="#763D16" stroke-width="0.0604062"/>
<path d="M12.7407 14.7421L10.0742 14.163L11.7524 13.3264L12.7407 14.7421Z" fill="#233447" stroke="#233447" stroke-width="0.0604062"/>
<path d="M6.53251 5.08066L1.55469 4.00651L3.58803 0.650391L6.53251 5.08066Z" fill="#763D16" stroke="#763D16" stroke-width="0.0604062"/>
<path d="M14.7124 20.3655L14.9955 21.108L10.4141 20.0437L14.7124 20.3655Z" fill="#C0AD9E" stroke="#C0AD9E" stroke-width="0.0604062"/>
<path d="M10.3265 16.0886L10.0742 14.1631L12.7407 14.7422L10.3265 16.0886Z" fill="#F6851B" stroke="#F6851B" stroke-width="0.0604062"/>
<path d="M7.74707 12.2424L10.0738 14.163L10.3261 16.0886L7.74707 12.2424Z" fill="#E4751F" stroke="#E4751F" stroke-width="0.0604062"/>
<path d="M13.5384 13.8611L15.5769 13.7472L17.986 17.3608L13.5384 13.8611ZM7.74726 12.2424L10.3263 16.0886L7.15527 16.2371L7.74726 12.2424Z" fill="#F6851B" stroke="#F6851B" stroke-width="0.0604062"/>
<path d="M13.5381 13.8613L16.0708 17.5689L12.7402 14.7424L13.5381 13.8613Z" fill="#E4751F" stroke="#E4751F" stroke-width="0.0604062"/>
<path d="M12.7402 14.7424L16.0708 17.5689L15.7208 17.8708L12.7402 14.7424Z" fill="#F6851B" stroke="#F6851B" stroke-width="0.0604062"/>
<path d="M15.721 17.8708L10.3262 16.0888L12.7404 14.7424L15.721 17.8708ZM17.9859 17.361L16.071 17.5689L13.5383 13.8613L17.9859 17.361Z" fill="#F6851B" stroke="#F6851B" stroke-width="0.0604062"/>
<path d="M18.4903 19.1033L17.6667 20.6922L14.995 21.108L18.4903 19.1033ZM14.995 21.108L14.7119 20.3655L15.3966 19.6428L14.995 21.108Z" fill="#C0AD9E" stroke="#C0AD9E" stroke-width="0.0604062"/>
<path d="M15.3966 19.6428L15.9011 19.4498L14.9951 21.108L15.3966 19.6428ZM14.9951 21.108L15.9011 19.4498L18.4904 19.1033L14.9951 21.108Z" fill="#C0AD9E" stroke="#C0AD9E" stroke-width="0.0604062"/>
<path d="M17.9864 17.3608L18.6196 17.7321L16.6943 17.9548L17.9864 17.3608Z" fill="#161616"/>
<path d="M16.6942 17.9548L16.0713 17.5687L17.9862 17.3608L16.6942 17.9548ZM16.4728 18.2469L18.815 17.9746L18.4907 19.1032L16.4728 18.2469Z" fill="#161616"/>
<path d="M18.4902 19.1034L15.901 19.4499L16.4724 18.247L18.4902 19.1034ZM15.901 19.4499L15.3965 19.6429L15.7208 17.8708L15.901 19.4499ZM15.7208 17.8708L16.0708 17.5688L16.6937 17.9549L15.7208 17.8708ZM18.6189 17.7322L18.8145 17.9747L16.4724 18.247L18.6189 17.7322Z" fill="#161616"/>
<path d="M16.4732 18.247L16.6946 17.9549L18.6198 17.7322L16.4732 18.247ZM15.7217 17.8708L16.4732 18.247L15.9018 19.4498L15.7217 17.8708Z" fill="#161616"/>
<path d="M16.6946 17.955L16.4732 18.2471L15.7217 17.8708L16.6946 17.955Z" fill="#161616"/>
</g>
<defs>
<clipPath id="clip0">
<rect width="20.8" height="20.8" fill="white" transform="translate(0.600586 0.600098)"/>
</clipPath>
</defs>
</svg>
