<svg width="215" height="283" viewBox="0 0 215 283" fill="none" xmlns="http://www.w3.org/2000/svg">
<g filter="url(#filter0_d)">
<path d="M85.5627 184.164L79.0527 258.904H106.829L100.319 184.164H85.5627Z" fill="url(#paint0_linear)"/>
<path d="M43.6933 118.257L48.3188 120.127L32.194 159.885L27.5685 158.015L43.6933 118.257Z" fill="#42E8E0"/>
<path d="M132.435 115.274C123.806 115.274 116.811 108.291 116.811 99.6761C116.811 91.0616 123.806 84.0781 132.435 84.0781C141.064 84.0781 148.059 91.0616 148.059 99.6761C148.059 108.291 141.064 115.274 132.435 115.274Z" fill="url(#paint1_linear)"/>
<path d="M51.7121 122.854C51.7121 153.183 69.7232 177.88 92.0743 177.88C114.425 177.88 132.437 153.183 132.437 122.854C132.437 92.5246 114.425 83.4258 92.0743 83.4258C69.7232 83.4258 51.7121 92.5246 51.7121 122.854Z" fill="url(#paint2_linear)"/>
<path d="M72.542 110.94C83.392 117.222 100.752 117.222 111.602 110.94C122.452 104.657 122.452 94.6917 111.602 88.4091C100.752 82.1266 83.392 82.1266 72.542 88.4091C61.6919 94.6917 61.6919 104.874 72.542 110.94Z" fill="url(#paint3_linear)"/>
<path d="M111.603 92.7419C100.753 86.4594 83.3928 86.4594 72.5427 92.7419C67.9857 95.3416 65.3817 98.5911 64.7307 101.841C63.6457 97.0747 66.2497 92.092 72.5427 88.4091C83.3928 82.1266 100.753 82.1266 111.603 88.4091C117.896 92.092 120.5 97.0747 119.415 101.841C118.547 98.5911 115.943 95.3416 111.603 92.7419Z" fill="#1E6672"/>
<path d="M46.0678 134.768C37.4389 134.768 30.4437 127.785 30.4437 119.17C30.4437 110.556 37.4389 103.572 46.0678 103.572C54.6968 103.572 61.6919 110.556 61.6919 119.17C61.6919 127.785 54.6968 134.768 46.0678 134.768Z" fill="url(#paint4_linear)"/>
<path d="M45.6345 134.987C37.0055 134.987 30.0104 128.003 30.0104 119.389C30.0104 110.774 37.0055 103.791 45.6345 103.791C54.2634 103.791 61.2585 110.774 61.2585 119.389C61.2585 128.003 54.2634 134.987 45.6345 134.987Z" fill="url(#paint5_linear)"/>
<path d="M21.1155 170.948C21.9833 178.314 28.4923 192.396 34.5673 191.746C40.4254 191.096 43.4629 175.714 42.595 168.349C41.7272 160.983 36.0861 155.567 30.228 156.217C24.3699 156.867 20.2476 163.583 21.1155 170.948Z" fill="url(#paint6_radial)"/>
<path d="M21.1155 170.948C21.9833 178.314 28.4923 192.396 34.5673 191.746C40.4254 191.096 43.4629 175.714 42.595 168.349C41.7272 160.983 36.0861 155.567 30.228 156.217C24.3699 156.867 20.2476 163.583 21.1155 170.948Z" fill="url(#paint7_linear)"/>
<path d="M80.3556 184.164H104.877L102.924 175.932H82.5256L80.3556 184.164Z" fill="#23ABD8"/>
<path opacity="0.47" d="M82.5239 175.932H88.5989L87.514 184.164H80.3542L82.5239 175.932Z" fill="#96CCCA"/>
<path opacity="0.47" d="M102.924 175.932H96.849L97.7168 184.164H104.877L102.924 175.932Z" fill="#96CCCA"/>
<path d="M171.669 128.613C173.107 128.837 174.149 127.822 174.439 126.592C174.589 125.635 174.118 124.876 173.506 124.388L145.067 104.577C143.91 103.809 142.397 104.064 141.834 105.154C141.065 106.309 141.321 107.819 142.412 108.381L170.785 127.986C170.917 128.399 171.396 128.473 171.669 128.613Z" fill="#74FEF7"/>
<path d="M170.12 137.296C175.764 141.408 189.981 145.969 193.265 141.282C196.549 136.596 187.982 124.773 182.131 120.727C176.487 116.615 169.071 116.934 165.721 121.414C162.437 126.101 164.269 133.249 170.12 137.296Z" fill="url(#paint8_radial)"/>
<g filter="url(#filter1_d)">
<path d="M170.12 137.296C175.764 141.408 189.981 145.969 193.265 141.282C196.549 136.596 187.982 124.773 182.131 120.727C176.487 116.615 169.071 116.934 165.721 121.414C162.437 126.101 164.269 133.249 170.12 137.296Z" fill="url(#paint9_linear)"/>
</g>
<path d="M103.142 37.9302C103.142 44.8626 108.132 53.5281 114.207 56.9943C120.282 60.4605 125.272 57.6442 125.272 50.7118C125.272 43.7794 120.282 35.1139 114.207 31.6476C108.132 27.9648 103.142 30.7811 103.142 37.9302Z" fill="#BCBEFF"/>
<path d="M96.63 47.4629C97.064 49.8459 96.63 53.3121 91.639 55.6951C81.8739 60.6778 74.0619 53.0955 69.0708 56.5617C65.3818 59.1614 67.1178 67.177 76.2319 70.2099C85.7799 73.4595 97.715 71.2931 98.583 61.761C98.583 58.0782 98.366 54.3953 97.715 50.9291C97.498 49.8459 97.064 48.5461 96.63 47.4629Z" fill="#19212C"/>
<path d="M92.2886 18C109.649 18 124.839 29.2652 129.83 45.7297C128.311 46.163 127.877 47.4628 127.877 48.9793C128.311 52.4455 129.179 55.6951 129.179 59.1613C129.179 60.4611 130.047 61.5443 131.132 61.7609C128.528 83.2081 108.998 98.3728 87.5146 95.7731C66.0315 93.1735 50.8414 73.676 53.4454 52.2289C55.8324 32.7314 72.5415 18 92.2886 18Z" fill="url(#paint10_linear)"/>
<path d="M92.2896 19.0859C109.433 19.0859 124.406 30.1345 129.614 46.599C128.312 46.8156 127.444 48.3321 127.661 49.6319C127.661 49.6319 127.661 49.6319 127.661 49.8486C128.529 53.5314 129.831 57.8642 128.746 61.7637C128.312 63.4968 129.397 64.7966 130.916 65.0132C127.227 86.2438 107.046 100.542 85.7795 96.8591C64.5134 93.1762 50.1913 73.0289 53.8804 51.7983C56.9184 32.7341 73.1935 19.0859 92.2896 19.0859Z" fill="url(#paint11_linear)"/>
<path d="M81.0067 61.3283C81.0067 61.1117 81.0067 60.8951 81.0067 60.6784L81.2237 60.0285C81.2237 59.5952 81.4407 59.162 81.6577 58.9453C82.0917 62.4115 84.0447 66.0944 87.5167 69.1273C96.6308 76.9263 112.472 78.6594 122.888 73.2434C126.794 71.2937 129.398 68.4774 130.7 65.4445C130.483 66.7443 130.266 68.0441 129.832 69.3439C129.398 70.6438 128.747 71.9436 128.096 73.0268C127.879 73.2434 127.662 73.6767 127.445 73.8934C125.926 75.4098 124.19 76.7097 122.237 77.5762C111.604 82.9922 95.7628 81.0424 86.8657 73.4601C82.7427 69.5606 80.7897 65.2278 81.0067 61.3283Z" fill="#1E6672"/>
<path d="M84.2604 54.8282C92.0724 49.1956 104.658 61.3274 120.283 53.3117C127.01 49.8455 128.312 45.2961 128.312 41.6133C128.963 43.3464 129.614 45.0795 130.048 46.8126C130.916 52.0119 131.35 57.4279 131.35 62.8438C130.265 78.0085 110.952 81.6914 95.5444 76.492C81.0053 71.726 78.1843 59.161 84.2604 54.8282Z" fill="url(#paint12_linear)"/>
<path d="M125.272 64.1459C125.055 64.1459 124.838 63.9289 124.838 63.712C124.838 63.278 125.055 62.6271 125.706 62.4102H125.923C126.14 62.4102 126.357 62.6271 126.357 62.8441C126.357 63.278 126.14 63.9289 125.489 64.1459H125.272Z" fill="url(#paint13_radial)"/>
<path d="M123.32 67.6094C124.405 68.0427 126.141 66.7429 127.443 64.3598C128.745 61.9768 128.962 59.5938 127.877 58.9439C126.792 58.5106 125.056 59.8104 123.754 62.1935C122.453 64.5765 122.236 66.9595 123.32 67.6094Z" fill="#00FF3C"/>
<path d="M125.272 64.1459C125.055 64.1459 124.838 63.9289 124.838 63.712C124.838 63.278 125.055 62.6271 125.706 62.4102H125.923C126.14 62.4102 126.357 62.6271 126.357 62.8441C126.357 63.278 126.14 63.9289 125.489 64.1459H125.272Z" fill="url(#paint14_radial)"/>
<path d="M125.272 61.5463C125.055 61.5463 124.838 61.3293 124.838 61.1123C124.838 60.6784 125.055 60.0275 125.706 59.8105H125.923C126.14 59.8105 126.357 60.0275 126.357 60.2445C126.357 60.6784 126.14 61.3293 125.489 61.5463C125.489 61.3293 125.272 61.3293 125.272 61.5463Z" fill="url(#paint15_radial)"/>
<path d="M123.332 64.8854C122.28 64.3126 122.495 61.8884 123.811 59.4709C125.128 57.0534 127.047 55.558 128.099 56.1308C129.151 56.7036 128.937 59.1278 127.621 61.5453C126.304 63.9628 124.384 65.4582 123.332 64.8854Z" fill="#00FF3C"/>
<path d="M125.272 61.5463C125.055 61.5463 124.838 61.3293 124.838 61.1123C124.838 60.6784 125.055 60.0275 125.706 59.8105H125.923C126.14 59.8105 126.357 60.0275 126.357 60.2445C126.357 60.6784 126.14 61.3293 125.489 61.5463C125.489 61.3293 125.272 61.3293 125.272 61.5463Z" fill="url(#paint16_radial)"/>
<path d="M125.272 58.5131C125.055 58.5131 124.838 58.2961 124.838 58.0791C124.838 57.6452 125.055 56.9943 125.706 56.7773H125.923C126.14 56.7773 126.357 56.9943 126.357 57.2113C126.357 57.6452 126.14 58.2961 125.489 58.5131C125.489 58.5131 125.489 58.5131 125.272 58.5131Z" fill="url(#paint17_radial)"/>
<path d="M123.32 61.9786C124.405 62.4118 126.141 61.112 127.443 58.729C128.745 56.346 128.962 53.9629 127.877 53.313C126.792 52.8797 125.056 54.1796 123.754 56.5626C122.453 59.1623 122.236 61.5453 123.32 61.9786Z" fill="#00FF3C"/>
<path d="M125.272 58.5131C125.055 58.5131 124.838 58.2961 124.838 58.0791C124.838 57.6452 125.055 56.9943 125.706 56.7773H125.923C126.14 56.7773 126.357 56.9943 126.357 57.2113C126.357 57.6452 126.14 58.2961 125.489 58.5131C125.489 58.5131 125.489 58.5131 125.272 58.5131Z" fill="url(#paint18_radial)"/>
<path d="M123.32 67.6094C124.405 68.0427 126.141 66.7429 127.443 64.3598C128.745 61.9768 128.962 59.5938 127.877 58.9439C126.792 58.5106 125.056 59.8104 123.754 62.1935C122.453 64.5765 122.236 66.9595 123.32 67.6094Z" fill="#42E8E0"/>
<path d="M123.332 64.8854C122.28 64.3126 122.495 61.8884 123.811 59.4709C125.128 57.0534 127.047 55.558 128.099 56.1308C129.151 56.7036 128.937 59.1278 127.621 61.5453C126.304 63.9628 124.384 65.4582 123.332 64.8854Z" fill="#42E8E0"/>
<path d="M123.32 61.9786C124.405 62.4118 126.141 61.112 127.443 58.729C128.745 56.346 128.962 53.9629 127.877 53.313C126.792 52.8797 125.056 54.1796 123.754 56.5626C122.453 59.1623 122.236 61.5453 123.32 61.9786Z" fill="#42E8E0"/>
<path d="M112.035 70.6459C111.818 70.6459 111.601 70.4289 111.601 70.2119C111.601 69.778 111.818 69.1271 112.469 68.9102H112.686C112.903 68.9102 113.12 69.1271 113.12 69.3441C113.12 69.778 112.903 70.4289 112.252 70.6459C112.252 70.4289 112.035 70.6459 112.035 70.6459Z" fill="url(#paint19_radial)"/>
<path d="M109.867 73.8926C110.952 74.3259 112.688 73.0261 113.989 70.643C115.291 68.26 115.508 65.877 114.423 65.2271C113.339 64.7938 111.603 66.0936 110.301 68.4767C108.999 70.8597 108.999 73.4593 109.867 73.8926Z" fill="#00FF3C"/>
<path d="M112.035 70.6459C111.818 70.6459 111.601 70.4289 111.601 70.2119C111.601 69.778 111.818 69.1271 112.469 68.9102H112.686C112.903 68.9102 113.12 69.1271 113.12 69.3441C113.12 69.778 112.903 70.4289 112.252 70.6459C112.252 70.4289 112.035 70.6459 112.035 70.6459Z" fill="url(#paint20_radial)"/>
<path d="M112.035 67.8295C111.818 67.8295 111.601 67.6125 111.601 67.3955C111.601 66.9616 111.818 66.3107 112.469 66.0938H112.686C112.903 66.0938 113.12 66.3107 113.12 66.5277C113.12 66.9616 112.903 67.6125 112.252 67.8295H112.035Z" fill="url(#paint21_radial)"/>
<path d="M109.841 71.3053C108.789 70.7325 109.004 68.3084 110.32 65.8908C111.637 63.4733 113.556 61.9779 114.608 62.5507C115.66 63.1235 115.446 65.5477 114.13 67.9652C112.813 70.3827 110.893 71.8781 109.841 71.3053Z" fill="#00FF3C"/>
<path d="M112.035 67.8295C111.818 67.8295 111.601 67.6125 111.601 67.3955C111.601 66.9616 111.818 66.3107 112.469 66.0938H112.686C112.903 66.0938 113.12 66.3107 113.12 66.5277C113.12 66.9616 112.903 67.6125 112.252 67.8295H112.035Z" fill="url(#paint22_radial)"/>
<path d="M112.035 65.0131C111.818 65.0131 111.601 64.7961 111.601 64.5791C111.601 64.1452 111.818 63.4943 112.469 63.2773H112.686C112.903 63.2773 113.12 63.4943 113.12 63.7113C113.12 64.1452 112.903 64.7961 112.252 65.0131H112.035Z" fill="url(#paint23_radial)"/>
<path d="M109.867 68.4766C110.952 68.9099 112.688 67.6101 113.989 65.2271C115.291 62.844 115.508 60.461 114.423 59.8111C113.339 59.1612 111.603 60.6777 110.301 63.0607C109.216 65.4437 108.999 67.8267 109.867 68.4766Z" fill="#00FF3C"/>
<path d="M112.035 65.0131C111.818 65.0131 111.601 64.7961 111.601 64.5791C111.601 64.1452 111.818 63.4943 112.469 63.2773H112.686C112.903 63.2773 113.12 63.4943 113.12 63.7113C113.12 64.1452 112.903 64.7961 112.252 65.0131H112.035Z" fill="url(#paint24_radial)"/>
<path d="M109.867 73.8926C110.952 74.3259 112.688 73.0261 113.989 70.643C115.291 68.26 115.508 65.877 114.423 65.2271C113.339 64.7938 111.603 66.0936 110.301 68.4767C108.999 70.8597 108.999 73.4593 109.867 73.8926Z" fill="#42E8E0"/>
<path d="M109.841 71.3053C108.789 70.7325 109.004 68.3084 110.32 65.8908C111.637 63.4733 113.556 61.9779 114.608 62.5507C115.66 63.1235 115.446 65.5477 114.13 67.9652C112.813 70.3827 110.893 71.8781 109.841 71.3053Z" fill="#42E8E0"/>
<path d="M109.867 68.4766C110.952 68.9099 112.688 67.6101 113.989 65.2271C115.291 62.844 115.508 60.461 114.423 59.8111C113.339 59.1612 111.603 60.6777 110.301 63.0607C109.216 65.4437 108.999 67.8267 109.867 68.4766Z" fill="#42E8E0"/>
</g>
<defs>
<filter id="filter0_d" x="0.323029" y="0.504101" width="214.347" height="282.258" filterUnits="userSpaceOnUse" color-interpolation-filters="sRGB">
<feFlood flood-opacity="0" result="BackgroundImageFix"/>
<feColorMatrix in="SourceAlpha" type="matrix" values="0 0 0 0 0 0 0 0 0 0 0 0 0 0 0 0 0 0 127 0" result="hardAlpha"/>
<feOffset dy="3.18107"/>
<feGaussianBlur stdDeviation="10.3385"/>
<feColorMatrix type="matrix" values="0 0 0 0 0.124514 0 0 0 0 0.679167 0 0 0 0 0.652436 0 0 0 0.16 0"/>
<feBlend mode="normal" in2="BackgroundImageFix" result="effect1_dropShadow"/>
<feBlend mode="normal" in="SourceGraphic" in2="effect1_dropShadow" result="shape"/>
</filter>
<filter id="filter1_d" x="160.92" y="114.657" width="36.2533" height="31.7899" filterUnits="userSpaceOnUse" color-interpolation-filters="sRGB">
<feFlood flood-opacity="0" result="BackgroundImageFix"/>
<feColorMatrix in="SourceAlpha" type="matrix" values="0 0 0 0 0 0 0 0 0 0 0 0 0 0 0 0 0 0 127 0" result="hardAlpha"/>
<feOffset/>
<feGaussianBlur stdDeviation="1.59054"/>
<feColorMatrix type="matrix" values="0 0 0 0 0 0 0 0 0 0 0 0 0 0 0 0 0 0 0.1 0"/>
<feBlend mode="normal" in2="BackgroundImageFix" result="effect1_dropShadow"/>
<feBlend mode="normal" in="SourceGraphic" in2="effect1_dropShadow" result="shape"/>
</filter>
<linearGradient id="paint0_linear" x1="92.9607" y1="184.194" x2="92.9607" y2="258.866" gradientUnits="userSpaceOnUse">
<stop stop-color="white"/>
<stop offset="1" stop-color="#C9C9C9" stop-opacity="0"/>
</linearGradient>
<linearGradient id="paint1_linear" x1="147.919" y1="96.7122" x2="117.195" y2="102.805" gradientUnits="userSpaceOnUse">
<stop stop-color="#F7F7F7"/>
<stop offset="0.55" stop-color="#F2F2F9"/>
<stop offset="1" stop-color="#E9E9FD"/>
</linearGradient>
<linearGradient id="paint2_linear" x1="132.501" y1="130.62" x2="51.6298" y2="130.62" gradientUnits="userSpaceOnUse">
<stop stop-color="#F7F7F7"/>
<stop offset="0.55" stop-color="#F2F2F9"/>
<stop offset="1" stop-color="#E9E9FD"/>
</linearGradient>
<linearGradient id="paint3_linear" x1="119.64" y1="99.748" x2="64.4554" y2="99.748" gradientUnits="userSpaceOnUse">
<stop stop-color="#42E8E0"/>
<stop offset="0.18" stop-color="#41E3DD"/>
<stop offset="0.38" stop-color="#3CD5D3"/>
<stop offset="0.61" stop-color="#35BDC3"/>
<stop offset="0.84" stop-color="#2C9CAD"/>
<stop offset="1" stop-color="#24819B"/>
</linearGradient>
<linearGradient id="paint4_linear" x1="61.4665" y1="116.199" x2="30.7427" y2="122.291" gradientUnits="userSpaceOnUse">
<stop stop-color="#F7F7F7"/>
<stop offset="0.55" stop-color="#F2F2F9"/>
<stop offset="1" stop-color="#E9E9FD"/>
</linearGradient>
<linearGradient id="paint5_linear" x1="58.295" y1="128.523" x2="32.9827" y2="110.102" gradientUnits="userSpaceOnUse">
<stop stop-color="#F7F7F7"/>
<stop offset="0.55" stop-color="#F2F2F9"/>
<stop offset="1" stop-color="#E9E9FD"/>
</linearGradient>
<radialGradient id="paint6_radial" cx="0" cy="0" r="1" gradientUnits="userSpaceOnUse" gradientTransform="translate(31.7605 175.071) rotate(173.118) scale(10.8484 17.854)">
<stop stop-color="#2BB675"/>
<stop offset="1" stop-color="#14444F"/>
</radialGradient>
<linearGradient id="paint7_linear" x1="44.3282" y1="172.608" x2="22.8244" y2="175.252" gradientUnits="userSpaceOnUse">
<stop stop-color="#F7F7F7"/>
<stop offset="0.55" stop-color="#F2F2F9"/>
<stop offset="1" stop-color="#E9E9FD"/>
</linearGradient>
<radialGradient id="paint8_radial" cx="0" cy="0" r="1" gradientUnits="userSpaceOnUse" gradientTransform="translate(150.196 107.072) rotate(125.702) scale(26.4234 43.4666)">
<stop stop-color="#2BB675"/>
<stop offset="1" stop-color="#23ABD8"/>
</radialGradient>
<linearGradient id="paint9_linear" x1="167.686" y1="129.516" x2="190.929" y2="126.588" gradientUnits="userSpaceOnUse">
<stop stop-color="white"/>
<stop offset="0.55" stop-color="#F2F2F9"/>
<stop offset="1" stop-color="#E9E9FD"/>
</linearGradient>
<linearGradient id="paint10_linear" x1="131.386" y1="57.0302" x2="53.218" y2="57.0302" gradientUnits="userSpaceOnUse">
<stop stop-color="#F7F7F7"/>
<stop offset="0.55" stop-color="#F2F2F9"/>
<stop offset="1" stop-color="#E9E9FD"/>
</linearGradient>
<linearGradient id="paint11_linear" x1="97.3557" y1="96.7135" x2="86.5094" y2="19.4228" gradientUnits="userSpaceOnUse">
<stop stop-color="#F7F7F7"/>
<stop offset="0.55" stop-color="#F2F2F9"/>
<stop offset="1" stop-color="#E9E9FD"/>
</linearGradient>
<linearGradient id="paint12_linear" x1="131.274" y1="60.2351" x2="81.2618" y2="60.2351" gradientUnits="userSpaceOnUse">
<stop stop-color="#00ACBF"/>
<stop offset="0.29" stop-color="#04A7BB"/>
<stop offset="0.63" stop-color="#1099AF"/>
<stop offset="1" stop-color="#24819B"/>
</linearGradient>
<radialGradient id="paint13_radial" cx="0" cy="0" r="1" gradientUnits="userSpaceOnUse" gradientTransform="translate(125.624 63.2275) scale(0.847251)">
<stop stop-color="white"/>
<stop offset="1" stop-color="#95FDA8"/>
</radialGradient>
<radialGradient id="paint14_radial" cx="0" cy="0" r="1" gradientUnits="userSpaceOnUse" gradientTransform="translate(125.624 63.2275) scale(0.847251)">
<stop stop-color="white"/>
<stop offset="1" stop-color="#95FDA8"/>
</radialGradient>
<radialGradient id="paint15_radial" cx="0" cy="0" r="1" gradientUnits="userSpaceOnUse" gradientTransform="translate(125.627 60.4818) rotate(180) scale(0.846601)">
<stop stop-color="white"/>
<stop offset="1" stop-color="#95FDA8"/>
</radialGradient>
<radialGradient id="paint16_radial" cx="0" cy="0" r="1" gradientUnits="userSpaceOnUse" gradientTransform="translate(125.627 60.4818) rotate(180) scale(0.846601)">
<stop stop-color="white"/>
<stop offset="1" stop-color="#95FDA8"/>
</radialGradient>
<radialGradient id="paint17_radial" cx="0" cy="0" r="1" gradientUnits="userSpaceOnUse" gradientTransform="translate(125.638 57.6593) rotate(180) scale(0.848119)">
<stop stop-color="white"/>
<stop offset="1" stop-color="#95FDA8"/>
</radialGradient>
<radialGradient id="paint18_radial" cx="0" cy="0" r="1" gradientUnits="userSpaceOnUse" gradientTransform="translate(125.638 57.6593) rotate(180) scale(0.848119)">
<stop stop-color="white"/>
<stop offset="1" stop-color="#95FDA8"/>
</radialGradient>
<radialGradient id="paint19_radial" cx="0" cy="0" r="1" gradientUnits="userSpaceOnUse" gradientTransform="translate(112.303 69.6101) rotate(180) scale(0.848119)">
<stop stop-color="white"/>
<stop offset="1" stop-color="#95FDA8"/>
</radialGradient>
<radialGradient id="paint20_radial" cx="0" cy="0" r="1" gradientUnits="userSpaceOnUse" gradientTransform="translate(112.303 69.6101) rotate(180) scale(0.848119)">
<stop stop-color="white"/>
<stop offset="1" stop-color="#95FDA8"/>
</radialGradient>
<radialGradient id="paint21_radial" cx="0" cy="0" r="1" gradientUnits="userSpaceOnUse" gradientTransform="translate(112.303 66.8672) rotate(180) scale(0.846601)">
<stop stop-color="white"/>
<stop offset="1" stop-color="#95FDA8"/>
</radialGradient>
<radialGradient id="paint22_radial" cx="0" cy="0" r="1" gradientUnits="userSpaceOnUse" gradientTransform="translate(112.303 66.8672) rotate(180) scale(0.846601)">
<stop stop-color="white"/>
<stop offset="1" stop-color="#95FDA8"/>
</radialGradient>
<radialGradient id="paint23_radial" cx="0" cy="0" r="1" gradientUnits="userSpaceOnUse" gradientTransform="translate(112.313 64.0445) rotate(180) scale(0.848119)">
<stop stop-color="white"/>
<stop offset="1" stop-color="#95FDA8"/>
</radialGradient>
<radialGradient id="paint24_radial" cx="0" cy="0" r="1" gradientUnits="userSpaceOnUse" gradientTransform="translate(112.313 64.0445) rotate(180) scale(0.848119)">
<stop stop-color="white"/>
<stop offset="1" stop-color="#95FDA8"/>
</radialGradient>
</defs>
</svg>
