<svg width="135" height="105" viewBox="0 0 135 105" fill="none" xmlns="http://www.w3.org/2000/svg">
<g opacity="0.7">
<g clip-path="url(#clip0_6261_4438)">
<path d="M105.481 88.1385C103.473 90.2431 101.573 91.6032 100.075 92.6769C82.4329 105.29 61.558 101.614 57.1215 100.716C50.5692 99.3915 37.9063 96.8288 28.7496 86.0983C14.8977 69.8667 17.0531 44.2969 27.7976 27.4174C29.7626 24.3285 40.1444 7.19491 61.2455 4.44609C74.0161 2.78176 88.899 6.13905 99.6795 15.1372C122.307 34.0246 120.694 72.1824 105.481 88.1385Z" fill="#305263"/>
<path d="M47.4587 58.1014L99.1653 74.8906L92.6378 94.8253L40.9312 78.036L47.4587 58.1014Z" fill="#016A7B"/>
<path d="M93.116 95.7606L100.105 74.4121L46.9747 57.1619L39.9779 78.5118L93.116 95.7606ZM98.2231 75.3654L92.1604 93.8864L41.8758 77.5558L47.9385 59.0347L98.2231 75.3654Z" fill="#42CAE0"/>
<path d="M67.1163 84.3715C62.5835 82.8997 60.1082 78.0441 61.5875 73.5262C63.0669 69.0083 67.9407 66.539 72.4735 68.0108C77.0063 69.4826 79.4817 74.3383 78.0023 78.8561C76.523 83.374 71.6491 85.8434 67.1163 84.3715Z" fill="#1A2F38"/>
<path d="M67.1131 83.9701L67.8135 81.9212C66.6433 81.5016 65.5459 80.7229 65.0046 79.979L65.9538 78.7804C66.5191 79.513 67.4454 80.2587 68.5866 80.6482C70.0339 81.1265 71.2944 80.6258 71.686 79.4633C72.0648 78.3478 71.5103 77.3849 70.2066 76.271C68.4078 74.7511 67.4469 73.3899 68.0466 71.6227C68.621 69.9378 70.2565 69.0663 72.2342 69.3958L72.9347 67.3469L74.1935 67.7742L73.5243 69.7469C74.7292 70.2026 75.4512 70.8083 75.9256 71.3498L74.9592 72.5185C74.6179 72.1274 73.934 71.4043 72.628 70.9643C71.0632 70.4362 70.1533 71.1686 69.8757 71.9788C69.5161 73.0296 70.0861 73.8155 71.6104 75.1466C73.4143 76.708 74.1134 78.123 73.495 79.9312C72.946 81.5339 71.3229 82.6598 69.1031 82.296L68.3835 84.4095L67.1131 83.9701Z" fill="#44A0AC"/>
<path d="M56.925 74.3177C55.8865 73.9806 55.3195 72.8682 55.6585 71.8331C55.9975 70.798 57.1142 70.2321 58.1526 70.5693C59.1911 70.9064 59.7581 72.0188 59.4191 73.0539C59.0801 74.089 57.9634 74.6549 56.925 74.3177Z" fill="#1A2F38"/>
<path d="M81.9066 82.4351C80.868 82.0983 80.3012 80.9862 80.6405 79.9512C80.9798 78.9162 82.0968 78.3502 83.1354 78.687C84.1739 79.0238 84.7408 80.1359 84.4015 81.1709C84.0622 82.2059 82.9452 82.7719 81.9066 82.4351Z" fill="#36B9B1"/>
<path d="M65.5697 26.5878L97.2903 71.0703L80.0177 83.3089L48.2972 38.8263L65.5697 26.5878Z" fill="#016A7B"/>
<path d="M79.8372 84.3575L98.3411 71.2494L65.7462 25.5434L47.2422 38.6516L79.8372 84.3575ZM96.2385 70.8919L80.1899 82.2633L49.3362 39.0029L65.3848 27.6315L96.2385 70.8919Z" fill="#40C7DF"/>
<path d="M65.6575 59.6084C62.8733 55.707 63.793 50.295 67.7116 47.5205C71.6303 44.746 77.0639 45.6595 79.848 49.5609C82.6322 53.4623 81.7125 58.8742 77.7939 61.6487C73.8753 64.4233 68.4416 63.5097 65.6575 59.6084Z" fill="#1A2F38"/>
<path d="M66.848 60.6063L68.6297 59.3439C69.3732 60.3491 70.4449 61.1793 71.3228 61.4812L72.2087 60.2226C71.3332 59.89 70.3476 59.2122 69.6459 58.2303C68.7562 56.9842 68.8807 55.6239 69.8875 54.913C70.8598 54.223 71.951 54.4822 73.4032 55.4086C75.387 56.7015 76.994 57.2315 78.524 56.1469C79.9935 55.11 80.3605 53.2859 79.4767 51.4787L81.2584 50.2163L80.4781 49.1262L78.7643 50.3396C77.9789 49.3109 77.1789 48.7918 76.5141 48.4926L75.6603 49.7611C76.1367 49.9778 77.039 50.4271 77.8403 51.5515C78.8086 52.9058 78.3581 53.9943 77.6498 54.4894C76.7319 55.1402 75.812 54.8149 74.0841 53.7372C72.0486 52.4528 70.478 52.1893 68.9073 53.3034C67.5131 54.29 66.8996 56.185 67.8876 58.2097L66.0516 59.5113L66.848 60.6063Z" fill="#44A0AC"/>
<path d="M63.4718 45.3844C62.8366 44.4938 63.0465 43.2582 63.9406 42.6248C64.8347 41.9913 66.0745 42.1998 66.7097 43.0905C67.3449 43.9811 67.135 45.2166 66.2409 45.8501C65.3468 46.4836 64.107 46.2751 63.4718 45.3844Z" fill="#1A2F38"/>
<path d="M78.804 66.8689C78.1689 65.9782 78.3788 64.7426 79.2729 64.1091C80.167 63.4756 81.4067 63.6841 82.0419 64.5748C82.677 65.4655 82.4671 66.7011 81.573 67.3346C80.6789 67.9681 79.4392 67.7596 78.804 66.8689Z" fill="#1A2F38"/>
<path d="M45.9764 97.2388C45.9764 99.099 36.0351 100.606 23.7705 100.606C11.4941 100.606 1.55273 99.099 1.55273 97.2388L6.74159 87.8203H40.7758L45.9764 97.2388Z" fill="#298C9C"/>
<path d="M40.7749 87.8205C40.7749 89.2451 33.1567 90.3988 23.7578 90.3988C14.3589 90.3988 6.74072 89.2451 6.74072 87.8205C6.74072 86.396 14.3589 85.2422 23.7578 85.2422C33.1567 85.2422 40.7749 86.396 40.7749 87.8205Z" fill="url(#paint0_linear_6261_4438)"/>
<path d="M30.5741 50.5113L21.3521 41.3047L6.92943 55.715L6.94123 55.7268C6.91764 55.7385 6.89406 55.7503 6.87047 55.7621C6.328 56.3037 7.94362 58.8113 10.4909 61.3543C13.0381 63.8973 15.55 65.5103 16.0925 64.9687C16.1161 64.9569 16.1161 64.9216 16.1279 64.898L16.1397 64.9098L30.5741 50.5113Z" fill="#075A66"/>
<path d="M27.9689 87.5023H19.5605L21.4002 54.8672H26.1292L27.9689 87.5023Z" fill="url(#paint1_linear_6261_4438)"/>
<path d="M23.7583 87.5023H27.9677L26.1283 54.8672H23.7583V87.5023Z" fill="#E4E8F1" fill-opacity="0.15"/>
<path d="M34.7966 44.0358C36.1409 49.2042 33.0276 54.4785 27.8506 55.8089C22.6735 57.151 17.3903 54.0429 16.0577 48.8745C14.7133 43.7061 17.8266 38.4317 23.0037 37.1014C28.169 35.7592 33.4522 38.8673 34.7966 44.0358Z" fill="#127D85"/>
<path d="M65.1154 58.7783L38.1452 32.3241L12.649 4.44531C12.649 4.44531 -5.58277 16.0536 23.4748 46.4401C52.8273 76.5322 65.1154 58.7783 65.1154 58.7783Z" fill="#D5F6FF"/>
<path d="M26.2933 43.8344C5.13694 21.7009 9.05217 9.52746 12.7551 4.54742L12.649 4.42969C12.649 4.42969 -5.58277 16.038 23.4748 46.4245C52.0371 75.716 64.4314 59.6928 65.0801 58.8098C59.9384 62.3064 47.6266 65.7089 26.2933 43.8344Z" fill="url(#paint2_linear_6261_4438)"/>
<path d="M65.1045 58.7757C63.2766 60.5299 55.4698 55.5969 45.7642 46.9908C45.4222 46.6847 45.0684 46.3786 44.7147 46.0489C41.4009 43.0585 37.8866 39.6679 34.3252 35.9829C30.5514 32.0742 27.0961 28.2244 24.1125 24.6218C23.8177 24.2686 23.5347 23.9272 23.2517 23.5858C15.2915 13.8612 10.8574 6.17329 12.6499 4.44264C14.749 2.42943 24.6904 9.21076 36.3535 20.2304C36.6955 20.5601 37.0493 20.8897 37.3913 21.2194C39.3725 23.1148 41.3891 25.128 43.4174 27.2354C44.9505 28.813 46.4246 30.3906 47.828 31.9447C48.17 32.3214 48.5002 32.6864 48.8422 33.0631C60.2459 45.731 67.298 56.6801 65.1045 58.7757Z" fill="#32B9CF"/>
<path d="M51.8021 20.2537C53.6583 20.2537 55.1631 18.7514 55.1631 16.8983C55.1631 15.0452 53.6583 13.543 51.8021 13.543C49.9459 13.543 48.4412 15.0452 48.4412 16.8983C48.4412 18.7514 49.9459 20.2537 51.8021 20.2537Z" fill="#7F86FF"/>
<path d="M52.6156 16.0508L48.8537 33.0512L45.764 46.9906C45.422 46.6845 45.0682 46.3784 44.7144 46.0487L47.8395 31.9327L50.9882 17.7226L37.4028 21.2192L24.1241 24.6216C23.8292 24.2684 23.5462 23.927 23.2632 23.5856L36.3651 20.2185L52.6156 16.0508Z" fill="#7F86FF"/>
<path d="M67.4032 16.3232C67.2381 13.3211 66.2358 10.4367 64.3371 7.99962C62.4385 5.56258 59.8794 3.90257 57.002 3.00781" stroke="#7F86FF" stroke-width="1.28686" stroke-miterlimit="10" stroke-linecap="round"/>
<path d="M63.5707 17.0642C63.441 14.686 62.6508 12.4138 61.1532 10.4948C59.6555 8.57576 57.6271 7.25717 55.3511 6.55078" stroke="#7F86FF" stroke-width="1.28686" stroke-miterlimit="10" stroke-linecap="round"/>
<path d="M59.8083 17.3105C59.714 15.6858 59.1834 14.1318 58.1576 12.825C57.1317 11.5064 55.7522 10.6116 54.1958 10.1289" stroke="#7F86FF" stroke-width="1.28686" stroke-miterlimit="10" stroke-linecap="round"/>
<path d="M99.7679 18.4126C97.1505 19.2808 94.8387 20.8593 93.1386 23.1208C91.4384 25.3822 90.5849 28.0393 90.4854 30.793" stroke="#7F86FF" stroke-width="1.28686" stroke-miterlimit="10" stroke-linecap="round"/>
<path d="M101.346 21.617C99.2726 22.3039 97.4516 23.5478 96.1135 25.3308C94.7754 27.1139 94.0964 29.2206 94.0188 31.3984" stroke="#7F86FF" stroke-width="1.28686" stroke-miterlimit="10" stroke-linecap="round"/>
<path d="M102.47 24.8749C101.055 25.3491 99.8077 26.1911 98.8982 27.4106C97.9782 28.6329 97.5184 30.0654 97.4658 31.5547" stroke="#7F86FF" stroke-width="1.28686" stroke-miterlimit="10" stroke-linecap="round"/>
<g filter="url(#filter0_d_6261_4438)">
<path d="M112.996 72.3906L114.829 93.4355H107.008L108.841 72.3906H112.996Z" fill="url(#paint3_linear_6261_4438)"/>
<path d="M124.785 53.8368L123.483 54.3633L128.023 65.5581L129.325 65.0316L124.785 53.8368Z" fill="#42E8E0"/>
<path d="M99.7978 52.9949C102.227 52.9949 104.197 51.0286 104.197 48.6029C104.197 46.1773 102.227 44.2109 99.7978 44.2109C97.3681 44.2109 95.3984 46.1773 95.3984 48.6029C95.3984 51.0286 97.3681 52.9949 99.7978 52.9949Z" fill="url(#paint4_linear_6261_4438)"/>
<path d="M122.527 55.1293C122.527 63.6693 117.456 70.6232 111.162 70.6232C104.869 70.6232 99.7974 63.6693 99.7974 55.1293C99.7974 46.5893 104.869 44.0273 111.162 44.0273C117.456 44.0273 122.527 46.5893 122.527 55.1293Z" fill="url(#paint5_linear_6261_4438)"/>
<path d="M116.662 51.7762C113.607 53.5452 108.719 53.5452 105.664 51.7762C102.609 50.0072 102.609 47.2012 105.664 45.4322C108.719 43.6632 113.607 43.6632 116.662 45.4322C119.717 47.2012 119.717 50.0682 116.662 51.7762Z" fill="url(#paint6_linear_6261_4438)"/>
<path d="M105.664 46.6522C108.719 44.8832 113.607 44.8832 116.662 46.6522C117.945 47.3842 118.678 48.2992 118.862 49.2142C119.167 47.8722 118.434 46.4692 116.662 45.4322C113.607 43.6632 108.719 43.6632 105.664 45.4322C103.892 46.4692 103.158 47.8722 103.464 49.2142C103.708 48.2992 104.442 47.3842 105.664 46.6522Z" fill="#1E6672"/>
<path d="M124.117 58.4832C126.546 58.4832 128.516 56.5168 128.516 54.0912C128.516 51.6656 126.546 49.6992 124.117 49.6992C121.687 49.6992 119.717 51.6656 119.717 54.0912C119.717 56.5168 121.687 58.4832 124.117 58.4832Z" fill="url(#paint7_linear_6261_4438)"/>
<path d="M124.239 58.5457C126.668 58.5457 128.638 56.5793 128.638 54.1537C128.638 51.7281 126.668 49.7617 124.239 49.7617C121.809 49.7617 119.839 51.7281 119.839 54.1537C119.839 56.5793 121.809 58.5457 124.239 58.5457Z" fill="url(#paint8_linear_6261_4438)"/>
<path d="M131.142 68.6707C130.898 70.7447 129.065 74.7097 127.355 74.5267C125.705 74.3437 124.85 70.0127 125.094 67.9387C125.339 65.8647 126.927 64.3397 128.577 64.5227C130.226 64.7057 131.387 66.5967 131.142 68.6707Z" fill="url(#paint9_radial_6261_4438)"/>
<path d="M131.142 68.6707C130.898 70.7447 129.065 74.7097 127.355 74.5267C125.705 74.3437 124.85 70.0127 125.094 67.9387C125.339 65.8647 126.927 64.3397 128.577 64.5227C130.226 64.7057 131.387 66.5967 131.142 68.6707Z" fill="url(#paint10_linear_6261_4438)"/>
<path d="M114.462 72.3922H107.557L108.107 70.0742H113.851L114.462 72.3922Z" fill="#23ABD8"/>
<path opacity="0.47" d="M113.851 70.0742H112.141L112.446 72.3922H114.462L113.851 70.0742Z" fill="#96CCCA"/>
<path opacity="0.47" d="M108.107 70.0742H109.818L109.573 72.3922H107.557L108.107 70.0742Z" fill="#96CCCA"/>
<path d="M88.7504 56.7502C88.3454 56.8131 88.052 56.5274 87.9704 56.1812C87.9284 55.9116 88.061 55.6978 88.2332 55.5606L96.2409 49.9823C96.5667 49.766 96.9927 49.8379 97.1511 50.1446C97.3677 50.4698 97.2957 50.8951 96.9885 51.0533L88.9994 56.5735C88.9622 56.6897 88.8272 56.7107 88.7504 56.7502Z" fill="#74FEF7"/>
<path d="M89.1867 59.1968C87.5974 60.3547 83.5942 61.639 82.6695 60.3194C81.7448 58.9997 84.1572 55.6709 85.8047 54.5315C87.3941 53.3736 89.4821 53.4634 90.4254 54.725C91.3501 56.0447 90.8342 58.0574 89.1867 59.1968Z" fill="url(#paint11_radial_6261_4438)"/>
<g filter="url(#filter1_d_6261_4438)">
<path d="M89.1867 59.1968C87.5974 60.3547 83.5942 61.639 82.6695 60.3194C81.7448 58.9997 84.1572 55.6709 85.8047 54.5315C87.3941 53.3736 89.4821 53.4634 90.4254 54.725C91.3501 56.0447 90.8342 58.0574 89.1867 59.1968Z" fill="url(#paint12_linear_6261_4438)"/>
</g>
<path d="M108.046 31.2169C108.046 33.1689 106.641 35.6088 104.93 36.5848C103.22 37.5608 101.815 36.7678 101.815 34.8159C101.815 32.8639 103.22 30.4239 104.93 29.4479C106.641 28.4109 108.046 29.2039 108.046 31.2169Z" fill="#BCBEFF"/>
<path d="M109.88 33.9023C109.757 34.5733 109.88 35.5493 111.285 36.2203C114.034 37.6233 116.234 35.4883 117.639 36.4643C118.678 37.1963 118.189 39.4533 115.623 40.3073C112.935 41.2223 109.574 40.6123 109.33 37.9283C109.33 36.8913 109.391 35.8543 109.574 34.8783C109.635 34.5733 109.757 34.2073 109.88 33.9023Z" fill="#19212C"/>
<path d="M111.102 25.6055C106.214 25.6055 101.937 28.7775 100.531 33.4134C100.959 33.5354 101.081 33.9014 101.081 34.3284C100.959 35.3044 100.715 36.2194 100.715 37.1954C100.715 37.5614 100.47 37.8664 100.165 37.9274C100.898 43.9664 106.397 48.2364 112.446 47.5044C118.495 46.7724 122.773 41.2824 122.039 35.2434C121.367 29.7535 116.662 25.6055 111.102 25.6055Z" fill="url(#paint13_linear_6261_4438)"/>
<path d="M111.102 25.9102C106.275 25.9102 102.059 29.0211 100.592 33.6571C100.959 33.7181 101.203 34.1451 101.142 34.5111C101.142 34.5111 101.142 34.5111 101.142 34.5721C100.898 35.6091 100.531 36.8291 100.837 37.9271C100.959 38.4151 100.653 38.7811 100.226 38.8421C101.264 44.8201 106.947 48.8461 112.935 47.8091C118.923 46.7721 122.956 41.0991 121.917 35.1211C121.061 29.7531 116.479 25.9102 111.102 25.9102Z" fill="url(#paint14_linear_6261_4438)"/>
<path d="M114.279 37.8038C114.279 37.7428 114.279 37.6818 114.279 37.6208L114.218 37.4378C114.218 37.3158 114.157 37.1938 114.095 37.1328C113.973 38.1088 113.423 39.1458 112.446 39.9998C109.879 42.1958 105.419 42.6838 102.486 41.1588C101.386 40.6098 100.653 39.8168 100.286 38.9628C100.347 39.3288 100.409 39.6948 100.531 40.0608C100.653 40.4268 100.836 40.7928 101.02 41.0978C101.081 41.1588 101.142 41.2808 101.203 41.3418C101.631 41.7688 102.119 42.1348 102.669 42.3788C105.663 43.9038 110.124 43.3548 112.629 41.2198C113.79 40.1218 114.34 38.9018 114.279 37.8038Z" fill="#1E6672"/>
<path d="M113.363 35.9749C111.163 34.3889 107.619 37.8049 103.22 35.5479C101.326 34.5719 100.959 33.2909 100.959 32.2539C100.776 32.7419 100.592 33.2299 100.47 33.7179C100.226 35.1819 100.104 36.7069 100.104 38.2319C100.409 42.5019 105.847 43.5389 110.185 42.0749C114.279 40.7329 115.073 37.1949 113.363 35.9749Z" fill="url(#paint15_linear_6261_4438)"/>
<path d="M101.814 38.5981C101.876 38.5981 101.937 38.537 101.937 38.4759C101.937 38.3537 101.876 38.1705 101.692 38.1094H101.631C101.57 38.1094 101.509 38.1705 101.509 38.2316C101.509 38.3537 101.57 38.537 101.753 38.5981H101.814Z" fill="url(#paint16_radial_6261_4438)"/>
<path d="M102.364 39.5726C102.059 39.6946 101.57 39.3286 101.204 38.6576C100.837 37.9866 100.776 37.3156 101.081 37.1326C101.387 37.0106 101.876 37.3766 102.242 38.0476C102.609 38.7186 102.67 39.3896 102.364 39.5726Z" fill="#00FF3C"/>
<path d="M101.814 38.5981C101.876 38.5981 101.937 38.537 101.937 38.4759C101.937 38.3537 101.876 38.1705 101.692 38.1094H101.631C101.57 38.1094 101.509 38.1705 101.509 38.2316C101.509 38.3537 101.57 38.537 101.753 38.5981H101.814Z" fill="url(#paint17_radial_6261_4438)"/>
<path d="M101.814 37.8677C101.876 37.8677 101.937 37.8066 101.937 37.7455C101.937 37.6233 101.876 37.44 101.692 37.3789H101.631C101.57 37.3789 101.509 37.44 101.509 37.5011C101.509 37.6233 101.57 37.8066 101.753 37.8677C101.753 37.8066 101.814 37.8066 101.814 37.8677Z" fill="url(#paint18_radial_6261_4438)"/>
<path d="M102.361 38.8097C102.657 38.6485 102.597 37.9659 102.226 37.2852C101.855 36.6045 101.315 36.1834 101.018 36.3447C100.722 36.506 100.783 37.1885 101.153 37.8693C101.524 38.55 102.065 38.971 102.361 38.8097Z" fill="#00FF3C"/>
<path d="M101.814 37.8677C101.876 37.8677 101.937 37.8066 101.937 37.7455C101.937 37.6233 101.876 37.44 101.692 37.3789H101.631C101.57 37.3789 101.509 37.44 101.509 37.5011C101.509 37.6233 101.57 37.8066 101.753 37.8677C101.753 37.8066 101.814 37.8066 101.814 37.8677Z" fill="url(#paint19_radial_6261_4438)"/>
<path d="M101.814 37.0122C101.876 37.0122 101.937 36.9511 101.937 36.89C101.937 36.7678 101.876 36.5845 101.692 36.5234H101.631C101.57 36.5234 101.509 36.5845 101.509 36.6456C101.509 36.7678 101.57 36.9511 101.753 37.0122C101.753 37.0122 101.753 37.0122 101.814 37.0122Z" fill="url(#paint20_radial_6261_4438)"/>
<path d="M102.364 37.9867C102.059 38.1087 101.57 37.7427 101.204 37.0717C100.837 36.4007 100.776 35.7297 101.081 35.5467C101.387 35.4247 101.876 35.7907 102.242 36.4617C102.609 37.1937 102.67 37.8647 102.364 37.9867Z" fill="#00FF3C"/>
<path d="M101.814 37.0122C101.876 37.0122 101.937 36.9511 101.937 36.89C101.937 36.7678 101.876 36.5845 101.692 36.5234H101.631C101.57 36.5234 101.509 36.5845 101.509 36.6456C101.509 36.7678 101.57 36.9511 101.753 37.0122C101.753 37.0122 101.753 37.0122 101.814 37.0122Z" fill="url(#paint21_radial_6261_4438)"/>
<path d="M102.364 39.5726C102.059 39.6946 101.57 39.3286 101.204 38.6576C100.837 37.9866 100.776 37.3156 101.081 37.1326C101.387 37.0106 101.876 37.3766 102.242 38.0476C102.609 38.7186 102.67 39.3896 102.364 39.5726Z" fill="#42E8E0"/>
<path d="M102.361 38.8097C102.657 38.6485 102.597 37.9659 102.226 37.2852C101.855 36.6045 101.315 36.1834 101.018 36.3447C100.722 36.506 100.783 37.1885 101.153 37.8693C101.524 38.55 102.065 38.971 102.361 38.8097Z" fill="#42E8E0"/>
<path d="M102.364 37.9867C102.059 38.1087 101.57 37.7427 101.204 37.0717C100.837 36.4007 100.776 35.7297 101.081 35.5467C101.387 35.4247 101.876 35.7907 102.242 36.4617C102.609 37.1937 102.67 37.8647 102.364 37.9867Z" fill="#42E8E0"/>
<path d="M105.542 40.4301C105.603 40.4301 105.664 40.369 105.664 40.308C105.664 40.1858 105.603 40.0025 105.42 39.9414H105.359C105.298 39.9414 105.237 40.0025 105.237 40.0636C105.237 40.1858 105.298 40.369 105.481 40.4301C105.481 40.369 105.542 40.4301 105.542 40.4301Z" fill="url(#paint22_radial_6261_4438)"/>
<path d="M106.152 41.3421C105.847 41.4641 105.358 41.0981 104.992 40.4272C104.625 39.7562 104.564 39.0852 104.869 38.9022C105.175 38.7802 105.664 39.1462 106.03 39.8172C106.397 40.4881 106.397 41.2201 106.152 41.3421Z" fill="#00FF3C"/>
<path d="M105.542 40.4301C105.603 40.4301 105.664 40.369 105.664 40.308C105.664 40.1858 105.603 40.0025 105.42 39.9414H105.359C105.298 39.9414 105.237 40.0025 105.237 40.0636C105.237 40.1858 105.298 40.369 105.481 40.4301C105.481 40.369 105.542 40.4301 105.542 40.4301Z" fill="url(#paint23_radial_6261_4438)"/>
<path d="M105.542 39.6372C105.603 39.6372 105.664 39.5761 105.664 39.515C105.664 39.3928 105.603 39.2095 105.42 39.1484H105.359C105.298 39.1484 105.237 39.2095 105.237 39.2706C105.237 39.3928 105.298 39.5761 105.481 39.6372H105.542Z" fill="url(#paint24_radial_6261_4438)"/>
<path d="M106.16 40.6183C106.456 40.457 106.395 39.7745 106.025 39.0938C105.654 38.4131 105.114 37.992 104.817 38.1533C104.521 38.3146 104.581 38.9971 104.952 39.6778C105.323 40.3586 105.863 40.7796 106.16 40.6183Z" fill="#00FF3C"/>
<path d="M105.542 39.6372C105.603 39.6372 105.664 39.5761 105.664 39.515C105.664 39.3928 105.603 39.2095 105.42 39.1484H105.359C105.298 39.1484 105.237 39.2095 105.237 39.2706C105.237 39.3928 105.298 39.5761 105.481 39.6372H105.542Z" fill="url(#paint25_radial_6261_4438)"/>
<path d="M105.542 38.8442C105.603 38.8442 105.664 38.7831 105.664 38.722C105.664 38.5998 105.603 38.4166 105.42 38.3555H105.359C105.298 38.3555 105.237 38.4166 105.237 38.4777C105.237 38.5998 105.298 38.7831 105.481 38.8442H105.542Z" fill="url(#paint26_radial_6261_4438)"/>
<path d="M106.152 39.8184C105.847 39.9404 105.358 39.5744 104.992 38.9034C104.625 38.2324 104.564 37.5614 104.869 37.3784C105.175 37.1954 105.664 37.6224 106.03 38.2934C106.336 38.9644 106.397 39.6354 106.152 39.8184Z" fill="#00FF3C"/>
<path d="M105.542 38.8442C105.603 38.8442 105.664 38.7831 105.664 38.722C105.664 38.5998 105.603 38.4166 105.42 38.3555H105.359C105.298 38.3555 105.237 38.4166 105.237 38.4777C105.237 38.5998 105.298 38.7831 105.481 38.8442H105.542Z" fill="url(#paint27_radial_6261_4438)"/>
<path d="M106.152 41.3421C105.847 41.4641 105.358 41.0981 104.992 40.4272C104.625 39.7562 104.564 39.0852 104.869 38.9022C105.175 38.7802 105.664 39.1462 106.03 39.8172C106.397 40.4881 106.397 41.2201 106.152 41.3421Z" fill="#42E8E0"/>
<path d="M106.16 40.6183C106.456 40.457 106.395 39.7745 106.025 39.0938C105.654 38.4131 105.114 37.992 104.817 38.1533C104.521 38.3146 104.581 38.9971 104.952 39.6778C105.323 40.3586 105.863 40.7796 106.16 40.6183Z" fill="#42E8E0"/>
<path d="M106.152 39.8184C105.847 39.9404 105.358 39.5744 104.992 38.9034C104.625 38.2324 104.564 37.5614 104.869 37.3784C105.175 37.1954 105.664 37.6224 106.03 38.2934C106.336 38.9644 106.397 39.6354 106.152 39.8184Z" fill="#42E8E0"/>
</g>
</g>
</g>
<defs>
<filter id="filter0_d_6261_4438" x="61.7879" y="8.10957" width="90.0641" height="109.186" filterUnits="userSpaceOnUse" color-interpolation-filters="sRGB">
<feFlood flood-opacity="0" result="BackgroundImageFix"/>
<feColorMatrix in="SourceAlpha" type="matrix" values="0 0 0 0 0 0 0 0 0 0 0 0 0 0 0 0 0 0 127 0" result="hardAlpha"/>
<feOffset dy="3.18107"/>
<feGaussianBlur stdDeviation="10.3385"/>
<feColorMatrix type="matrix" values="0 0 0 0 0.124514 0 0 0 0 0.679167 0 0 0 0 0.652436 0 0 0 0.16 0"/>
<feBlend mode="normal" in2="BackgroundImageFix" result="effect1_dropShadow_6261_4438"/>
<feBlend mode="normal" in="SourceGraphic" in2="effect1_dropShadow_6261_4438" result="shape"/>
</filter>
<filter id="filter1_d_6261_4438" x="79.2838" y="50.5377" width="14.7786" height="13.5223" filterUnits="userSpaceOnUse" color-interpolation-filters="sRGB">
<feFlood flood-opacity="0" result="BackgroundImageFix"/>
<feColorMatrix in="SourceAlpha" type="matrix" values="0 0 0 0 0 0 0 0 0 0 0 0 0 0 0 0 0 0 127 0" result="hardAlpha"/>
<feOffset/>
<feGaussianBlur stdDeviation="1.59054"/>
<feColorMatrix type="matrix" values="0 0 0 0 0 0 0 0 0 0 0 0 0 0 0 0 0 0 0.1 0"/>
<feBlend mode="normal" in2="BackgroundImageFix" result="effect1_dropShadow_6261_4438"/>
<feBlend mode="normal" in="SourceGraphic" in2="effect1_dropShadow_6261_4438" result="shape"/>
</filter>
<linearGradient id="paint0_linear_6261_4438" x1="23.7578" y1="85.2422" x2="23.7578" y2="90.3988" gradientUnits="userSpaceOnUse">
<stop stop-color="#016A7B"/>
<stop offset="1" stop-color="#075A66"/>
</linearGradient>
<linearGradient id="paint1_linear_6261_4438" x1="23.7647" y1="54.8672" x2="23.7647" y2="87.5023" gradientUnits="userSpaceOnUse">
<stop stop-color="#127D85"/>
<stop offset="1" stop-color="#A5D3DF"/>
</linearGradient>
<linearGradient id="paint2_linear_6261_4438" x1="36.0412" y1="4.42969" x2="36.0412" y2="63.9722" gradientUnits="userSpaceOnUse">
<stop stop-color="#20858E"/>
<stop offset="1" stop-color="#A8D3DE"/>
</linearGradient>
<linearGradient id="paint3_linear_6261_4438" x1="110.913" y1="72.399" x2="110.913" y2="93.4248" gradientUnits="userSpaceOnUse">
<stop stop-color="white"/>
<stop offset="1" stop-color="#C9C9C9" stop-opacity="0"/>
</linearGradient>
<linearGradient id="paint4_linear_6261_4438" x1="95.438" y1="47.7684" x2="104.089" y2="49.4838" gradientUnits="userSpaceOnUse">
<stop stop-color="#F7F7F7"/>
<stop offset="0.55" stop-color="#F2F2F9"/>
<stop offset="1" stop-color="#E9E9FD"/>
</linearGradient>
<linearGradient id="paint5_linear_6261_4438" x1="99.7793" y1="57.3161" x2="122.55" y2="57.3161" gradientUnits="userSpaceOnUse">
<stop stop-color="#F7F7F7"/>
<stop offset="0.55" stop-color="#F2F2F9"/>
<stop offset="1" stop-color="#E9E9FD"/>
</linearGradient>
<linearGradient id="paint6_linear_6261_4438" x1="103.401" y1="48.6249" x2="118.939" y2="48.6249" gradientUnits="userSpaceOnUse">
<stop stop-color="#42E8E0"/>
<stop offset="0.18" stop-color="#41E3DD"/>
<stop offset="0.38" stop-color="#3CD5D3"/>
<stop offset="0.61" stop-color="#35BDC3"/>
<stop offset="0.84" stop-color="#2C9CAD"/>
<stop offset="1" stop-color="#24819B"/>
</linearGradient>
<linearGradient id="paint7_linear_6261_4438" x1="119.781" y1="53.2545" x2="128.432" y2="54.9699" gradientUnits="userSpaceOnUse">
<stop stop-color="#F7F7F7"/>
<stop offset="0.55" stop-color="#F2F2F9"/>
<stop offset="1" stop-color="#E9E9FD"/>
</linearGradient>
<linearGradient id="paint8_linear_6261_4438" x1="120.674" y1="56.7256" x2="127.801" y2="51.5387" gradientUnits="userSpaceOnUse">
<stop stop-color="#F7F7F7"/>
<stop offset="0.55" stop-color="#F2F2F9"/>
<stop offset="1" stop-color="#E9E9FD"/>
</linearGradient>
<radialGradient id="paint9_radial_6261_4438" cx="0" cy="0" r="1" gradientUnits="userSpaceOnUse" gradientTransform="translate(128.145 69.8316) rotate(6.88215) scale(3.05464 5.02723)">
<stop stop-color="#2BB675"/>
<stop offset="1" stop-color="#14444F"/>
</radialGradient>
<linearGradient id="paint10_linear_6261_4438" x1="124.606" y1="69.1379" x2="130.661" y2="69.8826" gradientUnits="userSpaceOnUse">
<stop stop-color="#F7F7F7"/>
<stop offset="0.55" stop-color="#F2F2F9"/>
<stop offset="1" stop-color="#E9E9FD"/>
</linearGradient>
<radialGradient id="paint11_radial_6261_4438" cx="0" cy="0" r="1" gradientUnits="userSpaceOnUse" gradientTransform="translate(94.7969 50.6867) rotate(54.2979) scale(7.44015 12.2391)">
<stop stop-color="#2BB675"/>
<stop offset="1" stop-color="#23ABD8"/>
</radialGradient>
<linearGradient id="paint12_linear_6261_4438" x1="89.8721" y1="57.0062" x2="83.3275" y2="56.1817" gradientUnits="userSpaceOnUse">
<stop stop-color="white"/>
<stop offset="0.55" stop-color="#F2F2F9"/>
<stop offset="1" stop-color="#E9E9FD"/>
</linearGradient>
<linearGradient id="paint13_linear_6261_4438" x1="100.093" y1="36.5954" x2="122.103" y2="36.5954" gradientUnits="userSpaceOnUse">
<stop stop-color="#F7F7F7"/>
<stop offset="0.55" stop-color="#F2F2F9"/>
<stop offset="1" stop-color="#E9E9FD"/>
</linearGradient>
<linearGradient id="paint14_linear_6261_4438" x1="109.675" y1="47.7681" x2="112.729" y2="26.005" gradientUnits="userSpaceOnUse">
<stop stop-color="#F7F7F7"/>
<stop offset="0.55" stop-color="#F2F2F9"/>
<stop offset="1" stop-color="#E9E9FD"/>
</linearGradient>
<linearGradient id="paint15_linear_6261_4438" x1="100.125" y1="37.4973" x2="114.207" y2="37.4973" gradientUnits="userSpaceOnUse">
<stop stop-color="#00ACBF"/>
<stop offset="0.29" stop-color="#04A7BB"/>
<stop offset="0.63" stop-color="#1099AF"/>
<stop offset="1" stop-color="#24819B"/>
</linearGradient>
<radialGradient id="paint16_radial_6261_4438" cx="0" cy="0" r="1" gradientUnits="userSpaceOnUse" gradientTransform="translate(101.715 38.3395) rotate(180) scale(0.238555)">
<stop stop-color="white"/>
<stop offset="1" stop-color="#95FDA8"/>
</radialGradient>
<radialGradient id="paint17_radial_6261_4438" cx="0" cy="0" r="1" gradientUnits="userSpaceOnUse" gradientTransform="translate(101.715 38.3395) rotate(180) scale(0.238555)">
<stop stop-color="white"/>
<stop offset="1" stop-color="#95FDA8"/>
</radialGradient>
<radialGradient id="paint18_radial_6261_4438" cx="0" cy="0" r="1" gradientUnits="userSpaceOnUse" gradientTransform="translate(101.715 37.5679) scale(0.238372)">
<stop stop-color="white"/>
<stop offset="1" stop-color="#95FDA8"/>
</radialGradient>
<radialGradient id="paint19_radial_6261_4438" cx="0" cy="0" r="1" gradientUnits="userSpaceOnUse" gradientTransform="translate(101.715 37.5679) scale(0.238372)">
<stop stop-color="white"/>
<stop offset="1" stop-color="#95FDA8"/>
</radialGradient>
<radialGradient id="paint20_radial_6261_4438" cx="0" cy="0" r="1" gradientUnits="userSpaceOnUse" gradientTransform="translate(101.712 36.7718) scale(0.238799)">
<stop stop-color="white"/>
<stop offset="1" stop-color="#95FDA8"/>
</radialGradient>
<radialGradient id="paint21_radial_6261_4438" cx="0" cy="0" r="1" gradientUnits="userSpaceOnUse" gradientTransform="translate(101.712 36.7718) scale(0.238799)">
<stop stop-color="white"/>
<stop offset="1" stop-color="#95FDA8"/>
</radialGradient>
<radialGradient id="paint22_radial_6261_4438" cx="0" cy="0" r="1" gradientUnits="userSpaceOnUse" gradientTransform="translate(105.467 40.1385) scale(0.238825)">
<stop stop-color="white"/>
<stop offset="1" stop-color="#95FDA8"/>
</radialGradient>
<radialGradient id="paint23_radial_6261_4438" cx="0" cy="0" r="1" gradientUnits="userSpaceOnUse" gradientTransform="translate(105.467 40.1385) scale(0.238825)">
<stop stop-color="white"/>
<stop offset="1" stop-color="#95FDA8"/>
</radialGradient>
<radialGradient id="paint24_radial_6261_4438" cx="0" cy="0" r="1" gradientUnits="userSpaceOnUse" gradientTransform="translate(105.467 39.3662) scale(0.238397)">
<stop stop-color="white"/>
<stop offset="1" stop-color="#95FDA8"/>
</radialGradient>
<radialGradient id="paint25_radial_6261_4438" cx="0" cy="0" r="1" gradientUnits="userSpaceOnUse" gradientTransform="translate(105.467 39.3662) scale(0.238397)">
<stop stop-color="white"/>
<stop offset="1" stop-color="#95FDA8"/>
</radialGradient>
<radialGradient id="paint26_radial_6261_4438" cx="0" cy="0" r="1" gradientUnits="userSpaceOnUse" gradientTransform="translate(105.464 38.5715) scale(0.238825)">
<stop stop-color="white"/>
<stop offset="1" stop-color="#95FDA8"/>
</radialGradient>
<radialGradient id="paint27_radial_6261_4438" cx="0" cy="0" r="1" gradientUnits="userSpaceOnUse" gradientTransform="translate(105.464 38.5715) scale(0.238825)">
<stop stop-color="white"/>
<stop offset="1" stop-color="#95FDA8"/>
</radialGradient>
<clipPath id="clip0_6261_4438">
<rect width="135" height="105" rx="3" fill="white"/>
</clipPath>
</defs>
</svg>
