<svg width="145" height="110" viewBox="0 0 145 110" fill="none" xmlns="http://www.w3.org/2000/svg">
<g opacity="0.7">
<path d="M110.796 90.6324C108.819 92.6282 106.947 93.918 105.472 94.9363C88.1016 106.898 67.5473 103.412 63.179 102.56C56.7272 101.304 44.2588 98.8736 35.2427 88.6977C21.6035 73.3048 23.7257 49.0563 34.3053 33.049C36.2401 30.1197 46.4625 13.8715 67.2396 11.2647C79.8141 9.68637 94.4685 12.8702 105.083 21.4033C127.364 39.3148 125.776 75.5008 110.796 90.6324Z" fill="#305263"/>
<path d="M115.967 58.4091L93.0981 45.7094C91.5165 44.8052 89.5075 44.8052 87.9259 45.7094L24.8773 80.6849H20.4746V84.3839V84.4661C20.5174 85.1648 20.8593 85.8635 21.586 86.2334L47.4893 100.618C49.2419 101.605 51.4219 101.605 53.1744 100.618L119.258 63.9575C119.985 63.5465 120.369 62.8889 120.369 62.1902V58.4091H115.967" fill="#87BCC8"/>
<path d="M21.6289 78.8274L87.9261 42.0024C89.5077 41.0982 91.5167 41.0982 93.0982 42.0024L119.258 56.5104C120.754 57.3324 120.754 59.4285 119.258 60.2505L53.2173 96.9111C51.4648 97.8975 49.2848 97.8975 47.5323 96.9111L21.6289 82.5263C20.1328 81.7043 20.1328 79.6494 21.6289 78.8274Z" fill="white"/>
<path d="M50.5242 97.2475C49.6266 97.2475 48.7289 97.042 47.9168 96.5899L22.2271 82.2051C21.6715 81.8763 21.3295 81.301 21.3295 80.6845C21.3295 80.068 21.6715 79.4926 22.2271 79.1638L87.9687 42.3388C88.6954 41.9278 89.5075 41.7223 90.3197 41.7223C91.1318 41.7223 91.944 41.9278 92.6706 42.3388L118.617 56.8469C119.172 57.1756 119.514 57.751 119.514 58.3675C119.514 58.984 119.172 59.5594 118.617 59.8882L53.1317 96.5899C52.3195 97.042 51.4219 97.2475 50.5242 97.2475ZM90.3197 40.9414C89.3793 40.9414 88.3961 41.188 87.5412 41.6401L21.7997 78.4651L21.9279 78.6295L22.0134 78.7939L21.9279 78.6295L21.7997 78.4651C20.9875 78.9172 20.4746 79.7392 20.4746 80.6845C20.4746 81.6298 20.9875 82.4517 21.7997 82.9038L47.4893 97.2886C48.4297 97.8229 49.4556 98.0695 50.5242 98.0695C51.5928 98.0695 52.6187 97.8229 53.5591 97.2886L119.044 60.628C119.856 60.1759 120.369 59.3539 120.369 58.4086C120.369 57.5044 119.856 56.6825 119.044 56.1893L93.0981 41.6812C92.2432 41.188 91.3028 40.9414 90.3197 40.9414Z" fill="url(#paint0_linear_6260_4074)"/>
<path d="M29.1088 76.9436L82.8817 47.0644C83.9076 46.489 85.1472 46.489 86.1304 47.0644L111.521 61.1203C111.863 61.3258 111.863 61.7779 111.521 61.9834L58.0043 92.027C56.9784 92.6024 55.7388 92.6024 54.7129 92.027L29.066 77.7656C28.7668 77.6012 28.7668 77.1491 29.1088 76.9436Z" fill="#085261"/>
<path opacity="0.8" d="M102.587 56.1797L34.4521 80.7571L54.7559 92.0183H54.7987C54.7987 92.0183 54.7987 92.0183 54.8414 92.0183C55.3116 92.2649 55.8673 92.3882 56.423 92.3882C56.9787 92.3882 57.5771 92.2649 58.0473 91.9772L111.564 61.9336C111.735 61.8514 111.82 61.687 111.82 61.5226C111.82 61.3582 111.735 61.1938 111.564 61.1116L102.587 56.1797Z" fill="#06788C"/>
<path d="M120.07 40.0301L98.5264 28.0291C98.1417 27.8236 97.5005 27.8236 97.1158 28.0291L31.6735 64.3609C31.4598 64.4842 31.3743 64.6075 31.3743 64.7719V67.4845C31.3743 67.6078 31.4598 67.7722 31.6735 67.8955L53.2596 79.8554C53.6443 80.0609 54.2855 80.0609 54.6702 79.8554L120.07 43.5647C120.241 43.4414 120.369 43.3181 120.369 43.1948V40.4822C120.369 40.2767 120.284 40.1123 120.07 40.0301Z" fill="#0D4650"/>
<g opacity="0.8">
<path opacity="0.8" d="M96.9903 28.0291L31.6762 64.2787C31.2915 64.4842 31.2915 64.8541 31.6762 65.0596L53.2196 77.0195C53.6043 77.225 54.2455 77.225 54.6302 77.0195L119.944 40.7699C120.329 40.5644 120.329 40.1945 119.944 39.989L98.4009 28.0291C98.0162 27.8236 97.375 27.8236 96.9903 28.0291Z" fill="#32B9CF"/>
</g>
<path d="M106.263 32.3477L120.07 39.9921C120.455 40.1976 120.455 40.5675 120.07 40.773L54.7986 77.0637C54.4139 77.2692 53.7727 77.2692 53.388 77.0637L52.1911 76.4062C50.0967 70.8988 51.7637 67.9808 54.5849 66.3368C59.3295 63.5832 65.6985 65.2682 70.9134 62.3913C77.0259 58.98 72.0248 54.5413 78.351 51.0479C83.3949 48.2531 88.225 50.267 92.7133 47.5955C98.7403 44.0199 93.2262 38.5537 100.065 34.567C102.16 33.2929 104.639 32.6765 106.263 32.3477Z" fill="#2EC6BA"/>
<path d="M82.1978 43.3177L76.4272 46.5234C76.0853 46.7289 75.4869 46.7289 75.1449 46.5234C74.8029 46.3179 74.8029 46.0302 75.1449 45.8247L80.9154 42.619C81.2574 42.4135 81.8558 42.4135 82.1978 42.619C82.5825 42.7834 82.5825 43.1122 82.1978 43.3177Z" fill="#F4F6FA"/>
<path d="M76.0424 46.2757C75.9142 46.3579 75.7432 46.3579 75.615 46.2757C75.4867 46.1935 75.4867 46.1113 75.615 46.0291L81.3855 42.8234C81.5137 42.7412 81.6847 42.7412 81.813 42.8234C81.9412 42.9056 81.9412 42.9878 81.813 43.07L76.0424 46.2757Z" fill="#D2D6E3"/>
<path opacity="0.25" d="M119.942 23.2617L73.6925 48.9488C73.1368 49.2776 72.1964 49.2776 71.6407 48.9488L43.0444 33.0845C42.4888 32.7557 42.4888 32.2625 43.0444 31.9337L89.2943 6.2466C89.85 5.9178 90.7904 5.9178 91.3461 6.2466L119.9 22.1109C120.541 22.4397 120.541 22.9329 119.942 23.2617Z" fill="#E2E5ED"/>
<path d="M120.369 22.6452C120.327 22.4397 120.198 22.2753 119.942 22.1109L91.3883 6.2466C90.8326 5.9178 89.8922 5.9178 89.3366 6.2466L43.0439 31.9337C42.7447 32.0981 42.6165 32.3036 42.6165 32.5091V35.6326V35.7559H42.6592C42.7019 35.9203 42.8302 36.0847 43.0439 36.208L71.5975 52.0724C72.1531 52.4012 73.0935 52.4012 73.6492 52.0724L119.899 26.3853C120.198 26.2209 120.327 26.0154 120.327 25.8099L120.369 22.6452Z" fill="#0D4650"/>
<path opacity="0.8" d="M119.943 23.2617L73.693 48.9488C73.1373 49.2776 72.1969 49.2776 71.6412 48.9488L43.0877 33.0434C42.532 32.7146 42.532 32.2214 43.0877 31.8926L89.3376 6.2466C89.8933 5.9178 90.8336 5.9178 91.3893 6.2466L119.943 22.1109C120.541 22.3986 120.541 22.9329 119.943 23.2617Z" fill="#2590A2"/>
<path opacity="0.25" d="M95.6628 10.9399L116.907 22.7354C117.163 22.8587 117.163 23.1053 116.907 23.2286L73.6065 47.2718C73.35 47.395 72.9653 47.395 72.7088 47.2718L63.7324 42.2987C66.7673 39.093 69.674 37.449 71.9394 36.5448C73.008 36.1338 75.6155 35.0652 77.2398 33.2158C77.7955 32.5582 78.1802 31.7773 78.2229 30.7498C78.3939 27.4208 77.4535 26.4344 82.2837 23.8862C87.1138 21.3381 87.9687 19.7352 87.5413 14.9677C87.1138 10.2001 95.6628 10.9399 95.6628 10.9399Z" fill="#E2E5ED"/>
<path d="M116.907 23.1831L112.975 25.3613L112.633 25.5668L104.169 30.2522L103.827 30.4576L95.4492 35.1019L95.0645 35.3074L86.5583 40.0338L86.2163 40.2393L77.7528 44.9246L77.4109 45.1301L73.6066 47.2262C73.3501 47.3495 72.9654 47.3495 72.709 47.2262L71.7258 46.6508C72.5807 45.3767 73.6493 44.3492 74.6752 43.6094C74.8035 43.5272 74.8889 43.445 75.0172 43.3628C75.6584 42.9107 76.2995 42.582 76.8552 42.2532C78.9924 41.1846 80.3603 40.7325 81.4717 40.3215C82.4548 39.9516 83.1814 39.6639 83.9936 38.9241C84.0363 38.883 84.0791 38.8419 84.1646 38.8008C84.2073 38.7597 84.2501 38.7186 84.2928 38.6775C85.5751 37.4445 85.6606 36.2527 85.7034 35.1019C85.7461 33.7456 85.7889 32.4715 87.6696 31.1563C87.7124 31.1152 87.7979 31.0741 87.8406 31.033C87.8834 30.9919 87.9689 30.9508 88.0116 30.9097C88.5673 30.5398 89.2085 30.2111 90.619 29.6768C93.3975 28.6904 95.5347 28.8137 97.9711 27.1697C98.0994 27.0875 98.1849 27.0053 98.3131 26.9231C101.519 24.4571 99.0398 21.0459 100.536 18.7854C100.621 18.7032 100.664 18.5799 100.75 18.4977C101.092 18.1278 101.519 17.7991 102.16 17.5114C103.528 16.8949 105.195 16.7716 106.264 16.7305L116.907 22.731C117.164 22.8543 117.164 23.0598 116.907 23.1831Z" fill="url(#paint1_linear_6260_4074)"/>
<path d="M77.7098 44.9754L77.3679 45.1809L74.675 43.6602L67.0236 39.427C66.9382 39.3859 66.8954 39.2626 66.9382 39.1804C66.9809 39.0982 67.1091 39.0571 67.1946 39.0982L74.9742 43.4136L77.6244 44.8932C77.6671 44.8932 77.7098 44.9343 77.7098 44.9754Z" fill="#F4F6FA"/>
<path d="M86.5582 40.0379L86.2163 40.2434L83.9935 39.0104L75.872 34.4895C75.7865 34.4484 75.7438 34.3251 75.7865 34.2429C75.8293 34.1607 75.9575 34.1196 76.043 34.1607L84.2928 38.7227L86.5155 39.9557C86.5155 39.9968 86.5582 40.0379 86.5582 40.0379Z" fill="#F4F6FA"/>
<path d="M104.126 30.3017L103.784 30.5072L98.0138 27.3014L86.4299 20.8488C86.3444 20.8077 86.3017 20.6844 86.3444 20.6022C86.3872 20.52 86.5154 20.4789 86.6009 20.52L98.313 27.0137L104.041 30.2195C104.084 30.2606 104.126 30.2606 104.126 30.3017Z" fill="#F4F6FA"/>
<path d="M112.974 25.4067L112.632 25.6122L100.578 18.913L88.7807 12.3371C88.6952 12.296 88.6525 12.1727 88.6952 12.0905C88.738 12.0083 88.8662 11.9672 88.9517 12.0083L100.792 18.5842L112.889 25.3245C112.932 25.3245 112.974 25.3656 112.974 25.4067Z" fill="#F4F6FA"/>
<path d="M90.1059 12.8718C89.7212 13.0773 89.08 13.0773 88.6953 12.8718L87.5839 12.2553C87.1992 12.0498 87.1992 11.6799 87.5839 11.4744C87.9686 11.2689 88.6098 11.2689 88.9945 11.4744L90.1059 12.0909C90.4906 12.2964 90.4906 12.6663 90.1059 12.8718Z" fill="#00FFFF"/>
<path d="M76.7268 33.9588C77.1543 34.2054 77.1543 34.5753 76.7268 34.7808C76.2994 35.0274 75.6582 35.0274 75.2307 34.7808C74.8033 34.5342 74.8033 34.1643 75.2307 33.9588C75.6582 33.7533 76.3421 33.7533 76.7268 33.9588Z" fill="#00FFFF"/>
<path d="M87.3271 20.3104C87.7546 20.557 87.7546 20.9269 87.3271 21.1324C86.8997 21.379 86.2585 21.379 85.8311 21.1324C85.4036 20.8858 85.4036 20.5159 85.8311 20.3104C86.2158 20.1049 86.8997 20.1049 87.3271 20.3104Z" fill="#00FFFF"/>
<path d="M68.3486 39.9539C67.9639 40.1593 67.3227 40.1593 66.938 39.9539L65.8266 39.3374C65.4419 39.1319 65.4419 38.762 65.8266 38.5565C66.2113 38.351 66.8525 38.351 67.2372 38.5565L68.3486 39.173C68.776 39.3785 68.776 39.7484 68.3486 39.9539Z" fill="#00FFFF"/>
<path d="M95.4057 35.1499L95.021 35.3554L87.6262 31.2454L78.8635 26.3957C78.778 26.3546 78.7353 26.2313 78.778 26.1491C78.8207 26.0669 78.949 26.0258 79.0345 26.0669L87.9681 30.9988L95.2775 35.0677C95.363 35.1088 95.363 35.1088 95.4057 35.1499Z" fill="#F4F6FA"/>
<path d="M79.8042 25.8574C80.2316 26.104 80.2316 26.4739 79.8042 26.6794C79.3767 26.8849 78.7356 26.926 78.3081 26.6794C77.8807 26.4328 77.8807 26.0629 78.3081 25.8574C78.7356 25.6519 79.3767 25.6108 79.8042 25.8574Z" fill="#00FFFF"/>
<path d="M108.56 96.0032H107.193C104.756 93.044 99.413 90.9479 93.1295 90.9068C86.7178 90.8657 81.2037 92.9618 78.7245 96.0032H77.3567V99.9487C77.7414 104.511 84.4523 108.127 92.7448 108.21C101.166 108.251 108.09 104.593 108.475 99.9487H108.518V96.0032H108.56Z" fill="#043647"/>
<path d="M108.561 96.5386C108.475 101.306 101.422 105.169 92.7879 105.087C84.1534 105.046 77.2715 101.142 77.357 96.3742C77.4425 91.6066 84.4954 87.7433 93.1298 87.8255C101.722 87.8666 108.646 91.771 108.561 96.5386Z" fill="#25B4CB"/>
<path d="M93.9847 99.4423C93.3008 99.4423 92.6168 99.2779 91.8902 98.8669L91.591 98.7025L93.6 97.5928L93.8137 97.7161C94.1557 97.9216 94.4549 98.0038 94.6686 98.0038C94.9251 98.0038 95.1388 97.9627 95.3525 97.8394C95.5662 97.7161 95.6517 97.5928 95.6517 97.4695C95.609 97.3462 95.5235 97.1818 95.3098 97.0996C95.0533 96.9763 94.7968 96.8941 94.4549 96.8941C94.1557 96.8941 93.8137 96.9352 93.4717 97.0174C93.1298 97.0996 92.7451 97.1818 92.3604 97.264C91.9757 97.3462 91.5482 97.4284 91.1635 97.4695C90.7361 97.5106 90.3086 97.4695 89.8812 97.4284C89.4537 97.3462 88.9835 97.1818 88.5561 96.9352C87.1882 96.1544 87.06 95.3324 88.2141 94.4693L87.5729 94.0994L88.5988 93.524L89.24 93.8939C90.0522 93.524 90.8216 93.3596 91.5482 93.4007C92.2749 93.4418 93.0016 93.6473 93.7282 94.0994L91.7619 95.168L91.591 95.0858C91.3772 94.9625 91.1208 94.8803 90.8643 94.8392C90.6078 94.7981 90.3514 94.8392 90.1804 94.9625C89.9667 95.0858 89.8812 95.2091 89.8812 95.3324C89.9239 95.4557 90.0094 95.579 90.1804 95.7023C90.4369 95.8667 90.7361 95.9078 91.0353 95.9078C91.3345 95.9078 91.6765 95.8667 92.0612 95.7845C92.4031 95.7023 92.7878 95.6201 93.1725 95.4968C93.5572 95.4146 93.9847 95.3324 94.4121 95.2913C94.8396 95.2502 95.267 95.2502 95.7372 95.3324C96.2074 95.4146 96.6776 95.579 97.1478 95.8256C97.8745 96.2366 98.2592 96.6886 98.2164 97.0996C98.1737 97.5106 97.8317 97.9627 97.1051 98.4148L98.0882 98.9902L97.0623 99.5656L96.0792 98.9902C95.3953 99.2368 94.6686 99.4012 93.9847 99.4423Z" fill="white"/>
<path d="M140.341 34.8252L132.495 27.9574V26.4938L129.627 25.4805L119.908 46.1966L122.777 47.1536L123.186 46.9284V57.2302V59.313V66.969L126.055 67.926V65.3365L132.905 61.5648L137.062 59.2567V36.6829L140.341 34.8252Z" fill="#6F75DB"/>
<path d="M132.496 26.4922L143.21 35.837L139.931 37.6384V60.2122L135.774 62.5765L126.055 67.9244V60.3247V58.2419V45.3506L122.777 47.152L132.496 26.4922Z" fill="#7F86FF"/>
<path d="M26.241 51.9352C32.704 51.6733 37.7149 46.2906 37.4333 39.9126C37.1516 33.5345 31.684 28.5764 25.221 28.8383C18.7581 29.1002 13.7471 34.4829 14.0288 40.861C14.3104 47.239 19.778 52.1971 26.241 51.9352Z" fill="#37AABE"/>
<path d="M25.3712 49.2722L25.278 47.0882C24.0135 47.1137 22.6825 46.7816 21.884 46.2707L22.3498 44.8019C23.1617 45.2873 24.3197 45.6577 25.5442 45.6066C27.1014 45.5427 28.113 44.6104 28.0598 43.3842C28.0065 42.1964 27.1281 41.4939 25.4776 40.9192C23.2149 40.1401 21.7908 39.2077 21.7109 37.3302C21.6311 35.542 22.8689 34.1243 24.8654 33.7156L24.7722 31.5316L26.1298 31.4805L26.223 33.5751C27.5407 33.5623 28.4457 33.8689 29.0979 34.2137L28.6188 35.657C28.1529 35.4143 27.2345 34.9801 25.837 35.0312C24.1466 35.095 23.561 36.1168 23.6009 36.9853C23.6542 38.1093 24.4794 38.6329 26.4226 39.3354C28.7119 40.1528 29.8965 41.2257 29.9897 43.1543C30.0696 44.8658 28.9382 46.5006 26.7021 46.9604L26.7953 49.2084L25.3712 49.2722Z" fill="white"/>
<path d="M26.3314 22.9207C29.9477 22.8713 32.8364 19.9381 32.7836 16.3691C32.7308 12.8002 29.7564 9.94707 26.1401 9.99648C22.5238 10.0459 19.6351 12.9791 19.688 16.5481C19.7408 20.117 22.7152 22.9701 26.3314 22.9207Z" fill="#37AABE"/>
<path d="M25.8763 21.4262L25.863 20.2C25.1576 20.2 24.4122 19.9957 23.9863 19.6891L24.2658 18.8717C24.7051 19.1527 25.3572 19.3826 26.0361 19.3698C26.9012 19.357 27.4868 18.8589 27.4735 18.1692C27.4602 17.5051 26.9811 17.0964 26.0627 16.7515C24.8115 16.2789 24.0263 15.7425 24.0129 14.6824C23.9996 13.6734 24.7051 12.9071 25.8364 12.7155L25.8231 11.4893L26.5818 11.4766L26.5951 12.6516C27.3271 12.6644 27.8329 12.856 28.1923 13.0475L27.8994 13.8522C27.6466 13.7117 27.1275 13.4563 26.3555 13.4563C25.4105 13.469 25.0644 14.031 25.0777 14.5164C25.0911 15.1422 25.5436 15.4487 26.6217 15.8702C27.8861 16.3556 28.5383 16.9814 28.5516 18.0543C28.5649 19.0122 27.8994 19.919 26.6483 20.1362L26.6616 21.3878L25.8763 21.4262Z" fill="white"/>
<path d="M8.47996 29.4611C11.7508 29.4164 14.3635 26.7615 14.3157 23.5311C14.2679 20.3007 11.5777 17.7182 8.30685 17.7629C5.03604 17.8075 2.42327 20.4625 2.47108 23.6929C2.51888 26.9232 5.20915 29.5058 8.47996 29.4611Z" fill="#37AABE"/>
<path d="M8.07392 28.105L8.06061 27.0065C7.42173 27.0065 6.75623 26.815 6.35693 26.5467L6.60982 25.8059C7.00912 26.0614 7.59476 26.2657 8.20702 26.253C8.9923 26.2402 9.5247 25.7804 9.51139 25.1673C9.49808 24.567 9.05885 24.1966 8.23363 23.8773C7.10229 23.4558 6.39686 22.9577 6.38355 22.0126C6.37024 21.1058 7.00912 20.4033 8.03399 20.2245L8.02067 19.1261L8.71279 19.1133L8.7261 20.1734C9.3916 20.1861 9.84413 20.3522 10.1769 20.531L9.91068 21.259C9.67111 21.1313 9.21857 20.9014 8.51314 20.9014C7.66131 20.9142 7.34187 21.4251 7.35518 21.8593C7.36849 22.4341 7.7811 22.7023 8.75272 23.0855C9.89738 23.5325 10.483 24.0945 10.4963 25.0652C10.5096 25.9337 9.91068 26.7511 8.77934 26.9427L8.79265 28.0794L8.07392 28.105Z" fill="white"/>
</g>
<defs>
<linearGradient id="paint0_linear_6260_4074" x1="120.995" y1="57.8059" x2="-10.7476" y2="90.8546" gradientUnits="userSpaceOnUse">
<stop stop-color="#C7D3E5"/>
<stop offset="0.3307" stop-color="#DCE7F1"/>
<stop offset="0.7277" stop-color="#F0F9FB"/>
<stop offset="1" stop-color="#F7FFFF"/>
</linearGradient>
<linearGradient id="paint1_linear_6260_4074" x1="94.3943" y1="14.6264" x2="94.3943" y2="55.3408" gradientUnits="userSpaceOnUse">
<stop stop-color="#2EC6BA"/>
<stop offset="0.4238" stop-color="#25B6B2"/>
<stop offset="1" stop-color="#1499A3"/>
</linearGradient>
</defs>
</svg>
