<svg width="800" height="456" viewBox="0 0 800 456" fill="none" xmlns="http://www.w3.org/2000/svg">
<g clip-path="url(#clip0_6316_2759)">
<path d="M137.566 322.597C85.0794 317.906 23.9859 409.578 0 456H800V176C795.767 202.387 713.228 256.628 611.64 217.047C510.053 177.466 380.952 230.241 374.603 310.869C368.254 391.497 289.947 390.031 251.852 376.838C213.757 363.644 203.175 328.461 137.566 322.597Z" fill="url(#paint0_linear_6316_2759)" fill-opacity="0.8"/>
<g filter="url(#filter0_d_6316_2759)">
<path d="M514.945 292.113L525.639 415.998H480.011L490.705 292.113H514.945Z" fill="url(#paint1_linear_6316_2759)"/>
<path d="M583.722 182.877L576.124 185.977L602.612 251.877L610.21 248.777L583.722 182.877Z" fill="#42E8E0"/>
<path d="M437.949 177.927C452.124 177.927 463.614 166.352 463.614 152.073C463.614 137.794 452.124 126.219 437.949 126.219C423.775 126.219 412.284 137.794 412.284 152.073C412.284 166.352 423.775 177.927 437.949 177.927Z" fill="url(#paint2_linear_6316_2759)"/>
<path d="M570.55 190.49C570.55 240.762 540.964 281.698 504.248 281.698C467.533 281.698 437.947 240.762 437.947 190.49C437.947 140.218 467.533 125.137 504.248 125.137C540.964 125.137 570.55 140.218 570.55 190.49Z" fill="url(#paint3_linear_6316_2759)"/>
<path d="M536.333 170.741C518.51 181.154 489.993 181.154 472.17 170.741C454.347 160.327 454.347 143.81 472.17 133.396C489.993 122.983 518.51 122.983 536.333 133.396C554.156 143.81 554.156 160.687 536.333 170.741Z" fill="url(#paint4_linear_6316_2759)"/>
<path d="M472.169 140.578C489.992 130.164 518.509 130.164 536.333 140.578C543.818 144.887 548.096 150.273 549.165 155.659C550.947 147.759 546.67 139.501 536.333 133.396C518.509 122.983 489.992 122.983 472.169 133.396C461.832 139.501 457.554 147.759 459.337 155.659C460.763 150.273 465.04 144.887 472.169 140.578Z" fill="#1E6672"/>
<path d="M579.822 210.243C593.996 210.243 605.487 198.668 605.487 184.389C605.487 170.11 593.996 158.535 579.822 158.535C565.647 158.535 554.156 170.11 554.156 184.389C554.156 198.668 565.647 210.243 579.822 210.243Z" fill="url(#paint5_linear_6316_2759)"/>
<path d="M580.534 210.599C594.709 210.599 606.199 199.024 606.199 184.745C606.199 170.466 594.709 158.891 580.534 158.891C566.36 158.891 554.869 170.466 554.869 184.745C554.869 199.024 566.36 210.599 580.534 210.599Z" fill="url(#paint6_linear_6316_2759)"/>
<path d="M620.81 270.209C619.385 282.418 608.693 305.758 598.713 304.681C589.091 303.604 584.101 278.108 585.526 265.9C586.952 253.691 596.219 244.714 605.841 245.791C615.464 246.868 622.236 258 620.81 270.209Z" fill="url(#paint7_radial_6316_2759)"/>
<path d="M620.81 270.209C619.385 282.418 608.693 305.758 598.713 304.681C589.091 303.604 584.101 278.108 585.526 265.9C586.952 253.691 596.219 244.714 605.841 245.791C615.464 246.868 622.236 258 620.81 270.209Z" fill="url(#paint8_linear_6316_2759)"/>
<path d="M523.498 292.11H483.218L486.426 278.465H519.934L523.498 292.11Z" fill="#23ABD8"/>
<path opacity="0.47" d="M519.936 278.465H509.957L511.739 292.11H523.5L519.936 278.465Z" fill="#96CCCA"/>
<path opacity="0.47" d="M486.426 278.465H496.405L494.979 292.11H483.218L486.426 278.465Z" fill="#96CCCA"/>
<path d="M373.501 200.043C371.138 200.414 369.426 198.732 368.95 196.694C368.705 195.107 369.478 193.848 370.483 193.04L417.199 160.203C419.1 158.93 421.585 159.353 422.509 161.158C423.773 163.073 423.353 165.576 421.561 166.507L374.953 199.003C374.736 199.687 373.949 199.811 373.501 200.043Z" fill="#74FEF7"/>
<path d="M376.045 214.432C366.773 221.248 343.419 228.808 338.024 221.04C332.63 213.271 346.703 193.676 356.315 186.969C365.587 180.152 377.768 180.681 383.271 188.108C388.666 195.876 385.656 207.725 376.045 214.432Z" fill="url(#paint9_radial_6316_2759)"/>
<g filter="url(#filter1_d_6316_2759)">
<path d="M376.045 214.432C366.773 221.248 343.419 228.808 338.024 221.04C332.63 213.271 346.703 193.676 356.315 186.969C365.587 180.152 377.768 180.681 383.271 188.108C388.666 195.876 385.656 207.725 376.045 214.432Z" fill="url(#paint10_linear_6316_2759)"/>
</g>
<path d="M486.068 49.7366C486.068 61.2273 477.871 75.5907 467.892 81.3361C457.913 87.0815 449.715 82.4134 449.715 70.9226C449.715 59.4319 457.913 45.0685 467.892 39.3231C477.871 33.2186 486.068 37.8868 486.068 49.7366Z" fill="#BCBEFF"/>
<path d="M496.765 65.5352C496.052 69.4851 496.765 75.2305 504.963 79.1804C521.004 87.4394 533.837 74.8714 542.035 80.6168C548.095 84.9258 545.244 98.2119 530.272 103.239C514.588 108.625 494.982 105.035 493.557 89.2348C493.557 83.1304 493.913 77.0259 494.982 71.2805C495.339 69.4851 496.052 67.3306 496.765 65.5352Z" fill="#19212C"/>
<path d="M503.897 16.6953C475.38 16.6953 450.427 35.3678 442.229 62.6583C444.724 63.3765 445.437 65.531 445.437 68.0446C444.724 73.79 443.298 79.1762 443.298 84.9216C443.298 87.0761 441.872 88.8716 440.09 89.2306C444.367 124.78 476.449 149.916 511.739 145.607C547.028 141.298 571.981 108.98 567.703 73.4309C563.782 41.1131 536.335 16.6953 503.897 16.6953Z" fill="url(#paint11_linear_6316_2759)"/>
<path d="M503.895 16C475.734 16 451.138 34.3134 442.583 61.6039C444.722 61.963 446.148 64.4766 445.792 66.6311C445.792 66.6311 445.792 66.6311 445.792 66.9902C444.366 73.0946 442.227 80.2763 444.009 86.7399C444.722 89.6126 442.94 91.7671 440.445 92.1261C446.504 127.317 479.655 151.016 514.589 144.912C549.522 138.807 573.048 105.412 566.989 70.2219C561.998 38.6224 535.263 16 503.895 16Z" fill="url(#paint12_linear_6316_2759)"/>
<path d="M522.429 88.5124C522.429 88.1534 522.429 87.7943 522.429 87.4352L522.072 86.3579C522.072 85.6398 521.716 84.9216 521.36 84.5625C520.647 90.3079 517.438 96.4123 511.735 101.44C496.764 114.367 470.742 117.239 453.632 108.262C447.216 105.03 442.938 100.362 440.799 95.3351C441.156 97.4896 441.512 99.6441 442.225 101.799C442.938 103.953 444.007 106.108 445.077 107.903C445.433 108.262 445.79 108.98 446.146 109.339C448.641 111.853 451.493 114.008 454.701 115.444C472.168 124.421 498.19 121.189 512.804 108.621C519.577 102.158 522.785 94.976 522.429 88.5124Z" fill="#1E6672"/>
<path d="M517.085 77.7363C504.252 68.4 483.577 88.5088 457.912 75.2227C446.862 69.4773 444.723 61.9365 444.723 55.832C443.653 58.7047 442.584 61.5774 441.871 64.4501C440.445 73.0681 439.732 82.0453 439.732 91.0224C441.515 116.158 473.24 122.263 498.548 113.645C522.431 105.745 527.065 84.918 517.085 77.7363Z" fill="url(#paint13_linear_6316_2759)"/>
<path d="M449.715 93.1856C450.071 93.1856 450.428 92.826 450.428 92.4664C450.428 91.7471 450.071 90.6682 449.002 90.3086H448.646C448.289 90.3086 447.933 90.6682 447.933 91.0278C447.933 91.7471 448.289 92.826 449.358 93.1856H449.715Z" fill="url(#paint14_radial_6316_2759)"/>
<path d="M452.921 98.9299C451.139 99.6481 448.288 97.4936 446.15 93.5437C444.011 89.5937 443.655 85.6438 445.437 84.5665C447.219 83.8484 450.07 86.0029 452.208 89.9528C454.347 93.9028 454.703 97.8527 452.921 98.9299Z" fill="#00FF3C"/>
<path d="M449.715 93.1856C450.071 93.1856 450.428 92.826 450.428 92.4664C450.428 91.7471 450.071 90.6682 449.002 90.3086H448.646C448.289 90.3086 447.933 90.6682 447.933 91.0278C447.933 91.7471 448.289 92.826 449.358 93.1856H449.715Z" fill="url(#paint15_radial_6316_2759)"/>
<path d="M449.715 88.8809C450.071 88.8809 450.428 88.5213 450.428 88.1617C450.428 87.4424 450.071 86.3635 449.002 86.0039H448.646C448.289 86.0039 447.933 86.3635 447.933 86.7232C447.933 87.4424 448.289 88.5213 449.358 88.8809C449.358 88.5213 449.715 88.5213 449.715 88.8809Z" fill="url(#paint16_radial_6316_2759)"/>
<path d="M452.902 94.4091C454.63 93.4596 454.278 89.4415 452.115 85.4344C449.953 81.4273 446.799 78.9486 445.071 79.898C443.343 80.8475 443.695 84.8656 445.858 88.8727C448.02 92.8798 451.174 95.3586 452.902 94.4091Z" fill="#00FF3C"/>
<path d="M449.715 88.8809C450.071 88.8809 450.428 88.5213 450.428 88.1617C450.428 87.4424 450.071 86.3635 449.002 86.0039H448.646C448.289 86.0039 447.933 86.3635 447.933 86.7232C447.933 87.4424 448.289 88.5213 449.358 88.8809C449.358 88.5213 449.715 88.5213 449.715 88.8809Z" fill="url(#paint17_radial_6316_2759)"/>
<path d="M449.715 83.8497C450.071 83.8497 450.428 83.4901 450.428 83.1304C450.428 82.4112 450.071 81.3323 449.002 80.9727H448.646C448.289 80.9727 447.933 81.3323 447.933 81.6919C447.933 82.4112 448.289 83.4901 449.358 83.8497C449.358 83.8497 449.358 83.8497 449.715 83.8497Z" fill="url(#paint18_radial_6316_2759)"/>
<path d="M452.921 89.594C451.139 90.3122 448.288 88.1577 446.15 84.2077C444.011 80.2578 443.655 76.3078 445.437 75.2306C447.219 74.5124 450.07 76.6669 452.208 80.6169C454.347 84.9259 454.703 88.8758 452.921 89.594Z" fill="#00FF3C"/>
<path d="M449.715 83.8497C450.071 83.8497 450.428 83.4901 450.428 83.1304C450.428 82.4112 450.071 81.3323 449.002 80.9727H448.646C448.289 80.9727 447.933 81.3323 447.933 81.6919C447.933 82.4112 448.289 83.4901 449.358 83.8497C449.358 83.8497 449.358 83.8497 449.715 83.8497Z" fill="url(#paint19_radial_6316_2759)"/>
<path d="M452.921 98.9299C451.139 99.6481 448.288 97.4936 446.15 93.5437C444.011 89.5937 443.655 85.6438 445.437 84.5665C447.219 83.8484 450.07 86.0029 452.208 89.9528C454.347 93.9028 454.703 97.8527 452.921 98.9299Z" fill="#42E8E0"/>
<path d="M452.902 94.4091C454.63 93.4596 454.278 89.4415 452.115 85.4344C449.953 81.4273 446.799 78.9486 445.071 79.898C443.343 80.8475 443.695 84.8656 445.858 88.8727C448.02 92.8798 451.174 95.3586 452.902 94.4091Z" fill="#42E8E0"/>
<path d="M452.921 89.594C451.139 90.3122 448.288 88.1577 446.15 84.2077C444.011 80.2578 443.655 76.3078 445.437 75.2306C447.219 74.5124 450.07 76.6669 452.208 80.6169C454.347 84.9259 454.703 88.8758 452.921 89.594Z" fill="#42E8E0"/>
<path d="M471.46 103.959C471.817 103.959 472.173 103.599 472.173 103.24C472.173 102.521 471.817 101.442 470.747 101.082H470.391C470.035 101.082 469.678 101.442 469.678 101.801C469.678 102.521 470.035 103.599 471.104 103.959C471.104 103.599 471.46 103.959 471.46 103.959Z" fill="url(#paint20_radial_6316_2759)"/>
<path d="M475.021 109.34C473.239 110.058 470.388 107.904 468.249 103.954C466.111 100.004 465.754 96.0539 467.536 94.9767C469.318 94.2585 472.17 96.413 474.308 100.363C476.446 104.313 476.446 108.622 475.021 109.34Z" fill="#00FF3C"/>
<path d="M471.46 103.959C471.817 103.959 472.173 103.599 472.173 103.24C472.173 102.521 471.817 101.442 470.747 101.082H470.391C470.035 101.082 469.678 101.442 469.678 101.801C469.678 102.521 470.035 103.599 471.104 103.959C471.104 103.599 471.46 103.959 471.46 103.959Z" fill="url(#paint21_radial_6316_2759)"/>
<path d="M471.46 99.2872C471.817 99.2872 472.173 98.9276 472.173 98.5679C472.173 97.8487 471.817 96.7698 470.747 96.4102H470.391C470.035 96.4102 469.678 96.7698 469.678 97.1294C469.678 97.8487 470.035 98.9276 471.104 99.2872H471.46Z" fill="url(#paint22_radial_6316_2759)"/>
<path d="M475.063 105.054C476.791 104.104 476.439 100.086 474.276 96.079C472.114 92.0718 468.96 89.5931 467.232 90.5426C465.504 91.492 465.856 95.5101 468.019 99.5173C470.181 103.524 473.335 106.003 475.063 105.054Z" fill="#00FF3C"/>
<path d="M471.46 99.2872C471.817 99.2872 472.173 98.9276 472.173 98.5679C472.173 97.8487 471.817 96.7698 470.747 96.4102H470.391C470.035 96.4102 469.678 96.7698 469.678 97.1294C469.678 97.8487 470.035 98.9276 471.104 99.2872H471.46Z" fill="url(#paint23_radial_6316_2759)"/>
<path d="M471.46 94.6192C471.817 94.6192 472.173 94.2596 472.173 93.9C472.173 93.1807 471.817 92.1018 470.747 91.7422H470.391C470.035 91.7422 469.678 92.1018 469.678 92.4614C469.678 93.1807 470.035 94.2596 471.104 94.6192H471.46Z" fill="url(#paint24_radial_6316_2759)"/>
<path d="M475.021 100.368C473.239 101.086 470.388 98.9312 468.249 94.9812C466.111 91.0313 465.754 87.0814 467.536 86.0041C469.318 84.9268 472.17 87.4404 474.308 91.3904C476.09 95.3403 476.446 99.2903 475.021 100.368Z" fill="#00FF3C"/>
<path d="M471.46 94.6192C471.817 94.6192 472.173 94.2596 472.173 93.9C472.173 93.1807 471.817 92.1018 470.747 91.7422H470.391C470.035 91.7422 469.678 92.1018 469.678 92.4614C469.678 93.1807 470.035 94.2596 471.104 94.6192H471.46Z" fill="url(#paint25_radial_6316_2759)"/>
<path d="M475.021 109.34C473.239 110.058 470.388 107.904 468.249 103.954C466.111 100.004 465.754 96.0539 467.536 94.9767C469.318 94.2585 472.17 96.413 474.308 100.363C476.446 104.313 476.446 108.622 475.021 109.34Z" fill="#42E8E0"/>
<path d="M475.063 105.054C476.791 104.104 476.439 100.086 474.276 96.079C472.114 92.0718 468.96 89.5931 467.232 90.5426C465.504 91.492 465.856 95.5101 468.019 99.5173C470.181 103.524 473.335 106.003 475.063 105.054Z" fill="#42E8E0"/>
<path d="M475.021 100.368C473.239 101.086 470.388 98.9312 468.249 94.9812C466.111 91.0313 465.754 87.0814 467.536 86.0041C469.318 84.9268 472.17 87.4404 474.308 91.3904C476.09 95.3403 476.446 99.2903 475.021 100.368Z" fill="#42E8E0"/>
</g>
</g>
<defs>
<filter id="filter0_d_6316_2759" x="316.153" y="-1.4959" width="325.524" height="441.35" filterUnits="userSpaceOnUse" color-interpolation-filters="sRGB">
<feFlood flood-opacity="0" result="BackgroundImageFix"/>
<feColorMatrix in="SourceAlpha" type="matrix" values="0 0 0 0 0 0 0 0 0 0 0 0 0 0 0 0 0 0 127 0" result="hardAlpha"/>
<feOffset dy="3.18107"/>
<feGaussianBlur stdDeviation="10.3385"/>
<feColorMatrix type="matrix" values="0 0 0 0 0.124514 0 0 0 0 0.679167 0 0 0 0 0.652436 0 0 0 0.16 0"/>
<feBlend mode="normal" in2="BackgroundImageFix" result="effect1_dropShadow_6316_2759"/>
<feBlend mode="normal" in="SourceGraphic" in2="effect1_dropShadow_6316_2759" result="shape"/>
</filter>
<filter id="filter1_d_6316_2759" x="333.649" y="178.999" width="55.4635" height="48.5106" filterUnits="userSpaceOnUse" color-interpolation-filters="sRGB">
<feFlood flood-opacity="0" result="BackgroundImageFix"/>
<feColorMatrix in="SourceAlpha" type="matrix" values="0 0 0 0 0 0 0 0 0 0 0 0 0 0 0 0 0 0 127 0" result="hardAlpha"/>
<feOffset/>
<feGaussianBlur stdDeviation="1.59054"/>
<feColorMatrix type="matrix" values="0 0 0 0 0 0 0 0 0 0 0 0 0 0 0 0 0 0 0.1 0"/>
<feBlend mode="normal" in2="BackgroundImageFix" result="effect1_dropShadow_6316_2759"/>
<feBlend mode="normal" in="SourceGraphic" in2="effect1_dropShadow_6316_2759" result="shape"/>
</filter>
<linearGradient id="paint0_linear_6316_2759" x1="375.934" y1="96.8696" x2="420.582" y2="471.387" gradientUnits="userSpaceOnUse">
<stop stop-color="#6AD0C8"/>
<stop offset="1" stop-color="#D5F2F2"/>
</linearGradient>
<linearGradient id="paint1_linear_6316_2759" x1="502.792" y1="292.162" x2="502.792" y2="415.935" gradientUnits="userSpaceOnUse">
<stop stop-color="white"/>
<stop offset="1" stop-color="#C9C9C9" stop-opacity="0"/>
</linearGradient>
<linearGradient id="paint2_linear_6316_2759" x1="412.514" y1="147.16" x2="463.017" y2="157.085" gradientUnits="userSpaceOnUse">
<stop stop-color="#F7F7F7"/>
<stop offset="0.55" stop-color="#F2F2F9"/>
<stop offset="1" stop-color="#E9E9FD"/>
</linearGradient>
<linearGradient id="paint3_linear_6316_2759" x1="437.841" y1="203.363" x2="570.685" y2="203.363" gradientUnits="userSpaceOnUse">
<stop stop-color="#F7F7F7"/>
<stop offset="0.55" stop-color="#F2F2F9"/>
<stop offset="1" stop-color="#E9E9FD"/>
</linearGradient>
<linearGradient id="paint4_linear_6316_2759" x1="458.967" y1="152.191" x2="549.617" y2="152.191" gradientUnits="userSpaceOnUse">
<stop stop-color="#42E8E0"/>
<stop offset="0.18" stop-color="#41E3DD"/>
<stop offset="0.38" stop-color="#3CD5D3"/>
<stop offset="0.61" stop-color="#35BDC3"/>
<stop offset="0.84" stop-color="#2C9CAD"/>
<stop offset="1" stop-color="#24819B"/>
</linearGradient>
<linearGradient id="paint5_linear_6316_2759" x1="554.527" y1="179.464" x2="605.03" y2="189.389" gradientUnits="userSpaceOnUse">
<stop stop-color="#F7F7F7"/>
<stop offset="0.55" stop-color="#F2F2F9"/>
<stop offset="1" stop-color="#E9E9FD"/>
</linearGradient>
<linearGradient id="paint6_linear_6316_2759" x1="559.737" y1="199.885" x2="601.575" y2="169.709" gradientUnits="userSpaceOnUse">
<stop stop-color="#F7F7F7"/>
<stop offset="0.55" stop-color="#F2F2F9"/>
<stop offset="1" stop-color="#E9E9FD"/>
</linearGradient>
<radialGradient id="paint7_radial_6316_2759" cx="0" cy="0" r="1" gradientUnits="userSpaceOnUse" gradientTransform="translate(603.324 277.043) rotate(6.94379) scale(17.8228 29.5898)">
<stop stop-color="#2BB675"/>
<stop offset="1" stop-color="#14444F"/>
</radialGradient>
<linearGradient id="paint8_linear_6316_2759" x1="582.68" y1="272.959" x2="618.013" y2="277.266" gradientUnits="userSpaceOnUse">
<stop stop-color="#F7F7F7"/>
<stop offset="0.55" stop-color="#F2F2F9"/>
<stop offset="1" stop-color="#E9E9FD"/>
</linearGradient>
<radialGradient id="paint9_radial_6316_2759" cx="0" cy="0" r="1" gradientUnits="userSpaceOnUse" gradientTransform="translate(408.774 164.335) rotate(54.5421) scale(43.6643 71.6195)">
<stop stop-color="#2BB675"/>
<stop offset="1" stop-color="#23ABD8"/>
</radialGradient>
<linearGradient id="paint10_linear_6316_2759" x1="380.043" y1="201.536" x2="341.852" y2="196.768" gradientUnits="userSpaceOnUse">
<stop stop-color="white"/>
<stop offset="0.55" stop-color="#F2F2F9"/>
<stop offset="1" stop-color="#E9E9FD"/>
</linearGradient>
<linearGradient id="paint11_linear_6316_2759" x1="439.672" y1="81.3893" x2="568.077" y2="81.3893" gradientUnits="userSpaceOnUse">
<stop stop-color="#F7F7F7"/>
<stop offset="0.55" stop-color="#F2F2F9"/>
<stop offset="1" stop-color="#E9E9FD"/>
</linearGradient>
<linearGradient id="paint12_linear_6316_2759" x1="495.573" y1="144.67" x2="513.707" y2="16.6033" gradientUnits="userSpaceOnUse">
<stop stop-color="#F7F7F7"/>
<stop offset="0.55" stop-color="#F2F2F9"/>
<stop offset="1" stop-color="#E9E9FD"/>
</linearGradient>
<linearGradient id="paint13_linear_6316_2759" x1="439.857" y1="86.6983" x2="522.01" y2="86.6983" gradientUnits="userSpaceOnUse">
<stop stop-color="#00ACBF"/>
<stop offset="0.29" stop-color="#04A7BB"/>
<stop offset="0.63" stop-color="#1099AF"/>
<stop offset="1" stop-color="#24819B"/>
</linearGradient>
<radialGradient id="paint14_radial_6316_2759" cx="0" cy="0" r="1" gradientUnits="userSpaceOnUse" gradientTransform="translate(449.137 91.6633) rotate(180) scale(1.39176 1.40435)">
<stop stop-color="white"/>
<stop offset="1" stop-color="#95FDA8"/>
</radialGradient>
<radialGradient id="paint15_radial_6316_2759" cx="0" cy="0" r="1" gradientUnits="userSpaceOnUse" gradientTransform="translate(449.137 91.6633) rotate(180) scale(1.39176 1.40435)">
<stop stop-color="white"/>
<stop offset="1" stop-color="#95FDA8"/>
</radialGradient>
<radialGradient id="paint16_radial_6316_2759" cx="0" cy="0" r="1" gradientUnits="userSpaceOnUse" gradientTransform="translate(449.132 87.1166) scale(1.39069 1.40327)">
<stop stop-color="white"/>
<stop offset="1" stop-color="#95FDA8"/>
</radialGradient>
<radialGradient id="paint17_radial_6316_2759" cx="0" cy="0" r="1" gradientUnits="userSpaceOnUse" gradientTransform="translate(449.132 87.1166) scale(1.39069 1.40327)">
<stop stop-color="white"/>
<stop offset="1" stop-color="#95FDA8"/>
</radialGradient>
<radialGradient id="paint18_radial_6316_2759" cx="0" cy="0" r="1" gradientUnits="userSpaceOnUse" gradientTransform="translate(449.115 82.4345) scale(1.39318 1.40579)">
<stop stop-color="white"/>
<stop offset="1" stop-color="#95FDA8"/>
</radialGradient>
<radialGradient id="paint19_radial_6316_2759" cx="0" cy="0" r="1" gradientUnits="userSpaceOnUse" gradientTransform="translate(449.115 82.4345) scale(1.39318 1.40579)">
<stop stop-color="white"/>
<stop offset="1" stop-color="#95FDA8"/>
</radialGradient>
<radialGradient id="paint20_radial_6316_2759" cx="0" cy="0" r="1" gradientUnits="userSpaceOnUse" gradientTransform="translate(471.02 102.242) scale(1.39318 1.40579)">
<stop stop-color="white"/>
<stop offset="1" stop-color="#95FDA8"/>
</radialGradient>
<radialGradient id="paint21_radial_6316_2759" cx="0" cy="0" r="1" gradientUnits="userSpaceOnUse" gradientTransform="translate(471.02 102.242) scale(1.39318 1.40579)">
<stop stop-color="white"/>
<stop offset="1" stop-color="#95FDA8"/>
</radialGradient>
<radialGradient id="paint22_radial_6316_2759" cx="0" cy="0" r="1" gradientUnits="userSpaceOnUse" gradientTransform="translate(471.02 97.6922) scale(1.39069 1.40327)">
<stop stop-color="white"/>
<stop offset="1" stop-color="#95FDA8"/>
</radialGradient>
<radialGradient id="paint23_radial_6316_2759" cx="0" cy="0" r="1" gradientUnits="userSpaceOnUse" gradientTransform="translate(471.02 97.6922) scale(1.39069 1.40327)">
<stop stop-color="white"/>
<stop offset="1" stop-color="#95FDA8"/>
</radialGradient>
<radialGradient id="paint24_radial_6316_2759" cx="0" cy="0" r="1" gradientUnits="userSpaceOnUse" gradientTransform="translate(471.002 93.0138) scale(1.39318 1.40579)">
<stop stop-color="white"/>
<stop offset="1" stop-color="#95FDA8"/>
</radialGradient>
<radialGradient id="paint25_radial_6316_2759" cx="0" cy="0" r="1" gradientUnits="userSpaceOnUse" gradientTransform="translate(471.002 93.0138) scale(1.39318 1.40579)">
<stop stop-color="white"/>
<stop offset="1" stop-color="#95FDA8"/>
</radialGradient>
<clipPath id="clip0_6316_2759">
<rect width="800" height="456" fill="white"/>
</clipPath>
</defs>
</svg>
