<svg width="120" height="100" viewBox="0 0 120 100" fill="none" xmlns="http://www.w3.org/2000/svg">
<g opacity="0.7">
<path d="M97.9406 84.3394C95.9608 86.3967 94.0872 87.7262 92.6103 88.7759C75.2167 101.106 54.6354 97.5124 50.2614 96.6342C43.8012 95.3396 31.3165 92.8345 22.2885 82.3451C8.63144 66.478 10.7565 41.4825 21.3499 24.9821C23.2873 21.9626 33.523 5.21379 54.3273 2.5267C66.9183 0.899757 81.5918 4.18164 92.2207 12.9777C114.53 31.4409 112.94 68.7417 97.9406 84.3394Z" fill="#305263"/>
<path d="M9.47924 35.0099L61.9623 51.8906L55.3268 71.9689L2.84376 55.0882L9.47924 35.0099Z" fill="#016A7B"/>
<path d="M55.8186 72.8893L62.9234 51.4079L8.98437 34.0767L1.87113 55.5595L55.8186 72.8893ZM61.0127 52.3678L54.8492 71.0042L3.79863 54.5968L9.96217 35.9604L61.0127 52.3678Z" fill="#42CAE0"/>
<path d="M29.4238 61.4506C24.8238 59.9711 22.3134 55.084 23.8168 50.535C25.3202 45.986 30.2679 43.4977 34.8679 44.9773C39.4679 46.4568 41.9782 51.3439 40.4748 55.8929C38.9715 60.4419 34.0237 62.9302 29.4238 61.4506Z" fill="#1A2B34"/>
<path d="M19.0801 51.329C18.0261 50.9899 17.4509 49.8701 17.7954 48.8277C18.1399 47.7853 19.2736 47.2151 20.3276 47.5541C21.3816 47.8931 21.9568 49.013 21.6123 50.0554C21.2678 51.0978 20.1341 51.668 19.0801 51.329Z" fill="#1A2B34"/>
<path d="M44.4398 59.4972C43.3856 59.1586 42.8107 58.0392 43.1556 56.997C43.5005 55.9547 44.6347 55.3843 45.6888 55.7229C46.743 56.0615 47.3179 57.1809 46.973 58.2231C46.6281 59.2654 45.4939 59.8358 44.4398 59.4972Z" fill="#36B9B1"/>
<path d="M27.865 3.28626L60.0591 48.0469L42.5145 60.3733L10.3204 15.6127L27.865 3.28626Z" fill="#016A7B"/>
<path d="M42.2856 61.4448L61.088 48.2283L28.0498 2.26372L9.24739 15.4802L42.2856 61.4448ZM58.9537 47.8711L42.6462 59.3365L11.373 15.8313L27.6805 4.36586L58.9537 47.8711Z" fill="#40C7DF"/>
<path d="M27.9436 36.5225C25.1185 32.5975 26.0543 27.1507 30.0339 24.3568C34.0134 21.5629 39.5297 22.4798 42.3549 26.4048C45.18 30.3299 44.2441 35.7766 40.2646 38.5705C36.285 41.3644 30.7687 40.4475 27.9436 36.5225Z" fill="#1A2B34"/>
<path d="M29.1507 37.5225L30.9605 36.2516C31.715 37.2624 32.8027 38.0968 33.6941 38.4001L34.5942 37.1335C33.7055 36.7994 32.705 36.1181 31.993 35.1308C31.0902 33.8778 31.2174 32.5094 32.2401 31.7937C33.2277 31.0991 34.3356 31.3592 35.8097 32.2902C37.8234 33.5897 39.4549 34.1219 41.009 33.0299C42.5016 31.986 42.8752 30.1509 41.9788 28.3335L43.7886 27.0626L42.9968 25.9665L41.256 27.188C40.459 26.1537 39.647 25.6319 38.9721 25.3314L38.1045 26.6079C38.5881 26.8256 39.5041 27.277 40.3171 28.4077C41.2997 29.7694 40.8416 30.8647 40.1222 31.3631C39.1897 32.0183 38.2559 31.6916 36.502 30.6085C34.4357 29.3176 32.8411 29.0535 31.2456 30.1751C29.8294 31.1684 29.2054 33.0749 30.2076 35.1111L28.3427 36.4215L29.1507 37.5225Z" fill="#44A0AC"/>
<path d="M25.727 22.1997C25.0825 21.3034 25.2961 20.0596 26.2042 19.4215C27.1123 18.7835 28.371 18.9927 29.0156 19.889C29.6601 20.7852 29.4464 22.029 28.5383 22.6671C27.6302 23.3051 26.3716 23.0959 25.727 22.1997Z" fill="#1A2B34"/>
<path d="M41.2913 43.8285C40.6467 42.9323 40.8603 41.6885 41.7685 41.0505C42.6766 40.4124 43.9354 40.6217 44.5799 41.5179C45.2245 42.4141 45.0109 43.6579 44.1027 44.2959C43.1946 44.9339 41.9359 44.7247 41.2913 43.8285Z" fill="#00212C"/>
<path d="M99.5909 13.1048L81.5485 58.5781L99.306 65.4467L117.348 19.9733L99.5909 13.1048Z" fill="#016A7B"/>
<path d="M99.686 66.3139L80.6684 58.9558L99.2074 12.2314L118.231 19.5845L99.686 66.3139ZM82.4229 58.1956L98.9216 64.5794L116.465 20.3546L99.9661 13.9709L82.4229 58.1956Z" fill="#42CAE0"/>
<path d="M106.69 41.7628C108.272 37.7762 106.292 33.2825 102.267 31.7258C98.2422 30.169 93.6972 32.1388 92.1154 36.1254C90.5336 40.112 92.5141 44.6057 96.5388 46.1625C100.564 47.7192 105.109 45.7494 106.69 41.7628Z" fill="#1A2B34"/>
<path d="M105.799 43.0393L103.983 42.2891C103.532 43.3138 102.76 44.2519 102.053 44.6932L101.023 43.7703C101.722 43.3069 102.454 42.5203 102.876 41.5198C103.397 40.2499 103.019 39.0894 101.988 38.6689C101 38.2628 100.093 38.7029 99.0048 39.8061C97.5182 41.3292 96.226 42.1101 94.6599 41.4669C93.1669 40.8514 92.4754 39.3324 92.8935 37.5779L91.0781 36.8277L91.5415 35.7239L93.2897 36.4416C93.7757 35.3878 94.3684 34.7763 94.888 34.3829L95.8893 35.3194C95.5141 35.6023 94.8172 36.1728 94.3394 37.3181C93.7662 38.6903 94.3753 39.5501 95.0931 39.8474C96.0242 40.2326 96.7711 39.768 98.07 38.4798C99.5946 36.9546 100.92 36.4117 102.522 37.0741C103.942 37.6619 104.865 39.1849 104.401 41.1546L106.274 41.9258L105.799 43.0393Z" fill="#44A0AC"/>
<path d="M105.512 28.9425C105.874 28.029 105.42 26.9993 104.498 26.6426C103.576 26.2859 102.534 26.7372 102.172 27.6507C101.81 28.5642 102.263 29.5939 103.186 29.9506C104.108 30.3073 105.149 29.856 105.512 28.9425Z" fill="#1A2B34"/>
<path d="M35.6634 52.1236V59.4065C35.6634 60.7983 34.5089 61.9402 33.1016 61.9402H27.823C26.4158 61.9402 25.2612 60.7983 25.2612 59.4065V52.1236C25.2612 50.7317 26.4158 49.5899 27.823 49.5899H33.1016C34.5089 49.5842 35.6634 50.726 35.6634 52.1236Z" fill="#76D4E3"/>
<path d="M35.6634 52.1236V56.1797C35.6634 57.5715 34.5089 58.7134 33.1016 58.7134H27.823C26.4158 58.7134 25.2612 57.5715 25.2612 56.1797V52.1236C25.2612 50.7317 26.4158 49.5899 27.823 49.5899H33.1016C34.5089 49.5842 35.6634 50.726 35.6634 52.1236Z" fill="#AAEDF8"/>
<path d="M94.1301 55.7621C94.1301 59.4887 93.3604 63.045 91.9704 66.2831C87.7946 76.0032 78.0357 82.8657 66.7317 82.8657H58.8913C48.8912 82.8657 40.0915 77.4973 35.3069 69.5269C32.883 65.4878 31.4872 60.7783 31.4872 55.7621C31.4872 52.0354 32.2569 48.4791 33.6469 45.241C37.8227 35.5209 47.5816 28.6641 58.8856 28.6641H66.7202C77.0018 28.6641 86.0025 34.3393 90.6895 42.6732C92.8837 46.5533 94.1301 51.0185 94.1301 55.7621Z" fill="#76D5E3"/>
<path d="M90.6953 42.6693C91.3443 45.7938 90.8331 50.2647 90.0002 52.628C84.4689 68.3584 71.4704 71.1989 58.1848 72.3976C48.7361 73.2497 35.3069 69.523 35.3069 69.523C32.883 65.4839 31.4872 60.7744 31.4872 55.7582C31.4872 52.0315 32.2569 48.4752 33.6469 45.2371C37.8227 35.517 47.5816 28.6602 58.8856 28.6602H66.7202C77.0076 28.6602 86.014 34.3297 90.6953 42.6693Z" fill="#AAEDF8"/>
<path d="M55.6637 35.45H44.8824C43.7968 35.45 42.9122 34.7967 42.9122 33.99V19.4355C42.9122 19.1855 42.9926 18.9583 43.1248 18.7651C43.6532 18.0096 45.0375 17.6971 46.0656 18.2766C50.1553 20.5717 56.8641 25.5595 57.6166 33.8934C57.7027 34.7342 56.801 35.45 55.6637 35.45Z" fill="#AAEDF8"/>
<path d="M45.3189 35.4505H44.8824C43.7968 35.4505 42.9122 34.7972 42.9122 33.9905V19.436C42.9122 19.186 42.9926 18.9588 43.1248 18.7656C43.1707 18.8054 43.2167 18.8452 43.2569 18.8963C45.6004 21.4754 48.972 26.5371 48.0243 33.6326C47.8922 34.6665 46.7204 35.4505 45.3189 35.4505Z" fill="#76D4E3"/>
<path d="M41.2462 46.7755C42.1345 46.7755 42.8545 46.0632 42.8545 45.1846C42.8545 44.306 42.1345 43.5938 41.2462 43.5938C40.358 43.5938 39.6379 44.306 39.6379 45.1846C39.6379 46.0632 40.358 46.7755 41.2462 46.7755Z" fill="#1A2B34"/>
<path d="M71.3615 71.3595L68.8054 87.7774C68.4665 89.0499 69.4373 90.294 70.7641 90.294H77.4844C78.9262 90.294 80.2415 89.4987 80.9021 88.2318L91.3445 67.6328L71.3615 71.3595Z" fill="#76D5E3"/>
<path d="M56.0715 71.6424L58.1221 87.7762C58.461 89.0487 57.4903 90.2929 56.1634 90.2929H49.4431C48.0014 90.2929 46.686 89.4975 46.0255 88.2307L35.3131 69.5234L56.0715 71.6424Z" fill="#76D5E3"/>
<path d="M100.661 63.1335C100.506 63.1335 100.351 63.1164 100.202 63.0767C99.0127 62.7642 98.3292 61.361 98.4211 59.4068C98.513 57.4923 99.3229 55.4699 100.644 53.8565C101.23 53.1407 101.902 52.5215 102.66 51.9932C102.304 51.4137 101.827 50.857 101.178 50.3798C100.081 49.5674 98.9438 49.3288 97.7089 49.664C94.3889 50.5559 91.5744 55.2483 91.3446 55.7767C91.2412 56.0607 90.9311 56.2084 90.6381 56.1118C90.3452 56.0153 90.1844 55.7028 90.282 55.4074C90.3796 55.112 91.201 53.7145 92.3498 52.3227C94.3487 49.9026 96.0891 48.988 97.2034 48.6414C98.8519 48.1301 100.414 48.4142 101.85 49.4822C102.562 50.0105 103.154 50.6525 103.608 51.391C104.745 50.7604 106.032 50.3287 107.428 50.1014C107.732 50.0503 108.025 50.2548 108.071 50.5616C108.123 50.8627 107.916 51.1524 107.606 51.1978C106.325 51.408 105.153 51.8057 104.113 52.3851C104.429 53.1464 104.636 53.9815 104.711 54.8848C104.871 56.7424 104.498 58.7762 103.677 60.4577C102.844 62.1677 101.741 63.1335 100.661 63.1335ZM103.154 53.0044C102.545 53.4532 101.994 53.9701 101.517 54.5553C100.345 55.9869 99.6216 57.7707 99.5412 59.4579C99.478 60.7929 99.8628 61.8382 100.483 62.003C101.109 62.1677 102.011 61.3326 102.672 59.9805C103.395 58.4978 103.746 56.6288 103.602 54.987C103.545 54.3905 103.424 53.7031 103.154 53.0044ZM91.3504 55.7539C91.3504 55.7596 91.3504 55.7596 91.3446 55.7653C91.3446 55.7596 91.3504 55.7596 91.3504 55.7539Z" fill="#AAEDF8"/>
<path d="M65.049 33.9138C64.8767 34.0445 64.6929 34.1694 64.5034 34.2831C64.4287 34.3285 64.354 34.3683 64.2794 34.4137C64.0841 34.5217 63.8888 34.6125 63.6877 34.6978C63.6303 34.6864 63.5729 34.675 63.5154 34.6694C63.1536 34.6069 62.7917 34.5557 62.4356 34.5046C62.2575 34.4819 62.0852 34.4535 61.9129 34.4308C61.1891 34.3342 60.4941 34.2603 59.8336 34.1978C59.6555 34.1808 59.4775 34.1638 59.3052 34.1524C59.1673 34.141 59.0352 34.1297 58.8973 34.1183C58.5699 34.0956 58.254 34.0729 57.9496 34.0558C57.5245 33.7547 57.1282 33.3968 56.7893 32.9878C56.5653 32.7151 56.3585 32.414 56.1805 32.0959C54.5894 29.2441 55.6405 25.6594 58.524 24.0858C58.5987 24.046 58.6791 24.0063 58.7537 23.9665C61.597 22.569 65.0778 23.6257 66.6229 26.4036C68.0588 28.9884 67.3351 32.1698 65.049 33.9138Z" fill="#7F86FF"/>
<path d="M64.0612 29.8216C63.9578 29.5716 63.8257 29.3727 63.6649 29.225C63.504 29.0773 63.3087 28.9693 63.0962 28.8955C62.8779 28.8216 62.6367 28.7762 62.3725 28.7591C62.1083 28.7421 61.8153 28.7364 61.5051 28.7477C61.3099 28.7534 61.149 28.7477 61.0112 28.7364C60.8733 28.725 60.7584 28.6966 60.6608 28.6625C60.5632 28.6228 60.4885 28.5716 60.4253 28.5034C60.3679 28.4353 60.3162 28.3557 60.276 28.2648C60.2357 28.1682 60.2128 28.0773 60.207 27.9807C60.2013 27.8898 60.2128 27.7989 60.2472 27.7137C60.2817 27.6285 60.3391 27.5546 60.4138 27.4807C60.4885 27.4069 60.5919 27.3501 60.7182 27.2989C60.948 27.208 61.1663 27.208 61.3673 27.3046C61.5683 27.4012 61.7349 27.6057 61.8613 27.9125L63.0732 27.4239C62.9698 27.1683 62.8377 26.9467 62.6769 26.7705C62.5161 26.5944 62.338 26.4581 62.137 26.3615C61.9359 26.2649 61.7177 26.2081 61.4879 26.191C61.2524 26.174 61.0112 26.1967 60.7527 26.2649L60.4081 25.4297L59.736 25.7024L60.0749 26.5262C59.8337 26.6512 59.6269 26.7933 59.4603 26.9637C59.2938 27.1285 59.1616 27.3103 59.0697 27.4978C58.9778 27.691 58.9319 27.8898 58.9261 28.1057C58.9204 28.3159 58.9663 28.5318 59.0525 28.7534C59.1559 29.0034 59.288 29.208 59.4546 29.35C59.6154 29.4977 59.805 29.6057 60.0232 29.6795C60.2357 29.7534 60.4827 29.7932 60.747 29.8102C61.0169 29.8273 61.3041 29.8216 61.62 29.8102C61.8038 29.7988 61.9589 29.7988 62.091 29.8159C62.2231 29.8273 62.338 29.8557 62.4357 29.8897C62.5333 29.9295 62.6137 29.9807 62.6769 30.0545C62.7401 30.1227 62.7975 30.2136 62.8377 30.3216C62.8779 30.4181 62.8952 30.5147 62.8952 30.6056C62.8952 30.7022 62.8722 30.7931 62.832 30.8783C62.786 30.9636 62.7229 31.0431 62.6367 31.117C62.5505 31.1908 62.4414 31.2533 62.3093 31.3045C62.1944 31.3499 62.0738 31.3783 61.9532 31.3954C61.8326 31.4124 61.7119 31.4011 61.5913 31.3613C61.4764 31.3215 61.3673 31.2533 61.2639 31.1511C61.1605 31.0488 61.0744 30.9068 60.9997 30.7249L59.782 31.2136C59.9083 31.5204 60.0692 31.7647 60.2587 31.9465C60.4483 32.1283 60.6608 32.259 60.8906 32.3328C61.1203 32.4124 61.3558 32.4465 61.6028 32.4351C61.8498 32.4237 62.0968 32.384 62.338 32.3158L62.6539 33.0828L63.3202 32.8158L63.0043 32.0488C63.2455 31.9238 63.4523 31.7817 63.6304 31.617C63.8027 31.4522 63.9348 31.2761 64.0267 31.0886C64.1186 30.9011 64.1646 30.6965 64.1703 30.4863C64.1933 30.2704 64.1531 30.0488 64.0612 29.8216Z" fill="white"/>
<path d="M71.5911 35.9157C71.5107 36.1714 71.235 36.3362 70.9478 36.251C68.3573 35.4498 65.6175 34.9215 62.9121 34.6147C59.9425 34.2794 56.9155 34.2113 55.4852 34.3078C55.2038 34.3249 54.9568 34.1147 54.9396 33.8306C54.9223 33.5522 55.1349 33.3079 55.4221 33.2908C57.6392 33.1602 60.7581 33.3306 63.1131 33.609C65.8128 33.9215 68.61 34.4613 71.2465 35.2737C71.5222 35.3646 71.6715 35.6487 71.5911 35.9157Z" fill="#1A2B34"/>
<path d="M44.9427 95.6399C44.9707 93.9044 39.9423 92.4167 33.7113 92.3171C27.4803 92.2175 22.4063 93.5438 22.3782 95.2793C22.3502 97.0149 27.3786 98.5026 33.6096 98.6022C39.8406 98.7018 44.9146 97.3755 44.9427 95.6399Z" fill="#043647"/>
<path d="M44.939 95.6359L45.0326 93.627L42.9805 93.8981L22.4721 93.2695L22.3785 95.2785L29.0775 97.4538L38.6393 96.4124L44.939 95.6359Z" fill="#043647"/>
<path d="M45.0333 93.6319C45.0614 91.8963 40.0329 90.4087 33.8019 90.3092C27.5709 90.2097 22.497 91.5359 22.4689 93.2715C22.4408 95.0071 27.4693 96.4947 33.7003 96.5943C39.9313 96.6938 45.0053 95.3675 45.0333 93.6319Z" fill="#25B4CB"/>
<path d="M25.1049 93.1082L27.2318 93.139C27.2568 92.8001 27.6435 92.455 28.1737 92.2578L29.5833 92.4242C29.0718 92.6276 28.6664 92.9234 28.6602 93.2561C28.6539 93.6752 29.5147 93.971 30.7185 93.9895C31.8786 94.0079 32.6022 93.7923 33.2384 93.367C34.0929 92.7816 35.0659 92.4242 36.8997 92.455C38.6524 92.4858 39.9747 92.8494 40.2803 93.3979L42.4073 93.4287L42.401 93.7923L40.3552 93.7614C40.3053 94.1127 39.9685 94.3469 39.6067 94.5133L38.2158 94.3469C38.4715 94.2298 38.9393 93.9956 38.9456 93.6197C38.9518 93.1699 37.985 92.985 37.143 92.9665C36.0452 92.948 35.4963 93.1575 34.7291 93.6567C33.8309 94.2483 32.7332 94.5379 30.8557 94.5071C29.1903 94.4824 27.6372 94.1312 27.288 93.5211L25.0924 93.4841L25.1049 93.1082Z" fill="white"/>
<path d="M42.6465 91.3821C42.6746 89.6465 37.6461 88.1589 31.4151 88.0593C25.1842 87.9597 20.1102 89.2859 20.0821 91.0215C20.054 92.7571 25.0825 94.2448 31.3135 94.3444C37.5445 94.4439 42.6184 93.1177 42.6465 91.3821Z" fill="#043647"/>
<path d="M42.6435 91.3837L42.7371 89.3809L40.685 89.6458L20.1766 89.0234L20.083 91.0262L26.7819 93.2077L36.3438 92.1601L42.6435 91.3837Z" fill="#043647"/>
<path d="M42.7433 89.3821C42.7714 87.6465 37.7429 86.1588 31.5119 86.0593C25.2809 85.9597 20.207 87.2859 20.1789 89.0215C20.1508 90.7571 25.1793 92.2448 31.4103 92.3444C37.6413 92.4439 42.7152 91.1177 42.7433 89.3821Z" fill="#25B4CB"/>
<path d="M22.8093 88.8543L24.9363 88.8851C24.9612 88.5462 25.3479 88.2011 25.8781 88.0039L27.2878 88.1703C26.7763 88.3736 26.3709 88.6694 26.3646 89.0022C26.3584 89.4213 27.2192 89.717 28.423 89.7355C29.5831 89.754 30.3066 89.5383 30.9428 89.1131C31.7974 88.5277 32.7704 88.1703 34.6042 88.2011C36.3569 88.2319 37.6792 88.5955 37.9848 89.1439L40.1117 89.1748L40.1055 89.5383L38.0597 89.5075C38.0098 89.8588 37.6729 90.093 37.3112 90.2593L35.9202 90.093C36.176 89.9759 36.6438 89.7417 36.65 89.3658C36.6563 88.9159 35.6895 88.7311 34.8474 88.7126C33.7497 88.6941 33.2008 88.9036 32.4336 89.4028C31.5354 89.9944 30.4376 90.284 28.5602 90.2532C26.8948 90.2285 25.3417 89.8773 24.9924 89.2672L22.7969 89.2302L22.8093 88.8543Z" fill="white"/>
<path d="M45.3515 88.7493C45.3796 87.0137 40.3511 85.526 34.1201 85.4264C27.8891 85.3269 22.8151 86.6531 22.787 88.3887C22.759 90.1243 27.7874 91.612 34.0184 91.7115C40.2494 91.8111 45.3234 90.4849 45.3515 88.7493Z" fill="#043647"/>
<path d="M45.3515 88.743L45.4451 86.7402L43.393 87.0114L22.8846 86.3828L22.791 88.3856L29.4899 90.5671L39.0518 89.5256L45.3515 88.743Z" fill="#043647"/>
<path d="M45.4483 86.7415C45.4764 85.0059 40.4479 83.5183 34.2169 83.4187C27.9859 83.3191 22.9119 84.6453 22.8838 86.3809C22.8558 88.1165 27.8842 89.6042 34.1152 89.7037C40.3462 89.8033 45.4202 88.4771 45.4483 86.7415Z" fill="#25B4CB"/>
<path d="M25.5162 86.2215L27.6432 86.2523C27.6681 85.9134 28.0548 85.5683 28.585 85.3711L29.9947 85.5375C29.4832 85.7408 29.0778 86.0366 29.0715 86.3694C29.0653 86.7885 29.9261 87.0842 31.1299 87.1027C32.29 87.1212 33.0135 86.9055 33.6498 86.4803C34.5043 85.8949 35.4773 85.5375 37.3111 85.5683C39.0638 85.5991 40.3861 85.9627 40.6917 86.5111L42.8249 86.542L42.8187 86.9055L40.7728 86.8747C40.7229 87.226 40.3861 87.4602 40.0243 87.6265L38.6334 87.4602C38.8891 87.3431 39.3569 87.1089 39.3632 86.733C39.3694 86.2831 38.4026 86.0983 37.5606 86.0798C36.4628 86.0613 35.9139 86.2708 35.1467 86.77C34.2485 87.3616 33.1508 87.6512 31.2733 87.6204C29.6079 87.5957 28.0548 87.2445 27.7056 86.6344L25.51 86.5913L25.5162 86.2215Z" fill="white"/>
<path d="M45.3677 85.7571C45.3958 84.0216 40.3673 82.5339 34.1363 82.4343C27.9053 82.3347 22.8314 83.661 22.8033 85.3965C22.7752 87.1321 27.8037 88.6198 34.0347 88.7194C40.2656 88.8189 45.3396 87.4927 45.3677 85.7571Z" fill="#043647"/>
<path d="M45.3697 85.7508L45.4633 83.748L43.4112 84.0192L22.9028 83.3906L22.8092 85.3934L29.5081 87.5749L39.07 86.5335L45.3697 85.7508Z" fill="#043647"/>
<path d="M45.4645 83.7493C45.4926 82.0137 40.4642 80.5261 34.2332 80.4265C28.0021 80.3269 22.9282 81.6531 22.9001 83.3887C22.872 85.1243 27.9005 86.612 34.1315 86.7116C40.3625 86.8111 45.4365 85.4849 45.4645 83.7493Z" fill="#25B4CB"/>
<path d="M25.5346 83.2293L27.6677 83.2601C27.6927 82.9212 28.0794 82.5761 28.6096 82.3789L30.0192 82.5453C29.5077 82.7487 29.1023 83.0445 29.0961 83.3772C29.0898 83.7963 29.9506 84.0921 31.1544 84.1106C32.3145 84.129 33.0381 83.9134 33.6743 83.4882C34.5288 82.9027 35.5018 82.5453 37.3356 82.5761C39.0883 82.6069 40.4106 82.9705 40.7163 83.519L42.8432 83.5498L42.8369 83.9134L40.7911 83.8825C40.7412 84.2338 40.4044 84.468 40.0426 84.6344L38.6517 84.468C38.9074 84.3509 39.3752 84.1167 39.3815 83.7408C39.3877 83.291 38.4209 83.1061 37.5789 83.0876C36.4811 83.0691 35.9322 83.2786 35.165 83.7778C34.2668 84.3694 33.1691 84.659 31.2916 84.6282C29.6263 84.6036 28.0732 84.2523 27.7239 83.6422L25.5283 83.5991L25.5346 83.2293Z" fill="white"/>
<path d="M45.3846 82.9094C45.4126 81.1738 40.3842 79.6862 34.1532 79.5866C27.9222 79.4871 22.8482 80.8133 22.8201 82.5489C22.7921 84.2844 27.8205 85.7721 34.0515 85.8717C40.2825 85.9712 45.3565 84.645 45.3846 82.9094Z" fill="#043647"/>
<path d="M45.382 82.911L45.4756 80.9082L43.4235 81.1793L22.9151 80.5508L22.8215 82.5536L29.5204 84.7351L39.0823 83.6936L45.382 82.911Z" fill="#043647"/>
<path d="M45.4814 80.9094C45.5095 79.1739 40.481 77.6862 34.25 77.5866C28.019 77.4871 22.945 78.8133 22.9169 80.5489C22.8889 82.2844 27.9173 83.7721 34.1483 83.8717C40.3793 83.9713 45.4533 82.645 45.4814 80.9094Z" fill="#25B4CB"/>
<path d="M25.5475 80.3856L27.6744 80.4164C27.6994 80.0774 28.0861 79.7324 28.6163 79.5352L30.0259 79.7015C29.5145 79.9049 29.109 80.2007 29.1028 80.5335C29.0966 80.9525 29.9573 81.2483 31.1611 81.2668C32.3213 81.2853 33.0448 81.0696 33.681 80.6444C34.5355 80.059 35.5086 79.7015 37.3423 79.7324C39.095 79.7632 40.4173 80.1267 40.723 80.6752L42.8499 80.706L42.8437 81.0696L40.7978 81.0388C40.7479 81.39 40.4111 81.6242 40.0493 81.7906L38.6584 81.6242C38.9141 81.5071 39.3819 81.273 39.3882 80.897C39.3944 80.4472 38.4276 80.2623 37.5856 80.2438C36.4878 80.2253 35.9389 80.4349 35.1717 80.934C34.2736 81.5256 33.1758 81.8152 31.2983 81.7844C29.633 81.7598 28.0799 81.4085 27.7306 80.7984L25.535 80.7615L25.5475 80.3856Z" fill="white"/>
<path d="M42.8553 80.6633C42.8834 78.9278 37.8549 77.4401 31.6239 77.3405C25.3929 77.2409 20.3189 78.5672 20.2908 80.3028C20.2628 82.0383 25.2912 83.526 31.5222 83.6256C37.7532 83.7252 42.8272 82.3989 42.8553 80.6633Z" fill="#043647"/>
<path d="M42.8495 80.6711L42.9431 78.6621L40.891 78.9333L20.3826 78.3047L20.2891 80.3075L26.988 82.489L36.5498 81.4475L42.8495 80.6711Z" fill="#043647"/>
<path d="M42.9455 78.6633C42.9735 76.9278 37.9451 75.4401 31.7141 75.3405C25.4831 75.241 20.4091 76.5672 20.381 78.3028C20.353 80.0384 25.3814 81.526 31.6124 81.6256C37.8434 81.7251 42.9174 80.3989 42.9455 78.6633Z" fill="#25B4CB"/>
<path d="M23.0154 78.1434L25.1423 78.1742C25.1673 77.8353 25.554 77.4902 26.0842 77.293L27.4938 77.4594C26.9824 77.6627 26.5769 77.9585 26.5707 78.2913C26.5645 78.7103 27.4252 79.0061 28.629 79.0246C29.7892 79.0431 30.5127 78.8274 31.1489 78.4022C32.0034 77.8168 32.9764 77.4594 34.8102 77.4902C36.5629 77.521 37.8852 77.8846 38.1909 78.433L40.3178 78.4638L40.3116 78.8274L38.2657 78.7966C38.2158 79.1479 37.879 79.382 37.5172 79.5484L36.1263 79.382C36.382 79.2649 36.8498 79.0308 36.8561 78.6549C36.8623 78.205 35.8955 78.0201 35.0535 78.0016C33.9557 77.9832 33.4068 78.1927 32.6396 78.6918C31.7415 79.2834 30.6437 79.5731 28.7662 79.5423C27.1009 79.5176 25.5478 79.1663 25.1985 78.5563L23.0029 78.5193L23.0154 78.1434Z" fill="white"/>
<path d="M46.3311 75.8667C46.3592 74.1311 41.3308 72.6434 35.0998 72.5438C28.8688 72.4442 23.7948 73.7704 23.7667 75.5059C23.7386 77.2415 28.767 78.7292 34.998 78.8288C41.229 78.9285 46.303 77.6023 46.3311 75.8667Z" fill="#043647"/>
<path d="M46.3239 75.8703L46.4237 73.8613L44.3654 74.1325L23.8632 73.5039L23.7634 75.5129L30.4686 77.6882L40.0304 76.6468L46.3239 75.8703Z" fill="#043647"/>
<path d="M46.4218 73.8665C46.4499 72.1309 41.4214 70.6432 35.1904 70.5437C28.9594 70.4441 23.8854 71.7703 23.8574 73.5059C23.8293 75.2415 28.8577 76.7292 35.0887 76.8287C41.3197 76.9283 46.3937 75.6021 46.4218 73.8665Z" fill="#25B4CB"/>
<path d="M26.496 73.3426L28.6229 73.3734C28.6479 73.0345 29.0346 72.6894 29.5647 72.4922L30.9744 72.6586C30.4629 72.8619 30.0575 73.1577 30.0513 73.4905C30.045 73.9096 30.9058 74.2054 32.1096 74.2238C33.2697 74.2423 33.9933 74.0266 34.6295 73.6014C35.484 73.016 36.457 72.6586 38.2908 72.6894C40.0435 72.7202 41.3658 73.0838 41.6714 73.6322L43.7984 73.6631L43.7921 74.0266L41.7588 73.9897C41.7089 74.3409 41.372 74.5751 41.0103 74.7415L39.6194 74.5751C39.8751 74.458 40.3429 74.2238 40.3491 73.8479C40.3554 73.3981 39.3886 73.2132 38.5465 73.1947C37.4488 73.1762 36.8999 73.3857 36.1327 73.8849C35.2345 74.4765 34.1367 74.7661 32.2593 74.7353C30.5939 74.7107 29.0408 74.3594 28.6915 73.7493L26.496 73.7124V73.3426Z" fill="white"/>
<path d="M86.4403 22.0755C91.2634 19.4459 93.0179 13.4471 90.3591 8.67689C87.7003 3.90669 81.635 2.17143 76.8119 4.80109C71.9889 7.43074 70.2344 13.4295 72.8932 18.1997C75.552 22.9699 81.6172 24.7052 86.4403 22.0755Z" fill="#043647"/>
<path d="M86.0447 22.2794C85.9241 22.3533 85.7977 22.4271 85.6714 22.4953C85.6312 22.518 85.5852 22.5407 85.545 22.5635C85.4473 22.6146 85.3497 22.6657 85.2521 22.7112C80.5019 25.0176 74.712 23.2452 72.1273 18.6152C69.6632 14.1955 70.99 8.72473 75.0279 5.85018C75.3496 5.62295 75.6885 5.40708 76.0446 5.21392C76.171 5.14575 76.3031 5.07758 76.4295 5.01509C76.5558 4.9526 76.6822 4.89579 76.8085 4.83898C77.1991 4.66856 77.5955 4.52085 77.9975 4.40155C78.5949 4.22544 79.198 4.10615 79.8011 4.04366C81.6794 3.84482 83.5691 4.18567 85.2463 4.99805C87.0269 5.85587 88.5605 7.24769 89.5887 9.09399C92.1792 13.741 90.5881 19.5469 86.0447 22.2794Z" fill="#7F86FF"/>
<path d="M85.3096 14.812C85.2924 14.7609 85.2694 14.7155 85.2464 14.67C85.0856 14.3178 84.8845 14.0338 84.6433 13.8179C84.3676 13.5736 84.0517 13.3861 83.6898 13.2612C83.328 13.1362 82.9259 13.0623 82.4779 13.0339C82.0298 13.0055 81.5474 12.9998 81.0247 13.0169C80.703 13.0282 80.4273 13.0226 80.1975 12.9998C79.9678 12.9771 79.7725 12.9373 79.6117 12.8749C79.4508 12.8124 79.3245 12.7215 79.2211 12.6135C79.1234 12.5056 79.0373 12.3693 78.9741 12.2102C78.9109 12.0511 78.8707 11.8921 78.8592 11.7387C78.8477 11.5796 78.8707 11.4319 78.9281 11.2899C78.9856 11.1479 79.0775 11.0172 79.2039 10.8979C79.3302 10.7786 79.5025 10.6763 79.7151 10.5911C80.1056 10.4321 80.4675 10.4377 80.8064 10.6025C81.1453 10.7672 81.4152 11.1081 81.6278 11.6194L83.6611 10.8013C83.483 10.3696 83.2648 10.006 82.9948 9.71058C82.7306 9.41517 82.4262 9.18226 82.093 9.02319C81.7599 8.86412 81.398 8.76755 81.0017 8.73914C80.6111 8.71074 80.1975 8.7505 79.7782 8.86412L79.2039 7.46094L78.0781 7.91541L78.6467 9.29588C78.2389 9.50607 77.8942 9.74467 77.6128 10.023C77.3313 10.3014 77.1131 10.5968 76.9637 10.9206C76.8144 11.2444 76.734 11.5796 76.7225 11.9318C76.7168 12.284 76.7857 12.6476 76.935 13.0112C77.1073 13.4316 77.3313 13.7668 77.6071 14.011C77.8828 14.2553 78.1987 14.4428 78.5605 14.5621C78.9224 14.6814 79.3245 14.7552 79.7725 14.778C80.2205 14.8007 80.703 14.8007 81.2314 14.778C81.5359 14.7609 81.8001 14.7609 82.0241 14.7836C82.2481 14.8064 82.4434 14.8461 82.6042 14.9086C82.7651 14.9711 82.9029 15.062 83.012 15.1813C83.1212 15.3006 83.2131 15.4483 83.2877 15.6301C83.3509 15.7892 83.3854 15.9482 83.3854 16.1073C83.3854 16.2664 83.3509 16.4141 83.2763 16.5618C83.2073 16.7038 83.0982 16.8401 82.9546 16.9651C82.811 17.0901 82.6272 17.1924 82.4089 17.2832C82.2194 17.3628 82.0183 17.4139 81.8116 17.4366C81.6048 17.4594 81.4038 17.4423 81.2085 17.3798C81.0132 17.3173 80.8294 17.198 80.6571 17.0276C80.4847 16.8572 80.3354 16.6186 80.2148 16.3175L78.1814 17.1355C78.394 17.6525 78.6582 18.0615 78.9798 18.3626C79.3015 18.6637 79.6519 18.8796 80.031 19.0103C80.4101 19.1409 80.8121 19.1977 81.2257 19.1807C81.6393 19.1636 82.0528 19.0955 82.4549 18.9818L82.9776 20.2601L84.0976 19.8113L83.5692 18.5274C83.977 18.3172 84.3216 18.0786 84.6146 17.8059C84.8845 17.5559 85.0913 17.2833 85.2464 16.9935C85.2579 16.9708 85.2694 16.9481 85.2809 16.9253C85.436 16.6072 85.5164 16.272 85.5279 15.9141C85.5393 15.5619 85.4647 15.1927 85.3096 14.812Z" fill="white"/>
</g>
</svg>
