<svg width="135" height="102" viewBox="0 0 135 102" fill="none" xmlns="http://www.w3.org/2000/svg">
<path d="M103.927 84.4508C102.032 86.4424 100.238 87.7295 98.8243 88.7457C82.1719 100.682 62.4677 97.2034 58.2801 96.3532C52.0952 95.0999 40.1425 92.6748 31.4993 82.5201C18.4242 67.1594 20.4587 42.9617 30.6007 26.9879C32.4555 24.0648 42.255 7.85059 62.1727 5.24927C74.2271 3.67424 88.2754 6.85138 98.4513 15.3667C119.81 33.2406 118.288 69.3509 103.927 84.4508Z" fill="#BCE7EE"/>
<path d="M108.884 52.2921L86.9614 39.619C85.4453 38.7167 83.5194 38.7167 82.0032 39.619L21.5624 74.5213H17.3418V78.2125V78.2945C17.3828 78.9917 17.7106 79.689 18.4072 80.0581L43.2391 94.4127C44.9192 95.397 47.009 95.397 48.6891 94.4127L112.039 57.8289C112.736 57.4187 113.105 56.7625 113.105 56.0653V52.2921H108.884Z" fill="#87BCC8"/>
<path d="M18.4482 72.6757L82.0033 35.9278C83.5194 35.0256 85.4453 35.0256 86.9615 35.9278L112.039 50.4055C113.473 51.2258 113.473 53.3175 112.039 54.1377L48.7301 90.7216C47.05 91.7059 44.9602 91.7059 43.2802 90.7216L18.4482 76.3669C17.014 75.5467 17.014 73.496 18.4482 72.6757Z" fill="white"/>
<path d="M46.1485 91.0496C45.288 91.0496 44.4275 90.8445 43.6489 90.3934L19.0218 76.0387C18.4891 75.7106 18.1613 75.1365 18.1613 74.5213C18.1613 73.9061 18.4891 73.3319 19.0218 73.0038L82.0442 36.2559C82.7408 35.8457 83.5194 35.6407 84.2979 35.6407C85.0765 35.6407 85.855 35.8457 86.5517 36.2559L111.425 50.7336C111.957 51.0617 112.285 51.6359 112.285 52.2511C112.285 52.8662 111.957 53.4404 111.425 53.7685L48.6481 90.3934C47.8695 90.8445 47.009 91.0496 46.1485 91.0496ZM84.2979 34.8614C83.3964 34.8614 82.454 35.1075 81.6344 35.5586L18.6121 72.3065L18.735 72.4706L18.817 72.6347L18.735 72.4706L18.6121 72.3065C17.8335 72.7577 17.3418 73.578 17.3418 74.5213C17.3418 75.4646 17.8335 76.2848 18.6121 76.736L43.2391 91.0906C44.1406 91.6238 45.1241 91.8699 46.1485 91.8699C47.1729 91.8699 48.1564 91.6238 49.0579 91.0906L111.834 54.5068C112.613 54.0556 113.105 53.2354 113.105 52.2921C113.105 51.3898 112.613 50.5695 111.834 50.0773L86.9614 35.5997C86.1419 35.1075 85.2404 34.8614 84.2979 34.8614Z" fill="url(#paint0_linear)"/>
<path d="M25.6192 70.7891L77.168 40.9725C78.1515 40.3983 79.3398 40.3983 80.2822 40.9725L104.622 54.999C104.95 55.2041 104.95 55.6552 104.622 55.8603L53.3195 85.841C52.3361 86.4152 51.1477 86.4152 50.1643 85.841L25.5782 71.6094C25.2913 71.4453 25.2913 70.9942 25.6192 70.7891Z" fill="#61D0E3"/>
<path opacity="0.8" d="M96.0585 50.0773L30.7415 74.6033L50.2054 85.8409H50.2464C50.2464 85.8409 50.2464 85.8409 50.2874 85.8409C50.7381 86.087 51.2708 86.21 51.8035 86.21C52.3362 86.21 52.9099 86.087 53.3607 85.7999L104.664 55.8192C104.828 55.7372 104.91 55.5731 104.91 55.4091C104.91 55.245 104.828 55.081 104.664 54.9989L96.0585 50.0773Z" fill="#95E6F3"/>
<path d="M112.817 33.9592L92.1651 21.9833C91.7963 21.7782 91.1817 21.7782 90.8129 21.9833L28.0774 58.239C27.8725 58.3621 27.7905 58.4851 27.7905 58.6492V61.356C27.7905 61.4791 27.8725 61.6431 28.0774 61.7662L48.7707 73.701C49.1395 73.9061 49.7541 73.9061 50.1229 73.701L112.817 37.4863C112.981 37.3633 113.104 37.2402 113.104 37.1172V34.4103C113.104 34.2053 113.022 34.0412 112.817 33.9592Z" fill="#249AAE"/>
<g opacity="0.8">
<path opacity="0.8" d="M90.6917 21.9834L28.0791 58.1571C27.7103 58.3622 27.7103 58.7313 28.0791 58.9364L48.7314 70.8712C49.1002 71.0763 49.7149 71.0763 50.0836 70.8712L112.696 34.6975C113.065 34.4924 113.065 34.1233 112.696 33.9183L92.0439 21.9834C91.6751 21.7783 91.0605 21.7783 90.6917 21.9834Z" fill="#83D6E5"/>
</g>
<path d="M99.5819 26.2899L112.817 33.9184C113.186 34.1235 113.186 34.4926 112.817 34.6977L50.2458 70.9124C49.877 71.1175 49.2624 71.1175 48.8936 70.9124L47.7462 70.2562C45.7384 64.7604 47.3364 61.8485 50.0409 60.2079C54.5893 57.46 60.6949 59.1416 65.6941 56.2707C71.5538 52.8666 66.7595 48.4371 72.824 44.951C77.6593 42.1621 82.2897 44.1717 86.5922 41.5059C92.37 37.9377 87.084 32.483 93.6403 28.5047C95.6481 27.2333 98.0248 26.6181 99.5819 26.2899Z" fill="#81E0D9"/>
<path d="M76.5122 37.2402L70.9803 40.4393C70.6525 40.6443 70.0788 40.6443 69.751 40.4393C69.4232 40.2342 69.4232 39.9471 69.751 39.7421L75.2829 36.543C75.6107 36.338 76.1843 36.338 76.5122 36.543C76.881 36.7071 76.881 37.0352 76.5122 37.2402Z" fill="#F4F6FA"/>
<path d="M70.6113 40.1931C70.4884 40.2752 70.3245 40.2752 70.2016 40.1931C70.0786 40.1111 70.0786 40.0291 70.2016 39.9471L75.7334 36.748C75.8564 36.666 76.0203 36.666 76.1432 36.748C76.2661 36.83 76.2661 36.9121 76.1432 36.9941L70.6113 40.1931Z" fill="#D2D6E3"/>
<path opacity="0.25" d="M112.696 17.2255L68.3588 42.8588C67.8261 43.1869 66.9246 43.1869 66.3919 42.8588L38.9784 27.0277C38.4457 26.6996 38.4457 26.2074 38.9784 25.8793L83.3153 0.246019C83.848 -0.0820876 84.7495 -0.0820876 85.2822 0.246019L112.655 16.0771C113.269 16.4053 113.269 16.8974 112.696 17.2255Z" fill="#E2E5ED"/>
<path d="M113.105 16.6106C113.064 16.4055 112.941 16.2415 112.695 16.0774L85.3224 0.246293C84.7897 -0.0818129 83.8882 -0.0818129 83.3555 0.246293L38.9776 25.8796C38.6908 26.0436 38.5679 26.2487 38.5679 26.4538V29.5708V29.6938H38.6089C38.6498 29.8579 38.7728 30.0219 38.9776 30.145L66.3502 45.9761C66.8829 46.3042 67.7843 46.3042 68.317 45.9761L112.654 20.3428C112.941 20.1787 113.064 19.9737 113.064 19.7686L113.105 16.6106Z" fill="#249AAE"/>
<path opacity="0.8" d="M112.695 17.2256L68.3586 42.8589C67.8259 43.187 66.9244 43.187 66.3917 42.8589L39.0192 26.9868C38.4865 26.6587 38.4865 26.1665 39.0192 25.8384L83.3561 0.24611C83.8888 -0.081996 84.7903 -0.081996 85.323 0.24611L112.695 16.0772C113.269 16.3643 113.269 16.8975 112.695 17.2256Z" fill="#93E3F1"/>
<path opacity="0.25" d="M89.4202 4.92181L109.786 16.6926C110.032 16.8157 110.032 17.0617 109.786 17.1848L68.2762 41.1775C68.0303 41.3006 67.6615 41.3006 67.4157 41.1775L58.8105 36.2149C61.7199 33.0159 64.5063 31.3754 66.6781 30.4731C67.7025 30.063 70.2021 28.9966 71.7592 27.151C72.2919 26.4948 72.6607 25.7155 72.7017 24.6902C72.8656 21.3681 71.9641 20.3838 76.5945 17.841C81.2249 15.2982 82.0444 13.6987 81.6346 8.94111C81.2249 4.18357 89.4202 4.92181 89.4202 4.92181Z" fill="#ECF1FF"/>
<path d="M109.786 17.1438L106.016 19.3175L105.688 19.5226L97.5746 24.1981L97.2467 24.4031L89.2153 29.0376L88.8465 29.2427L80.6921 33.9592L80.3643 34.1643L72.2509 38.8398L71.9231 39.0449L68.2761 41.1366C68.0303 41.2596 67.6615 41.2596 67.4156 41.1366L66.4731 40.5624C67.2927 39.291 68.3171 38.2656 69.3005 37.5274C69.4235 37.4454 69.5054 37.3633 69.6284 37.2813C70.243 36.8302 70.8577 36.5021 71.3904 36.174C73.4392 35.1076 74.7505 34.6565 75.8159 34.2463C76.7583 33.8772 77.4549 33.5901 78.2335 32.8519C78.2745 32.8109 78.3154 32.7699 78.3974 32.7288C78.4384 32.6878 78.4794 32.6468 78.5203 32.6058C79.7496 31.3754 79.8316 30.186 79.8726 29.0376C79.9135 27.6842 79.9545 26.4128 81.7575 25.1004C81.7985 25.0594 81.8804 25.0183 81.9214 24.9773C81.9624 24.9363 82.0443 24.8953 82.0853 24.8543C82.618 24.4852 83.2327 24.1571 84.5849 23.6239C87.2484 22.6396 89.2972 22.7626 91.6329 21.1221C91.7558 21.0401 91.8378 20.958 91.9607 20.876C95.034 18.4152 92.6573 15.0111 94.0915 12.7554C94.1735 12.6733 94.2145 12.5503 94.2964 12.4683C94.6242 12.0992 95.034 11.7711 95.6486 11.484C96.9599 10.8688 98.558 10.7457 99.5824 10.7047L109.786 16.6927C110.032 16.8157 110.032 17.0208 109.786 17.1438Z" fill="url(#paint1_linear)"/>
<path d="M72.2099 38.8808L71.8821 39.0859L69.3006 37.5684L61.9657 33.344C61.8838 33.303 61.8428 33.18 61.8838 33.0979C61.9247 33.0159 62.0477 32.9749 62.1296 33.0159L69.5874 37.3223L72.128 38.7988C72.1689 38.7988 72.2099 38.8398 72.2099 38.8808Z" fill="#F4F6FA"/>
<path d="M80.6921 33.9594L80.3643 34.1645L78.2335 32.9341L70.4479 28.4226C70.3659 28.3816 70.325 28.2585 70.3659 28.1765C70.4069 28.0945 70.5298 28.0535 70.6118 28.0945L78.5203 32.647L80.6511 33.8774C80.6511 33.9184 80.6921 33.9594 80.6921 33.9594Z" fill="#F4F6FA"/>
<path d="M97.5336 24.239L97.2058 24.4441L91.6739 21.2451L80.5692 14.806C80.4873 14.765 80.4463 14.6419 80.4873 14.5599C80.5282 14.4779 80.6512 14.4369 80.7331 14.4779L91.9608 20.958L97.4517 24.157C97.4926 24.198 97.5336 24.198 97.5336 24.239Z" fill="#F4F6FA"/>
<path d="M106.016 19.3574L105.688 19.5625L94.1325 12.8773L82.8229 6.31517C82.7409 6.27416 82.7 6.15112 82.7409 6.06909C82.7819 5.98707 82.9048 5.94605 82.9868 5.98707L94.3374 12.5492L105.934 19.2754C105.975 19.2754 106.016 19.3164 106.016 19.3574Z" fill="#F4F6FA"/>
<path d="M84.0932 6.84915C83.7244 7.05422 83.1097 7.05422 82.7409 6.84915L81.6755 6.23396C81.3067 6.02889 81.3067 5.65977 81.6755 5.4547C82.0443 5.24964 82.659 5.24964 83.0278 5.4547L84.0932 6.0699C84.4619 6.27497 84.4619 6.64409 84.0932 6.84915Z" fill="#00FFFF"/>
<path d="M71.2674 27.8895C71.6772 28.1356 71.6772 28.5047 71.2674 28.7098C70.8576 28.9558 70.243 28.9558 69.8332 28.7098C69.4234 28.4637 69.4234 28.0946 69.8332 27.8895C70.243 27.6844 70.8986 27.6844 71.2674 27.8895Z" fill="#00FFFF"/>
<path d="M81.4297 14.2729C81.8395 14.519 81.8395 14.8881 81.4297 15.0932C81.02 15.3393 80.4053 15.3393 79.9956 15.0932C79.5858 14.8471 79.5858 14.478 79.9956 14.2729C80.3644 14.0678 81.02 14.0678 81.4297 14.2729Z" fill="#00FFFF"/>
<path d="M63.2357 33.8774C62.8669 34.0824 62.2523 34.0824 61.8835 33.8774L60.8181 33.2622C60.4493 33.0571 60.4493 32.688 60.8181 32.4829C61.1869 32.2778 61.8015 32.2778 62.1703 32.4829L63.2357 33.0981C63.6455 33.3032 63.6455 33.6723 63.2357 33.8774Z" fill="#00FFFF"/>
<path d="M89.1741 29.0789L88.8053 29.2839L81.7163 25.1826L73.316 20.343C73.2341 20.302 73.1931 20.179 73.2341 20.097C73.2751 20.0149 73.398 19.9739 73.48 20.0149L82.0441 24.9365L89.0511 28.9968C89.1331 29.0378 89.1331 29.0379 89.1741 29.0789Z" fill="#F4F6FA"/>
<path d="M74.2178 19.8095C74.6276 20.0556 74.6276 20.4247 74.2178 20.6298C73.8081 20.8349 73.1934 20.8759 72.7836 20.6298C72.3739 20.3837 72.3739 20.0146 72.7836 19.8095C73.1934 19.6045 73.8081 19.5635 74.2178 19.8095Z" fill="#00FFFF"/>
<path d="M101.784 89.8187H100.473C98.1372 86.8657 93.0151 84.774 86.9915 84.733C80.845 84.692 75.559 86.7837 73.1824 89.8187H71.8711V93.7559C72.2399 98.3084 78.6732 101.918 86.6228 102C94.6952 102.041 101.333 98.3904 101.702 93.7559H101.743V89.8187H101.784Z" fill="#198295"/>
<path d="M101.784 90.3523C101.702 95.1099 94.9413 98.9651 86.664 98.8831C78.3867 98.8421 71.7894 94.9458 71.8714 90.1883C71.9533 85.4308 78.7145 81.5755 86.9918 81.6575C95.2282 81.6985 101.866 85.5948 101.784 90.3523Z" fill="#25B4CB"/>
<path d="M87.8111 93.264C87.1555 93.264 86.4999 93.0999 85.8033 92.6898L85.5164 92.5257L87.4423 91.4184L87.6472 91.5414C87.975 91.7465 88.2619 91.8285 88.4668 91.8285C88.7126 91.8285 88.9175 91.7875 89.1224 91.6644C89.3273 91.5414 89.4092 91.4184 89.4092 91.2953C89.3683 91.1723 89.2863 91.0082 89.0814 90.9262C88.8356 90.8032 88.5897 90.7211 88.2619 90.7211C87.975 90.7211 87.6472 90.7621 87.3194 90.8442C86.9916 90.9262 86.6228 91.0082 86.254 91.0903C85.8852 91.1723 85.4755 91.2543 85.1067 91.2953C84.6969 91.3363 84.2871 91.2953 83.8774 91.2543C83.4676 91.1723 83.0168 91.0082 82.6071 90.7621C81.2958 89.9829 81.1729 89.1626 82.2793 88.3013L81.6646 87.9322L82.6481 87.358L83.2627 87.7272C84.0413 87.358 84.7789 87.194 85.4755 87.235C86.1721 87.276 86.8687 87.4811 87.5653 87.9322L85.6803 88.9986L85.5164 88.9165C85.3116 88.7935 85.0657 88.7115 84.8198 88.6705C84.574 88.6295 84.3281 88.6705 84.1642 88.7935C83.9593 88.9165 83.8774 89.0396 83.8774 89.1626C83.9183 89.2857 84.0003 89.4087 84.1642 89.5317C84.4101 89.6958 84.6969 89.7368 84.9837 89.7368C85.2706 89.7368 85.5984 89.6958 85.9672 89.6138C86.295 89.5317 86.6638 89.4497 87.0326 89.3267C87.4014 89.2447 87.8111 89.1626 88.2209 89.1216C88.6307 89.0806 89.0404 89.0806 89.4912 89.1626C89.9419 89.2447 90.3927 89.4087 90.8434 89.6548C91.54 90.0649 91.9088 90.5161 91.8678 90.9262C91.8269 91.3363 91.4991 91.7875 90.8024 92.2386L91.7449 92.8128L90.7615 93.387L89.819 92.8128C89.1634 93.0589 88.4668 93.2229 87.8111 93.264Z" fill="white"/>
<path d="M132.25 28.7669L124.729 21.9135V20.4529L121.979 19.4417L112.662 40.1145L115.412 41.0695L115.805 40.8447V51.1249V53.2034V60.8434L118.555 61.7984V59.2143L125.122 55.4505L129.107 53.1473V30.6207L132.25 28.7669Z" fill="#22A2B6"/>
<path d="M132.25 28.7669L124.729 21.9135V20.4529L121.979 19.4417L112.662 40.1145L115.412 41.0695L115.805 40.8447V51.1249V53.2034V60.8434L118.555 61.7984V59.2143L125.122 55.4505L129.107 53.1473V30.6207L132.25 28.7669Z" fill="#7F86FF"/>
<path d="M124.729 20.452L135 29.7772L131.857 31.5749V54.1014L127.872 56.4608L118.555 61.7975V54.2137V52.1352V39.2709L115.412 41.0686L124.729 20.452Z" fill="#32DAF5"/>
<path d="M124.729 20.452L135 29.7772L131.857 31.5749V54.1014L127.872 56.4608L118.555 61.7975V54.2137V52.1352V39.2709L115.412 41.0686L124.729 20.452Z" fill="#AAAFFF"/>
<path d="M22.8696 45.8279C29.0652 45.5666 33.8689 40.1951 33.5989 33.8304C33.3289 27.4658 28.0874 22.518 21.8918 22.7794C15.6961 23.0407 10.8925 28.4122 11.1625 34.7768C11.4325 41.1415 16.6739 46.0893 22.8696 45.8279Z" fill="#37AABE"/>
<path d="M22.0353 43.1744L21.946 40.9949C20.7338 41.0204 19.4579 40.689 18.6923 40.1792L19.1389 38.7135C19.9172 39.1978 21.0273 39.5674 22.2012 39.5165C23.694 39.4527 24.6637 38.5223 24.6127 37.2987C24.5616 36.1134 23.7195 35.4124 22.1374 34.8389C19.9683 34.0614 18.603 33.131 18.5264 31.2574C18.4499 29.473 19.6365 28.0582 21.5504 27.6504L21.4611 25.4709L22.7626 25.4199L22.8519 27.5102C24.1151 27.4974 24.9827 27.8033 25.6079 28.1475L25.1486 29.5877C24.702 29.3455 23.8216 28.9122 22.4819 28.9632C20.8614 29.0269 20.3 30.0465 20.3383 30.9132C20.3893 32.0348 21.1804 32.5574 23.0433 33.2584C25.2379 34.0741 26.3735 35.1447 26.4628 37.0693C26.5394 38.7772 25.4548 40.4086 23.3112 40.8675L23.4005 43.1107L22.0353 43.1744Z" fill="white"/>
<path d="M22.9565 16.8746C26.4232 16.8253 29.1925 13.8982 29.1418 10.3367C29.0912 6.77527 26.2398 3.92811 22.7731 3.97741C19.3064 4.02671 16.5372 6.95381 16.5878 10.5153C16.6385 14.0767 19.4898 16.9239 22.9565 16.8746Z" fill="#37AABE"/>
<path d="M22.5206 15.3837L22.5078 14.1601C21.8316 14.1601 21.117 13.9562 20.7087 13.6503L20.9767 12.8346C21.3977 13.115 22.023 13.3444 22.6737 13.3317C23.5031 13.3189 24.0645 12.8219 24.0517 12.1336C24.0389 11.4708 23.5796 11.063 22.6992 10.7189C21.4998 10.2473 20.747 9.71196 20.7343 8.65408C20.7215 7.64719 21.3977 6.88245 22.4823 6.69127L22.4695 5.4677L23.1968 5.45496L23.2096 6.62754C23.9114 6.64029 24.3962 6.83147 24.7407 7.02265L24.46 7.82562C24.2176 7.68542 23.72 7.43051 22.9799 7.43051C22.074 7.44326 21.7423 8.00406 21.755 8.48839C21.7678 9.11292 22.2016 9.41881 23.2351 9.83941C24.4472 10.3237 25.0725 10.9483 25.0852 12.0189C25.098 12.9748 24.46 13.8797 23.2606 14.0964L23.2734 15.3455L22.5206 15.3837Z" fill="white"/>
<path d="M5.84332 23.3974C8.97885 23.3528 11.4835 20.7034 11.4377 17.4798C11.3919 14.2562 8.8129 11.6791 5.67737 11.7237C2.54185 11.7682 0.0371492 14.4176 0.082975 17.6412C0.128801 20.8649 2.7078 23.442 5.84332 23.3974Z" fill="#37AABE"/>
<path d="M5.45407 22.0464L5.44131 20.9502C4.82886 20.9502 4.19089 20.7591 3.80811 20.4914L4.05054 19.7522C4.43332 20.0071 4.99473 20.211 5.58167 20.1983C6.33447 20.1855 6.84485 19.7267 6.83209 19.1149C6.81933 18.5159 6.39827 18.1462 5.60718 17.8276C4.52263 17.407 3.84638 16.9099 3.83362 15.9667C3.82086 15.0618 4.43332 14.3608 5.41579 14.1824L5.40303 13.0863L6.06652 13.0735L6.07928 14.1314C6.71725 14.1441 7.15107 14.3098 7.47006 14.4883L7.21487 15.2148C6.9852 15.0873 6.55138 14.8579 5.87513 14.8579C5.05853 14.8706 4.7523 15.3805 4.76506 15.8138C4.77782 16.3874 5.17336 16.655 6.1048 17.0374C7.20211 17.4835 7.76352 18.0443 7.77628 19.0129C7.78904 19.8796 7.21487 20.6953 6.13032 20.8865L6.14308 22.0209L5.45407 22.0464Z" fill="white"/>
<defs>
<linearGradient id="paint0_linear" x1="113.704" y1="51.6905" x2="-13.1686" y2="82.2653" gradientUnits="userSpaceOnUse">
<stop stop-color="#C7D3E5"/>
<stop offset="0.3307" stop-color="#DCE7F1"/>
<stop offset="0.7277" stop-color="#F0F9FB"/>
<stop offset="1" stop-color="#F7FFFF"/>
</linearGradient>
<linearGradient id="paint1_linear" x1="88.204" y1="8.60504" x2="88.204" y2="49.2342" gradientUnits="userSpaceOnUse">
<stop stop-color="#2EC6BA"/>
<stop offset="0.4238" stop-color="#25B6B2"/>
<stop offset="1" stop-color="#1499A3"/>
</linearGradient>
</defs>
</svg>
