<svg width="127" height="98" viewBox="0 0 127 98" fill="none" xmlns="http://www.w3.org/2000/svg">
<g clip-path="url(#clip0)">
<path d="M101.023 83.7509C99.0713 85.7966 97.2241 87.1187 95.768 88.1625C78.6194 100.423 58.3281 96.8499 54.0156 95.9766C47.6464 94.6894 35.3376 92.1983 26.4368 81.7678C12.9721 65.9898 15.0672 41.1348 25.5114 24.7271C27.4215 21.7246 37.513 5.06997 58.0243 2.39798C70.4379 0.780178 84.9048 4.04362 95.3839 12.7902C117.379 31.1496 115.811 68.2409 101.023 83.7509Z" fill="#BCE7EE"/>
<path d="M44.6233 54.5535L94.8845 70.8735L88.5395 90.2509L38.2783 73.931L44.6233 54.5535Z" fill="#4EAABA"/>
<path d="M89.0038 91.1598L95.797 70.4081L44.1524 53.6401L37.3511 74.3932L89.0038 91.1598ZM93.9682 71.3347L88.075 89.3381L39.196 73.4639L45.0892 55.4605L93.9682 71.3347Z" fill="#A1E4F0"/>
<path d="M63.7306 80.0899C59.3245 78.6592 56.9183 73.9393 58.3563 69.5477C59.7943 65.1561 64.5319 62.7558 68.938 64.1865C73.3442 65.6172 75.7503 70.3371 74.3123 74.7287C72.8743 79.1203 68.1367 81.5206 63.7306 80.0899Z" fill="#198295"/>
<path d="M63.7273 79.7012L64.4081 77.7095C63.2707 77.3016 62.2039 76.5447 61.6777 75.8216L62.6004 74.6565C63.1499 75.3686 64.0503 76.0935 65.1596 76.472C66.5665 76.9371 67.7917 76.4503 68.1724 75.3203C68.5406 74.236 68.0016 73.3 66.7343 72.2173C64.9858 70.7398 64.0518 69.4167 64.6348 67.6989C65.1931 66.0611 66.7829 65.2139 68.7053 65.5342L69.3862 63.5426L70.6098 63.9579L69.9593 65.8755C71.1306 66.3185 71.8323 66.9072 72.2935 67.4336L71.3541 68.5697C71.0223 68.1895 70.3575 67.4866 69.0881 67.0588C67.567 66.5455 66.6826 67.2575 66.4127 68.045C66.0631 69.0665 66.6172 69.8303 68.0989 71.1243C69.8523 72.642 70.5319 74.0175 69.9308 75.7752C69.3972 77.3331 67.8195 78.4275 65.6617 78.0738L64.9622 80.1282L63.7273 79.7012Z" fill="#4CB5C2"/>
<path d="M53.824 70.3193C52.8146 69.9916 52.2634 68.9103 52.593 67.9041C52.9225 66.8979 54.008 66.3479 55.0174 66.6756C56.0268 67.0033 56.578 68.0846 56.2485 69.0908C55.919 70.097 54.8335 70.647 53.824 70.3193Z" fill="#198295"/>
<path d="M78.1076 78.209C77.0981 77.8816 76.547 76.8007 76.8769 75.7946C77.2067 74.7885 78.2925 74.2383 79.302 74.5657C80.3116 74.8931 80.8626 75.9742 80.5328 76.9802C80.2029 77.9863 79.1172 78.5364 78.1076 78.209Z" fill="#36B9B1"/>
<path d="M62.2277 23.9196L93.0616 67.1587L76.2718 79.0552L45.438 35.816L62.2277 23.9196Z" fill="#4EAABA"/>
<path d="M76.0964 80.0736L94.0831 67.3319L62.3993 22.9036L44.4126 35.6453L76.0964 80.0736ZM92.0393 66.9844L76.4393 78.0379L46.4481 35.9868L62.0481 24.9333L92.0393 66.9844Z" fill="#A1E4F0"/>
<path d="M62.3127 56.0138C59.6064 52.2214 60.5004 46.9608 64.3095 44.2638C68.1186 41.5668 73.4003 42.4548 76.1066 46.2472C78.8129 50.0395 77.919 55.3001 74.1099 57.9971C70.3008 60.6941 65.019 59.8061 62.3127 56.0138Z" fill="#198295"/>
<path d="M63.4704 56.984L65.2022 55.7569C65.925 56.734 66.9667 57.541 67.8201 57.8344L68.6812 56.611C67.8302 56.2877 66.8721 55.6289 66.19 54.6744C65.3252 53.4631 65.4463 52.1409 66.425 51.4499C67.37 50.7791 68.4308 51.0311 69.8424 51.9316C71.7707 53.1884 73.3328 53.7036 74.82 52.6492C76.2484 51.6413 76.6051 49.8682 75.7461 48.1115L77.478 46.8844L76.7194 45.8248L75.0535 47.0043C74.2901 46.0044 73.5125 45.4997 72.8663 45.2089L72.0363 46.4419C72.4994 46.6526 73.3765 47.0893 74.1554 48.1823C75.0967 49.4987 74.6587 50.5568 73.9703 51.0381C73.0779 51.6707 72.1838 51.3545 70.5042 50.3069C68.5255 49.0584 66.9989 48.8023 65.4721 49.8852C64.1169 50.8443 63.5205 52.6863 64.4809 54.6543L62.6963 55.9196L63.4704 56.984Z" fill="#4CB5C2"/>
<path d="M60.1879 42.1864C59.5705 41.3206 59.7745 40.1196 60.6437 39.5039C61.5128 38.8881 62.7179 39.0908 63.3354 39.9566C63.9528 40.8223 63.7488 42.0233 62.8797 42.6391C62.0105 43.2548 60.8054 43.0521 60.1879 42.1864Z" fill="#198295"/>
<path d="M75.0922 63.0716C74.4748 62.2058 74.6788 61.0048 75.5479 60.3889C76.417 59.7731 77.6221 59.9758 78.2395 60.8416C78.8569 61.7074 78.6528 62.9084 77.7837 63.5242C76.9146 64.1401 75.7096 63.9374 75.0922 63.0716Z" fill="#198295"/>
<path d="M43.1819 92.5982C43.1819 94.4063 33.5184 95.8712 21.5967 95.8712C9.66349 95.8712 0 94.4063 0 92.5982L5.04381 83.4429H38.1266L43.1819 92.5982Z" fill="#2393A7"/>
<path d="M38.1258 83.4425C38.1258 84.8273 30.7206 85.9488 21.5844 85.9488C12.4482 85.9488 5.04297 84.8273 5.04297 83.4425C5.04297 82.0578 12.4482 80.9363 21.5844 80.9363C30.7206 80.9363 38.1258 82.0578 38.1258 83.4425Z" fill="url(#paint0_linear)"/>
<path d="M28.2099 47.1766L19.2457 38.2274L5.22613 52.2349L5.23759 52.2463C5.21467 52.2578 5.19174 52.2692 5.16881 52.2806C4.6415 52.8071 6.21197 55.2446 8.68802 57.7166C11.1641 60.1885 13.6058 61.7563 14.1331 61.2299C14.156 61.2184 14.156 61.1841 14.1675 61.1612L14.1789 61.1727L28.2099 47.1766Z" fill="#1D9DB4"/>
<path d="M25.6776 83.1333H17.5044L19.2926 51.4104H23.8894L25.6776 83.1333Z" fill="url(#paint1_linear)"/>
<path d="M21.5845 83.1332H25.6762L23.8882 51.4103H21.5845V83.1332Z" fill="#E4E8F1" fill-opacity="0.15"/>
<path d="M32.3146 40.8818C33.6214 45.9058 30.5951 51.0327 25.5628 52.3259C20.5304 53.6305 15.3949 50.6093 14.0995 45.5853C12.7927 40.5614 15.819 35.4345 20.8514 34.1413C25.8723 32.8367 31.0078 35.8579 32.3146 40.8818Z" fill="#5CB5C5"/>
<path d="M61.7855 55.2107L35.5691 29.496L10.7856 2.39648C10.7856 2.39648 -6.93653 13.6803 21.3089 43.2174C49.8408 72.4684 61.7855 55.2107 61.7855 55.2107Z" fill="#D5F6FF"/>
<path d="M24.0486 40.6877C3.48352 19.1729 7.28931 7.33979 10.8888 2.49896L10.7856 2.38452C10.7856 2.38452 -6.93654 13.6683 21.3089 43.2054C49.0728 71.6782 61.1206 56.1028 61.7511 55.2445C56.7531 58.6434 44.7855 61.9507 24.0486 40.6877Z" fill="url(#paint2_linear)"/>
<path d="M61.7751 55.2097C59.9983 56.9148 52.4097 52.1198 42.9755 43.7542C42.643 43.4566 42.2991 43.1591 41.9552 42.8387C38.7341 39.9319 35.318 36.636 31.8561 33.054C28.1879 29.2546 24.8292 25.5124 21.929 22.0105C21.6424 21.6672 21.3673 21.3353 21.0922 21.0034C13.3545 11.5507 9.04434 4.0777 10.7868 2.39542C12.8272 0.438496 22.4907 7.03026 33.8278 17.7419C34.1603 18.0623 34.5041 18.3828 34.8366 18.7032C36.7624 20.5457 38.7226 22.5026 40.6943 24.5511C42.1845 26.0846 43.6174 27.6181 44.9815 29.1287C45.314 29.4949 45.6349 29.8497 45.9674 30.2159C57.0523 42.5297 63.9073 53.1726 61.7751 55.2097Z" fill="#32B9CF"/>
<path d="M48.8451 17.765C50.6494 17.765 52.1121 16.3047 52.1121 14.5034C52.1121 12.7021 50.6494 11.2419 48.8451 11.2419C47.0408 11.2419 45.5781 12.7021 45.5781 14.5034C45.5781 16.3047 47.0408 17.765 48.8451 17.765Z" fill="#04A7BB"/>
<path d="M48.8451 17.765C50.6494 17.765 52.1121 16.3047 52.1121 14.5034C52.1121 12.7021 50.6494 11.2419 48.8451 11.2419C47.0408 11.2419 45.5781 12.7021 45.5781 14.5034C45.5781 16.3047 47.0408 17.765 48.8451 17.765Z" fill="#7F86FF"/>
<path d="M49.6359 13.6796L45.9791 30.2048L42.9758 43.7546C42.6433 43.457 42.2994 43.1595 41.9555 42.839L44.9933 29.1176L48.054 15.3047L34.8483 18.7036L21.9408 22.0109C21.6542 21.6676 21.3791 21.3357 21.104 21.0038L33.8396 17.7308L49.6359 13.6796Z" fill="#04A7BB"/>
<path d="M49.6359 13.6796L45.9791 30.2048L42.9758 43.7546C42.6433 43.457 42.2994 43.1595 41.9555 42.839L44.9933 29.1176L48.054 15.3047L34.8483 18.7036L21.9408 22.0109C21.6542 21.6676 21.3791 21.3357 21.104 21.0038L33.8396 17.7308L49.6359 13.6796Z" fill="#7F86FF"/>
<path d="M64.01 13.9432C63.8495 11.025 62.8751 8.22119 61.0295 5.85227C59.184 3.48336 56.6964 1.86975 53.8994 1" stroke="#04A7BB" stroke-width="1.28686" stroke-miterlimit="10" stroke-linecap="round"/>
<path d="M64.01 13.9432C63.8495 11.025 62.8751 8.22119 61.0295 5.85227C59.184 3.48336 56.6964 1.86975 53.8994 1" stroke="#7F86FF" stroke-width="1.28686" stroke-miterlimit="10" stroke-linecap="round"/>
<path d="M60.2847 14.6641C60.1586 12.3524 59.3906 10.1437 57.9348 8.27834C56.4789 6.41296 54.5073 5.13122 52.2949 4.44458" stroke="#04A7BB" stroke-width="1.28686" stroke-miterlimit="10" stroke-linecap="round"/>
<path d="M60.2847 14.6641C60.1586 12.3524 59.3906 10.1437 57.9348 8.27834C56.4789 6.41296 54.5073 5.13122 52.2949 4.44458" stroke="#7F86FF" stroke-width="1.28686" stroke-miterlimit="10" stroke-linecap="round"/>
<path d="M56.627 14.9046C56.5353 13.3253 56.0196 11.8147 55.0224 10.5444C54.0253 9.26266 52.6843 8.39291 51.1714 7.92371" stroke="#04A7BB" stroke-width="1.28686" stroke-miterlimit="10" stroke-linecap="round"/>
<path d="M56.627 14.9046C56.5353 13.3253 56.0196 11.8147 55.0224 10.5444C54.0253 9.26266 52.6843 8.39291 51.1714 7.92371" stroke="#7F86FF" stroke-width="1.28686" stroke-miterlimit="10" stroke-linecap="round"/>
<path d="M95.4699 15.9768C92.9256 16.8208 90.6785 18.3552 89.0258 20.5534C87.3732 22.7517 86.5436 25.3344 86.4468 28.0111" stroke="#04A7BB" stroke-width="1.28686" stroke-miterlimit="10" stroke-linecap="round"/>
<path d="M95.4699 15.9768C92.9256 16.8208 90.6785 18.3552 89.0258 20.5534C87.3732 22.7517 86.5436 25.3344 86.4468 28.0111" stroke="#7F86FF" stroke-width="1.28686" stroke-miterlimit="10" stroke-linecap="round"/>
<path d="M97.004 19.0898C94.9883 19.7574 93.2182 20.9666 91.9175 22.6998C90.6168 24.4331 89.9567 26.4809 89.8813 28.5978" stroke="#04A7BB" stroke-width="1.28686" stroke-miterlimit="10" stroke-linecap="round"/>
<path d="M97.004 19.0898C94.9883 19.7574 93.2182 20.9666 91.9175 22.6998C90.6168 24.4331 89.9567 26.4809 89.8813 28.5978" stroke="#7F86FF" stroke-width="1.28686" stroke-miterlimit="10" stroke-linecap="round"/>
<path d="M98.0966 22.2584C96.7211 22.7193 95.5084 23.5378 94.6242 24.7232C93.73 25.9114 93.283 27.3038 93.2319 28.7515" stroke="#04A7BB" stroke-width="1.28686" stroke-miterlimit="10" stroke-linecap="round"/>
<path d="M98.0966 22.2584C96.7211 22.7193 95.5084 23.5378 94.6242 24.7232C93.73 25.9114 93.283 27.3038 93.2319 28.7515" stroke="#7F86FF" stroke-width="1.28686" stroke-miterlimit="10" stroke-linecap="round"/>
<path d="M108.328 68.4462L110.11 88.9028H102.508L104.289 68.4462H108.328Z" fill="url(#paint3_linear)"/>
<path d="M119.788 50.4077L118.522 50.9194L122.935 61.8013L124.201 61.2895L119.788 50.4077Z" fill="#42E8E0"/>
<path d="M99.5249 45.3216C99.5249 47.5409 97.7227 49.3408 95.4986 49.3408C93.2745 49.3408 91.4722 47.5409 91.4722 45.3216C91.4722 43.1022 93.2745 41.3024 95.4986 41.3024C97.7227 41.3024 99.5249 43.1022 99.5249 45.3216Z" fill="url(#paint4_linear)" stroke="#D7E2E3" stroke-width="0.5"/>
<path d="M117.343 51.6656C117.343 55.7687 116.124 59.4809 114.162 62.1613C112.199 64.8417 109.506 66.4764 106.546 66.4764C103.586 66.4764 100.892 64.8417 98.9292 62.1613C96.9667 59.4809 95.748 55.7687 95.748 51.6656C95.748 47.5659 96.9633 44.9486 98.8875 43.349C100.821 41.742 103.514 41.1239 106.546 41.1239C109.577 41.1239 112.27 41.742 114.203 43.349C116.128 44.9486 117.343 47.5659 117.343 51.6656Z" fill="url(#paint5_linear)" stroke="#D7E2E3" stroke-width="0.5"/>
<path d="M111.892 48.4045C108.922 50.124 104.171 50.124 101.201 48.4045C98.2312 46.685 98.2312 43.9574 101.201 42.2379C104.171 40.5183 108.922 40.5183 111.892 42.2379C114.862 43.9574 114.862 46.7443 111.892 48.4045Z" fill="url(#paint6_linear)"/>
<path d="M101.201 43.4238C104.171 41.7042 108.922 41.7042 111.892 43.4238C113.139 44.1353 113.852 45.0247 114.03 45.9141C114.327 44.6096 113.614 43.2459 111.892 42.2379C108.922 40.5183 104.171 40.5183 101.201 42.2379C99.4784 43.2459 98.7657 44.6096 99.0626 45.9141C99.3002 45.0247 100.013 44.1353 101.201 43.4238Z" fill="#1E6672"/>
<path d="M119.138 54.9269C121.5 54.9269 123.414 53.0155 123.414 50.6576C123.414 48.2998 121.5 46.3884 119.138 46.3884C116.776 46.3884 114.862 48.2998 114.862 50.6576C114.862 53.0155 116.776 54.9269 119.138 54.9269Z" fill="url(#paint7_linear)"/>
<path d="M123.283 50.717C123.283 52.9363 121.481 54.7362 119.257 54.7362C117.032 54.7362 115.23 52.9363 115.23 50.717C115.23 48.4976 117.032 46.6978 119.257 46.6978C121.481 46.6978 123.283 48.4976 123.283 50.717Z" fill="url(#paint8_linear)" stroke="#D7E2E3" stroke-width="0.5"/>
<path d="M125.967 64.8292C125.73 66.8452 123.948 70.6994 122.286 70.5215C120.682 70.3436 119.851 66.1337 120.088 64.1177C120.326 62.1016 121.87 60.6193 123.473 60.7972C125.077 60.975 126.205 62.8132 125.967 64.8292Z" fill="url(#paint9_radial)"/>
<path d="M125.719 64.7999C125.605 65.768 125.114 67.2034 124.444 68.3739C124.11 68.9582 123.739 69.4619 123.361 69.8056C122.979 70.153 122.624 70.3062 122.313 70.2729C122.021 70.2404 121.725 70.0184 121.441 69.591C121.161 69.1694 120.923 68.5905 120.737 67.9403C120.365 66.6379 120.223 65.1152 120.337 64.1469C120.564 62.218 122.024 60.8879 123.446 61.0456C124.155 61.1243 124.776 61.5718 125.198 62.2552C125.62 62.9384 125.832 63.8449 125.719 64.7999Z" fill="url(#paint10_linear)" stroke="#D7E2E3" stroke-width="0.5"/>
<path d="M109.754 68.4462H103.042L103.577 66.1931H109.16L109.754 68.4462Z" fill="#23ABD8"/>
<path opacity="0.47" d="M109.16 66.1931H107.497L107.794 68.4462H109.753L109.16 66.1931Z" fill="#96CCCA"/>
<path opacity="0.47" d="M103.576 66.1931H105.239L105.002 68.4462H103.042L103.576 66.1931Z" fill="#96CCCA"/>
<path d="M84.7604 53.2416C84.3668 53.3028 84.0815 53.025 84.0022 52.6885C83.9614 52.4265 84.0903 52.2186 84.2576 52.0853L92.0415 46.6629C92.3582 46.4526 92.7723 46.5225 92.9263 46.8206C93.1368 47.1368 93.0669 47.5502 92.7682 47.7039L85.0025 53.0698C84.9663 53.1828 84.8351 53.2032 84.7604 53.2416Z" fill="#74FEF7"/>
<path d="M85.1839 55.6181C83.639 56.7436 79.7478 57.992 78.8489 56.7092C77.9501 55.4265 80.295 52.1907 81.8965 51.0832C83.4414 49.9576 85.471 50.045 86.388 51.2713C87.2868 52.5541 86.7854 54.5105 85.1839 55.6181Z" fill="url(#paint11_radial)"/>
<g filter="url(#filter0_d)">
<path d="M85.1839 55.6181C83.639 56.7436 79.7478 57.992 78.8489 56.7092C77.9501 55.4265 80.295 52.1907 81.8965 51.0832C83.4414 49.9576 85.471 50.045 86.388 51.2713C87.2868 52.5541 86.7854 54.5105 85.1839 55.6181Z" fill="url(#paint12_linear)"/>
</g>
<path d="M103.516 28.4218C103.516 30.3193 102.151 32.691 100.488 33.6397C98.8249 34.5885 97.459 33.8176 97.459 31.9202C97.459 30.0228 98.8249 27.651 100.488 26.7023C102.151 25.6943 103.516 26.4651 103.516 28.4218Z" fill="#BCBEFF"/>
<path d="M105.299 31.031C105.18 31.6832 105.299 32.632 106.665 33.2842C109.338 34.648 111.476 32.5727 112.842 33.5214C113.852 34.2329 113.377 36.4268 110.882 37.2569C108.269 38.1464 105.002 37.5534 104.764 34.9445C104.764 33.9364 104.824 32.9284 105.002 31.9797C105.061 31.6832 105.18 31.3275 105.299 31.031Z" fill="#19212C"/>
<path d="M106.487 22.9668C101.735 22.9668 97.5779 26.0501 96.2118 30.5565C96.6276 30.6751 96.7464 31.0309 96.7464 31.446C96.6276 32.3947 96.39 33.2841 96.39 34.2328C96.39 34.5886 96.1524 34.8851 95.8555 34.9443C96.5682 40.8145 101.914 44.9651 107.794 44.2536C113.674 43.5421 117.831 38.2056 117.119 32.3354C116.465 26.9989 111.892 22.9668 106.487 22.9668Z" fill="url(#paint13_linear)"/>
<path d="M97.049 31.7411L97.0556 31.7128V31.6837V31.6834V31.683V31.6827V31.6823V31.682V31.6817V31.6813V31.681V31.6807V31.6803V31.68V31.6797V31.6793V31.679V31.6787V31.6783V31.678V31.6777V31.6774V31.677V31.6767V31.6764V31.6761V31.6758V31.6755V31.6751V31.6748V31.6745V31.6742V31.6739V31.6736V31.6733V31.673V31.6727V31.6724V31.6721V31.6718V31.6715V31.6712V31.6709V31.6706V31.6703V31.67V31.6697V31.6694V31.6691V31.6688V31.6686V31.6683V31.668V31.6677V31.6674V31.6672V31.6669V31.6666V31.6663V31.666V31.6658V31.6655V31.6652V31.665V31.6647V31.6644V31.6642V31.6639V31.6636V31.6634V31.6631V31.6628V31.6626V31.6623V31.6621V31.6618V31.6616V31.6613V31.661V31.6608V31.6605V31.6603V31.66V31.6598V31.6596V31.6593V31.6591V31.6588V31.6586V31.6583V31.6581V31.6579V31.6576V31.6574V31.6572V31.6569V31.6567V31.6565V31.6562V31.656V31.6558V31.6556V31.6553V31.6551V31.6549V31.6547V31.6544V31.6542V31.654V31.6538V31.6536V31.6533V31.6531V31.6529V31.6527V31.6525V31.6523V31.6521V31.6519V31.6517V31.6515V31.6512V31.651V31.6508V31.6506V31.6504V31.6502V31.65V31.6498V31.6496V31.6494V31.6493V31.6491V31.6489V31.6487V31.6485V31.6483V31.6481V31.6479V31.6477V31.6475V31.6474V31.6472V31.647V31.6468V31.6466V31.6464V31.6463V31.6461V31.6459V31.6457V31.6456V31.6454V31.6452V31.645V31.6449V31.6447V31.6445V31.6444V31.6442V31.644V31.6439V31.6437V31.6435C97.0892 31.4062 97.0278 31.1618 96.9067 30.9664C96.8284 30.8401 96.7189 30.7251 96.5829 30.6459C98.0389 26.3663 101.983 23.5139 106.487 23.5139C111.592 23.5139 115.941 27.1615 116.753 32.2567V32.2602C117.739 37.9336 113.912 43.3196 108.226 44.3043C102.617 45.2758 97.2887 41.5665 96.2021 36.0138C96.367 35.9462 96.511 35.8368 96.6154 35.6908C96.7726 35.4711 96.827 35.1871 96.7511 34.8842H96.7512L96.7495 34.8779C96.6141 34.3913 96.6249 33.867 96.704 33.3284C96.7662 32.9051 96.8677 32.4886 96.967 32.0811C96.9948 31.967 97.0225 31.8537 97.049 31.7411Z" fill="url(#paint14_linear)" stroke="#D7E2E3" stroke-width="0.5"/>
<path d="M109.575 34.8258C109.575 34.7665 109.575 34.7072 109.575 34.6479L109.516 34.4701C109.516 34.3515 109.456 34.2329 109.397 34.1736C109.278 35.1223 108.744 36.1303 107.793 36.9604C105.299 39.095 100.963 39.5694 98.1118 38.087C97.0427 37.5534 96.3299 36.7825 95.9736 35.9524C96.033 36.3082 96.0924 36.664 96.2112 37.0197C96.3299 37.3755 96.5081 37.7313 96.6863 38.0277C96.7457 38.087 96.8051 38.2056 96.8645 38.2649C97.2802 38.68 97.7554 39.0357 98.2899 39.2729C101.201 40.7553 105.536 40.2216 107.971 38.1463C109.1 37.079 109.634 35.8931 109.575 34.8258Z" fill="#1E6672"/>
<path d="M108.685 33.0471C106.546 31.5054 103.102 34.8259 98.825 32.632C96.9838 31.6833 96.6275 30.4381 96.6275 29.4301C96.4493 29.9045 96.2711 30.3788 96.1523 30.8532C95.9147 32.2763 95.7959 33.7586 95.7959 35.241C96.0929 39.3916 101.379 40.3996 105.596 38.9766C109.576 37.6721 110.348 34.233 108.685 33.0471Z" fill="url(#paint15_linear)"/>
<path d="M97.459 35.5972C97.5184 35.5972 97.5778 35.5378 97.5778 35.4784C97.5778 35.3597 97.5184 35.1815 97.3403 35.1221H97.2809C97.2215 35.1221 97.1621 35.1815 97.1621 35.2409C97.1621 35.3597 97.2215 35.5378 97.3996 35.5972H97.459Z" fill="url(#paint16_radial)"/>
<path d="M97.9933 36.5453C97.6964 36.6638 97.2213 36.3081 96.865 35.6558C96.5087 35.0036 96.4493 34.3514 96.7463 34.1735C97.0432 34.0549 97.5183 34.4107 97.8746 35.0629C98.2309 35.7151 98.2903 36.3674 97.9933 36.5453Z" fill="#00FF3C"/>
<path d="M97.459 35.5972C97.5184 35.5972 97.5778 35.5378 97.5778 35.4784C97.5778 35.3597 97.5184 35.1815 97.3403 35.1221H97.2809C97.2215 35.1221 97.1621 35.1815 97.1621 35.2409C97.1621 35.3597 97.2215 35.5378 97.3996 35.5972H97.459Z" fill="url(#paint17_radial)"/>
<path d="M97.459 34.8857C97.5184 34.8857 97.5778 34.8263 97.5778 34.7669C97.5778 34.6482 97.5184 34.47 97.3403 34.4106H97.2809C97.2215 34.4106 97.1621 34.47 97.1621 34.5294C97.1621 34.6482 97.2215 34.8263 97.3996 34.8857C97.3996 34.8263 97.459 34.8263 97.459 34.8857Z" fill="url(#paint18_radial)"/>
<path d="M97.9904 35.7996C98.2783 35.6428 98.2197 34.9793 97.8594 34.3176C97.4991 33.656 96.9736 33.2467 96.6856 33.4034C96.3977 33.5602 96.4564 34.2237 96.8167 34.8854C97.177 35.5471 97.7025 35.9564 97.9904 35.7996Z" fill="#00FF3C"/>
<path d="M97.459 34.8857C97.5184 34.8857 97.5778 34.8263 97.5778 34.7669C97.5778 34.6482 97.5184 34.47 97.3403 34.4106H97.2809C97.2215 34.4106 97.1621 34.47 97.1621 34.5294C97.1621 34.6482 97.2215 34.8263 97.3996 34.8857C97.3996 34.8263 97.459 34.8263 97.459 34.8857Z" fill="url(#paint19_radial)"/>
<path d="M97.459 34.0555C97.5184 34.0555 97.5778 33.9961 97.5778 33.9367C97.5778 33.818 97.5184 33.6398 97.3403 33.5804H97.2809C97.2215 33.5804 97.1621 33.6398 97.1621 33.6992C97.1621 33.818 97.2215 33.9961 97.3996 34.0555C97.3996 34.0555 97.3996 34.0555 97.459 34.0555Z" fill="url(#paint20_radial)"/>
<path d="M97.9933 35.0036C97.6964 35.1222 97.2213 34.7665 96.865 34.1142C96.5087 33.462 96.4493 32.8097 96.7463 32.6318C97.0432 32.5133 97.5183 32.869 97.8746 33.5213C98.2309 34.2328 98.2903 34.885 97.9933 35.0036Z" fill="#00FF3C"/>
<path d="M97.459 34.0555C97.5184 34.0555 97.5778 33.9961 97.5778 33.9367C97.5778 33.818 97.5184 33.6398 97.3403 33.5804H97.2809C97.2215 33.5804 97.1621 33.6398 97.1621 33.6992C97.1621 33.818 97.2215 33.9961 97.3996 34.0555C97.3996 34.0555 97.3996 34.0555 97.459 34.0555Z" fill="url(#paint21_radial)"/>
<path d="M97.9933 36.5453C97.6964 36.6638 97.2213 36.3081 96.865 35.6558C96.5087 35.0036 96.4493 34.3514 96.7463 34.1735C97.0432 34.0549 97.5183 34.4107 97.8746 35.0629C98.2309 35.7151 98.2903 36.3674 97.9933 36.5453Z" fill="#42E8E0"/>
<path d="M97.9904 35.7996C98.2783 35.6428 98.2197 34.9793 97.8594 34.3176C97.4991 33.656 96.9736 33.2467 96.6856 33.4034C96.3977 33.5602 96.4564 34.2237 96.8167 34.8854C97.177 35.5471 97.7025 35.9564 97.9904 35.7996Z" fill="#42E8E0"/>
<path d="M97.9933 35.0036C97.6964 35.1222 97.2213 34.7665 96.865 34.1142C96.5087 33.462 96.4493 32.8097 96.7463 32.6318C97.0432 32.5133 97.5183 32.869 97.8746 33.5213C98.2309 34.2328 98.2903 34.885 97.9933 35.0036Z" fill="#42E8E0"/>
<path d="M101.082 37.3761C101.142 37.3761 101.201 37.3168 101.201 37.2574C101.201 37.1386 101.142 36.9604 100.964 36.9011H100.904C100.845 36.9011 100.785 36.9604 100.785 37.0198C100.785 37.1386 100.845 37.3168 101.023 37.3761C101.023 37.3168 101.082 37.3761 101.082 37.3761Z" fill="url(#paint22_radial)"/>
<path d="M101.676 38.265C101.379 38.3836 100.904 38.0279 100.547 37.3756C100.191 36.7234 100.132 36.0711 100.429 35.8933C100.726 35.7747 101.201 36.1304 101.557 36.7827C101.913 37.4349 101.913 38.1465 101.676 38.265Z" fill="#00FF3C"/>
<path d="M101.082 37.3761C101.142 37.3761 101.201 37.3168 101.201 37.2574C101.201 37.1386 101.142 36.9604 100.964 36.9011H100.904C100.845 36.9011 100.785 36.9604 100.785 37.0198C100.785 37.1386 100.845 37.3168 101.023 37.3761C101.023 37.3168 101.082 37.3761 101.082 37.3761Z" fill="url(#paint23_radial)"/>
<path d="M101.082 36.6054C101.142 36.6054 101.201 36.5459 101.201 36.4866C101.201 36.3678 101.142 36.1896 100.964 36.1302H100.904C100.845 36.1302 100.785 36.1897 100.785 36.2491C100.785 36.3679 100.845 36.546 101.023 36.6054H101.082Z" fill="url(#paint24_radial)"/>
<path d="M101.683 37.5568C101.971 37.4 101.912 36.7365 101.552 36.0748C101.192 35.4132 100.666 35.0039 100.378 35.1606C100.09 35.3174 100.149 35.9809 100.509 36.6426C100.87 37.3043 101.395 37.7136 101.683 37.5568Z" fill="#00FF3C"/>
<path d="M101.082 36.6054C101.142 36.6054 101.201 36.5459 101.201 36.4866C101.201 36.3678 101.142 36.1896 100.964 36.1302H100.904C100.845 36.1302 100.785 36.1897 100.785 36.2491C100.785 36.3679 100.845 36.546 101.023 36.6054H101.082Z" fill="url(#paint25_radial)"/>
<path d="M101.082 35.8345C101.142 35.8345 101.201 35.7751 101.201 35.7157C101.201 35.597 101.142 35.4188 100.964 35.3594H100.904C100.845 35.3594 100.785 35.4188 100.785 35.4782C100.785 35.597 100.845 35.7751 101.023 35.8345H101.082Z" fill="url(#paint26_radial)"/>
<path d="M101.676 36.7825C101.379 36.901 100.904 36.5453 100.547 35.893C100.191 35.2408 100.132 34.5886 100.429 34.4107C100.726 34.2328 101.201 34.6478 101.557 35.3001C101.854 35.9523 101.913 36.6046 101.676 36.7825Z" fill="#00FF3C"/>
<path d="M101.082 35.8345C101.142 35.8345 101.201 35.7751 101.201 35.7157C101.201 35.597 101.142 35.4188 100.964 35.3594H100.904C100.845 35.3594 100.785 35.4188 100.785 35.4782C100.785 35.597 100.845 35.7751 101.023 35.8345H101.082Z" fill="url(#paint27_radial)"/>
<path d="M101.676 38.265C101.379 38.3836 100.904 38.0279 100.547 37.3756C100.191 36.7234 100.132 36.0711 100.429 35.8933C100.726 35.7747 101.201 36.1304 101.557 36.7827C101.913 37.4349 101.913 38.1465 101.676 38.265Z" fill="#42E8E0"/>
<path d="M101.683 37.5568C101.971 37.4 101.912 36.7365 101.552 36.0748C101.192 35.4132 100.666 35.0039 100.378 35.1606C100.09 35.3174 100.149 35.9809 100.509 36.6426C100.87 37.3043 101.395 37.7136 101.683 37.5568Z" fill="#42E8E0"/>
<path d="M101.676 36.7825C101.379 36.901 100.904 36.5453 100.547 35.893C100.191 35.2408 100.132 34.5886 100.429 34.4107C100.726 34.2328 101.201 34.6478 101.557 35.3001C101.854 35.9523 101.913 36.6046 101.676 36.7825Z" fill="#42E8E0"/>
</g>
<defs>
<filter id="filter0_d" x="75.4688" y="47.1112" width="14.5433" height="13.3219" filterUnits="userSpaceOnUse" color-interpolation-filters="sRGB">
<feFlood flood-opacity="0" result="BackgroundImageFix"/>
<feColorMatrix in="SourceAlpha" type="matrix" values="0 0 0 0 0 0 0 0 0 0 0 0 0 0 0 0 0 0 127 0" result="hardAlpha"/>
<feOffset/>
<feGaussianBlur stdDeviation="1.59054"/>
<feColorMatrix type="matrix" values="0 0 0 0 0 0 0 0 0 0 0 0 0 0 0 0 0 0 0.1 0"/>
<feBlend mode="normal" in2="BackgroundImageFix" result="effect1_dropShadow"/>
<feBlend mode="normal" in="SourceGraphic" in2="effect1_dropShadow" result="shape"/>
</filter>
<linearGradient id="paint0_linear" x1="21.5844" y1="80.9363" x2="21.5844" y2="85.9488" gradientUnits="userSpaceOnUse">
<stop stop-color="#67B7C4"/>
<stop offset="1" stop-color="#50ABBB"/>
</linearGradient>
<linearGradient id="paint1_linear" x1="21.591" y1="51.4104" x2="21.591" y2="83.1333" gradientUnits="userSpaceOnUse">
<stop stop-color="#127D85"/>
<stop offset="1" stop-color="#96E3F1"/>
</linearGradient>
<linearGradient id="paint2_linear" x1="33.524" y1="2.38452" x2="33.524" y2="60.2626" gradientUnits="userSpaceOnUse">
<stop stop-color="#24A5BA"/>
<stop offset="1" stop-color="#A8D3DE"/>
</linearGradient>
<linearGradient id="paint3_linear" x1="106.303" y1="68.4543" x2="106.303" y2="88.8924" gradientUnits="userSpaceOnUse">
<stop stop-color="white"/>
<stop offset="1" stop-color="#C9C9C9" stop-opacity="0"/>
</linearGradient>
<linearGradient id="paint4_linear" x1="91.2606" y1="44.5104" x2="99.6698" y2="46.1778" gradientUnits="userSpaceOnUse">
<stop stop-color="#F7F7F7"/>
<stop offset="0.55" stop-color="#F2F2F9"/>
<stop offset="1" stop-color="#E9E9FD"/>
</linearGradient>
<linearGradient id="paint5_linear" x1="95.4804" y1="53.7912" x2="117.615" y2="53.7912" gradientUnits="userSpaceOnUse">
<stop stop-color="#F7F7F7"/>
<stop offset="0.55" stop-color="#F2F2F9"/>
<stop offset="1" stop-color="#E9E9FD"/>
</linearGradient>
<linearGradient id="paint6_linear" x1="99.001" y1="45.3413" x2="114.105" y2="45.3413" gradientUnits="userSpaceOnUse">
<stop stop-color="#42E8E0"/>
<stop offset="0.18" stop-color="#41E3DD"/>
<stop offset="0.38" stop-color="#3CD5D3"/>
<stop offset="0.61" stop-color="#35BDC3"/>
<stop offset="0.84" stop-color="#2C9CAD"/>
<stop offset="1" stop-color="#24819B"/>
</linearGradient>
<linearGradient id="paint7_linear" x1="114.923" y1="49.8443" x2="123.332" y2="51.5118" gradientUnits="userSpaceOnUse">
<stop stop-color="#F7F7F7"/>
<stop offset="0.55" stop-color="#F2F2F9"/>
<stop offset="1" stop-color="#E9E9FD"/>
</linearGradient>
<linearGradient id="paint8_linear" x1="115.791" y1="53.2169" x2="122.719" y2="48.175" gradientUnits="userSpaceOnUse">
<stop stop-color="#F7F7F7"/>
<stop offset="0.55" stop-color="#F2F2F9"/>
<stop offset="1" stop-color="#E9E9FD"/>
</linearGradient>
<radialGradient id="paint9_radial" cx="0" cy="0" r="1" gradientUnits="userSpaceOnUse" gradientTransform="translate(123.054 65.9577) rotate(6.88212) scale(2.96925 4.8867)">
<stop stop-color="#2BB675"/>
<stop offset="1" stop-color="#14444F"/>
</radialGradient>
<linearGradient id="paint10_linear" x1="119.614" y1="65.2834" x2="125.5" y2="66.0072" gradientUnits="userSpaceOnUse">
<stop stop-color="#F7F7F7"/>
<stop offset="0.55" stop-color="#F2F2F9"/>
<stop offset="1" stop-color="#E9E9FD"/>
</linearGradient>
<radialGradient id="paint11_radial" cx="0" cy="0" r="1" gradientUnits="userSpaceOnUse" gradientTransform="translate(90.6373 47.3458) rotate(54.2979) scale(7.23217 11.897)">
<stop stop-color="#2BB675"/>
<stop offset="1" stop-color="#23ABD8"/>
</radialGradient>
<linearGradient id="paint12_linear" x1="85.8502" y1="53.4887" x2="79.4885" y2="52.6873" gradientUnits="userSpaceOnUse">
<stop stop-color="white"/>
<stop offset="0.55" stop-color="#F2F2F9"/>
<stop offset="1" stop-color="#E9E9FD"/>
</linearGradient>
<linearGradient id="paint13_linear" x1="95.7859" y1="33.6495" x2="117.181" y2="33.6495" gradientUnits="userSpaceOnUse">
<stop stop-color="#F7F7F7"/>
<stop offset="0.55" stop-color="#F2F2F9"/>
<stop offset="1" stop-color="#E9E9FD"/>
</linearGradient>
<linearGradient id="paint14_linear" x1="105.1" y1="44.5108" x2="108.069" y2="23.3561" gradientUnits="userSpaceOnUse">
<stop stop-color="#F7F7F7"/>
<stop offset="0.55" stop-color="#F2F2F9"/>
<stop offset="1" stop-color="#E9E9FD"/>
</linearGradient>
<linearGradient id="paint15_linear" x1="95.8167" y1="34.527" x2="109.505" y2="34.527" gradientUnits="userSpaceOnUse">
<stop stop-color="#00ACBF"/>
<stop offset="0.29" stop-color="#04A7BB"/>
<stop offset="0.63" stop-color="#1099AF"/>
<stop offset="1" stop-color="#24819B"/>
</linearGradient>
<radialGradient id="paint16_radial" cx="0" cy="0" r="1" gradientUnits="userSpaceOnUse" gradientTransform="translate(97.3628 35.3458) rotate(180) scale(0.231892)">
<stop stop-color="white"/>
<stop offset="1" stop-color="#95FDA8"/>
</radialGradient>
<radialGradient id="paint17_radial" cx="0" cy="0" r="1" gradientUnits="userSpaceOnUse" gradientTransform="translate(97.3628 35.3458) rotate(180) scale(0.231892)">
<stop stop-color="white"/>
<stop offset="1" stop-color="#95FDA8"/>
</radialGradient>
<radialGradient id="paint18_radial" cx="0" cy="0" r="1" gradientUnits="userSpaceOnUse" gradientTransform="translate(97.3619 34.5944) scale(0.231714)">
<stop stop-color="white"/>
<stop offset="1" stop-color="#95FDA8"/>
</radialGradient>
<radialGradient id="paint19_radial" cx="0" cy="0" r="1" gradientUnits="userSpaceOnUse" gradientTransform="translate(97.3619 34.5944) scale(0.231714)">
<stop stop-color="white"/>
<stop offset="1" stop-color="#95FDA8"/>
</radialGradient>
<radialGradient id="paint20_radial" cx="0" cy="0" r="1" gradientUnits="userSpaceOnUse" gradientTransform="translate(97.359 33.8218) scale(0.23213)">
<stop stop-color="white"/>
<stop offset="1" stop-color="#95FDA8"/>
</radialGradient>
<radialGradient id="paint21_radial" cx="0" cy="0" r="1" gradientUnits="userSpaceOnUse" gradientTransform="translate(97.359 33.8218) scale(0.23213)">
<stop stop-color="white"/>
<stop offset="1" stop-color="#95FDA8"/>
</radialGradient>
<radialGradient id="paint22_radial" cx="0" cy="0" r="1" gradientUnits="userSpaceOnUse" gradientTransform="translate(101.009 37.0926) scale(0.232129)">
<stop stop-color="white"/>
<stop offset="1" stop-color="#95FDA8"/>
</radialGradient>
<radialGradient id="paint23_radial" cx="0" cy="0" r="1" gradientUnits="userSpaceOnUse" gradientTransform="translate(101.009 37.0926) scale(0.232129)">
<stop stop-color="white"/>
<stop offset="1" stop-color="#95FDA8"/>
</radialGradient>
<radialGradient id="paint24_radial" cx="0" cy="0" r="1" gradientUnits="userSpaceOnUse" gradientTransform="translate(101.009 36.342) scale(0.231713)">
<stop stop-color="white"/>
<stop offset="1" stop-color="#95FDA8"/>
</radialGradient>
<radialGradient id="paint25_radial" cx="0" cy="0" r="1" gradientUnits="userSpaceOnUse" gradientTransform="translate(101.009 36.342) scale(0.231713)">
<stop stop-color="white"/>
<stop offset="1" stop-color="#95FDA8"/>
</radialGradient>
<radialGradient id="paint26_radial" cx="0" cy="0" r="1" gradientUnits="userSpaceOnUse" gradientTransform="translate(101.006 35.5694) scale(0.232129)">
<stop stop-color="white"/>
<stop offset="1" stop-color="#95FDA8"/>
</radialGradient>
<radialGradient id="paint27_radial" cx="0" cy="0" r="1" gradientUnits="userSpaceOnUse" gradientTransform="translate(101.006 35.5694) scale(0.232129)">
<stop stop-color="white"/>
<stop offset="1" stop-color="#95FDA8"/>
</radialGradient>
<clipPath id="clip0">
<rect width="127" height="98" fill="white"/>
</clipPath>
</defs>
</svg>
