<svg width="112" height="94" viewBox="0 0 112 94" fill="none" xmlns="http://www.w3.org/2000/svg">
<path d="M92.5313 80.1085C90.6364 82.0883 88.8431 83.3678 87.4296 84.378C70.782 96.2436 51.0836 92.7856 46.8971 91.9404C40.714 90.6946 28.7648 88.2838 20.124 78.1893C7.05277 62.9196 9.08668 38.8651 19.2257 22.986C21.08 20.0802 30.8767 3.96197 50.7887 1.37605C62.8396 -0.189641 76.8837 2.96868 87.0567 11.4335C108.409 29.2016 106.887 65.0981 92.5313 80.1085Z" fill="#BCE7EE"/>
<path d="M7.85508 32.6395L58.0963 48.893L51.7508 68.2008L1.50955 51.9473L7.85508 32.6395Z" fill="#4EAABA"/>
<path d="M52.219 69.1072L59.0091 48.4288L7.38795 31.7202L0.589782 52.3999L52.219 69.1072ZM57.1812 49.3522L51.2906 67.2919L2.43383 51.4738L8.32436 33.5341L57.1812 49.3522Z" fill="#42CAE0"/>
<path d="M26.9527 58.0768C22.5483 56.652 20.1437 51.9496 21.5818 47.5738C23.02 43.198 27.7562 40.8058 32.1606 42.2306C36.5649 43.6555 38.9696 48.3578 37.5314 52.7336C36.0933 57.1095 31.357 59.5017 26.9527 58.0768Z" fill="#198295"/>
<path d="M17.0542 48.3405C16.0448 48.0139 15.4936 46.9361 15.8231 45.9333C16.1525 44.9305 17.2378 44.3824 18.2472 44.7091C19.2566 45.0358 19.8078 46.1135 19.4783 47.1163C19.1489 48.1191 18.0636 48.6672 17.0542 48.3405Z" fill="#198295"/>
<path d="M41.326 56.2026C40.3165 55.8764 39.7655 54.7992 40.0955 53.7965C40.4254 52.7939 41.5112 52.2455 42.5207 52.5717C43.5303 52.8979 44.0812 53.9751 43.7513 54.9778C43.4213 55.9804 42.3355 56.5288 41.326 56.2026Z" fill="#36B9B1"/>
<path d="M25.4473 2.11025L56.2744 45.1913L39.4903 57.0428L8.66313 13.9618L25.4473 2.11025Z" fill="#4EAABA"/>
<path d="M39.2726 58.0845L57.2563 45.3708L25.6292 1.11222L7.64555 13.826L39.2726 58.0845ZM55.2142 45.026L39.6168 56.0553L9.67932 14.1648L25.2767 3.13553L55.2142 45.026Z" fill="#40C7DF"/>
<path d="M25.5372 34.0838C22.8314 30.3054 23.7249 25.0642 27.5327 22.3774C31.3405 19.6906 36.6207 20.5756 39.3264 24.3541C42.0322 28.1326 41.1387 33.3737 37.3309 36.0605C33.5231 38.7473 28.2429 37.8623 25.5372 34.0838Z" fill="#198295"/>
<path d="M26.6959 35.053L28.427 33.8302C29.1494 34.8039 30.1907 35.608 31.0437 35.9004L31.9044 34.6813C31.0538 34.3592 30.0961 33.7027 29.4144 32.7516C28.5499 31.5446 28.671 30.227 29.6492 29.5385C30.5938 28.8701 31.6541 29.1212 33.065 30.0185C34.9925 31.2708 36.5539 31.7842 38.0404 30.7335C39.4682 29.7292 39.8247 27.9624 38.9661 26.2119L40.6972 24.9891L39.939 23.9333L38.2738 25.1086C37.5107 24.1122 36.7335 23.6093 36.0876 23.3195L35.258 24.5482C35.7209 24.7581 36.5976 25.1933 37.3761 26.2824C38.317 27.5942 37.8792 28.6485 37.1911 29.1281C36.2991 29.7585 35.4054 29.4434 33.7266 28.3995C31.7488 27.1554 30.2229 26.9002 28.6968 27.9793C27.3422 28.935 26.746 30.7705 27.706 32.7316L25.9222 33.9924L26.6959 35.053Z" fill="#4CB5C2"/>
<path d="M23.415 20.3076C22.7977 19.4448 23.0018 18.2477 23.8709 17.6338C24.7399 17.02 25.9448 17.2219 26.5621 18.0847C27.1793 18.9476 26.9752 20.1447 26.1061 20.7585C25.2371 21.3724 24.0322 21.1705 23.415 20.3076Z" fill="#198295"/>
<path d="M38.31 41.1189C37.6927 40.2561 37.8968 39.0592 38.7659 38.4454C39.6351 37.8317 40.8401 38.0336 41.4575 38.8964C42.0748 39.7592 41.8707 40.9561 41.0016 41.5698C40.1325 42.1835 38.9274 41.9816 38.31 41.1189Z" fill="#135F6D"/>
<path d="M94.1088 11.5581L76.843 55.3175L93.8417 61.9294L111.107 18.17L94.1088 11.5581Z" fill="#4EAABA"/>
<path d="M94.208 62.7636L76.0041 55.6807L93.7437 10.7192L111.953 17.7973L94.208 62.7636ZM77.6833 54.9494L93.4762 61.0944L110.263 18.5382L94.4701 12.3932L77.6833 54.9494Z" fill="#42CAE0"/>
<path d="M100.91 39.1369C102.424 35.3007 100.527 30.9763 96.6746 29.478C92.8218 27.9797 88.4712 29.8748 86.9573 33.711C85.4434 37.5472 87.3395 41.8716 91.1924 43.3699C95.0452 44.8682 99.3958 42.9731 100.91 39.1369Z" fill="#198295"/>
<path d="M100.054 40.3662L98.3164 39.6439C97.8848 40.63 97.1458 41.5327 96.469 41.9573L95.4837 41.0691C96.1519 40.6232 96.8525 39.8663 97.2562 38.9035C97.7548 37.6816 97.393 36.5647 96.4068 36.1599C95.4606 35.769 94.5931 36.1924 93.5513 37.2539C92.1287 38.7196 90.8921 39.4709 89.3931 38.8518C87.9641 38.2593 87.3022 36.7974 87.7021 35.1091L85.9646 34.3869L86.408 33.3247L88.0812 34.0156C88.5462 33.0015 89.1134 32.4131 89.6107 32.0346L90.5691 32.9359C90.21 33.2081 89.5431 33.757 89.0859 34.8592C88.5375 36.1797 89.1206 37.0072 89.8076 37.2933C90.6987 37.664 91.4135 37.217 92.6566 35.9775C94.1155 34.5099 95.3837 33.9876 96.9172 34.6252C98.2763 35.191 99.1597 36.6568 98.7159 38.5522L100.508 39.2947L100.054 40.3662Z" fill="#4CB5C2"/>
<path d="M99.7794 26.8021C100.126 25.9229 99.6918 24.9319 98.8089 24.5885C97.9261 24.2451 96.9292 24.6794 96.5823 25.5585C96.2354 26.4377 96.6699 27.4288 97.5528 27.7722C98.4356 28.1156 99.4325 27.6812 99.7794 26.8021Z" fill="#198295"/>
<g filter="url(#filter0_d)">
<path d="M32.925 49.1046V56.1134C32.925 57.4528 31.82 58.5517 30.4731 58.5517H25.4209C24.074 58.5517 22.969 57.4528 22.969 56.1134V49.1046C22.969 47.7652 24.074 46.6663 25.4209 46.6663H30.4731C31.82 46.6609 32.925 47.7597 32.925 49.1046Z" fill="#A4EDF9"/>
<path d="M32.925 49.1049V53.0087C32.925 54.3483 31.82 55.4472 30.4731 55.4472H25.4209C24.074 55.4472 22.969 54.3483 22.969 53.0087V49.1049C22.969 47.7653 24.074 46.6663 25.4209 46.6663H30.4731C31.82 46.6609 32.925 47.7599 32.925 49.1049Z" fill="#E1FBFF"/>
<path d="M88.8842 52.6101C88.8842 56.1965 88.1475 59.6188 86.8171 62.735C82.8204 72.0891 73.4802 78.6933 62.661 78.6933H55.1569C45.5857 78.6933 37.1635 73.527 32.5841 65.8567C30.2641 61.9696 28.9282 57.4375 28.9282 52.6101C28.9282 49.0237 29.6649 45.6013 30.9953 42.4851C34.992 33.131 44.3323 26.5323 55.1514 26.5323H62.65C72.4906 26.5323 81.1052 31.9939 85.5912 40.014C87.6912 43.748 88.8842 48.0451 88.8842 52.6101Z" fill="#BEEDF4"/>
<path d="M85.5967 40.0084C86.2179 43.0153 85.7286 47.3179 84.9315 49.5922C79.6374 64.7304 67.1965 67.4639 54.4807 68.6175C45.4373 69.4375 32.5841 65.8511 32.5841 65.8511C30.2641 61.9641 28.9282 57.4319 28.9282 52.6045C28.9282 49.0181 29.6649 45.5958 30.9953 42.4795C34.992 33.1254 44.3323 26.5267 55.1514 26.5267H62.65C72.4961 26.5267 81.1162 31.9828 85.5967 40.0084Z" fill="#E9FCFF"/>
<path d="M52.0673 33.059H41.7484C40.7094 33.059 39.8628 32.4302 39.8628 31.6539V17.6474C39.8628 17.4068 39.9398 17.1882 40.0662 17.0023C40.572 16.2752 41.8969 15.9745 42.8809 16.5321C46.7952 18.7408 53.2163 23.5408 53.9364 31.561C54.0189 32.3701 53.1558 33.059 52.0673 33.059Z" fill="#E1FBFF"/>
<path d="M42.1663 33.0591H41.7484C40.7094 33.0591 39.8628 32.4304 39.8628 31.6541V17.6475C39.8628 17.407 39.9398 17.1883 40.0662 17.0024C40.1102 17.0407 40.1542 17.079 40.1926 17.1282C42.4356 19.6102 45.6627 24.4813 44.7556 31.3096C44.6291 32.3046 43.5077 33.0591 42.1663 33.0591Z" fill="#A4EDF9"/>
<path d="M38.2691 43.9551C39.1195 43.9551 39.8089 43.2697 39.8089 42.4242C39.8089 41.5787 39.1195 40.8933 38.2691 40.8933C37.4187 40.8933 36.7294 41.5787 36.7294 42.4242C36.7294 43.2697 37.4187 43.9551 38.2691 43.9551Z" fill="#198295"/>
<path d="M67.092 67.616L64.6456 83.4158C64.3213 84.6404 65.2504 85.8377 66.5203 85.8377H72.9524C74.3323 85.8377 75.5912 85.0723 76.2234 83.8531L86.2179 64.0297L67.092 67.616Z" fill="#BEEDF4"/>
<path d="M52.4576 67.8894L54.4203 83.4158C54.7446 84.6404 53.8155 85.8377 52.5456 85.8377H46.1135C44.7336 85.8377 43.4747 85.0723 42.8425 83.8532L32.5896 65.8503L52.4576 67.8894Z" fill="#BEEDF4"/>
<path d="M95.135 59.6998C94.9865 59.6998 94.8381 59.6834 94.6952 59.6451C93.5572 59.3444 92.903 57.9941 92.9909 56.1134C93.0789 54.271 93.854 52.3248 95.1185 50.7721C95.6792 50.0833 96.3224 49.4874 97.0481 48.9789C96.7073 48.4213 96.251 47.8855 95.6297 47.4263C94.5797 46.6445 93.4912 46.4149 92.3092 46.7374C89.1317 47.5958 86.4379 52.1115 86.218 52.62C86.119 52.8933 85.8222 53.0355 85.5418 52.9425C85.2614 52.8496 85.1075 52.5489 85.2009 52.2646C85.2944 51.9803 86.0805 50.6354 87.1801 49.296C89.0932 46.9671 90.7589 46.0869 91.8255 45.7534C93.4032 45.2613 94.8986 45.5347 96.273 46.5625C96.9547 47.0709 97.5209 47.6887 97.9552 48.3994C99.0437 47.7926 100.275 47.3771 101.611 47.1584C101.902 47.1092 102.183 47.306 102.227 47.6012C102.276 47.891 102.078 48.1698 101.781 48.2135C100.556 48.4158 99.434 48.7985 98.439 49.3561C98.7413 50.0887 98.9393 50.8924 99.0107 51.7616C99.1647 53.5494 98.8073 55.5066 98.0212 57.1248C97.224 58.7704 96.1685 59.6998 95.135 59.6998ZM97.5209 49.9521C96.9382 50.384 96.4104 50.8815 95.9541 51.4446C94.8326 52.8223 94.1399 54.5389 94.0629 56.1626C94.0025 57.4474 94.3708 58.4533 94.9645 58.6118C95.5638 58.7704 96.4269 57.9667 97.0591 56.6656C97.7518 55.2387 98.0871 53.44 97.9497 51.8601C97.8947 51.286 97.7793 50.6245 97.5209 49.9521ZM86.2235 52.5981C86.2235 52.6036 86.2235 52.6036 86.218 52.609C86.218 52.6036 86.2235 52.6036 86.2235 52.5981Z" fill="#E1FBFF"/>
</g>
<path d="M61.0503 31.5777C60.8853 31.7035 60.7094 31.8237 60.528 31.9331C60.4565 31.9768 60.3851 32.0151 60.3136 32.0588C60.1267 32.1627 59.9398 32.2502 59.7473 32.3322C59.6924 32.3212 59.6374 32.3103 59.5824 32.3048C59.2361 32.2447 58.8897 32.1955 58.5489 32.1463C58.3785 32.1244 58.2135 32.0971 58.0486 32.0752C57.3559 31.9823 56.6907 31.9112 56.0585 31.8511C55.8881 31.8347 55.7177 31.8183 55.5527 31.8073C55.4208 31.7964 55.2944 31.7855 55.1624 31.7745C54.8491 31.7527 54.5467 31.7308 54.2553 31.7144C53.8485 31.4246 53.4692 31.0802 53.1448 30.6866C52.9304 30.4242 52.7325 30.1344 52.5621 29.8283C51.0393 27.0838 52.0453 23.6341 54.8051 22.1197C54.8765 22.0815 54.9535 22.0432 55.025 22.0049C57.7462 20.6601 61.0777 21.6769 62.5566 24.3503C63.931 26.8378 63.2383 29.8993 61.0503 31.5777Z" fill="#25B4CB"/>
<path d="M61.0503 31.5777C60.8853 31.7035 60.7094 31.8237 60.528 31.9331C60.4565 31.9768 60.3851 32.0151 60.3136 32.0588C60.1267 32.1627 59.9398 32.2502 59.7473 32.3322C59.6924 32.3212 59.6374 32.3103 59.5824 32.3048C59.2361 32.2447 58.8897 32.1955 58.5489 32.1463C58.3785 32.1244 58.2135 32.0971 58.0486 32.0752C57.3559 31.9823 56.6907 31.9112 56.0585 31.8511C55.8881 31.8347 55.7177 31.8183 55.5527 31.8073C55.4208 31.7964 55.2944 31.7855 55.1624 31.7745C54.8491 31.7527 54.5467 31.7308 54.2553 31.7144C53.8485 31.4246 53.4692 31.0802 53.1448 30.6866C52.9304 30.4242 52.7325 30.1344 52.5621 29.8283C51.0393 27.0838 52.0453 23.6341 54.8051 22.1197C54.8765 22.0815 54.9535 22.0432 55.025 22.0049C57.7462 20.6601 61.0777 21.6769 62.5566 24.3503C63.931 26.8378 63.2383 29.8993 61.0503 31.5777Z" fill="#7F86FF"/>
<path d="M60.1057 27.6419C60.0067 27.4013 59.8803 27.2099 59.7263 27.0678C59.5724 26.9256 59.3855 26.8217 59.1821 26.7506C58.9732 26.6796 58.7423 26.6358 58.4894 26.6194C58.2365 26.603 57.9561 26.5976 57.6593 26.6085C57.4724 26.614 57.3184 26.6085 57.1865 26.5976C57.0546 26.5866 56.9446 26.5593 56.8511 26.5265C56.7577 26.4882 56.6862 26.439 56.6257 26.3734C56.5708 26.3078 56.5213 26.2312 56.4828 26.1437C56.4443 26.0508 56.4223 25.9633 56.4168 25.8704C56.4113 25.7829 56.4223 25.6954 56.4553 25.6134C56.4883 25.5314 56.5433 25.4603 56.6148 25.3892C56.6862 25.3181 56.7852 25.2635 56.9061 25.2143C57.126 25.1268 57.3349 25.1268 57.5273 25.2197C57.7198 25.3127 57.8792 25.5095 58.0001 25.8048L59.1601 25.3345C59.0612 25.0885 58.9347 24.8753 58.7808 24.7058C58.6268 24.5363 58.4564 24.4051 58.264 24.3121C58.0716 24.2192 57.8627 24.1645 57.6428 24.1481C57.4174 24.1317 57.1865 24.1536 56.9391 24.2192L56.6093 23.4154L55.966 23.6779L56.2904 24.4707C56.0595 24.591 55.8616 24.7276 55.7022 24.8917C55.5427 25.0502 55.4163 25.2252 55.3283 25.4056C55.2404 25.5915 55.1964 25.7829 55.1909 25.9907C55.1854 26.193 55.2294 26.4007 55.3118 26.614C55.4108 26.8545 55.5372 27.0514 55.6967 27.188C55.8506 27.3302 56.032 27.4341 56.2409 27.5052C56.4443 27.5762 56.6807 27.6145 56.9336 27.6309C57.192 27.6473 57.4669 27.6419 57.7692 27.6309C57.9452 27.62 58.0936 27.62 58.22 27.6364C58.3465 27.6473 58.4564 27.6747 58.5499 27.7075C58.6433 27.7457 58.7203 27.7949 58.7808 27.866C58.8413 27.9316 58.8962 28.0191 58.9347 28.123C58.9732 28.2159 58.9897 28.3089 58.9897 28.3964C58.9897 28.4893 58.9677 28.5768 58.9292 28.6588C58.8852 28.7408 58.8248 28.8174 58.7423 28.8885C58.6598 28.9595 58.5554 29.0197 58.4289 29.0689C58.319 29.1126 58.2035 29.14 58.0881 29.1564C57.9726 29.1728 57.8572 29.1618 57.7417 29.1236C57.6318 29.0853 57.5273 29.0197 57.4284 28.9213C57.3294 28.8228 57.247 28.6862 57.1755 28.5112L56.01 28.9814C56.131 29.2767 56.2849 29.5118 56.4663 29.6867C56.6477 29.8617 56.8511 29.9874 57.071 30.0585C57.2909 30.1351 57.5163 30.1679 57.7527 30.1569C57.9891 30.146 58.2255 30.1077 58.4564 30.0421L58.7588 30.7802L59.3965 30.5233L59.0941 29.7851C59.325 29.6648 59.5229 29.5282 59.6934 29.3696C59.8583 29.211 59.9847 29.0415 60.0727 28.8611C60.1607 28.6807 60.2046 28.4839 60.2101 28.2816C60.2321 28.0738 60.1936 27.8606 60.1057 27.6419Z" fill="white"/>
<path d="M67.312 33.5074C67.2351 33.7535 66.9712 33.912 66.6963 33.83C64.2169 33.0591 61.5946 32.5506 59.0053 32.2554C56.1631 31.9328 53.2659 31.8672 51.897 31.9601C51.6276 31.9765 51.3912 31.7742 51.3747 31.5008C51.3582 31.2329 51.5616 30.9978 51.8365 30.9814C53.9585 30.8557 56.9437 31.0197 59.1977 31.2876C61.7815 31.5883 64.4588 32.1077 66.9822 32.8896C67.2461 32.9771 67.389 33.2505 67.312 33.5074Z" fill="#198295"/>
<path d="M41.8075 90.9766C41.8346 89.3065 37.0219 87.8754 31.0582 87.7802C25.0945 87.6851 20.2379 88.9619 20.2109 90.6321C20.1838 92.3023 24.9964 93.7334 30.9602 93.8285C36.9239 93.9236 41.7804 92.6468 41.8075 90.9766Z" fill="#198295"/>
<path d="M41.804 90.9772L41.8936 89.0439L39.9295 89.3049L20.3007 88.7L20.2112 90.6333L26.6228 92.7266L35.7745 91.7244L41.804 90.9772Z" fill="#198295"/>
<path d="M41.8946 89.0443C41.9217 87.3741 37.109 85.9431 31.1453 85.848C25.1816 85.7529 20.3251 87.0298 20.298 88.7C20.271 90.3701 25.0836 91.8012 31.0473 91.8963C37.0111 91.9914 41.8676 90.7145 41.8946 89.0443Z" fill="#25B4CB"/>
<path d="M22.8191 88.5458L24.8548 88.5755C24.8787 88.2493 25.2488 87.9172 25.7562 87.7274L27.1054 87.8876C26.6159 88.0833 26.2278 88.3679 26.2219 88.6882C26.2159 89.0914 27.0397 89.3761 28.1919 89.3939C29.3023 89.4116 29.9948 89.2041 30.6037 88.7949C31.4216 88.2315 32.3529 87.8876 34.108 87.9172C35.7855 87.9469 37.0511 88.2968 37.3436 88.8245L39.3793 88.8542L39.3734 89.2041L37.4153 89.1744C37.3675 89.5125 37.0451 89.7378 36.6989 89.8979L35.3676 89.7378C35.6124 89.6251 36.0601 89.3998 36.0661 89.038C36.0721 88.6051 35.1467 88.4272 34.3408 88.4094C33.2901 88.3916 32.7648 88.5933 32.0305 89.0736C31.1708 89.6429 30.1202 89.9216 28.3232 89.892C26.7293 89.8683 25.2428 89.5303 24.9085 88.9432L22.8071 88.9076L22.8191 88.5458Z" fill="white"/>
<path d="M39.6095 86.883C39.6366 85.2128 34.8239 83.7817 28.8602 83.6866C22.8965 83.5914 18.0399 84.8682 18.0129 86.5384C17.9858 88.2086 22.7984 89.6397 28.7622 89.7348C34.7259 89.83 39.5824 88.5532 39.6095 86.883Z" fill="#198295"/>
<path d="M39.6065 86.8861L39.696 84.9588L37.732 85.2138L18.1032 84.6148L18.0137 86.5421L24.4253 88.6415L33.577 87.6333L39.6065 86.8861Z" fill="#198295"/>
<path d="M39.7026 84.9565C39.7297 83.2863 34.9171 81.8552 28.9533 81.7601C22.9896 81.665 18.1331 82.9418 18.106 84.612C18.0789 86.2822 22.8916 87.7132 28.8553 87.8084C34.8191 87.9035 39.6756 86.6267 39.7026 84.9565Z" fill="#25B4CB"/>
<path d="M20.6233 84.4547L22.659 84.4844C22.6829 84.1582 23.053 83.8261 23.5604 83.6364L24.9096 83.7965C24.4201 83.9922 24.032 84.2768 24.0261 84.5971C24.0201 85.0003 24.8439 85.285 25.9961 85.3028C27.1065 85.3206 27.799 85.113 28.4079 84.7038C29.2258 84.1404 30.1571 83.7965 31.9122 83.8261C33.5897 83.8558 34.8553 84.2057 35.1478 84.7335L37.1835 84.7631L37.1776 85.113L35.2195 85.0833C35.1717 85.4214 34.8493 85.6467 34.5031 85.8068L33.1718 85.6467C33.4166 85.534 33.8643 85.3087 33.8703 84.9469C33.8763 84.514 32.9509 84.3361 32.145 84.3183C31.0943 84.3005 30.569 84.5022 29.8347 84.9825C28.975 85.5518 27.9244 85.8306 26.1274 85.8009C24.5335 85.7772 23.047 85.4392 22.7127 84.8521L20.6113 84.8165L20.6233 84.4547Z" fill="white"/>
<path d="M42.1989 84.3461C42.2259 82.6759 37.4133 81.2448 31.4495 81.1497C25.4858 81.0546 20.6293 82.3314 20.6022 84.0016C20.5752 85.6717 25.3878 87.1028 31.3515 87.198C37.3153 87.2931 42.1718 86.0163 42.1989 84.3461Z" fill="#198295"/>
<path d="M42.1985 84.3419L42.2881 82.4145L40.324 82.6754L20.6953 82.0706L20.6057 83.9979L27.0173 86.0972L36.169 85.095L42.1985 84.3419Z" fill="#198295"/>
<path d="M42.2921 82.414C42.3192 80.7438 37.5066 79.3127 31.5428 79.2175C25.5791 79.1224 20.7226 80.3992 20.6955 82.0694C20.6684 83.7396 25.4811 85.1707 31.4448 85.2658C37.4085 85.361 42.2651 84.0841 42.2921 82.414Z" fill="#25B4CB"/>
<path d="M23.2136 81.9166L25.2493 81.9462C25.2732 81.6201 25.6433 81.288 26.1508 81.0982L27.4999 81.2583C27.0104 81.454 26.6224 81.7387 26.6164 82.0589C26.6104 82.4622 27.4343 82.7468 28.5864 82.7646C29.6968 82.7824 30.3893 82.5748 30.9983 82.1657C31.8161 81.6023 32.7474 81.2583 34.5025 81.288C36.18 81.3176 37.4457 81.6675 37.7382 82.1953L39.7798 82.225L39.7739 82.5748L37.8158 82.5452C37.768 82.8832 37.4457 83.1086 37.0994 83.2687L35.7681 83.1086C36.0129 82.9959 36.4606 82.7705 36.4666 82.4088C36.4726 81.9759 35.5472 81.798 34.7413 81.7802C33.6906 81.7624 33.1653 81.964 32.431 82.4444C31.5714 83.0137 30.5207 83.2924 28.7238 83.2628C27.1298 83.239 25.6433 82.901 25.309 82.3139L23.2076 82.2724L23.2136 81.9166Z" fill="white"/>
<path d="M42.2146 81.4689C42.2417 79.7987 37.4291 78.3676 31.4653 78.2725C25.5016 78.1773 20.6451 79.4541 20.618 81.1243C20.5909 82.7945 25.4035 84.2256 31.3673 84.3207C37.331 84.4159 42.1875 83.139 42.2146 81.4689Z" fill="#198295"/>
<path d="M42.2164 81.4659L42.3059 79.5386L40.3418 79.7995L20.7131 79.1946L20.6235 81.1219L27.0351 83.2213L36.1868 82.219L42.2164 81.4659Z" fill="#198295"/>
<path d="M42.3078 79.5365C42.3348 77.8663 37.5222 76.4352 31.5585 76.3401C25.5947 76.245 20.7382 77.5218 20.7111 79.192C20.6841 80.8621 25.4967 82.2932 31.4604 82.3884C37.4242 82.4835 42.2807 81.2067 42.3078 79.5365Z" fill="#25B4CB"/>
<path d="M23.2313 79.0409L25.273 79.0706C25.2969 78.7444 25.667 78.4123 26.1744 78.2226L27.5236 78.3827C27.0341 78.5784 26.646 78.863 26.6401 79.1833C26.6341 79.5865 27.4579 79.8712 28.6101 79.889C29.7205 79.9068 30.413 79.6992 31.0219 79.29C31.8398 78.7266 32.7711 78.3827 34.5262 78.4123C36.2037 78.442 37.4693 78.7919 37.7618 79.3197L39.7975 79.3493L39.7916 79.6992L37.8335 79.6696C37.7857 80.0076 37.4634 80.2329 37.1171 80.393L35.7858 80.2329C36.0306 80.1203 36.4783 79.8949 36.4843 79.5332C36.4903 79.1002 35.5649 78.9223 34.759 78.9045C33.7083 78.8868 33.183 79.0884 32.4487 79.5687C31.5891 80.138 30.5384 80.4168 28.7415 80.3871C27.1475 80.3634 25.661 80.0254 25.3267 79.4383L23.2253 79.3968L23.2313 79.0409Z" fill="white"/>
<path d="M42.2306 78.7296C42.2577 77.0594 37.445 75.6284 31.4813 75.5332C25.5176 75.4381 20.661 76.7149 20.634 78.3851C20.6069 80.0553 25.4195 81.4864 31.3833 81.5815C37.347 81.6766 42.2035 80.3998 42.2306 78.7296Z" fill="#198295"/>
<path d="M42.2283 78.7331L42.3179 76.8058L40.3538 77.0667L20.725 76.4619L20.6355 78.3892L27.0471 80.4885L36.1988 79.4863L42.2283 78.7331Z" fill="#198295"/>
<path d="M42.3237 76.803C42.3508 75.1328 37.5382 73.7017 31.5744 73.6066C25.6107 73.5114 20.7542 74.7883 20.7271 76.4584C20.7 78.1286 25.5127 79.5597 31.4764 79.6548C37.4402 79.75 42.2967 78.4731 42.3237 76.803Z" fill="#25B4CB"/>
<path d="M23.2434 76.302L25.2791 76.3316C25.303 76.0054 25.6731 75.6734 26.1805 75.4836L27.5297 75.6437C27.0402 75.8394 26.6521 76.1241 26.6462 76.4443C26.6402 76.8475 27.464 77.1322 28.6162 77.15C29.7266 77.1678 30.4191 76.9602 31.028 76.551C31.8459 75.9877 32.7772 75.6437 34.5323 75.6734C36.2098 75.703 37.4754 76.0529 37.7679 76.5807L39.8037 76.6103L39.7977 76.9602L37.8396 76.9306C37.7918 77.2686 37.4695 77.4939 37.1232 77.6541L35.7919 77.4939C36.0367 77.3813 36.4844 77.1559 36.4904 76.7942C36.4964 76.3613 35.5711 76.1834 34.7651 76.1656C33.7144 76.1478 33.1891 76.3494 32.4548 76.8298C31.5952 77.3991 30.5445 77.6778 28.7476 77.6481C27.1536 77.6244 25.6671 77.2864 25.3328 76.6993L23.2314 76.6637L23.2434 76.302Z" fill="white"/>
<path d="M39.8092 76.5684C39.8363 74.8983 35.0237 73.4672 29.0599 73.372C23.0962 73.2769 18.2397 74.5537 18.2126 76.2239C18.1855 77.8941 22.9981 79.3252 28.9619 79.4203C34.9256 79.5154 39.7822 78.2386 39.8092 76.5684Z" fill="#198295"/>
<path d="M39.8039 76.5749L39.8934 74.6417L37.9294 74.9026L18.3006 74.2977L18.2111 76.225L24.6226 78.3244L33.7744 77.3221L39.8039 76.5749Z" fill="#198295"/>
<path d="M39.8964 74.6417C39.9234 72.9716 35.1108 71.5405 29.1471 71.4454C23.1833 71.3502 18.3268 72.6271 18.2997 74.2972C18.2727 75.9674 23.0853 77.3985 29.0491 77.4936C35.0128 77.5888 39.8693 76.3119 39.8964 74.6417Z" fill="#25B4CB"/>
<path d="M20.8203 74.1435L22.856 74.1732C22.8799 73.847 23.25 73.5149 23.7574 73.3252L25.1066 73.4853C24.6171 73.681 24.2291 73.9656 24.2231 74.2859C24.2171 74.6891 25.0409 74.9738 26.1931 74.9916C27.3035 75.0094 27.996 74.8018 28.6049 74.3926C29.4228 73.8292 30.3541 73.4853 32.1092 73.5149C33.7867 73.5446 35.0523 73.8945 35.3448 74.4223L37.3806 74.4519L37.3746 74.8018L35.4165 74.7722C35.3687 75.1102 35.0464 75.3355 34.7001 75.4956L33.3688 75.3355C33.6136 75.2229 34.0613 74.9975 34.0673 74.6358C34.0733 74.2028 33.148 74.0249 32.342 74.0071C31.2913 73.9894 30.766 74.191 30.0317 74.6713C29.1721 75.2406 28.1214 75.5194 26.3245 75.4897C24.7305 75.466 23.244 75.128 22.9097 74.5409L20.8083 74.5053L20.8203 74.1435Z" fill="white"/>
<path d="M43.1357 71.952C43.1627 70.2818 38.3501 68.8507 32.3864 68.7555C26.4226 68.6603 21.5661 69.9371 21.539 71.6072C21.5119 73.2774 26.3246 74.7086 32.2883 74.8038C38.2521 74.899 43.1086 73.6222 43.1357 71.952Z" fill="#198295"/>
<path d="M43.1288 71.955L43.2243 70.0217L41.2543 70.2826L21.6315 69.6777L21.536 71.611L27.9536 73.7044L37.1053 72.7022L43.1288 71.955Z" fill="#198295"/>
<path d="M43.2228 70.0254C43.2499 68.3552 38.4372 66.9241 32.4735 66.829C26.5097 66.7338 21.6532 68.0107 21.6262 69.6809C21.5991 71.351 26.4117 72.7821 32.3755 72.8773C38.3392 72.9724 43.1957 71.6956 43.2228 70.0254Z" fill="#25B4CB"/>
<path d="M24.1514 69.524L26.1871 69.5536C26.211 69.2275 26.5811 68.8954 27.0885 68.7056L28.4377 68.8657C27.9482 69.0614 27.5601 69.3461 27.5542 69.6663C27.5482 70.0696 28.372 70.3542 29.5242 70.372C30.6346 70.3898 31.3271 70.1822 31.936 69.773C32.7539 69.2097 33.6852 68.8657 35.4403 68.8954C37.1178 68.925 38.3834 69.2749 38.6759 69.8027L40.7116 69.8323L40.7057 70.1822L38.7595 70.1467C38.7117 70.4847 38.3894 70.71 38.0431 70.8701L36.7119 70.71C36.9566 70.5974 37.4044 70.372 37.4103 70.0103C37.4163 69.5773 36.491 69.3994 35.6851 69.3816C34.6344 69.3639 34.109 69.5655 33.3747 70.0458C32.5151 70.6151 31.4644 70.8939 29.6675 70.8642C28.0735 70.8405 26.5871 70.5025 26.2527 69.9154L24.1514 69.8798V69.524Z" fill="white"/>
<path d="M81.5269 20.2053C86.1434 17.6752 87.8225 11.903 85.2771 7.31269C82.7318 2.7224 76.926 1.05227 72.3095 3.58236C67.693 6.11244 66.014 11.8846 68.5593 16.4749C71.1046 21.0652 76.9104 22.7354 81.5269 20.2053Z" fill="#135F6D"/>
<path d="M81.5269 20.2053C86.1434 17.6752 87.8225 11.903 85.2771 7.31269C82.7318 2.7224 76.926 1.05227 72.3095 3.58236C67.693 6.11244 66.014 11.8846 68.5593 16.4749C71.1046 21.0652 76.9104 22.7354 81.5269 20.2053Z" fill="#686DC7"/>
<path d="M81.1467 20.3989C81.0313 20.47 80.9103 20.541 80.7894 20.6066C80.7509 20.6285 80.7069 20.6504 80.6685 20.6722C80.575 20.7214 80.4815 20.7706 80.3881 20.8144C75.8416 23.034 70.3001 21.3283 67.8262 16.8726C65.4678 12.6193 66.7377 7.35454 70.6025 4.58822C70.9104 4.36954 71.2347 4.16179 71.5756 3.97591C71.6965 3.91031 71.8229 3.84471 71.9439 3.78457C72.0648 3.72443 72.1858 3.66976 72.3067 3.61509C72.6806 3.45108 73.0599 3.30893 73.4447 3.19413C74.0165 3.02465 74.5937 2.90984 75.1709 2.84971C76.9686 2.65836 78.7773 2.98638 80.3826 3.76816C82.0868 4.59369 83.5547 5.93311 84.5387 7.70989C87.0181 12.1819 85.4953 17.7692 81.1467 20.3989Z" fill="#25B4CB"/>
<path d="M81.1467 20.3989C81.0313 20.47 80.9103 20.541 80.7894 20.6066C80.7509 20.6285 80.7069 20.6504 80.6685 20.6722C80.575 20.7214 80.4815 20.7706 80.3881 20.8144C75.8416 23.034 70.3001 21.3283 67.8262 16.8726C65.4678 12.6193 66.7377 7.35454 70.6025 4.58822C70.9104 4.36954 71.2347 4.16179 71.5756 3.97591C71.6965 3.91031 71.8229 3.84471 71.9439 3.78457C72.0648 3.72443 72.1858 3.66976 72.3067 3.61509C72.6806 3.45108 73.0599 3.30893 73.4447 3.19413C74.0165 3.02465 74.5937 2.90984 75.1709 2.84971C76.9686 2.65836 78.7773 2.98638 80.3826 3.76816C82.0868 4.59369 83.5547 5.93311 84.5387 7.70989C87.0181 12.1819 85.4953 17.7692 81.1467 20.3989Z" fill="#7F86FF"/>
<path d="M80.4421 13.2155C80.4256 13.1663 80.4037 13.1225 80.3817 13.0788C80.2277 12.7398 80.0353 12.4665 79.8044 12.2587C79.5405 12.0236 79.2382 11.8432 78.8918 11.723C78.5455 11.6027 78.1607 11.5316 77.7319 11.5043C77.303 11.4769 76.8413 11.4715 76.341 11.4879C76.0331 11.4988 75.7692 11.4933 75.5493 11.4715C75.3294 11.4496 75.1425 11.4113 74.9886 11.3512C74.8347 11.2911 74.7137 11.2036 74.6148 11.0997C74.5213 10.9958 74.4388 10.8646 74.3784 10.7116C74.3179 10.5585 74.2794 10.4054 74.2684 10.2578C74.2574 10.1047 74.2794 9.96257 74.3344 9.8259C74.3894 9.68922 74.4773 9.56348 74.5983 9.44867C74.7192 9.33386 74.8841 9.23545 75.0875 9.15345C75.4614 9.00037 75.8077 9.00584 76.1321 9.16439C76.4564 9.32293 76.7148 9.65095 76.9182 10.143L78.8643 9.35573C78.6939 8.94024 78.485 8.59034 78.2266 8.30606C77.9737 8.02177 77.6824 7.79762 77.3635 7.64455C77.0447 7.49147 76.6983 7.39853 76.319 7.3712C75.9452 7.34386 75.5493 7.38213 75.148 7.49147L74.5983 6.14111L73.5208 6.57848L74.065 7.90697C73.6747 8.10925 73.3448 8.33886 73.0755 8.60674C72.8061 8.87463 72.5972 9.15892 72.4542 9.47054C72.3113 9.78216 72.2343 10.1047 72.2233 10.4437C72.2178 10.7826 72.2838 11.1325 72.4267 11.4824C72.5917 11.887 72.8061 12.2095 73.07 12.4446C73.3338 12.6797 73.6362 12.8601 73.9825 12.9749C74.3289 13.0897 74.7137 13.1608 75.1425 13.1827C75.5713 13.2045 76.0331 13.2045 76.5389 13.1827C76.8303 13.1663 77.0831 13.1663 77.2976 13.1881C77.512 13.21 77.6989 13.2483 77.8528 13.3084C78.0067 13.3685 78.1387 13.456 78.2431 13.5708C78.3476 13.6856 78.4355 13.8278 78.507 14.0027C78.5675 14.1558 78.6005 14.3089 78.6005 14.4619C78.6005 14.615 78.5675 14.7572 78.496 14.8993C78.43 15.036 78.3256 15.1672 78.1881 15.2875C78.0507 15.4077 77.8748 15.5061 77.6659 15.5936C77.4845 15.6702 77.2921 15.7194 77.0941 15.7412C76.8962 15.7631 76.7038 15.7467 76.5169 15.6866C76.33 15.6264 76.1541 15.5116 75.9891 15.3476C75.8242 15.1836 75.6813 14.954 75.5658 14.6642L73.6197 15.4515C73.8231 15.949 74.076 16.3426 74.3839 16.6324C74.6917 16.9221 75.0271 17.1299 75.3899 17.2556C75.7527 17.3813 76.1376 17.436 76.5334 17.4196C76.9292 17.4032 77.325 17.3376 77.7099 17.2283L78.2101 18.4583L79.2822 18.0264L78.7764 16.7909C79.1667 16.5886 79.4966 16.359 79.7769 16.0966C80.0353 15.856 80.2332 15.5936 80.3817 15.3148C80.3927 15.2929 80.4037 15.2711 80.4146 15.2492C80.5631 14.943 80.64 14.6205 80.651 14.2761C80.662 13.9371 80.5906 13.5817 80.4421 13.2155Z" fill="white"/>
<defs>
<filter id="filter0_d" x="18.969" y="13.2434" width="87.2654" height="77.5943" filterUnits="userSpaceOnUse" color-interpolation-filters="sRGB">
<feFlood flood-opacity="0" result="BackgroundImageFix"/>
<feColorMatrix in="SourceAlpha" type="matrix" values="0 0 0 0 0 0 0 0 0 0 0 0 0 0 0 0 0 0 127 0"/>
<feOffset dy="1"/>
<feGaussianBlur stdDeviation="2"/>
<feColorMatrix type="matrix" values="0 0 0 0 0.332674 0 0 0 0 0.523756 0 0 0 0 0.558333 0 0 0 0.28 0"/>
<feBlend mode="normal" in2="BackgroundImageFix" result="effect1_dropShadow"/>
<feBlend mode="normal" in="SourceGraphic" in2="effect1_dropShadow" result="shape"/>
</filter>
</defs>
</svg>
