<svg width="96" height="108" viewBox="0 0 96 108" fill="none" xmlns="http://www.w3.org/2000/svg">
<g clip-path="url(#clip0)">
<path d="M83.5891 86.7358C81.6936 88.7303 79.8999 90.0193 78.4859 91.037C61.8335 102.991 42.1294 99.5071 37.9417 98.6557C31.7568 97.4006 19.8041 94.9718 11.1609 84.8023C-1.91418 69.419 0.120318 45.1857 10.2623 29.1885C12.1171 26.2611 21.9166 10.023 41.8344 7.41784C53.8888 5.8405 67.937 9.02231 78.1129 17.5501C99.4717 35.4503 97.9493 71.6137 83.5891 86.7358Z" fill="#305263"/>
<path d="M74.8857 78.2075C73.448 79.7378 72.0874 80.7268 71.0149 81.5076C58.384 90.6792 43.4383 88.0063 40.2619 87.3531C35.5707 86.3901 26.5045 84.5266 19.9486 76.724C10.0311 64.9212 11.5743 46.3282 19.267 34.0543C20.6739 31.8083 28.1068 19.3496 43.2145 17.3508C52.3579 16.1406 63.0135 18.5818 70.732 25.1248C86.9328 38.8587 85.7779 66.6051 74.8857 78.2075Z" fill="url(#paint0_linear)"/>
<path d="M29.0502 95.2359L30.4691 98.2764C24.9385 98.6972 19.5156 97.2782 14.9944 94.1844L14.9923 94.1829C9.96137 90.7785 6.65385 85.7073 5.6173 79.8948L5.61655 79.8906C5.53844 79.4729 5.13975 79.1379 4.66778 79.2225L2.77341 79.5315L2.77339 79.5314L2.76162 79.5336C2.34153 79.6125 2.00747 80.0157 2.09436 80.4891C3.29654 87.2731 7.15799 93.1885 12.9662 97.1605L12.9665 97.1606C18.2713 100.784 24.6397 102.407 31.105 101.834L30.8019 105.919L30.8018 105.919L30.8015 105.925C30.7545 106.666 31.6533 107.117 32.209 106.569L32.211 106.567L39.0965 99.696C39.0972 99.6953 39.098 99.6946 39.0987 99.6938C39.5074 99.291 39.3724 98.6076 38.869 98.3677L30.1541 94.1403L30.1542 94.1402L30.1446 94.1359C29.4854 93.833 28.6907 94.496 29.0502 95.2359Z" fill="#32DAF5" stroke="#32DAF5"/>
<path d="M81.9 11.7373L81.8999 11.7372C76.1209 7.67015 69.125 5.79687 61.9934 6.34917L62.3963 1.77693L62.3964 1.77572C62.4609 1.0228 61.5318 0.519169 60.9532 1.09492L53.2593 8.57808L53.2593 8.57808L53.2579 8.57944C52.8386 8.99046 52.9381 9.68638 53.4705 9.95193C53.4707 9.95201 53.4709 9.9521 53.471 9.95218L63.0352 14.7388L63.0351 14.7389L63.0444 14.7433C63.753 15.08 64.5144 14.3683 64.2007 13.6292L64.2008 13.6292L64.1966 13.6198L62.6447 10.1616C68.7734 9.76295 74.7555 11.4043 79.7096 14.8821L79.7096 14.8821C85.1832 18.7234 88.7588 24.3756 89.822 30.7963C89.8958 31.261 90.3212 31.5697 90.7844 31.4984C90.7851 31.4983 90.7858 31.4982 90.7865 31.4981L92.8966 31.1828L92.9 31.1823C93.3478 31.1123 93.6921 30.6958 93.6168 30.2117L93.6159 30.2065C92.3718 22.7323 88.2215 16.1891 81.9 11.7373Z" fill="#7F86FF" stroke="#7F86FF"/>
<path d="M28.5047 18.9661C13.7882 18.9661 1.85596 30.9322 1.85596 45.6903C1.85596 60.4485 13.7882 72.4146 28.5047 72.4146C43.2212 72.4146 55.1534 60.4485 55.1534 45.6903C55.1534 30.9322 43.2212 18.9661 28.5047 18.9661ZM28.5047 67.2293C16.6608 67.2293 7.02661 57.6121 7.02661 45.6903C7.02661 33.8129 16.6166 24.1514 28.5047 24.1514C40.3486 24.1514 49.9828 33.7686 49.9828 45.6903C49.9828 57.6121 40.3486 67.2293 28.5047 67.2293Z" fill="#085261"/>
<path d="M29 69.1748C41.7025 69.1748 52 58.8531 52 46.1205C52 33.388 41.7025 23.0662 29 23.0662C16.2975 23.0662 6 33.388 6 46.1205C6 58.8531 16.2975 69.1748 29 69.1748Z" fill="#95E6F3"/>
<path d="M26.6487 17.5035C11.9323 17.5035 0 29.4696 0 44.2278C0 58.986 11.9323 70.9521 26.6487 70.9521C41.3652 70.9521 53.2975 58.986 53.2975 44.2278C53.2975 29.4696 41.3652 17.5035 26.6487 17.5035ZM26.6487 65.7668C14.8049 65.7668 5.17065 56.1496 5.17065 44.2278C5.17065 32.3504 14.7607 22.6888 26.6487 22.6888C38.4926 22.6888 48.1268 32.306 48.1268 44.2278C48.1268 56.1496 38.4926 65.7668 26.6487 65.7668Z" fill="#25B4CB"/>
<path d="M27.2232 31.5081L26.6045 30.7104V32.04L27.2232 31.5081Z" fill="#F8931F"/>
<path d="M27.4445 28.9822L20.5503 44.0507L27.4445 47.1973V28.9822Z" fill="white"/>
<path d="M27.4443 28.9822L34.2943 44.0507L27.4443 47.1973V28.9822Z" fill="#085261"/>
<path d="M27.4445 61.0689L20.5503 46.0005L27.4445 49.6346V61.0689Z" fill="white"/>
<path d="M27.4443 61.0689L34.2943 46.0005L27.4443 49.6346V61.0689Z" fill="#085261"/>
<path d="M68.3486 41.6821C53.0785 41.6821 40.6973 54.1011 40.6973 69.4178C40.6973 84.7346 53.0785 97.1536 68.3486 97.1536C83.6188 97.1536 96 84.7346 96 69.4178C96 54.1011 83.6188 41.6821 68.3486 41.6821ZM68.3486 91.772C56.0591 91.772 46.0625 81.7908 46.0625 69.4178C46.0625 57.0908 56.0133 47.0636 68.3486 47.0636C80.6381 47.0636 90.6348 57.0448 90.6348 69.4178C90.6348 81.7908 80.6381 91.772 68.3486 91.772Z" fill="#085261"/>
<path d="M68.7615 94.1637C82.1335 94.1637 92.9736 83.2905 92.9736 69.8777C92.9736 56.4649 82.1335 45.5917 68.7615 45.5917C55.3895 45.5917 44.5493 56.4649 44.5493 69.8777C44.5493 83.2905 55.3895 94.1637 68.7615 94.1637Z" fill="#16B1CC"/>
<path d="M66.4229 40.1642C51.1527 40.1642 38.7715 52.5832 38.7715 67.8999C38.7715 83.2167 51.1527 95.6357 66.4229 95.6357C81.693 95.6357 94.0742 83.2167 94.0742 67.8999C94.0742 52.5832 81.693 40.1642 66.4229 40.1642ZM66.4229 90.2541C54.1334 90.2541 44.1367 80.2729 44.1367 67.8999C44.1367 55.5729 54.0875 45.5457 66.4229 45.5457C78.7123 45.5457 88.709 55.5269 88.709 67.8999C88.709 80.2729 78.7123 90.2541 66.4229 90.2541Z" fill="#188EA4"/>
<path d="M76.6487 71.0739C75.8692 70.154 74.7228 69.556 73.072 69.28V69.1421C74.3559 68.9121 75.3648 68.3601 76.0526 67.4402C76.7405 66.5663 77.1073 65.4164 77.1073 64.0825C77.1073 62.1046 76.4195 60.6327 74.9979 59.7128C74.1267 59.1609 72.9344 58.7469 71.467 58.5169V54.2393H68.4863V58.3329C68.3488 58.3329 68.257 58.3329 68.1195 58.3329H67.7068H66.9731V54.2393H63.9924V58.3329H61.241H57.8477V61.5067H61.241V78.2493H57.8477V81.4231H61.241H63.9924V85.5627H66.9731V81.4231H68.4405V85.5627H71.4211V81.3311C73.1178 81.1011 74.5394 80.5491 75.5941 79.6752C77.0156 78.5253 77.7493 76.8694 77.7493 74.7996C77.7952 73.1897 77.3825 71.9938 76.6487 71.0739ZM67.7526 61.4607H68.3488C70.0454 61.4607 71.2836 61.6907 72.0631 62.1966C72.8427 62.7026 73.2554 63.4845 73.2554 64.5424C73.2554 65.7383 72.8885 66.6123 72.1548 67.0722C71.4211 67.5782 70.2747 67.8082 68.7156 67.8082H65.093V61.4607H67.0189H67.7526ZM72.6134 77.2834C71.8338 77.8813 70.6416 78.2033 69.0366 78.2033H65.0471V70.8899H68.8532C70.504 70.8899 71.7421 71.1659 72.5675 71.7638C73.3929 72.3618 73.8057 73.2357 73.8057 74.4316C73.8057 75.7195 73.4388 76.6854 72.6134 77.2834Z" fill="#085261"/>
<path d="M75.9608 70.2456C75.1812 69.3257 74.0348 68.7278 72.384 68.4518V68.3138C73.6679 68.0838 74.6768 67.5319 75.3646 66.6119C76.0525 65.738 76.4193 64.5881 76.4193 63.2542C76.4193 61.2764 75.7315 59.8045 74.3099 58.8846C73.4387 58.3326 72.2464 57.9186 70.779 57.6887V53.411H67.7983V57.5047C67.7066 57.5047 67.5691 57.5047 67.4315 57.5047H67.0188H66.2851V53.411H63.3044V57.5047H60.553H57.1597V60.6784H60.553V77.4211H57.1597V80.5948H60.553H63.3044V84.7345H66.2851V80.5948H67.7525V84.7345H70.7331V80.5028C72.4298 80.2728 73.8514 79.7209 74.9061 78.8469C76.3276 77.697 77.0613 76.0412 77.0613 73.9713C77.1072 72.3615 76.7403 71.1196 75.9608 70.2456ZM67.0646 60.5864H67.6608C69.3575 60.5864 70.5956 60.8164 71.3751 61.3224C72.1547 61.8283 72.5674 62.6103 72.5674 63.6682C72.5674 64.8641 72.2005 65.738 71.4668 66.198C70.7331 66.7039 69.5867 66.9339 68.0276 66.9339H64.405V60.5864H66.3309H67.0646ZM71.9713 76.4091C71.1917 77.0071 69.9994 77.3291 68.3945 77.3291H64.405V70.0157H68.211C69.8619 70.0157 71.1 70.2916 71.9254 70.8896C72.7508 71.4875 73.1635 72.3615 73.1635 73.5574C73.1635 74.8913 72.7508 75.8112 71.9713 76.4091Z" fill="white"/>
<path d="M71.4208 54.2392L70.7788 53.3653V54.7912L71.4208 54.2392Z" fill="#085261"/>
<path d="M67.0189 54.2392L66.3311 53.3653V54.7912L67.0189 54.2392Z" fill="#085261"/>
<path d="M57.2515 60.5864L57.8935 61.4604L58.8106 60.5864H57.2515Z" fill="#085261"/>
<path d="M57.2515 80.503L57.8935 81.3769L59.0857 80.503H57.2515Z" fill="#085261"/>
<path d="M63.396 84.6427L64.038 85.5166L64.7717 84.6427H63.396Z" fill="#085261"/>
<path d="M67.7983 84.6427L68.4862 85.5166L69.174 84.6427H67.7983Z" fill="#085261"/>
</g>
<defs>
<linearGradient id="paint0_linear" x1="92.1015" y1="109.223" x2="28.6215" y2="31.3128" gradientUnits="userSpaceOnUse">
<stop stop-color="#1A83A6"/>
<stop offset="1" stop-color="#1B2E37"/>
</linearGradient>
<clipPath id="clip0">
<rect width="96" height="108" rx="3" fill="white"/>
</clipPath>
</defs>
</svg>
