<svg width="215" height="283" viewBox="0 0 215 283" fill="none" xmlns="http://www.w3.org/2000/svg">
<g filter="url(#filter0_d)">
<path d="M85.5627 184.162L79.0527 258.902H106.829L100.319 184.162H85.5627Z" fill="url(#paint0_linear)"/>
<path d="M43.6933 118.257L48.3188 120.127L32.194 159.885L27.5685 158.015L43.6933 118.257Z" fill="#42E8E0"/>
<path d="M132.435 115.273C123.806 115.273 116.811 108.289 116.811 99.6749C116.811 91.0603 123.806 84.0769 132.435 84.0769C141.064 84.0769 148.059 91.0603 148.059 99.6749C148.059 108.289 141.064 115.273 132.435 115.273Z" fill="url(#paint1_linear)"/>
<path d="M51.7121 122.853C51.7121 153.182 69.7232 177.879 92.0743 177.879C114.425 177.879 132.437 153.182 132.437 122.853C132.437 92.5237 114.425 83.4249 92.0743 83.4249C69.7232 83.4249 51.7121 92.5237 51.7121 122.853Z" fill="url(#paint2_linear)"/>
<path d="M72.542 110.939C83.392 117.222 100.752 117.222 111.602 110.939C122.452 104.657 122.452 94.6913 111.602 88.4088C100.752 82.1263 83.392 82.1263 72.542 88.4088C61.6919 94.6913 61.6919 104.873 72.542 110.939Z" fill="url(#paint3_linear)"/>
<path d="M111.603 92.7416C100.753 86.4591 83.3928 86.4591 72.5427 92.7416C67.9857 95.3412 65.3817 98.5908 64.7307 101.84C63.6457 97.0743 66.2497 92.0917 72.5427 88.4088C83.3928 82.1263 100.753 82.1263 111.603 88.4088C117.896 92.0917 120.5 97.0743 119.415 101.84C118.547 98.5908 115.943 95.3412 111.603 92.7416Z" fill="#1E6672"/>
<path d="M46.0678 134.768C37.4389 134.768 30.4437 127.785 30.4437 119.17C30.4437 110.556 37.4389 103.572 46.0678 103.572C54.6968 103.572 61.6919 110.556 61.6919 119.17C61.6919 127.785 54.6968 134.768 46.0678 134.768Z" fill="url(#paint4_linear)"/>
<path d="M45.6345 134.985C37.0055 134.985 30.0104 128.002 30.0104 119.387C30.0104 110.773 37.0055 103.789 45.6345 103.789C54.2634 103.789 61.2585 110.773 61.2585 119.387C61.2585 128.002 54.2634 134.985 45.6345 134.985Z" fill="url(#paint5_linear)"/>
<path d="M21.1155 170.947C21.9833 178.313 28.4923 192.395 34.5673 191.745C40.4254 191.095 43.4629 175.713 42.595 168.348C41.7272 160.982 36.0861 155.566 30.228 156.216C24.3699 156.866 20.2476 163.582 21.1155 170.947Z" fill="url(#paint6_radial)"/>
<path d="M21.1155 170.947C21.9833 178.313 28.4923 192.395 34.5673 191.745C40.4254 191.095 43.4629 175.713 42.595 168.348C41.7272 160.982 36.0861 155.566 30.228 156.216C24.3699 156.866 20.2476 163.582 21.1155 170.947Z" fill="url(#paint7_linear)"/>
<path d="M80.3556 184.163H104.877L102.924 175.931H82.5256L80.3556 184.163Z" fill="#23ABD8"/>
<path opacity="0.47" d="M82.5239 175.931H88.5989L87.514 184.163H80.3542L82.5239 175.931Z" fill="#96CCCA"/>
<path opacity="0.47" d="M102.924 175.931H96.849L97.7168 184.163H104.877L102.924 175.931Z" fill="#96CCCA"/>
<path d="M171.669 128.612C173.107 128.835 174.149 127.821 174.439 126.591C174.589 125.634 174.118 124.874 173.506 124.387L145.067 104.576C143.91 103.808 142.397 104.063 141.834 105.152C141.065 106.307 141.321 107.818 142.412 108.379L170.785 127.984C170.917 128.397 171.396 128.471 171.669 128.612Z" fill="#74FEF7"/>
<path d="M170.12 137.295C175.764 141.407 189.981 145.968 193.265 141.281C196.549 136.595 187.982 124.773 182.131 120.726C176.487 116.614 169.071 116.933 165.721 121.413C162.437 126.1 164.269 133.248 170.12 137.295Z" fill="url(#paint8_radial)"/>
<g filter="url(#filter1_d)">
<path d="M170.12 137.295C175.764 141.407 189.981 145.968 193.265 141.281C196.549 136.595 187.982 124.773 182.131 120.726C176.487 116.614 169.071 116.933 165.721 121.413C162.437 126.1 164.269 133.248 170.12 137.295Z" fill="url(#paint9_linear)"/>
</g>
<path d="M103.142 37.9307C103.142 44.8631 108.132 53.5286 114.207 56.9948C120.282 60.461 125.272 57.6448 125.272 50.7123C125.272 43.7799 120.282 35.1144 114.207 31.6482C108.132 27.9653 103.142 30.7816 103.142 37.9307Z" fill="#BCBEFF"/>
<path d="M96.63 47.4633C97.064 49.8464 96.63 53.3126 91.639 55.6956C81.8739 60.6783 74.0619 53.0959 69.0708 56.5622C65.3818 59.1618 67.1178 67.1774 76.2319 70.2104C85.7799 73.4599 97.715 71.2936 98.583 61.7615C98.583 58.0786 98.366 54.3958 97.715 50.9296C97.498 49.8464 97.064 48.5465 96.63 47.4633Z" fill="#19212C"/>
<path d="M92.2886 18C109.649 18 124.839 29.2652 129.83 45.7297C128.311 46.163 127.877 47.4628 127.877 48.9793C128.311 52.4455 129.179 55.6951 129.179 59.1613C129.179 60.4611 130.047 61.5443 131.132 61.7609C128.528 83.2081 108.998 98.3728 87.5146 95.7731C66.0315 93.1735 50.8414 73.676 53.4454 52.2289C55.8324 32.7314 72.5415 18 92.2886 18Z" fill="url(#paint10_linear)"/>
<path d="M92.2896 19.0853C109.433 19.0853 124.406 30.1339 129.614 46.5984C128.312 46.815 127.444 48.3315 127.661 49.6313C127.661 49.6313 127.661 49.6313 127.661 49.848C128.529 53.5308 129.831 57.8636 128.746 61.7631C128.312 63.4962 129.397 64.796 130.916 65.0126C127.227 86.2432 107.046 100.541 85.7795 96.8585C64.5134 93.1756 50.1913 73.0282 53.8804 51.7977C56.9184 32.7335 73.1935 19.0853 92.2896 19.0853Z" fill="url(#paint11_linear)"/>
<path d="M81.0067 61.3278C81.0067 61.1112 81.0067 60.8946 81.0067 60.6779L81.2237 60.028C81.2237 59.5947 81.4407 59.1615 81.6577 58.9448C82.0917 62.411 84.0447 66.0939 87.5167 69.1268C96.6308 76.9258 112.472 78.6589 122.888 73.243C126.794 71.2932 129.398 68.4769 130.7 65.444C130.483 66.7438 130.266 68.0436 129.832 69.3435C129.398 70.6433 128.747 71.9431 128.096 73.0263C127.879 73.2429 127.662 73.6762 127.445 73.8929C125.926 75.4093 124.19 76.7092 122.237 77.5757C111.604 82.9917 95.7628 81.0419 86.8657 73.4596C82.7427 69.5601 80.7897 65.2273 81.0067 61.3278Z" fill="#1E6672"/>
<path d="M84.2604 54.829C92.0724 49.1964 104.658 61.3282 120.283 53.3126C127.01 49.8464 128.312 45.297 128.312 41.6141C128.963 43.3472 129.614 45.0803 130.048 46.8134C130.916 52.0127 131.35 57.4287 131.35 62.8447C130.265 78.0093 110.951 81.6922 95.5444 76.4929C81.0053 71.7268 78.1843 59.1618 84.2604 54.829Z" fill="url(#paint12_linear)"/>
<path d="M125.272 64.1461C125.055 64.1461 124.838 63.9292 124.838 63.7122C124.838 63.2783 125.055 62.6274 125.706 62.4104H125.923C126.14 62.4104 126.357 62.6274 126.357 62.8443C126.357 63.2783 126.14 63.9292 125.489 64.1461H125.272Z" fill="url(#paint13_radial)"/>
<path d="M123.32 67.61C124.405 68.0432 126.141 66.7434 127.443 64.3604C128.745 61.9774 128.962 59.5943 127.877 58.9444C126.792 58.5112 125.056 59.811 123.754 62.194C122.453 64.577 122.236 66.96 123.32 67.61Z" fill="#00FF3C"/>
<path d="M125.272 64.1461C125.055 64.1461 124.838 63.9292 124.838 63.7122C124.838 63.2783 125.055 62.6274 125.706 62.4104H125.923C126.14 62.4104 126.357 62.6274 126.357 62.8443C126.357 63.2783 126.14 63.9292 125.489 64.1461H125.272Z" fill="url(#paint14_radial)"/>
<path d="M125.272 61.5469C125.055 61.5469 124.838 61.3299 124.838 61.113C124.838 60.679 125.055 60.0282 125.706 59.8112H125.923C126.14 59.8112 126.357 60.0282 126.357 60.2451C126.357 60.679 126.14 61.3299 125.489 61.5469C125.489 61.3299 125.272 61.3299 125.272 61.5469Z" fill="url(#paint15_radial)"/>
<path d="M123.332 64.8858C122.28 64.313 122.495 61.8888 123.811 59.4713C125.128 57.0538 127.047 55.5584 128.099 56.1312C129.151 56.704 128.937 59.1281 127.621 61.5457C126.304 63.9632 124.384 65.4586 123.332 64.8858Z" fill="#00FF3C"/>
<path d="M125.272 61.5469C125.055 61.5469 124.838 61.3299 124.838 61.113C124.838 60.679 125.055 60.0282 125.706 59.8112H125.923C126.14 59.8112 126.357 60.0282 126.357 60.2451C126.357 60.679 126.14 61.3299 125.489 61.5469C125.489 61.3299 125.272 61.3299 125.272 61.5469Z" fill="url(#paint16_radial)"/>
<path d="M125.272 58.5137C125.055 58.5137 124.838 58.2967 124.838 58.0797C124.838 57.6458 125.055 56.9949 125.706 56.7779H125.923C126.14 56.7779 126.357 56.9949 126.357 57.2119C126.357 57.6458 126.14 58.2967 125.489 58.5137C125.489 58.5137 125.489 58.5137 125.272 58.5137Z" fill="url(#paint17_radial)"/>
<path d="M123.32 61.9777C124.405 62.411 126.141 61.1111 127.443 58.7281C128.745 56.3451 128.962 53.9621 127.877 53.3122C126.792 52.8789 125.056 54.1787 123.754 56.5617C122.453 59.1614 122.236 61.5444 123.32 61.9777Z" fill="#00FF3C"/>
<path d="M125.272 58.5137C125.055 58.5137 124.838 58.2967 124.838 58.0797C124.838 57.6458 125.055 56.9949 125.706 56.7779H125.923C126.14 56.7779 126.357 56.9949 126.357 57.2119C126.357 57.6458 126.14 58.2967 125.489 58.5137C125.489 58.5137 125.489 58.5137 125.272 58.5137Z" fill="url(#paint18_radial)"/>
<path d="M123.32 67.61C124.405 68.0432 126.141 66.7434 127.443 64.3604C128.745 61.9774 128.962 59.5943 127.877 58.9444C126.792 58.5112 125.056 59.811 123.754 62.194C122.453 64.577 122.236 66.96 123.32 67.61Z" fill="#42E8E0"/>
<path d="M123.332 64.8858C122.28 64.313 122.495 61.8888 123.811 59.4713C125.128 57.0538 127.047 55.5584 128.099 56.1312C129.151 56.704 128.937 59.1281 127.621 61.5457C126.304 63.9632 124.384 65.4586 123.332 64.8858Z" fill="#42E8E0"/>
<path d="M123.32 61.9777C124.405 62.411 126.141 61.1111 127.443 58.7281C128.745 56.3451 128.962 53.9621 127.877 53.3122C126.792 52.8789 125.056 54.1787 123.754 56.5617C122.453 59.1614 122.236 61.5444 123.32 61.9777Z" fill="#42E8E0"/>
<path d="M112.035 70.6456C111.818 70.6456 111.601 70.4287 111.601 70.2117C111.601 69.7778 111.818 69.1269 112.469 68.9099H112.686C112.903 68.9099 113.12 69.1269 113.12 69.3438C113.12 69.7778 112.903 70.4287 112.252 70.6456C112.252 70.4287 112.035 70.6456 112.035 70.6456Z" fill="url(#paint19_radial)"/>
<path d="M109.867 73.8934C110.952 74.3267 112.688 73.0268 113.989 70.6438C115.291 68.2608 115.508 65.8778 114.423 65.2278C113.339 64.7946 111.603 66.0944 110.301 68.4774C108.999 70.8604 108.999 73.4601 109.867 73.8934Z" fill="#00FF3C"/>
<path d="M112.035 70.6456C111.818 70.6456 111.601 70.4287 111.601 70.2117C111.601 69.7778 111.818 69.1269 112.469 68.9099H112.686C112.903 68.9099 113.12 69.1269 113.12 69.3438C113.12 69.7778 112.903 70.4287 112.252 70.6456C112.252 70.4287 112.035 70.6456 112.035 70.6456Z" fill="url(#paint20_radial)"/>
<path d="M112.035 67.8294C111.818 67.8294 111.601 67.6125 111.601 67.3955C111.601 66.9616 111.818 66.3107 112.469 66.0937H112.686C112.903 66.0937 113.12 66.3107 113.12 66.5276C113.12 66.9616 112.903 67.6125 112.252 67.8294H112.035Z" fill="url(#paint21_radial)"/>
<path d="M109.841 71.3058C108.789 70.733 109.004 68.3089 110.32 65.8913C111.637 63.4738 113.556 61.9784 114.608 62.5512C115.66 63.124 115.446 65.5482 114.13 67.9657C112.813 70.3832 110.893 71.8786 109.841 71.3058Z" fill="#00FF3C"/>
<path d="M112.035 67.8294C111.818 67.8294 111.601 67.6125 111.601 67.3955C111.601 66.9616 111.818 66.3107 112.469 66.0937H112.686C112.903 66.0937 113.12 66.3107 113.12 66.5276C113.12 66.9616 112.903 67.6125 112.252 67.8294H112.035Z" fill="url(#paint22_radial)"/>
<path d="M112.035 65.0132C111.818 65.0132 111.601 64.7962 111.601 64.5792C111.601 64.1453 111.818 63.4944 112.469 63.2774H112.686C112.903 63.2774 113.12 63.4944 113.12 63.7114C113.12 64.1453 112.903 64.7962 112.252 65.0132H112.035Z" fill="url(#paint23_radial)"/>
<path d="M109.867 68.4767C110.952 68.91 112.688 67.6101 113.989 65.2271C115.291 62.8441 115.508 60.4611 114.423 59.8112C113.339 59.1612 111.603 60.6777 110.301 63.0607C109.216 65.4438 108.999 67.8268 109.867 68.4767Z" fill="#00FF3C"/>
<path d="M112.035 65.0132C111.818 65.0132 111.601 64.7962 111.601 64.5792C111.601 64.1453 111.818 63.4944 112.469 63.2774H112.686C112.903 63.2774 113.12 63.4944 113.12 63.7114C113.12 64.1453 112.903 64.7962 112.252 65.0132H112.035Z" fill="url(#paint24_radial)"/>
<path d="M109.867 73.8934C110.952 74.3267 112.688 73.0268 113.989 70.6438C115.291 68.2608 115.508 65.8778 114.423 65.2278C113.339 64.7946 111.603 66.0944 110.301 68.4774C108.999 70.8604 108.999 73.4601 109.867 73.8934Z" fill="#42E8E0"/>
<path d="M109.841 71.3058C108.789 70.733 109.004 68.3089 110.32 65.8913C111.637 63.4738 113.556 61.9784 114.608 62.5512C115.66 63.124 115.446 65.5482 114.13 67.9657C112.813 70.3832 110.893 71.8786 109.841 71.3058Z" fill="#42E8E0"/>
<path d="M109.867 68.4767C110.952 68.91 112.688 67.6101 113.989 65.2271C115.291 62.8441 115.508 60.4611 114.423 59.8112C113.339 59.1612 111.603 60.6777 110.301 63.0607C109.216 65.4438 108.999 67.8268 109.867 68.4767Z" fill="#42E8E0"/>
</g>
<defs>
<filter id="filter0_d" x="0.323029" y="0.504101" width="214.347" height="282.256" filterUnits="userSpaceOnUse" color-interpolation-filters="sRGB">
<feFlood flood-opacity="0" result="BackgroundImageFix"/>
<feColorMatrix in="SourceAlpha" type="matrix" values="0 0 0 0 0 0 0 0 0 0 0 0 0 0 0 0 0 0 127 0"/>
<feOffset dy="3.18107"/>
<feGaussianBlur stdDeviation="10.3385"/>
<feColorMatrix type="matrix" values="0 0 0 0 0.124514 0 0 0 0 0.679167 0 0 0 0 0.652436 0 0 0 0.16 0"/>
<feBlend mode="normal" in2="BackgroundImageFix" result="effect1_dropShadow"/>
<feBlend mode="normal" in="SourceGraphic" in2="effect1_dropShadow" result="shape"/>
</filter>
<filter id="filter1_d" x="160.92" y="114.655" width="36.2532" height="31.7901" filterUnits="userSpaceOnUse" color-interpolation-filters="sRGB">
<feFlood flood-opacity="0" result="BackgroundImageFix"/>
<feColorMatrix in="SourceAlpha" type="matrix" values="0 0 0 0 0 0 0 0 0 0 0 0 0 0 0 0 0 0 127 0"/>
<feOffset/>
<feGaussianBlur stdDeviation="1.59054"/>
<feColorMatrix type="matrix" values="0 0 0 0 0 0 0 0 0 0 0 0 0 0 0 0 0 0 0.1 0"/>
<feBlend mode="normal" in2="BackgroundImageFix" result="effect1_dropShadow"/>
<feBlend mode="normal" in="SourceGraphic" in2="effect1_dropShadow" result="shape"/>
</filter>
<linearGradient id="paint0_linear" x1="92.9607" y1="184.192" x2="92.9607" y2="258.864" gradientUnits="userSpaceOnUse">
<stop stop-color="white"/>
<stop offset="1" stop-color="#C9C9C9" stop-opacity="0"/>
</linearGradient>
<linearGradient id="paint1_linear" x1="147.919" y1="96.711" x2="117.195" y2="102.803" gradientUnits="userSpaceOnUse">
<stop stop-color="#F7F7F7"/>
<stop offset="0.55" stop-color="#F2F2F9"/>
<stop offset="1" stop-color="#E9E9FD"/>
</linearGradient>
<linearGradient id="paint2_linear" x1="132.501" y1="130.619" x2="51.6298" y2="130.619" gradientUnits="userSpaceOnUse">
<stop stop-color="#F7F7F7"/>
<stop offset="0.55" stop-color="#F2F2F9"/>
<stop offset="1" stop-color="#E9E9FD"/>
</linearGradient>
<linearGradient id="paint3_linear" x1="119.64" y1="99.7477" x2="64.4554" y2="99.7477" gradientUnits="userSpaceOnUse">
<stop stop-color="#42E8E0"/>
<stop offset="0.18" stop-color="#41E3DD"/>
<stop offset="0.38" stop-color="#3CD5D3"/>
<stop offset="0.61" stop-color="#35BDC3"/>
<stop offset="0.84" stop-color="#2C9CAD"/>
<stop offset="1" stop-color="#24819B"/>
</linearGradient>
<linearGradient id="paint4_linear" x1="61.4665" y1="116.199" x2="30.7427" y2="122.291" gradientUnits="userSpaceOnUse">
<stop stop-color="#F7F7F7"/>
<stop offset="0.55" stop-color="#F2F2F9"/>
<stop offset="1" stop-color="#E9E9FD"/>
</linearGradient>
<linearGradient id="paint5_linear" x1="58.295" y1="128.521" x2="32.9827" y2="110.1" gradientUnits="userSpaceOnUse">
<stop stop-color="#F7F7F7"/>
<stop offset="0.55" stop-color="#F2F2F9"/>
<stop offset="1" stop-color="#E9E9FD"/>
</linearGradient>
<radialGradient id="paint6_radial" cx="0" cy="0" r="1" gradientUnits="userSpaceOnUse" gradientTransform="translate(31.7605 175.07) rotate(173.118) scale(10.8484 17.854)">
<stop stop-color="#2BB675"/>
<stop offset="1" stop-color="#14444F"/>
</radialGradient>
<linearGradient id="paint7_linear" x1="44.3282" y1="172.607" x2="22.8244" y2="175.252" gradientUnits="userSpaceOnUse">
<stop stop-color="#F7F7F7"/>
<stop offset="0.55" stop-color="#F2F2F9"/>
<stop offset="1" stop-color="#E9E9FD"/>
</linearGradient>
<radialGradient id="paint8_radial" cx="0" cy="0" r="1" gradientUnits="userSpaceOnUse" gradientTransform="translate(150.196 107.071) rotate(125.702) scale(26.4234 43.4666)">
<stop stop-color="#2BB675"/>
<stop offset="1" stop-color="#23ABD8"/>
</radialGradient>
<linearGradient id="paint9_linear" x1="167.686" y1="129.515" x2="190.929" y2="126.587" gradientUnits="userSpaceOnUse">
<stop stop-color="white"/>
<stop offset="0.55" stop-color="#F2F2F9"/>
<stop offset="1" stop-color="#E9E9FD"/>
</linearGradient>
<linearGradient id="paint10_linear" x1="131.386" y1="57.0302" x2="53.218" y2="57.0302" gradientUnits="userSpaceOnUse">
<stop stop-color="#F7F7F7"/>
<stop offset="0.55" stop-color="#F2F2F9"/>
<stop offset="1" stop-color="#E9E9FD"/>
</linearGradient>
<linearGradient id="paint11_linear" x1="97.3557" y1="96.7129" x2="86.5094" y2="19.4222" gradientUnits="userSpaceOnUse">
<stop stop-color="#F7F7F7"/>
<stop offset="0.55" stop-color="#F2F2F9"/>
<stop offset="1" stop-color="#E9E9FD"/>
</linearGradient>
<linearGradient id="paint12_linear" x1="131.274" y1="60.2359" x2="81.2618" y2="60.2359" gradientUnits="userSpaceOnUse">
<stop stop-color="#00ACBF"/>
<stop offset="0.29" stop-color="#04A7BB"/>
<stop offset="0.63" stop-color="#1099AF"/>
<stop offset="1" stop-color="#24819B"/>
</linearGradient>
<radialGradient id="paint13_radial" cx="0" cy="0" r="1" gradientUnits="userSpaceOnUse" gradientTransform="translate(125.624 63.2277) scale(0.847251)">
<stop stop-color="white"/>
<stop offset="1" stop-color="#95FDA8"/>
</radialGradient>
<radialGradient id="paint14_radial" cx="0" cy="0" r="1" gradientUnits="userSpaceOnUse" gradientTransform="translate(125.624 63.2277) scale(0.847251)">
<stop stop-color="white"/>
<stop offset="1" stop-color="#95FDA8"/>
</radialGradient>
<radialGradient id="paint15_radial" cx="0" cy="0" r="1" gradientUnits="userSpaceOnUse" gradientTransform="translate(125.627 60.4825) rotate(180) scale(0.846601)">
<stop stop-color="white"/>
<stop offset="1" stop-color="#95FDA8"/>
</radialGradient>
<radialGradient id="paint16_radial" cx="0" cy="0" r="1" gradientUnits="userSpaceOnUse" gradientTransform="translate(125.627 60.4825) rotate(180) scale(0.846601)">
<stop stop-color="white"/>
<stop offset="1" stop-color="#95FDA8"/>
</radialGradient>
<radialGradient id="paint17_radial" cx="0" cy="0" r="1" gradientUnits="userSpaceOnUse" gradientTransform="translate(125.638 57.6599) rotate(180) scale(0.848119)">
<stop stop-color="white"/>
<stop offset="1" stop-color="#95FDA8"/>
</radialGradient>
<radialGradient id="paint18_radial" cx="0" cy="0" r="1" gradientUnits="userSpaceOnUse" gradientTransform="translate(125.638 57.6599) rotate(180) scale(0.848119)">
<stop stop-color="white"/>
<stop offset="1" stop-color="#95FDA8"/>
</radialGradient>
<radialGradient id="paint19_radial" cx="0" cy="0" r="1" gradientUnits="userSpaceOnUse" gradientTransform="translate(112.303 69.6098) rotate(180) scale(0.848119)">
<stop stop-color="white"/>
<stop offset="1" stop-color="#95FDA8"/>
</radialGradient>
<radialGradient id="paint20_radial" cx="0" cy="0" r="1" gradientUnits="userSpaceOnUse" gradientTransform="translate(112.303 69.6098) rotate(180) scale(0.848119)">
<stop stop-color="white"/>
<stop offset="1" stop-color="#95FDA8"/>
</radialGradient>
<radialGradient id="paint21_radial" cx="0" cy="0" r="1" gradientUnits="userSpaceOnUse" gradientTransform="translate(112.303 66.8672) rotate(180) scale(0.846601)">
<stop stop-color="white"/>
<stop offset="1" stop-color="#95FDA8"/>
</radialGradient>
<radialGradient id="paint22_radial" cx="0" cy="0" r="1" gradientUnits="userSpaceOnUse" gradientTransform="translate(112.303 66.8672) rotate(180) scale(0.846601)">
<stop stop-color="white"/>
<stop offset="1" stop-color="#95FDA8"/>
</radialGradient>
<radialGradient id="paint23_radial" cx="0" cy="0" r="1" gradientUnits="userSpaceOnUse" gradientTransform="translate(112.313 64.0446) rotate(180) scale(0.848119)">
<stop stop-color="white"/>
<stop offset="1" stop-color="#95FDA8"/>
</radialGradient>
<radialGradient id="paint24_radial" cx="0" cy="0" r="1" gradientUnits="userSpaceOnUse" gradientTransform="translate(112.313 64.0446) rotate(180) scale(0.848119)">
<stop stop-color="white"/>
<stop offset="1" stop-color="#95FDA8"/>
</radialGradient>
</defs>
</svg>
